M48
; DRILL file {KiCad 6.0.6+dfsg-1} date Sun 02 Oct 2022 05:16:25 PM CEST
; FORMAT={-:-/ absolute / metric / decimal}
; #@! TF.CreationDate,2022-10-02T17:16:25+02:00
; #@! TF.GenerationSoftware,Kicad,Pcbnew,6.0.6+dfsg-1
; #@! TF.FileFunction,Plated,1,2,PTH
FMAT,2
METRIC
; #@! TA.AperFunction,Plated,PTH,ViaDrill
T1C0.200
; #@! TA.AperFunction,Plated,PTH,ComponentDrill
T2C0.200
; #@! TA.AperFunction,Plated,PTH,ViaDrill
T3C0.400
; #@! TA.AperFunction,Plated,PTH,ComponentDrill
T4C0.400
; #@! TA.AperFunction,Plated,PTH,ComponentDrill
T5C0.500
; #@! TA.AperFunction,Plated,PTH,ViaDrill
T6C0.600
; #@! TA.AperFunction,Plated,PTH,ComponentDrill
T7C0.600
; #@! TA.AperFunction,Plated,PTH,ViaDrill
T8C0.800
; #@! TA.AperFunction,Plated,PTH,ComponentDrill
T9C0.800
; #@! TA.AperFunction,Plated,PTH,ComponentDrill
T10C1.000
; #@! TA.AperFunction,Plated,PTH,ComponentDrill
T11C1.100
%
G90
G05
T1
X77.47Y-79.375
X77.47Y-80.645
X77.7Y-66.3
X78.4Y-110.5
X78.7Y-93.9
X81.85Y-65.158
X82.29Y-70.968
X82.55Y-65.158
X83.232Y-55.931
X83.8Y-64.9
X84.455Y-66.599
X86.9Y-90.8
X87.8Y-70.75
X87.997Y-75.503
X88.222Y-71.412
X89.0Y-80.1
X89.1Y-89.6
X89.4Y-78.6
X89.587Y-71.412
X89.7Y-63.75
X89.75Y-59.35
X89.8Y-79.4
X89.824Y-89.524
X90.0Y-66.9
X90.25Y-56.7
X90.3Y-63.3
X90.4Y-69.9
X90.4Y-106.7
X90.5Y-79.5
X90.728Y-66.819
X90.95Y-71.8
X91.0Y-72.5
X91.1Y-106.5
X91.4Y-54.8
X91.5Y-69.4
X92.0Y-55.6
X92.15Y-74.55
X92.438Y-83.9
X92.7Y-75.0
X93.0Y-85.5
X93.2Y-75.5
X93.5Y-70.6
X93.85Y-85.35
X93.958Y-69.455
X94.0Y-61.6
X94.0Y-75.5
X94.3Y-71.2
X94.7Y-62.9
X94.7Y-83.7
X95.0Y-72.75
X95.1Y-70.9
X95.25Y-60.15
X95.35Y-73.35
X95.4Y-62.9
X95.534Y-54.534
X95.7Y-71.4
X95.9Y-65.7
X96.2Y-52.8
X96.296Y-59.6
X96.8Y-53.5
X97.8Y-59.3
X97.9Y-56.2
X98.2Y-63.5
X98.4Y-60.3
X98.6Y-71.4
X98.7Y-54.6
X98.7Y-70.2
X98.9Y-59.7
X99.3Y-52.9
X99.584Y-59.5
X99.7Y-82.0
X99.764Y-80.958
X100.042Y-60.39
X100.258Y-57.4
X100.5Y-59.7
X100.5Y-116.3
X100.713Y-65.283
X100.8Y-57.9
X100.9Y-134.9
X101.1Y-99.4
X101.2Y-132.3
X101.2Y-133.7
X101.3Y-60.2
X101.5Y-115.0
X101.529Y-98.104
X101.803Y-63.652
X102.138Y-133.038
X102.2Y-64.9
X102.442Y-131.842
X103.0Y-117.5
X103.0Y-125.5
X103.0Y-127.1
X103.131Y-63.031
X103.2Y-100.5
X103.567Y-83.3
X103.829Y-63.181
X104.6Y-88.1
X104.772Y-82.547
X104.775Y-109.41
X104.926Y-81.874
X105.243Y-108.112
X105.752Y-84.963
X106.6Y-51.9
X106.883Y-81.864
X107.0Y-63.2
X107.011Y-71.722
X107.366Y-85.42
X108.3Y-64.6
X108.462Y-62.222
X108.7Y-69.8
X108.921Y-64.3
X110.4Y-56.252
T2
X105.55Y-66.65
X105.55Y-67.5
X105.55Y-68.35
X106.4Y-66.65
X106.4Y-67.5
X106.4Y-68.35
X107.25Y-66.65
X107.25Y-67.5
X107.25Y-68.35
T3
X77.7Y-157.0
X78.105Y-140.97
X78.74Y-100.076
X78.9Y-77.8
X78.9Y-81.7
X80.2Y-65.7
X80.45Y-68.4
X80.797Y-79.705
X81.28Y-112.395
X81.534Y-155.702
X81.6Y-70.491
X81.792Y-85.344
X81.9Y-115.7
X82.1Y-75.3
X82.702Y-67.539
X82.8Y-156.5
X82.9Y-138.3
X82.931Y-153.289
X83.5Y-77.8
X83.693Y-151.13
X83.82Y-147.32
X84.3Y-71.4
X84.455Y-112.395
X85.09Y-138.43
X85.09Y-147.32
X85.09Y-151.13
X85.3Y-63.3
X86.0Y-77.0
X86.3Y-129.54
X86.665Y-79.705
X86.741Y-156.464
X86.8Y-125.0
X87.9Y-62.0
X88.2Y-88.6
X88.2Y-91.4
X88.2Y-93.6
X88.3Y-82.0
X89.6Y-74.9
X89.6Y-142.4
X89.6Y-144.4
X90.3Y-160.0
X90.4Y-108.2
X90.4Y-110.6
X91.1Y-113.5
X91.1Y-130.1
X91.1Y-137.2
X91.1Y-142.4
X91.1Y-144.4
X92.1Y-63.0
X92.5Y-87.2
X93.4Y-142.4
X93.4Y-144.4
X93.6Y-137.2
X95.2Y-108.2
X95.2Y-125.4
X96.7Y-65.4
X96.992Y-143.453
X97.1Y-109.2
X97.155Y-126.365
X97.3Y-93.0
X97.4Y-105.5
X97.5Y-110.9
X97.917Y-153.543
X98.298Y-150.876
X98.577Y-77.166
X99.06Y-147.955
X99.06Y-156.21
X99.603Y-68.501
X99.9Y-52.2
X100.0Y-85.8
X100.33Y-147.955
X102.0Y-57.9
X102.108Y-149.987
X102.2Y-142.6
X102.2Y-144.6
X102.362Y-152.273
X104.028Y-109.178
X104.1Y-94.7
X104.14Y-126.365
X104.14Y-143.51
X105.005Y-96.059
X106.68Y-159.385
X106.737Y-76.014
X106.773Y-83.872
X107.4Y-94.6
X107.95Y-127.635
X110.414Y-88.722
X110.9Y-122.5
X111.125Y-74.041
X111.125Y-75.946
X111.125Y-77.851
X111.125Y-93.345
X111.125Y-127.635
X111.125Y-153.67
X111.2Y-53.9
X111.76Y-84.455
X111.8Y-145.6
X112.395Y-74.041
X112.395Y-75.946
X112.395Y-77.851
X112.395Y-93.345
X112.395Y-127.635
X113.572Y-151.13
X113.665Y-74.041
X113.665Y-75.946
X113.665Y-77.851
X115.2Y-117.3
T4
X78.03Y-58.99
X78.03Y-60.39
X78.98Y-58.99
X78.98Y-60.39
X79.93Y-60.39
X80.83Y-58.99
X80.83Y-60.39
X81.73Y-58.99
X81.73Y-60.39
X82.63Y-58.99
X83.58Y-58.99
X83.58Y-60.39
X84.53Y-58.99
X84.53Y-60.39
T6
X90.932Y-147.574
T8
X91.3Y-89.9
T9
X97.536Y-80.772
X97.536Y-82.042
X97.536Y-83.312
X97.536Y-84.582
X97.536Y-98.044
X97.536Y-99.314
X97.536Y-100.584
X97.536Y-101.854
X97.536Y-115.062
X97.536Y-116.332
X97.536Y-117.602
X97.536Y-118.872
X97.536Y-132.334
X97.536Y-133.604
X97.536Y-134.874
X97.536Y-136.144
T10
X78.486Y-52.832
X81.026Y-52.832
X81.346Y-93.345
X81.36Y-110.49
X81.36Y-127.635
X81.36Y-144.78
X83.566Y-52.832
X83.846Y-93.345
X83.86Y-110.49
X83.86Y-127.635
X83.86Y-144.78
X86.106Y-52.832
X86.346Y-93.345
X86.36Y-110.49
X86.36Y-127.635
X86.36Y-144.78
X88.646Y-52.832
X91.186Y-52.832
X112.395Y-52.705
X112.395Y-55.245
X112.395Y-57.785
X112.395Y-60.325
X112.395Y-62.865
X112.395Y-65.405
X112.395Y-67.945
X112.395Y-70.485
X114.935Y-52.705
X114.935Y-55.245
X114.935Y-57.785
X114.935Y-60.325
X114.935Y-62.865
X114.935Y-65.405
X114.935Y-67.945
X114.935Y-70.485
T11
X95.25Y-87.63
X95.25Y-94.13
X95.25Y-104.775
X95.25Y-111.275
X95.25Y-121.92
X95.25Y-128.42
X95.25Y-139.065
X95.25Y-145.565
X99.75Y-87.63
X99.75Y-94.13
X99.75Y-104.775
X99.75Y-111.275
X99.75Y-121.92
X99.75Y-128.42
X99.75Y-139.065
X99.75Y-145.565
T5
G00X78.83Y-57.76
M15
G01X79.73Y-57.76
M16
G05
G00X78.83Y-61.62
M15
G01X79.73Y-61.62
M16
G05
G00X80.78Y-159.225
M15
G01X81.78Y-159.225
M16
G05
G00X82.83Y-57.76
M15
G01X83.73Y-57.76
M16
G05
G00X82.83Y-61.63
M15
G01X83.73Y-61.63
M16
G05
G00X96.02Y-159.225
M15
G01X97.02Y-159.225
M16
G05
G00X111.26Y-90.645
M15
G01X112.26Y-90.645
M16
G05
G00X111.26Y-107.79
M15
G01X112.26Y-107.79
M16
G05
G00X111.26Y-124.935
M15
G01X112.26Y-124.935
M16
G05
G00X111.26Y-142.08
M15
G01X112.26Y-142.08
M16
G05
G00X111.26Y-159.225
M15
G01X112.26Y-159.225
M16
G05
T7
G00X80.93Y-148.59
M15
G01X81.63Y-148.59
M16
G05
G00X80.83Y-150.925
M15
G01X81.73Y-150.925
M16
G05
G00X96.17Y-148.59
M15
G01X96.87Y-148.59
M16
G05
G00X96.07Y-150.925
M15
G01X96.97Y-150.925
M16
G05
G00X111.41Y-80.01
M15
G01X112.11Y-80.01
M16
G05
G00X111.31Y-82.345
M15
G01X112.21Y-82.345
M16
G05
G00X111.41Y-97.155
M15
G01X112.11Y-97.155
M16
G05
G00X111.31Y-99.49
M15
G01X112.21Y-99.49
M16
G05
G00X111.41Y-114.3
M15
G01X112.11Y-114.3
M16
G05
G00X111.31Y-116.635
M15
G01X112.21Y-116.635
M16
G05
G00X111.41Y-131.445
M15
G01X112.11Y-131.445
M16
G05
G00X111.31Y-133.78
M15
G01X112.21Y-133.78
M16
G05
G00X111.41Y-148.59
M15
G01X112.11Y-148.59
M16
G05
G00X111.31Y-150.925
M15
G01X112.21Y-150.925
M16
G05
T11
G00X79.046Y-85.345
M15
G01X79.046Y-86.345
M16
G05
G00X79.06Y-102.49
M15
G01X79.06Y-103.49
M16
G05
G00X79.06Y-119.635
M15
G01X79.06Y-120.635
M16
G05
G00X79.06Y-136.78
M15
G01X79.06Y-137.78
M16
G05
G00X88.646Y-85.345
M15
G01X88.646Y-86.345
M16
G05
G00X88.66Y-102.49
M15
G01X88.66Y-103.49
M16
G05
G00X88.66Y-119.635
M15
G01X88.66Y-120.635
M16
G05
G00X88.66Y-136.78
M15
G01X88.66Y-137.78
M16
G05
T0
M30
