G04 #@! TF.GenerationSoftware,KiCad,Pcbnew,6.0.6+dfsg-1*
G04 #@! TF.CreationDate,2022-10-02T17:16:31+02:00*
G04 #@! TF.ProjectId,demiurge,64656d69-7572-4676-952e-6b696361645f,G*
G04 #@! TF.SameCoordinates,Original*
G04 #@! TF.FileFunction,Legend,Top*
G04 #@! TF.FilePolarity,Positive*
%FSLAX46Y46*%
G04 Gerber Fmt 4.6, Leading zero omitted, Abs format (unit mm)*
G04 Created by KiCad (PCBNEW 6.0.6+dfsg-1) date 2022-10-02 17:16:31*
%MOMM*%
%LPD*%
G01*
G04 APERTURE LIST*
%ADD10C,0.120000*%
%ADD11C,0.150000*%
%ADD12C,0.152400*%
G04 APERTURE END LIST*
D10*
X102500000Y-54500000D02*
X110300000Y-54500000D01*
X110300000Y-54500000D02*
X110300000Y-61250000D01*
X110300000Y-61250000D02*
X102500000Y-61250000D01*
X102500000Y-61250000D02*
X102500000Y-54500000D01*
X92100000Y-57050000D02*
X102500000Y-57050000D01*
X102500000Y-57050000D02*
X102500000Y-61250000D01*
X102500000Y-61250000D02*
X92100000Y-61250000D01*
X92100000Y-61250000D02*
X92100000Y-57050000D01*
D11*
X78187976Y-96461666D02*
X78664166Y-96461666D01*
X78092738Y-96747380D02*
X78426071Y-95747380D01*
X78759404Y-96747380D01*
X78997500Y-96080714D02*
X79187976Y-96747380D01*
X79378452Y-96271190D01*
X79568928Y-96747380D01*
X79759404Y-96080714D01*
X80521309Y-96699761D02*
X80426071Y-96747380D01*
X80235595Y-96747380D01*
X80140357Y-96699761D01*
X80092738Y-96604523D01*
X80092738Y-96223571D01*
X80140357Y-96128333D01*
X80235595Y-96080714D01*
X80426071Y-96080714D01*
X80521309Y-96128333D01*
X80568928Y-96223571D01*
X80568928Y-96318809D01*
X80092738Y-96414047D01*
X80949880Y-96699761D02*
X81045119Y-96747380D01*
X81235595Y-96747380D01*
X81330833Y-96699761D01*
X81378452Y-96604523D01*
X81378452Y-96556904D01*
X81330833Y-96461666D01*
X81235595Y-96414047D01*
X81092738Y-96414047D01*
X80997500Y-96366428D01*
X80949880Y-96271190D01*
X80949880Y-96223571D01*
X80997500Y-96128333D01*
X81092738Y-96080714D01*
X81235595Y-96080714D01*
X81330833Y-96128333D01*
X81949880Y-96747380D02*
X81854642Y-96699761D01*
X81807023Y-96652142D01*
X81759404Y-96556904D01*
X81759404Y-96271190D01*
X81807023Y-96175952D01*
X81854642Y-96128333D01*
X81949880Y-96080714D01*
X82092738Y-96080714D01*
X82187976Y-96128333D01*
X82235595Y-96175952D01*
X82283214Y-96271190D01*
X82283214Y-96556904D01*
X82235595Y-96652142D01*
X82187976Y-96699761D01*
X82092738Y-96747380D01*
X81949880Y-96747380D01*
X82711785Y-96747380D02*
X82711785Y-96080714D01*
X82711785Y-96175952D02*
X82759404Y-96128333D01*
X82854642Y-96080714D01*
X82997500Y-96080714D01*
X83092738Y-96128333D01*
X83140357Y-96223571D01*
X83140357Y-96747380D01*
X83140357Y-96223571D02*
X83187976Y-96128333D01*
X83283214Y-96080714D01*
X83426071Y-96080714D01*
X83521309Y-96128333D01*
X83568928Y-96223571D01*
X83568928Y-96747380D01*
X84426071Y-96699761D02*
X84330833Y-96747380D01*
X84140357Y-96747380D01*
X84045119Y-96699761D01*
X83997500Y-96604523D01*
X83997500Y-96223571D01*
X84045119Y-96128333D01*
X84140357Y-96080714D01*
X84330833Y-96080714D01*
X84426071Y-96128333D01*
X84473690Y-96223571D01*
X84473690Y-96318809D01*
X83997500Y-96414047D01*
X85616547Y-96461666D02*
X86092738Y-96461666D01*
X85521309Y-96747380D02*
X85854642Y-95747380D01*
X86187976Y-96747380D01*
X86949880Y-96080714D02*
X86949880Y-96747380D01*
X86521309Y-96080714D02*
X86521309Y-96604523D01*
X86568928Y-96699761D01*
X86664166Y-96747380D01*
X86807023Y-96747380D01*
X86902261Y-96699761D01*
X86949880Y-96652142D01*
X87854642Y-96747380D02*
X87854642Y-95747380D01*
X87854642Y-96699761D02*
X87759404Y-96747380D01*
X87568928Y-96747380D01*
X87473690Y-96699761D01*
X87426071Y-96652142D01*
X87378452Y-96556904D01*
X87378452Y-96271190D01*
X87426071Y-96175952D01*
X87473690Y-96128333D01*
X87568928Y-96080714D01*
X87759404Y-96080714D01*
X87854642Y-96128333D01*
X88330833Y-96747380D02*
X88330833Y-96080714D01*
X88330833Y-95747380D02*
X88283214Y-95795000D01*
X88330833Y-95842619D01*
X88378452Y-95795000D01*
X88330833Y-95747380D01*
X88330833Y-95842619D01*
X88949880Y-96747380D02*
X88854642Y-96699761D01*
X88807023Y-96652142D01*
X88759404Y-96556904D01*
X88759404Y-96271190D01*
X88807023Y-96175952D01*
X88854642Y-96128333D01*
X88949880Y-96080714D01*
X89092738Y-96080714D01*
X89187976Y-96128333D01*
X89235595Y-96175952D01*
X89283214Y-96271190D01*
X89283214Y-96556904D01*
X89235595Y-96652142D01*
X89187976Y-96699761D01*
X89092738Y-96747380D01*
X88949880Y-96747380D01*
X90426071Y-96461666D02*
X90902261Y-96461666D01*
X90330833Y-96747380D02*
X90664166Y-95747380D01*
X90997500Y-96747380D01*
X91330833Y-96080714D02*
X91330833Y-97080714D01*
X91330833Y-96128333D02*
X91426071Y-96080714D01*
X91616547Y-96080714D01*
X91711785Y-96128333D01*
X91759404Y-96175952D01*
X91807023Y-96271190D01*
X91807023Y-96556904D01*
X91759404Y-96652142D01*
X91711785Y-96699761D01*
X91616547Y-96747380D01*
X91426071Y-96747380D01*
X91330833Y-96699761D01*
X92235595Y-96080714D02*
X92235595Y-97080714D01*
X92235595Y-96128333D02*
X92330833Y-96080714D01*
X92521309Y-96080714D01*
X92616547Y-96128333D01*
X92664166Y-96175952D01*
X92711785Y-96271190D01*
X92711785Y-96556904D01*
X92664166Y-96652142D01*
X92616547Y-96699761D01*
X92521309Y-96747380D01*
X92330833Y-96747380D01*
X92235595Y-96699761D01*
X93568928Y-96747380D02*
X93568928Y-96223571D01*
X93521309Y-96128333D01*
X93426071Y-96080714D01*
X93235595Y-96080714D01*
X93140357Y-96128333D01*
X93568928Y-96699761D02*
X93473690Y-96747380D01*
X93235595Y-96747380D01*
X93140357Y-96699761D01*
X93092738Y-96604523D01*
X93092738Y-96509285D01*
X93140357Y-96414047D01*
X93235595Y-96366428D01*
X93473690Y-96366428D01*
X93568928Y-96318809D01*
X94045119Y-96747380D02*
X94045119Y-96080714D01*
X94045119Y-96271190D02*
X94092738Y-96175952D01*
X94140357Y-96128333D01*
X94235595Y-96080714D01*
X94330833Y-96080714D01*
X95092738Y-96747380D02*
X95092738Y-96223571D01*
X95045119Y-96128333D01*
X94949880Y-96080714D01*
X94759404Y-96080714D01*
X94664166Y-96128333D01*
X95092738Y-96699761D02*
X94997500Y-96747380D01*
X94759404Y-96747380D01*
X94664166Y-96699761D01*
X94616547Y-96604523D01*
X94616547Y-96509285D01*
X94664166Y-96414047D01*
X94759404Y-96366428D01*
X94997500Y-96366428D01*
X95092738Y-96318809D01*
X95426071Y-96080714D02*
X95807023Y-96080714D01*
X95568928Y-95747380D02*
X95568928Y-96604523D01*
X95616547Y-96699761D01*
X95711785Y-96747380D01*
X95807023Y-96747380D01*
X96568928Y-96080714D02*
X96568928Y-96747380D01*
X96140357Y-96080714D02*
X96140357Y-96604523D01*
X96187976Y-96699761D01*
X96283214Y-96747380D01*
X96426071Y-96747380D01*
X96521309Y-96699761D01*
X96568928Y-96652142D01*
X96997500Y-96699761D02*
X97092738Y-96747380D01*
X97283214Y-96747380D01*
X97378452Y-96699761D01*
X97426071Y-96604523D01*
X97426071Y-96556904D01*
X97378452Y-96461666D01*
X97283214Y-96414047D01*
X97140357Y-96414047D01*
X97045119Y-96366428D01*
X96997500Y-96271190D01*
X96997500Y-96223571D01*
X97045119Y-96128333D01*
X97140357Y-96080714D01*
X97283214Y-96080714D01*
X97378452Y-96128333D01*
X78235595Y-98357380D02*
X78235595Y-97357380D01*
X78473690Y-97357380D01*
X78616547Y-97405000D01*
X78711785Y-97500238D01*
X78759404Y-97595476D01*
X78807023Y-97785952D01*
X78807023Y-97928809D01*
X78759404Y-98119285D01*
X78711785Y-98214523D01*
X78616547Y-98309761D01*
X78473690Y-98357380D01*
X78235595Y-98357380D01*
X79616547Y-98309761D02*
X79521309Y-98357380D01*
X79330833Y-98357380D01*
X79235595Y-98309761D01*
X79187976Y-98214523D01*
X79187976Y-97833571D01*
X79235595Y-97738333D01*
X79330833Y-97690714D01*
X79521309Y-97690714D01*
X79616547Y-97738333D01*
X79664166Y-97833571D01*
X79664166Y-97928809D01*
X79187976Y-98024047D01*
X80092738Y-98357380D02*
X80092738Y-97690714D01*
X80092738Y-97785952D02*
X80140357Y-97738333D01*
X80235595Y-97690714D01*
X80378452Y-97690714D01*
X80473690Y-97738333D01*
X80521309Y-97833571D01*
X80521309Y-98357380D01*
X80521309Y-97833571D02*
X80568928Y-97738333D01*
X80664166Y-97690714D01*
X80807023Y-97690714D01*
X80902261Y-97738333D01*
X80949880Y-97833571D01*
X80949880Y-98357380D01*
X81426071Y-98357380D02*
X81426071Y-97690714D01*
X81426071Y-97357380D02*
X81378452Y-97405000D01*
X81426071Y-97452619D01*
X81473690Y-97405000D01*
X81426071Y-97357380D01*
X81426071Y-97452619D01*
X82330833Y-97690714D02*
X82330833Y-98357380D01*
X81902261Y-97690714D02*
X81902261Y-98214523D01*
X81949880Y-98309761D01*
X82045119Y-98357380D01*
X82187976Y-98357380D01*
X82283214Y-98309761D01*
X82330833Y-98262142D01*
X82807023Y-98357380D02*
X82807023Y-97690714D01*
X82807023Y-97881190D02*
X82854642Y-97785952D01*
X82902261Y-97738333D01*
X82997500Y-97690714D01*
X83092738Y-97690714D01*
X83854642Y-97690714D02*
X83854642Y-98500238D01*
X83807023Y-98595476D01*
X83759404Y-98643095D01*
X83664166Y-98690714D01*
X83521309Y-98690714D01*
X83426071Y-98643095D01*
X83854642Y-98309761D02*
X83759404Y-98357380D01*
X83568928Y-98357380D01*
X83473690Y-98309761D01*
X83426071Y-98262142D01*
X83378452Y-98166904D01*
X83378452Y-97881190D01*
X83426071Y-97785952D01*
X83473690Y-97738333D01*
X83568928Y-97690714D01*
X83759404Y-97690714D01*
X83854642Y-97738333D01*
X84711785Y-98309761D02*
X84616547Y-98357380D01*
X84426071Y-98357380D01*
X84330833Y-98309761D01*
X84283214Y-98214523D01*
X84283214Y-97833571D01*
X84330833Y-97738333D01*
X84426071Y-97690714D01*
X84616547Y-97690714D01*
X84711785Y-97738333D01*
X84759404Y-97833571D01*
X84759404Y-97928809D01*
X84283214Y-98024047D01*
X86473690Y-98357380D02*
X85902261Y-98357380D01*
X86187976Y-98357380D02*
X86187976Y-97357380D01*
X86092738Y-97500238D01*
X85997500Y-97595476D01*
X85902261Y-97643095D01*
X88235595Y-98357380D02*
X87902261Y-97881190D01*
X87664166Y-98357380D02*
X87664166Y-97357380D01*
X88045119Y-97357380D01*
X88140357Y-97405000D01*
X88187976Y-97452619D01*
X88235595Y-97547857D01*
X88235595Y-97690714D01*
X88187976Y-97785952D01*
X88140357Y-97833571D01*
X88045119Y-97881190D01*
X87664166Y-97881190D01*
X89045119Y-98309761D02*
X88949880Y-98357380D01*
X88759404Y-98357380D01*
X88664166Y-98309761D01*
X88616547Y-98214523D01*
X88616547Y-97833571D01*
X88664166Y-97738333D01*
X88759404Y-97690714D01*
X88949880Y-97690714D01*
X89045119Y-97738333D01*
X89092738Y-97833571D01*
X89092738Y-97928809D01*
X88616547Y-98024047D01*
X89426071Y-97690714D02*
X89664166Y-98357380D01*
X89902261Y-97690714D01*
X91568928Y-97405000D02*
X91473690Y-97357380D01*
X91330833Y-97357380D01*
X91187976Y-97405000D01*
X91092738Y-97500238D01*
X91045119Y-97595476D01*
X90997500Y-97785952D01*
X90997500Y-97928809D01*
X91045119Y-98119285D01*
X91092738Y-98214523D01*
X91187976Y-98309761D01*
X91330833Y-98357380D01*
X91426071Y-98357380D01*
X91568928Y-98309761D01*
X91616547Y-98262142D01*
X91616547Y-97928809D01*
X91426071Y-97928809D01*
D12*
X83857142Y-77207142D02*
X83809523Y-77254761D01*
X83666666Y-77302380D01*
X83571428Y-77302380D01*
X83428571Y-77254761D01*
X83333333Y-77159523D01*
X83285714Y-77064285D01*
X83238095Y-76873809D01*
X83238095Y-76730952D01*
X83285714Y-76540476D01*
X83333333Y-76445238D01*
X83428571Y-76350000D01*
X83571428Y-76302380D01*
X83666666Y-76302380D01*
X83809523Y-76350000D01*
X83857142Y-76397619D01*
X84238095Y-76397619D02*
X84285714Y-76350000D01*
X84380952Y-76302380D01*
X84619047Y-76302380D01*
X84714285Y-76350000D01*
X84761904Y-76397619D01*
X84809523Y-76492857D01*
X84809523Y-76588095D01*
X84761904Y-76730952D01*
X84190476Y-77302380D01*
X84809523Y-77302380D01*
X85761904Y-77302380D02*
X85190476Y-77302380D01*
X85476190Y-77302380D02*
X85476190Y-76302380D01*
X85380952Y-76445238D01*
X85285714Y-76540476D01*
X85190476Y-76588095D01*
X95083333Y-91797142D02*
X95035714Y-91844761D01*
X94892857Y-91892380D01*
X94797619Y-91892380D01*
X94654761Y-91844761D01*
X94559523Y-91749523D01*
X94511904Y-91654285D01*
X94464285Y-91463809D01*
X94464285Y-91320952D01*
X94511904Y-91130476D01*
X94559523Y-91035238D01*
X94654761Y-90940000D01*
X94797619Y-90892380D01*
X94892857Y-90892380D01*
X95035714Y-90940000D01*
X95083333Y-90987619D01*
X95464285Y-90987619D02*
X95511904Y-90940000D01*
X95607142Y-90892380D01*
X95845238Y-90892380D01*
X95940476Y-90940000D01*
X95988095Y-90987619D01*
X96035714Y-91082857D01*
X96035714Y-91178095D01*
X95988095Y-91320952D01*
X95416666Y-91892380D01*
X96035714Y-91892380D01*
X95083333Y-109069142D02*
X95035714Y-109116761D01*
X94892857Y-109164380D01*
X94797619Y-109164380D01*
X94654761Y-109116761D01*
X94559523Y-109021523D01*
X94511904Y-108926285D01*
X94464285Y-108735809D01*
X94464285Y-108592952D01*
X94511904Y-108402476D01*
X94559523Y-108307238D01*
X94654761Y-108212000D01*
X94797619Y-108164380D01*
X94892857Y-108164380D01*
X95035714Y-108212000D01*
X95083333Y-108259619D01*
X95559523Y-109164380D02*
X95750000Y-109164380D01*
X95845238Y-109116761D01*
X95892857Y-109069142D01*
X95988095Y-108926285D01*
X96035714Y-108735809D01*
X96035714Y-108354857D01*
X95988095Y-108259619D01*
X95940476Y-108212000D01*
X95845238Y-108164380D01*
X95654761Y-108164380D01*
X95559523Y-108212000D01*
X95511904Y-108259619D01*
X95464285Y-108354857D01*
X95464285Y-108592952D01*
X95511904Y-108688190D01*
X95559523Y-108735809D01*
X95654761Y-108783428D01*
X95845238Y-108783428D01*
X95940476Y-108735809D01*
X95988095Y-108688190D01*
X96035714Y-108592952D01*
X91857142Y-142057142D02*
X91809523Y-142104761D01*
X91666666Y-142152380D01*
X91571428Y-142152380D01*
X91428571Y-142104761D01*
X91333333Y-142009523D01*
X91285714Y-141914285D01*
X91238095Y-141723809D01*
X91238095Y-141580952D01*
X91285714Y-141390476D01*
X91333333Y-141295238D01*
X91428571Y-141200000D01*
X91571428Y-141152380D01*
X91666666Y-141152380D01*
X91809523Y-141200000D01*
X91857142Y-141247619D01*
X92238095Y-141247619D02*
X92285714Y-141200000D01*
X92380952Y-141152380D01*
X92619047Y-141152380D01*
X92714285Y-141200000D01*
X92761904Y-141247619D01*
X92809523Y-141342857D01*
X92809523Y-141438095D01*
X92761904Y-141580952D01*
X92190476Y-142152380D01*
X92809523Y-142152380D01*
X93142857Y-141152380D02*
X93761904Y-141152380D01*
X93428571Y-141533333D01*
X93571428Y-141533333D01*
X93666666Y-141580952D01*
X93714285Y-141628571D01*
X93761904Y-141723809D01*
X93761904Y-141961904D01*
X93714285Y-142057142D01*
X93666666Y-142104761D01*
X93571428Y-142152380D01*
X93285714Y-142152380D01*
X93190476Y-142104761D01*
X93142857Y-142057142D01*
X101233333Y-107767380D02*
X100900000Y-107291190D01*
X100661904Y-107767380D02*
X100661904Y-106767380D01*
X101042857Y-106767380D01*
X101138095Y-106815000D01*
X101185714Y-106862619D01*
X101233333Y-106957857D01*
X101233333Y-107100714D01*
X101185714Y-107195952D01*
X101138095Y-107243571D01*
X101042857Y-107291190D01*
X100661904Y-107291190D01*
X101566666Y-106767380D02*
X102185714Y-106767380D01*
X101852380Y-107148333D01*
X101995238Y-107148333D01*
X102090476Y-107195952D01*
X102138095Y-107243571D01*
X102185714Y-107338809D01*
X102185714Y-107576904D01*
X102138095Y-107672142D01*
X102090476Y-107719761D01*
X101995238Y-107767380D01*
X101709523Y-107767380D01*
X101614285Y-107719761D01*
X101566666Y-107672142D01*
X101233333Y-109672380D02*
X100900000Y-109196190D01*
X100661904Y-109672380D02*
X100661904Y-108672380D01*
X101042857Y-108672380D01*
X101138095Y-108720000D01*
X101185714Y-108767619D01*
X101233333Y-108862857D01*
X101233333Y-109005714D01*
X101185714Y-109100952D01*
X101138095Y-109148571D01*
X101042857Y-109196190D01*
X100661904Y-109196190D01*
X102090476Y-109005714D02*
X102090476Y-109672380D01*
X101852380Y-108624761D02*
X101614285Y-109339047D01*
X102233333Y-109339047D01*
X101133333Y-124912380D02*
X100800000Y-124436190D01*
X100561904Y-124912380D02*
X100561904Y-123912380D01*
X100942857Y-123912380D01*
X101038095Y-123960000D01*
X101085714Y-124007619D01*
X101133333Y-124102857D01*
X101133333Y-124245714D01*
X101085714Y-124340952D01*
X101038095Y-124388571D01*
X100942857Y-124436190D01*
X100561904Y-124436190D01*
X101466666Y-123912380D02*
X102133333Y-123912380D01*
X101704761Y-124912380D01*
X101133333Y-126817380D02*
X100800000Y-126341190D01*
X100561904Y-126817380D02*
X100561904Y-125817380D01*
X100942857Y-125817380D01*
X101038095Y-125865000D01*
X101085714Y-125912619D01*
X101133333Y-126007857D01*
X101133333Y-126150714D01*
X101085714Y-126245952D01*
X101038095Y-126293571D01*
X100942857Y-126341190D01*
X100561904Y-126341190D01*
X101704761Y-126245952D02*
X101609523Y-126198333D01*
X101561904Y-126150714D01*
X101514285Y-126055476D01*
X101514285Y-126007857D01*
X101561904Y-125912619D01*
X101609523Y-125865000D01*
X101704761Y-125817380D01*
X101895238Y-125817380D01*
X101990476Y-125865000D01*
X102038095Y-125912619D01*
X102085714Y-126007857D01*
X102085714Y-126055476D01*
X102038095Y-126150714D01*
X101990476Y-126198333D01*
X101895238Y-126245952D01*
X101704761Y-126245952D01*
X101609523Y-126293571D01*
X101561904Y-126341190D01*
X101514285Y-126436428D01*
X101514285Y-126626904D01*
X101561904Y-126722142D01*
X101609523Y-126769761D01*
X101704761Y-126817380D01*
X101895238Y-126817380D01*
X101990476Y-126769761D01*
X102038095Y-126722142D01*
X102085714Y-126626904D01*
X102085714Y-126436428D01*
X102038095Y-126341190D01*
X101990476Y-126293571D01*
X101895238Y-126245952D01*
X105257142Y-98752380D02*
X104923809Y-98276190D01*
X104685714Y-98752380D02*
X104685714Y-97752380D01*
X105066666Y-97752380D01*
X105161904Y-97800000D01*
X105209523Y-97847619D01*
X105257142Y-97942857D01*
X105257142Y-98085714D01*
X105209523Y-98180952D01*
X105161904Y-98228571D01*
X105066666Y-98276190D01*
X104685714Y-98276190D01*
X106209523Y-98752380D02*
X105638095Y-98752380D01*
X105923809Y-98752380D02*
X105923809Y-97752380D01*
X105828571Y-97895238D01*
X105733333Y-97990476D01*
X105638095Y-98038095D01*
X106542857Y-97752380D02*
X107209523Y-97752380D01*
X106780952Y-98752380D01*
X101433333Y-142057380D02*
X101100000Y-141581190D01*
X100861904Y-142057380D02*
X100861904Y-141057380D01*
X101242857Y-141057380D01*
X101338095Y-141105000D01*
X101385714Y-141152619D01*
X101433333Y-141247857D01*
X101433333Y-141390714D01*
X101385714Y-141485952D01*
X101338095Y-141533571D01*
X101242857Y-141581190D01*
X100861904Y-141581190D01*
X101909523Y-142057380D02*
X102100000Y-142057380D01*
X102195238Y-142009761D01*
X102242857Y-141962142D01*
X102338095Y-141819285D01*
X102385714Y-141628809D01*
X102385714Y-141247857D01*
X102338095Y-141152619D01*
X102290476Y-141105000D01*
X102195238Y-141057380D01*
X102004761Y-141057380D01*
X101909523Y-141105000D01*
X101861904Y-141152619D01*
X101814285Y-141247857D01*
X101814285Y-141485952D01*
X101861904Y-141581190D01*
X101909523Y-141628809D01*
X102004761Y-141676428D01*
X102195238Y-141676428D01*
X102290476Y-141628809D01*
X102338095Y-141581190D01*
X102385714Y-141485952D01*
X101592142Y-143962380D02*
X101258809Y-143486190D01*
X101020714Y-143962380D02*
X101020714Y-142962380D01*
X101401666Y-142962380D01*
X101496904Y-143010000D01*
X101544523Y-143057619D01*
X101592142Y-143152857D01*
X101592142Y-143295714D01*
X101544523Y-143390952D01*
X101496904Y-143438571D01*
X101401666Y-143486190D01*
X101020714Y-143486190D01*
X102544523Y-143962380D02*
X101973095Y-143962380D01*
X102258809Y-143962380D02*
X102258809Y-142962380D01*
X102163571Y-143105238D01*
X102068333Y-143200476D01*
X101973095Y-143248095D01*
X103163571Y-142962380D02*
X103258809Y-142962380D01*
X103354047Y-143010000D01*
X103401666Y-143057619D01*
X103449285Y-143152857D01*
X103496904Y-143343333D01*
X103496904Y-143581428D01*
X103449285Y-143771904D01*
X103401666Y-143867142D01*
X103354047Y-143914761D01*
X103258809Y-143962380D01*
X103163571Y-143962380D01*
X103068333Y-143914761D01*
X103020714Y-143867142D01*
X102973095Y-143771904D01*
X102925476Y-143581428D01*
X102925476Y-143343333D01*
X102973095Y-143152857D01*
X103020714Y-143057619D01*
X103068333Y-143010000D01*
X103163571Y-142962380D01*
X104057142Y-86152380D02*
X103723809Y-85676190D01*
X103485714Y-86152380D02*
X103485714Y-85152380D01*
X103866666Y-85152380D01*
X103961904Y-85200000D01*
X104009523Y-85247619D01*
X104057142Y-85342857D01*
X104057142Y-85485714D01*
X104009523Y-85580952D01*
X103961904Y-85628571D01*
X103866666Y-85676190D01*
X103485714Y-85676190D01*
X104438095Y-85247619D02*
X104485714Y-85200000D01*
X104580952Y-85152380D01*
X104819047Y-85152380D01*
X104914285Y-85200000D01*
X104961904Y-85247619D01*
X105009523Y-85342857D01*
X105009523Y-85438095D01*
X104961904Y-85580952D01*
X104390476Y-86152380D01*
X105009523Y-86152380D01*
X105866666Y-85485714D02*
X105866666Y-86152380D01*
X105628571Y-85104761D02*
X105390476Y-85819047D01*
X106009523Y-85819047D01*
X92052380Y-148442857D02*
X91576190Y-148776190D01*
X92052380Y-149014285D02*
X91052380Y-149014285D01*
X91052380Y-148633333D01*
X91100000Y-148538095D01*
X91147619Y-148490476D01*
X91242857Y-148442857D01*
X91385714Y-148442857D01*
X91480952Y-148490476D01*
X91528571Y-148538095D01*
X91576190Y-148633333D01*
X91576190Y-149014285D01*
X91052380Y-148109523D02*
X91052380Y-147490476D01*
X91433333Y-147823809D01*
X91433333Y-147680952D01*
X91480952Y-147585714D01*
X91528571Y-147538095D01*
X91623809Y-147490476D01*
X91861904Y-147490476D01*
X91957142Y-147538095D01*
X92004761Y-147585714D01*
X92052380Y-147680952D01*
X92052380Y-147966666D01*
X92004761Y-148061904D01*
X91957142Y-148109523D01*
X91052380Y-147157142D02*
X91052380Y-146490476D01*
X92052380Y-146919047D01*
X91257142Y-157452380D02*
X90923809Y-156976190D01*
X90685714Y-157452380D02*
X90685714Y-156452380D01*
X91066666Y-156452380D01*
X91161904Y-156500000D01*
X91209523Y-156547619D01*
X91257142Y-156642857D01*
X91257142Y-156785714D01*
X91209523Y-156880952D01*
X91161904Y-156928571D01*
X91066666Y-156976190D01*
X90685714Y-156976190D01*
X91590476Y-156452380D02*
X92209523Y-156452380D01*
X91876190Y-156833333D01*
X92019047Y-156833333D01*
X92114285Y-156880952D01*
X92161904Y-156928571D01*
X92209523Y-157023809D01*
X92209523Y-157261904D01*
X92161904Y-157357142D01*
X92114285Y-157404761D01*
X92019047Y-157452380D01*
X91733333Y-157452380D01*
X91638095Y-157404761D01*
X91590476Y-157357142D01*
X92685714Y-157452380D02*
X92876190Y-157452380D01*
X92971428Y-157404761D01*
X93019047Y-157357142D01*
X93114285Y-157214285D01*
X93161904Y-157023809D01*
X93161904Y-156642857D01*
X93114285Y-156547619D01*
X93066666Y-156500000D01*
X92971428Y-156452380D01*
X92780952Y-156452380D01*
X92685714Y-156500000D01*
X92638095Y-156547619D01*
X92590476Y-156642857D01*
X92590476Y-156880952D01*
X92638095Y-156976190D01*
X92685714Y-157023809D01*
X92780952Y-157071428D01*
X92971428Y-157071428D01*
X93066666Y-157023809D01*
X93114285Y-156976190D01*
X93161904Y-156880952D01*
X95052380Y-159392857D02*
X94576190Y-159726190D01*
X95052380Y-159964285D02*
X94052380Y-159964285D01*
X94052380Y-159583333D01*
X94100000Y-159488095D01*
X94147619Y-159440476D01*
X94242857Y-159392857D01*
X94385714Y-159392857D01*
X94480952Y-159440476D01*
X94528571Y-159488095D01*
X94576190Y-159583333D01*
X94576190Y-159964285D01*
X94385714Y-158535714D02*
X95052380Y-158535714D01*
X94004761Y-158773809D02*
X94719047Y-159011904D01*
X94719047Y-158392857D01*
X94052380Y-157821428D02*
X94052380Y-157726190D01*
X94100000Y-157630952D01*
X94147619Y-157583333D01*
X94242857Y-157535714D01*
X94433333Y-157488095D01*
X94671428Y-157488095D01*
X94861904Y-157535714D01*
X94957142Y-157583333D01*
X95004761Y-157630952D01*
X95052380Y-157726190D01*
X95052380Y-157821428D01*
X95004761Y-157916666D01*
X94957142Y-157964285D01*
X94861904Y-158011904D01*
X94671428Y-158059523D01*
X94433333Y-158059523D01*
X94242857Y-158011904D01*
X94147619Y-157964285D01*
X94100000Y-157916666D01*
X94052380Y-157821428D01*
X93052380Y-154942857D02*
X92576190Y-155276190D01*
X93052380Y-155514285D02*
X92052380Y-155514285D01*
X92052380Y-155133333D01*
X92100000Y-155038095D01*
X92147619Y-154990476D01*
X92242857Y-154942857D01*
X92385714Y-154942857D01*
X92480952Y-154990476D01*
X92528571Y-155038095D01*
X92576190Y-155133333D01*
X92576190Y-155514285D01*
X92385714Y-154085714D02*
X93052380Y-154085714D01*
X92004761Y-154323809D02*
X92719047Y-154561904D01*
X92719047Y-153942857D01*
X92385714Y-153133333D02*
X93052380Y-153133333D01*
X92004761Y-153371428D02*
X92719047Y-153609523D01*
X92719047Y-152990476D01*
X114480723Y-72954895D02*
X114480723Y-73612876D01*
X114519428Y-73690285D01*
X114558133Y-73728990D01*
X114635542Y-73767695D01*
X114790361Y-73767695D01*
X114867771Y-73728990D01*
X114906476Y-73690285D01*
X114945180Y-73612876D01*
X114945180Y-72954895D01*
X115293523Y-73032304D02*
X115332228Y-72993600D01*
X115409638Y-72954895D01*
X115603161Y-72954895D01*
X115680571Y-72993600D01*
X115719276Y-73032304D01*
X115757980Y-73109714D01*
X115757980Y-73187123D01*
X115719276Y-73303238D01*
X115254819Y-73767695D01*
X115757980Y-73767695D01*
X110361904Y-52352380D02*
X110361904Y-51352380D01*
X110600000Y-51352380D01*
X110742857Y-51400000D01*
X110838095Y-51495238D01*
X110885714Y-51590476D01*
X110933333Y-51780952D01*
X110933333Y-51923809D01*
X110885714Y-52114285D01*
X110838095Y-52209523D01*
X110742857Y-52304761D01*
X110600000Y-52352380D01*
X110361904Y-52352380D01*
X111314285Y-51447619D02*
X111361904Y-51400000D01*
X111457142Y-51352380D01*
X111695238Y-51352380D01*
X111790476Y-51400000D01*
X111838095Y-51447619D01*
X111885714Y-51542857D01*
X111885714Y-51638095D01*
X111838095Y-51780952D01*
X111266666Y-52352380D01*
X111885714Y-52352380D01*
X103261904Y-52152380D02*
X103261904Y-51152380D01*
X103500000Y-51152380D01*
X103642857Y-51200000D01*
X103738095Y-51295238D01*
X103785714Y-51390476D01*
X103833333Y-51580952D01*
X103833333Y-51723809D01*
X103785714Y-51914285D01*
X103738095Y-52009523D01*
X103642857Y-52104761D01*
X103500000Y-52152380D01*
X103261904Y-52152380D01*
X104166666Y-51152380D02*
X104785714Y-51152380D01*
X104452380Y-51533333D01*
X104595238Y-51533333D01*
X104690476Y-51580952D01*
X104738095Y-51628571D01*
X104785714Y-51723809D01*
X104785714Y-51961904D01*
X104738095Y-52057142D01*
X104690476Y-52104761D01*
X104595238Y-52152380D01*
X104309523Y-52152380D01*
X104214285Y-52104761D01*
X104166666Y-52057142D01*
X103933333Y-54352380D02*
X103600000Y-53876190D01*
X103361904Y-54352380D02*
X103361904Y-53352380D01*
X103742857Y-53352380D01*
X103838095Y-53400000D01*
X103885714Y-53447619D01*
X103933333Y-53542857D01*
X103933333Y-53685714D01*
X103885714Y-53780952D01*
X103838095Y-53828571D01*
X103742857Y-53876190D01*
X103361904Y-53876190D01*
X104790476Y-53352380D02*
X104600000Y-53352380D01*
X104504761Y-53400000D01*
X104457142Y-53447619D01*
X104361904Y-53590476D01*
X104314285Y-53780952D01*
X104314285Y-54161904D01*
X104361904Y-54257142D01*
X104409523Y-54304761D01*
X104504761Y-54352380D01*
X104695238Y-54352380D01*
X104790476Y-54304761D01*
X104838095Y-54257142D01*
X104885714Y-54161904D01*
X104885714Y-53923809D01*
X104838095Y-53828571D01*
X104790476Y-53780952D01*
X104695238Y-53733333D01*
X104504761Y-53733333D01*
X104409523Y-53780952D01*
X104361904Y-53828571D01*
X104314285Y-53923809D01*
X111003333Y-53858380D02*
X110670000Y-53382190D01*
X110431904Y-53858380D02*
X110431904Y-52858380D01*
X110812857Y-52858380D01*
X110908095Y-52906000D01*
X110955714Y-52953619D01*
X111003333Y-53048857D01*
X111003333Y-53191714D01*
X110955714Y-53286952D01*
X110908095Y-53334571D01*
X110812857Y-53382190D01*
X110431904Y-53382190D01*
X111908095Y-52858380D02*
X111431904Y-52858380D01*
X111384285Y-53334571D01*
X111431904Y-53286952D01*
X111527142Y-53239333D01*
X111765238Y-53239333D01*
X111860476Y-53286952D01*
X111908095Y-53334571D01*
X111955714Y-53429809D01*
X111955714Y-53667904D01*
X111908095Y-53763142D01*
X111860476Y-53810761D01*
X111765238Y-53858380D01*
X111527142Y-53858380D01*
X111431904Y-53810761D01*
X111384285Y-53763142D01*
X107038095Y-116752380D02*
X107038095Y-117561904D01*
X107085714Y-117657142D01*
X107133333Y-117704761D01*
X107228571Y-117752380D01*
X107419047Y-117752380D01*
X107514285Y-117704761D01*
X107561904Y-117657142D01*
X107609523Y-117561904D01*
X107609523Y-116752380D01*
X108228571Y-117180952D02*
X108133333Y-117133333D01*
X108085714Y-117085714D01*
X108038095Y-116990476D01*
X108038095Y-116942857D01*
X108085714Y-116847619D01*
X108133333Y-116800000D01*
X108228571Y-116752380D01*
X108419047Y-116752380D01*
X108514285Y-116800000D01*
X108561904Y-116847619D01*
X108609523Y-116942857D01*
X108609523Y-116990476D01*
X108561904Y-117085714D01*
X108514285Y-117133333D01*
X108419047Y-117180952D01*
X108228571Y-117180952D01*
X108133333Y-117228571D01*
X108085714Y-117276190D01*
X108038095Y-117371428D01*
X108038095Y-117561904D01*
X108085714Y-117657142D01*
X108133333Y-117704761D01*
X108228571Y-117752380D01*
X108419047Y-117752380D01*
X108514285Y-117704761D01*
X108561904Y-117657142D01*
X108609523Y-117561904D01*
X108609523Y-117371428D01*
X108561904Y-117276190D01*
X108514285Y-117228571D01*
X108419047Y-117180952D01*
X93773142Y-84039142D02*
X93725523Y-84086761D01*
X93582666Y-84134380D01*
X93487428Y-84134380D01*
X93344571Y-84086761D01*
X93249333Y-83991523D01*
X93201714Y-83896285D01*
X93154095Y-83705809D01*
X93154095Y-83562952D01*
X93201714Y-83372476D01*
X93249333Y-83277238D01*
X93344571Y-83182000D01*
X93487428Y-83134380D01*
X93582666Y-83134380D01*
X93725523Y-83182000D01*
X93773142Y-83229619D01*
X94725523Y-84134380D02*
X94154095Y-84134380D01*
X94439809Y-84134380D02*
X94439809Y-83134380D01*
X94344571Y-83277238D01*
X94249333Y-83372476D01*
X94154095Y-83420095D01*
X95630285Y-83134380D02*
X95154095Y-83134380D01*
X95106476Y-83610571D01*
X95154095Y-83562952D01*
X95249333Y-83515333D01*
X95487428Y-83515333D01*
X95582666Y-83562952D01*
X95630285Y-83610571D01*
X95677904Y-83705809D01*
X95677904Y-83943904D01*
X95630285Y-84039142D01*
X95582666Y-84086761D01*
X95487428Y-84134380D01*
X95249333Y-84134380D01*
X95154095Y-84086761D01*
X95106476Y-84039142D01*
X111117142Y-93862142D02*
X111069523Y-93909761D01*
X110926666Y-93957380D01*
X110831428Y-93957380D01*
X110688571Y-93909761D01*
X110593333Y-93814523D01*
X110545714Y-93719285D01*
X110498095Y-93528809D01*
X110498095Y-93385952D01*
X110545714Y-93195476D01*
X110593333Y-93100238D01*
X110688571Y-93005000D01*
X110831428Y-92957380D01*
X110926666Y-92957380D01*
X111069523Y-93005000D01*
X111117142Y-93052619D01*
X112069523Y-93957380D02*
X111498095Y-93957380D01*
X111783809Y-93957380D02*
X111783809Y-92957380D01*
X111688571Y-93100238D01*
X111593333Y-93195476D01*
X111498095Y-93243095D01*
X112640952Y-93385952D02*
X112545714Y-93338333D01*
X112498095Y-93290714D01*
X112450476Y-93195476D01*
X112450476Y-93147857D01*
X112498095Y-93052619D01*
X112545714Y-93005000D01*
X112640952Y-92957380D01*
X112831428Y-92957380D01*
X112926666Y-93005000D01*
X112974285Y-93052619D01*
X113021904Y-93147857D01*
X113021904Y-93195476D01*
X112974285Y-93290714D01*
X112926666Y-93338333D01*
X112831428Y-93385952D01*
X112640952Y-93385952D01*
X112545714Y-93433571D01*
X112498095Y-93481190D01*
X112450476Y-93576428D01*
X112450476Y-93766904D01*
X112498095Y-93862142D01*
X112545714Y-93909761D01*
X112640952Y-93957380D01*
X112831428Y-93957380D01*
X112926666Y-93909761D01*
X112974285Y-93862142D01*
X113021904Y-93766904D01*
X113021904Y-93576428D01*
X112974285Y-93481190D01*
X112926666Y-93433571D01*
X112831428Y-93385952D01*
X106333333Y-81256142D02*
X106285714Y-81303761D01*
X106142857Y-81351380D01*
X106047619Y-81351380D01*
X105904761Y-81303761D01*
X105809523Y-81208523D01*
X105761904Y-81113285D01*
X105714285Y-80922809D01*
X105714285Y-80779952D01*
X105761904Y-80589476D01*
X105809523Y-80494238D01*
X105904761Y-80399000D01*
X106047619Y-80351380D01*
X106142857Y-80351380D01*
X106285714Y-80399000D01*
X106333333Y-80446619D01*
X107285714Y-81351380D02*
X106714285Y-81351380D01*
X107000000Y-81351380D02*
X107000000Y-80351380D01*
X106904761Y-80494238D01*
X106809523Y-80589476D01*
X106714285Y-80637095D01*
X100357142Y-58357142D02*
X100309523Y-58404761D01*
X100166666Y-58452380D01*
X100071428Y-58452380D01*
X99928571Y-58404761D01*
X99833333Y-58309523D01*
X99785714Y-58214285D01*
X99738095Y-58023809D01*
X99738095Y-57880952D01*
X99785714Y-57690476D01*
X99833333Y-57595238D01*
X99928571Y-57500000D01*
X100071428Y-57452380D01*
X100166666Y-57452380D01*
X100309523Y-57500000D01*
X100357142Y-57547619D01*
X101309523Y-58452380D02*
X100738095Y-58452380D01*
X101023809Y-58452380D02*
X101023809Y-57452380D01*
X100928571Y-57595238D01*
X100833333Y-57690476D01*
X100738095Y-57738095D01*
X101642857Y-57452380D02*
X102261904Y-57452380D01*
X101928571Y-57833333D01*
X102071428Y-57833333D01*
X102166666Y-57880952D01*
X102214285Y-57928571D01*
X102261904Y-58023809D01*
X102261904Y-58261904D01*
X102214285Y-58357142D01*
X102166666Y-58404761D01*
X102071428Y-58452380D01*
X101785714Y-58452380D01*
X101690476Y-58404761D01*
X101642857Y-58357142D01*
X97257142Y-60757142D02*
X97209523Y-60804761D01*
X97066666Y-60852380D01*
X96971428Y-60852380D01*
X96828571Y-60804761D01*
X96733333Y-60709523D01*
X96685714Y-60614285D01*
X96638095Y-60423809D01*
X96638095Y-60280952D01*
X96685714Y-60090476D01*
X96733333Y-59995238D01*
X96828571Y-59900000D01*
X96971428Y-59852380D01*
X97066666Y-59852380D01*
X97209523Y-59900000D01*
X97257142Y-59947619D01*
X98209523Y-60852380D02*
X97638095Y-60852380D01*
X97923809Y-60852380D02*
X97923809Y-59852380D01*
X97828571Y-59995238D01*
X97733333Y-60090476D01*
X97638095Y-60138095D01*
X99066666Y-60185714D02*
X99066666Y-60852380D01*
X98828571Y-59804761D02*
X98590476Y-60519047D01*
X99209523Y-60519047D01*
X97257142Y-58357142D02*
X97209523Y-58404761D01*
X97066666Y-58452380D01*
X96971428Y-58452380D01*
X96828571Y-58404761D01*
X96733333Y-58309523D01*
X96685714Y-58214285D01*
X96638095Y-58023809D01*
X96638095Y-57880952D01*
X96685714Y-57690476D01*
X96733333Y-57595238D01*
X96828571Y-57500000D01*
X96971428Y-57452380D01*
X97066666Y-57452380D01*
X97209523Y-57500000D01*
X97257142Y-57547619D01*
X98209523Y-58452380D02*
X97638095Y-58452380D01*
X97923809Y-58452380D02*
X97923809Y-57452380D01*
X97828571Y-57595238D01*
X97733333Y-57690476D01*
X97638095Y-57738095D01*
X98828571Y-57452380D02*
X98923809Y-57452380D01*
X99019047Y-57500000D01*
X99066666Y-57547619D01*
X99114285Y-57642857D01*
X99161904Y-57833333D01*
X99161904Y-58071428D01*
X99114285Y-58261904D01*
X99066666Y-58357142D01*
X99019047Y-58404761D01*
X98923809Y-58452380D01*
X98828571Y-58452380D01*
X98733333Y-58404761D01*
X98685714Y-58357142D01*
X98638095Y-58261904D01*
X98590476Y-58071428D01*
X98590476Y-57833333D01*
X98638095Y-57642857D01*
X98685714Y-57547619D01*
X98733333Y-57500000D01*
X98828571Y-57452380D01*
X100357142Y-60757142D02*
X100309523Y-60804761D01*
X100166666Y-60852380D01*
X100071428Y-60852380D01*
X99928571Y-60804761D01*
X99833333Y-60709523D01*
X99785714Y-60614285D01*
X99738095Y-60423809D01*
X99738095Y-60280952D01*
X99785714Y-60090476D01*
X99833333Y-59995238D01*
X99928571Y-59900000D01*
X100071428Y-59852380D01*
X100166666Y-59852380D01*
X100309523Y-59900000D01*
X100357142Y-59947619D01*
X101309523Y-60852380D02*
X100738095Y-60852380D01*
X101023809Y-60852380D02*
X101023809Y-59852380D01*
X100928571Y-59995238D01*
X100833333Y-60090476D01*
X100738095Y-60138095D01*
X102261904Y-60852380D02*
X101690476Y-60852380D01*
X101976190Y-60852380D02*
X101976190Y-59852380D01*
X101880952Y-59995238D01*
X101785714Y-60090476D01*
X101690476Y-60138095D01*
X93033333Y-60757142D02*
X92985714Y-60804761D01*
X92842857Y-60852380D01*
X92747619Y-60852380D01*
X92604761Y-60804761D01*
X92509523Y-60709523D01*
X92461904Y-60614285D01*
X92414285Y-60423809D01*
X92414285Y-60280952D01*
X92461904Y-60090476D01*
X92509523Y-59995238D01*
X92604761Y-59900000D01*
X92747619Y-59852380D01*
X92842857Y-59852380D01*
X92985714Y-59900000D01*
X93033333Y-59947619D01*
X93938095Y-59852380D02*
X93461904Y-59852380D01*
X93414285Y-60328571D01*
X93461904Y-60280952D01*
X93557142Y-60233333D01*
X93795238Y-60233333D01*
X93890476Y-60280952D01*
X93938095Y-60328571D01*
X93985714Y-60423809D01*
X93985714Y-60661904D01*
X93938095Y-60757142D01*
X93890476Y-60804761D01*
X93795238Y-60852380D01*
X93557142Y-60852380D01*
X93461904Y-60804761D01*
X93414285Y-60757142D01*
X96657142Y-78057142D02*
X96609523Y-78104761D01*
X96466666Y-78152380D01*
X96371428Y-78152380D01*
X96228571Y-78104761D01*
X96133333Y-78009523D01*
X96085714Y-77914285D01*
X96038095Y-77723809D01*
X96038095Y-77580952D01*
X96085714Y-77390476D01*
X96133333Y-77295238D01*
X96228571Y-77200000D01*
X96371428Y-77152380D01*
X96466666Y-77152380D01*
X96609523Y-77200000D01*
X96657142Y-77247619D01*
X97038095Y-77247619D02*
X97085714Y-77200000D01*
X97180952Y-77152380D01*
X97419047Y-77152380D01*
X97514285Y-77200000D01*
X97561904Y-77247619D01*
X97609523Y-77342857D01*
X97609523Y-77438095D01*
X97561904Y-77580952D01*
X96990476Y-78152380D01*
X97609523Y-78152380D01*
X98466666Y-77152380D02*
X98276190Y-77152380D01*
X98180952Y-77200000D01*
X98133333Y-77247619D01*
X98038095Y-77390476D01*
X97990476Y-77580952D01*
X97990476Y-77961904D01*
X98038095Y-78057142D01*
X98085714Y-78104761D01*
X98180952Y-78152380D01*
X98371428Y-78152380D01*
X98466666Y-78104761D01*
X98514285Y-78057142D01*
X98561904Y-77961904D01*
X98561904Y-77723809D01*
X98514285Y-77628571D01*
X98466666Y-77580952D01*
X98371428Y-77533333D01*
X98180952Y-77533333D01*
X98085714Y-77580952D01*
X98038095Y-77628571D01*
X97990476Y-77723809D01*
X87957142Y-152342857D02*
X88004761Y-152390476D01*
X88052380Y-152533333D01*
X88052380Y-152628571D01*
X88004761Y-152771428D01*
X87909523Y-152866666D01*
X87814285Y-152914285D01*
X87623809Y-152961904D01*
X87480952Y-152961904D01*
X87290476Y-152914285D01*
X87195238Y-152866666D01*
X87100000Y-152771428D01*
X87052380Y-152628571D01*
X87052380Y-152533333D01*
X87100000Y-152390476D01*
X87147619Y-152342857D01*
X87052380Y-152009523D02*
X87052380Y-151390476D01*
X87433333Y-151723809D01*
X87433333Y-151580952D01*
X87480952Y-151485714D01*
X87528571Y-151438095D01*
X87623809Y-151390476D01*
X87861904Y-151390476D01*
X87957142Y-151438095D01*
X88004761Y-151485714D01*
X88052380Y-151580952D01*
X88052380Y-151866666D01*
X88004761Y-151961904D01*
X87957142Y-152009523D01*
X88052380Y-150914285D02*
X88052380Y-150723809D01*
X88004761Y-150628571D01*
X87957142Y-150580952D01*
X87814285Y-150485714D01*
X87623809Y-150438095D01*
X87242857Y-150438095D01*
X87147619Y-150485714D01*
X87100000Y-150533333D01*
X87052380Y-150628571D01*
X87052380Y-150819047D01*
X87100000Y-150914285D01*
X87147619Y-150961904D01*
X87242857Y-151009523D01*
X87480952Y-151009523D01*
X87576190Y-150961904D01*
X87623809Y-150914285D01*
X87671428Y-150819047D01*
X87671428Y-150628571D01*
X87623809Y-150533333D01*
X87576190Y-150485714D01*
X87480952Y-150438095D01*
X79157142Y-147252380D02*
X78823809Y-146776190D01*
X78585714Y-147252380D02*
X78585714Y-146252380D01*
X78966666Y-146252380D01*
X79061904Y-146300000D01*
X79109523Y-146347619D01*
X79157142Y-146442857D01*
X79157142Y-146585714D01*
X79109523Y-146680952D01*
X79061904Y-146728571D01*
X78966666Y-146776190D01*
X78585714Y-146776190D01*
X79490476Y-146252380D02*
X80109523Y-146252380D01*
X79776190Y-146633333D01*
X79919047Y-146633333D01*
X80014285Y-146680952D01*
X80061904Y-146728571D01*
X80109523Y-146823809D01*
X80109523Y-147061904D01*
X80061904Y-147157142D01*
X80014285Y-147204761D01*
X79919047Y-147252380D01*
X79633333Y-147252380D01*
X79538095Y-147204761D01*
X79490476Y-147157142D01*
X80680952Y-146680952D02*
X80585714Y-146633333D01*
X80538095Y-146585714D01*
X80490476Y-146490476D01*
X80490476Y-146442857D01*
X80538095Y-146347619D01*
X80585714Y-146300000D01*
X80680952Y-146252380D01*
X80871428Y-146252380D01*
X80966666Y-146300000D01*
X81014285Y-146347619D01*
X81061904Y-146442857D01*
X81061904Y-146490476D01*
X81014285Y-146585714D01*
X80966666Y-146633333D01*
X80871428Y-146680952D01*
X80680952Y-146680952D01*
X80585714Y-146728571D01*
X80538095Y-146776190D01*
X80490476Y-146871428D01*
X80490476Y-147061904D01*
X80538095Y-147157142D01*
X80585714Y-147204761D01*
X80680952Y-147252380D01*
X80871428Y-147252380D01*
X80966666Y-147204761D01*
X81014285Y-147157142D01*
X81061904Y-147061904D01*
X81061904Y-146871428D01*
X81014285Y-146776190D01*
X80966666Y-146728571D01*
X80871428Y-146680952D01*
X78102380Y-153042857D02*
X77626190Y-153376190D01*
X78102380Y-153614285D02*
X77102380Y-153614285D01*
X77102380Y-153233333D01*
X77150000Y-153138095D01*
X77197619Y-153090476D01*
X77292857Y-153042857D01*
X77435714Y-153042857D01*
X77530952Y-153090476D01*
X77578571Y-153138095D01*
X77626190Y-153233333D01*
X77626190Y-153614285D01*
X77435714Y-152185714D02*
X78102380Y-152185714D01*
X77054761Y-152423809D02*
X77769047Y-152661904D01*
X77769047Y-152042857D01*
X77102380Y-151233333D02*
X77102380Y-151423809D01*
X77150000Y-151519047D01*
X77197619Y-151566666D01*
X77340476Y-151661904D01*
X77530952Y-151709523D01*
X77911904Y-151709523D01*
X78007142Y-151661904D01*
X78054761Y-151614285D01*
X78102380Y-151519047D01*
X78102380Y-151328571D01*
X78054761Y-151233333D01*
X78007142Y-151185714D01*
X77911904Y-151138095D01*
X77673809Y-151138095D01*
X77578571Y-151185714D01*
X77530952Y-151233333D01*
X77483333Y-151328571D01*
X77483333Y-151519047D01*
X77530952Y-151614285D01*
X77578571Y-151661904D01*
X77673809Y-151709523D01*
X104737142Y-149042380D02*
X104403809Y-148566190D01*
X104165714Y-149042380D02*
X104165714Y-148042380D01*
X104546666Y-148042380D01*
X104641904Y-148090000D01*
X104689523Y-148137619D01*
X104737142Y-148232857D01*
X104737142Y-148375714D01*
X104689523Y-148470952D01*
X104641904Y-148518571D01*
X104546666Y-148566190D01*
X104165714Y-148566190D01*
X105594285Y-148375714D02*
X105594285Y-149042380D01*
X105356190Y-147994761D02*
X105118095Y-148709047D01*
X105737142Y-148709047D01*
X106022857Y-148042380D02*
X106689523Y-148042380D01*
X106260952Y-149042380D01*
X89952380Y-148542857D02*
X89476190Y-148876190D01*
X89952380Y-149114285D02*
X88952380Y-149114285D01*
X88952380Y-148733333D01*
X89000000Y-148638095D01*
X89047619Y-148590476D01*
X89142857Y-148542857D01*
X89285714Y-148542857D01*
X89380952Y-148590476D01*
X89428571Y-148638095D01*
X89476190Y-148733333D01*
X89476190Y-149114285D01*
X89285714Y-147685714D02*
X89952380Y-147685714D01*
X88904761Y-147923809D02*
X89619047Y-148161904D01*
X89619047Y-147542857D01*
X89380952Y-147019047D02*
X89333333Y-147114285D01*
X89285714Y-147161904D01*
X89190476Y-147209523D01*
X89142857Y-147209523D01*
X89047619Y-147161904D01*
X89000000Y-147114285D01*
X88952380Y-147019047D01*
X88952380Y-146828571D01*
X89000000Y-146733333D01*
X89047619Y-146685714D01*
X89142857Y-146638095D01*
X89190476Y-146638095D01*
X89285714Y-146685714D01*
X89333333Y-146733333D01*
X89380952Y-146828571D01*
X89380952Y-147019047D01*
X89428571Y-147114285D01*
X89476190Y-147161904D01*
X89571428Y-147209523D01*
X89761904Y-147209523D01*
X89857142Y-147161904D01*
X89904761Y-147114285D01*
X89952380Y-147019047D01*
X89952380Y-146828571D01*
X89904761Y-146733333D01*
X89857142Y-146685714D01*
X89761904Y-146638095D01*
X89571428Y-146638095D01*
X89476190Y-146685714D01*
X89428571Y-146733333D01*
X89380952Y-146828571D01*
X105357142Y-92752380D02*
X105023809Y-92276190D01*
X104785714Y-92752380D02*
X104785714Y-91752380D01*
X105166666Y-91752380D01*
X105261904Y-91800000D01*
X105309523Y-91847619D01*
X105357142Y-91942857D01*
X105357142Y-92085714D01*
X105309523Y-92180952D01*
X105261904Y-92228571D01*
X105166666Y-92276190D01*
X104785714Y-92276190D01*
X106309523Y-92752380D02*
X105738095Y-92752380D01*
X106023809Y-92752380D02*
X106023809Y-91752380D01*
X105928571Y-91895238D01*
X105833333Y-91990476D01*
X105738095Y-92038095D01*
X107166666Y-91752380D02*
X106976190Y-91752380D01*
X106880952Y-91800000D01*
X106833333Y-91847619D01*
X106738095Y-91990476D01*
X106690476Y-92180952D01*
X106690476Y-92561904D01*
X106738095Y-92657142D01*
X106785714Y-92704761D01*
X106880952Y-92752380D01*
X107071428Y-92752380D01*
X107166666Y-92704761D01*
X107214285Y-92657142D01*
X107261904Y-92561904D01*
X107261904Y-92323809D01*
X107214285Y-92228571D01*
X107166666Y-92180952D01*
X107071428Y-92133333D01*
X106880952Y-92133333D01*
X106785714Y-92180952D01*
X106738095Y-92228571D01*
X106690476Y-92323809D01*
X113657142Y-106752380D02*
X113323809Y-106276190D01*
X113085714Y-106752380D02*
X113085714Y-105752380D01*
X113466666Y-105752380D01*
X113561904Y-105800000D01*
X113609523Y-105847619D01*
X113657142Y-105942857D01*
X113657142Y-106085714D01*
X113609523Y-106180952D01*
X113561904Y-106228571D01*
X113466666Y-106276190D01*
X113085714Y-106276190D01*
X114038095Y-105847619D02*
X114085714Y-105800000D01*
X114180952Y-105752380D01*
X114419047Y-105752380D01*
X114514285Y-105800000D01*
X114561904Y-105847619D01*
X114609523Y-105942857D01*
X114609523Y-106038095D01*
X114561904Y-106180952D01*
X113990476Y-106752380D01*
X114609523Y-106752380D01*
X115561904Y-106752380D02*
X114990476Y-106752380D01*
X115276190Y-106752380D02*
X115276190Y-105752380D01*
X115180952Y-105895238D01*
X115085714Y-105990476D01*
X114990476Y-106038095D01*
X113657142Y-101452380D02*
X113323809Y-100976190D01*
X113085714Y-101452380D02*
X113085714Y-100452380D01*
X113466666Y-100452380D01*
X113561904Y-100500000D01*
X113609523Y-100547619D01*
X113657142Y-100642857D01*
X113657142Y-100785714D01*
X113609523Y-100880952D01*
X113561904Y-100928571D01*
X113466666Y-100976190D01*
X113085714Y-100976190D01*
X114038095Y-100547619D02*
X114085714Y-100500000D01*
X114180952Y-100452380D01*
X114419047Y-100452380D01*
X114514285Y-100500000D01*
X114561904Y-100547619D01*
X114609523Y-100642857D01*
X114609523Y-100738095D01*
X114561904Y-100880952D01*
X113990476Y-101452380D01*
X114609523Y-101452380D01*
X115514285Y-100452380D02*
X115038095Y-100452380D01*
X114990476Y-100928571D01*
X115038095Y-100880952D01*
X115133333Y-100833333D01*
X115371428Y-100833333D01*
X115466666Y-100880952D01*
X115514285Y-100928571D01*
X115561904Y-101023809D01*
X115561904Y-101261904D01*
X115514285Y-101357142D01*
X115466666Y-101404761D01*
X115371428Y-101452380D01*
X115133333Y-101452380D01*
X115038095Y-101404761D01*
X114990476Y-101357142D01*
X107957142Y-128252380D02*
X107623809Y-127776190D01*
X107385714Y-128252380D02*
X107385714Y-127252380D01*
X107766666Y-127252380D01*
X107861904Y-127300000D01*
X107909523Y-127347619D01*
X107957142Y-127442857D01*
X107957142Y-127585714D01*
X107909523Y-127680952D01*
X107861904Y-127728571D01*
X107766666Y-127776190D01*
X107385714Y-127776190D01*
X108909523Y-128252380D02*
X108338095Y-128252380D01*
X108623809Y-128252380D02*
X108623809Y-127252380D01*
X108528571Y-127395238D01*
X108433333Y-127490476D01*
X108338095Y-127538095D01*
X109480952Y-127680952D02*
X109385714Y-127633333D01*
X109338095Y-127585714D01*
X109290476Y-127490476D01*
X109290476Y-127442857D01*
X109338095Y-127347619D01*
X109385714Y-127300000D01*
X109480952Y-127252380D01*
X109671428Y-127252380D01*
X109766666Y-127300000D01*
X109814285Y-127347619D01*
X109861904Y-127442857D01*
X109861904Y-127490476D01*
X109814285Y-127585714D01*
X109766666Y-127633333D01*
X109671428Y-127680952D01*
X109480952Y-127680952D01*
X109385714Y-127728571D01*
X109338095Y-127776190D01*
X109290476Y-127871428D01*
X109290476Y-128061904D01*
X109338095Y-128157142D01*
X109385714Y-128204761D01*
X109480952Y-128252380D01*
X109671428Y-128252380D01*
X109766666Y-128204761D01*
X109814285Y-128157142D01*
X109861904Y-128061904D01*
X109861904Y-127871428D01*
X109814285Y-127776190D01*
X109766666Y-127728571D01*
X109671428Y-127680952D01*
X103357142Y-122952380D02*
X103023809Y-122476190D01*
X102785714Y-122952380D02*
X102785714Y-121952380D01*
X103166666Y-121952380D01*
X103261904Y-122000000D01*
X103309523Y-122047619D01*
X103357142Y-122142857D01*
X103357142Y-122285714D01*
X103309523Y-122380952D01*
X103261904Y-122428571D01*
X103166666Y-122476190D01*
X102785714Y-122476190D01*
X103738095Y-122047619D02*
X103785714Y-122000000D01*
X103880952Y-121952380D01*
X104119047Y-121952380D01*
X104214285Y-122000000D01*
X104261904Y-122047619D01*
X104309523Y-122142857D01*
X104309523Y-122238095D01*
X104261904Y-122380952D01*
X103690476Y-122952380D01*
X104309523Y-122952380D01*
X104690476Y-122047619D02*
X104738095Y-122000000D01*
X104833333Y-121952380D01*
X105071428Y-121952380D01*
X105166666Y-122000000D01*
X105214285Y-122047619D01*
X105261904Y-122142857D01*
X105261904Y-122238095D01*
X105214285Y-122380952D01*
X104642857Y-122952380D01*
X105261904Y-122952380D01*
X114357142Y-126752380D02*
X114023809Y-126276190D01*
X113785714Y-126752380D02*
X113785714Y-125752380D01*
X114166666Y-125752380D01*
X114261904Y-125800000D01*
X114309523Y-125847619D01*
X114357142Y-125942857D01*
X114357142Y-126085714D01*
X114309523Y-126180952D01*
X114261904Y-126228571D01*
X114166666Y-126276190D01*
X113785714Y-126276190D01*
X114738095Y-125847619D02*
X114785714Y-125800000D01*
X114880952Y-125752380D01*
X115119047Y-125752380D01*
X115214285Y-125800000D01*
X115261904Y-125847619D01*
X115309523Y-125942857D01*
X115309523Y-126038095D01*
X115261904Y-126180952D01*
X114690476Y-126752380D01*
X115309523Y-126752380D01*
X115642857Y-125752380D02*
X116261904Y-125752380D01*
X115928571Y-126133333D01*
X116071428Y-126133333D01*
X116166666Y-126180952D01*
X116214285Y-126228571D01*
X116261904Y-126323809D01*
X116261904Y-126561904D01*
X116214285Y-126657142D01*
X116166666Y-126704761D01*
X116071428Y-126752380D01*
X115785714Y-126752380D01*
X115690476Y-126704761D01*
X115642857Y-126657142D01*
X103257142Y-119752380D02*
X102923809Y-119276190D01*
X102685714Y-119752380D02*
X102685714Y-118752380D01*
X103066666Y-118752380D01*
X103161904Y-118800000D01*
X103209523Y-118847619D01*
X103257142Y-118942857D01*
X103257142Y-119085714D01*
X103209523Y-119180952D01*
X103161904Y-119228571D01*
X103066666Y-119276190D01*
X102685714Y-119276190D01*
X103638095Y-118847619D02*
X103685714Y-118800000D01*
X103780952Y-118752380D01*
X104019047Y-118752380D01*
X104114285Y-118800000D01*
X104161904Y-118847619D01*
X104209523Y-118942857D01*
X104209523Y-119038095D01*
X104161904Y-119180952D01*
X103590476Y-119752380D01*
X104209523Y-119752380D01*
X105066666Y-118752380D02*
X104876190Y-118752380D01*
X104780952Y-118800000D01*
X104733333Y-118847619D01*
X104638095Y-118990476D01*
X104590476Y-119180952D01*
X104590476Y-119561904D01*
X104638095Y-119657142D01*
X104685714Y-119704761D01*
X104780952Y-119752380D01*
X104971428Y-119752380D01*
X105066666Y-119704761D01*
X105114285Y-119657142D01*
X105161904Y-119561904D01*
X105161904Y-119323809D01*
X105114285Y-119228571D01*
X105066666Y-119180952D01*
X104971428Y-119133333D01*
X104780952Y-119133333D01*
X104685714Y-119180952D01*
X104638095Y-119228571D01*
X104590476Y-119323809D01*
X115627380Y-118542857D02*
X115151190Y-118876190D01*
X115627380Y-119114285D02*
X114627380Y-119114285D01*
X114627380Y-118733333D01*
X114675000Y-118638095D01*
X114722619Y-118590476D01*
X114817857Y-118542857D01*
X114960714Y-118542857D01*
X115055952Y-118590476D01*
X115103571Y-118638095D01*
X115151190Y-118733333D01*
X115151190Y-119114285D01*
X114722619Y-118161904D02*
X114675000Y-118114285D01*
X114627380Y-118019047D01*
X114627380Y-117780952D01*
X114675000Y-117685714D01*
X114722619Y-117638095D01*
X114817857Y-117590476D01*
X114913095Y-117590476D01*
X115055952Y-117638095D01*
X115627380Y-118209523D01*
X115627380Y-117590476D01*
X114627380Y-117257142D02*
X114627380Y-116590476D01*
X115627380Y-117019047D01*
X101133333Y-92532380D02*
X100800000Y-92056190D01*
X100561904Y-92532380D02*
X100561904Y-91532380D01*
X100942857Y-91532380D01*
X101038095Y-91580000D01*
X101085714Y-91627619D01*
X101133333Y-91722857D01*
X101133333Y-91865714D01*
X101085714Y-91960952D01*
X101038095Y-92008571D01*
X100942857Y-92056190D01*
X100561904Y-92056190D01*
X101514285Y-91627619D02*
X101561904Y-91580000D01*
X101657142Y-91532380D01*
X101895238Y-91532380D01*
X101990476Y-91580000D01*
X102038095Y-91627619D01*
X102085714Y-91722857D01*
X102085714Y-91818095D01*
X102038095Y-91960952D01*
X101466666Y-92532380D01*
X102085714Y-92532380D01*
X112057142Y-128057142D02*
X112009523Y-128104761D01*
X111866666Y-128152380D01*
X111771428Y-128152380D01*
X111628571Y-128104761D01*
X111533333Y-128009523D01*
X111485714Y-127914285D01*
X111438095Y-127723809D01*
X111438095Y-127580952D01*
X111485714Y-127390476D01*
X111533333Y-127295238D01*
X111628571Y-127200000D01*
X111771428Y-127152380D01*
X111866666Y-127152380D01*
X112009523Y-127200000D01*
X112057142Y-127247619D01*
X112438095Y-127247619D02*
X112485714Y-127200000D01*
X112580952Y-127152380D01*
X112819047Y-127152380D01*
X112914285Y-127200000D01*
X112961904Y-127247619D01*
X113009523Y-127342857D01*
X113009523Y-127438095D01*
X112961904Y-127580952D01*
X112390476Y-128152380D01*
X113009523Y-128152380D01*
X113866666Y-127485714D02*
X113866666Y-128152380D01*
X113628571Y-127104761D02*
X113390476Y-127819047D01*
X114009523Y-127819047D01*
X78707142Y-66707142D02*
X78659523Y-66754761D01*
X78516666Y-66802380D01*
X78421428Y-66802380D01*
X78278571Y-66754761D01*
X78183333Y-66659523D01*
X78135714Y-66564285D01*
X78088095Y-66373809D01*
X78088095Y-66230952D01*
X78135714Y-66040476D01*
X78183333Y-65945238D01*
X78278571Y-65850000D01*
X78421428Y-65802380D01*
X78516666Y-65802380D01*
X78659523Y-65850000D01*
X78707142Y-65897619D01*
X79088095Y-65897619D02*
X79135714Y-65850000D01*
X79230952Y-65802380D01*
X79469047Y-65802380D01*
X79564285Y-65850000D01*
X79611904Y-65897619D01*
X79659523Y-65992857D01*
X79659523Y-66088095D01*
X79611904Y-66230952D01*
X79040476Y-66802380D01*
X79659523Y-66802380D01*
X80564285Y-65802380D02*
X80088095Y-65802380D01*
X80040476Y-66278571D01*
X80088095Y-66230952D01*
X80183333Y-66183333D01*
X80421428Y-66183333D01*
X80516666Y-66230952D01*
X80564285Y-66278571D01*
X80611904Y-66373809D01*
X80611904Y-66611904D01*
X80564285Y-66707142D01*
X80516666Y-66754761D01*
X80421428Y-66802380D01*
X80183333Y-66802380D01*
X80088095Y-66754761D01*
X80040476Y-66707142D01*
X101133333Y-90622380D02*
X100800000Y-90146190D01*
X100561904Y-90622380D02*
X100561904Y-89622380D01*
X100942857Y-89622380D01*
X101038095Y-89670000D01*
X101085714Y-89717619D01*
X101133333Y-89812857D01*
X101133333Y-89955714D01*
X101085714Y-90050952D01*
X101038095Y-90098571D01*
X100942857Y-90146190D01*
X100561904Y-90146190D01*
X102085714Y-90622380D02*
X101514285Y-90622380D01*
X101800000Y-90622380D02*
X101800000Y-89622380D01*
X101704761Y-89765238D01*
X101609523Y-89860476D01*
X101514285Y-89908095D01*
X103457142Y-89352380D02*
X103123809Y-88876190D01*
X102885714Y-89352380D02*
X102885714Y-88352380D01*
X103266666Y-88352380D01*
X103361904Y-88400000D01*
X103409523Y-88447619D01*
X103457142Y-88542857D01*
X103457142Y-88685714D01*
X103409523Y-88780952D01*
X103361904Y-88828571D01*
X103266666Y-88876190D01*
X102885714Y-88876190D01*
X103838095Y-88447619D02*
X103885714Y-88400000D01*
X103980952Y-88352380D01*
X104219047Y-88352380D01*
X104314285Y-88400000D01*
X104361904Y-88447619D01*
X104409523Y-88542857D01*
X104409523Y-88638095D01*
X104361904Y-88780952D01*
X103790476Y-89352380D01*
X104409523Y-89352380D01*
X105028571Y-88352380D02*
X105123809Y-88352380D01*
X105219047Y-88400000D01*
X105266666Y-88447619D01*
X105314285Y-88542857D01*
X105361904Y-88733333D01*
X105361904Y-88971428D01*
X105314285Y-89161904D01*
X105266666Y-89257142D01*
X105219047Y-89304761D01*
X105123809Y-89352380D01*
X105028571Y-89352380D01*
X104933333Y-89304761D01*
X104885714Y-89257142D01*
X104838095Y-89161904D01*
X104790476Y-88971428D01*
X104790476Y-88733333D01*
X104838095Y-88542857D01*
X104885714Y-88447619D01*
X104933333Y-88400000D01*
X105028571Y-88352380D01*
X92411904Y-150952380D02*
X92411904Y-151761904D01*
X92459523Y-151857142D01*
X92507142Y-151904761D01*
X92602380Y-151952380D01*
X92792857Y-151952380D01*
X92888095Y-151904761D01*
X92935714Y-151857142D01*
X92983333Y-151761904D01*
X92983333Y-150952380D01*
X93983333Y-151952380D02*
X93411904Y-151952380D01*
X93697619Y-151952380D02*
X93697619Y-150952380D01*
X93602380Y-151095238D01*
X93507142Y-151190476D01*
X93411904Y-151238095D01*
X94602380Y-150952380D02*
X94697619Y-150952380D01*
X94792857Y-151000000D01*
X94840476Y-151047619D01*
X94888095Y-151142857D01*
X94935714Y-151333333D01*
X94935714Y-151571428D01*
X94888095Y-151761904D01*
X94840476Y-151857142D01*
X94792857Y-151904761D01*
X94697619Y-151952380D01*
X94602380Y-151952380D01*
X94507142Y-151904761D01*
X94459523Y-151857142D01*
X94411904Y-151761904D01*
X94364285Y-151571428D01*
X94364285Y-151333333D01*
X94411904Y-151142857D01*
X94459523Y-151047619D01*
X94507142Y-151000000D01*
X94602380Y-150952380D01*
X95133333Y-60757142D02*
X95085714Y-60804761D01*
X94942857Y-60852380D01*
X94847619Y-60852380D01*
X94704761Y-60804761D01*
X94609523Y-60709523D01*
X94561904Y-60614285D01*
X94514285Y-60423809D01*
X94514285Y-60280952D01*
X94561904Y-60090476D01*
X94609523Y-59995238D01*
X94704761Y-59900000D01*
X94847619Y-59852380D01*
X94942857Y-59852380D01*
X95085714Y-59900000D01*
X95133333Y-59947619D01*
X95466666Y-59852380D02*
X96133333Y-59852380D01*
X95704761Y-60852380D01*
X95033333Y-58357142D02*
X94985714Y-58404761D01*
X94842857Y-58452380D01*
X94747619Y-58452380D01*
X94604761Y-58404761D01*
X94509523Y-58309523D01*
X94461904Y-58214285D01*
X94414285Y-58023809D01*
X94414285Y-57880952D01*
X94461904Y-57690476D01*
X94509523Y-57595238D01*
X94604761Y-57500000D01*
X94747619Y-57452380D01*
X94842857Y-57452380D01*
X94985714Y-57500000D01*
X95033333Y-57547619D01*
X95890476Y-57452380D02*
X95700000Y-57452380D01*
X95604761Y-57500000D01*
X95557142Y-57547619D01*
X95461904Y-57690476D01*
X95414285Y-57880952D01*
X95414285Y-58261904D01*
X95461904Y-58357142D01*
X95509523Y-58404761D01*
X95604761Y-58452380D01*
X95795238Y-58452380D01*
X95890476Y-58404761D01*
X95938095Y-58357142D01*
X95985714Y-58261904D01*
X95985714Y-58023809D01*
X95938095Y-57928571D01*
X95890476Y-57880952D01*
X95795238Y-57833333D01*
X95604761Y-57833333D01*
X95509523Y-57880952D01*
X95461904Y-57928571D01*
X95414285Y-58023809D01*
X107002380Y-154992857D02*
X106526190Y-155326190D01*
X107002380Y-155564285D02*
X106002380Y-155564285D01*
X106002380Y-155183333D01*
X106050000Y-155088095D01*
X106097619Y-155040476D01*
X106192857Y-154992857D01*
X106335714Y-154992857D01*
X106430952Y-155040476D01*
X106478571Y-155088095D01*
X106526190Y-155183333D01*
X106526190Y-155564285D01*
X106335714Y-154135714D02*
X107002380Y-154135714D01*
X105954761Y-154373809D02*
X106669047Y-154611904D01*
X106669047Y-153992857D01*
X107002380Y-153564285D02*
X107002380Y-153373809D01*
X106954761Y-153278571D01*
X106907142Y-153230952D01*
X106764285Y-153135714D01*
X106573809Y-153088095D01*
X106192857Y-153088095D01*
X106097619Y-153135714D01*
X106050000Y-153183333D01*
X106002380Y-153278571D01*
X106002380Y-153469047D01*
X106050000Y-153564285D01*
X106097619Y-153611904D01*
X106192857Y-153659523D01*
X106430952Y-153659523D01*
X106526190Y-153611904D01*
X106573809Y-153564285D01*
X106621428Y-153469047D01*
X106621428Y-153278571D01*
X106573809Y-153183333D01*
X106526190Y-153135714D01*
X106430952Y-153088095D01*
X88957142Y-153002380D02*
X88623809Y-152526190D01*
X88385714Y-153002380D02*
X88385714Y-152002380D01*
X88766666Y-152002380D01*
X88861904Y-152050000D01*
X88909523Y-152097619D01*
X88957142Y-152192857D01*
X88957142Y-152335714D01*
X88909523Y-152430952D01*
X88861904Y-152478571D01*
X88766666Y-152526190D01*
X88385714Y-152526190D01*
X89861904Y-152002380D02*
X89385714Y-152002380D01*
X89338095Y-152478571D01*
X89385714Y-152430952D01*
X89480952Y-152383333D01*
X89719047Y-152383333D01*
X89814285Y-152430952D01*
X89861904Y-152478571D01*
X89909523Y-152573809D01*
X89909523Y-152811904D01*
X89861904Y-152907142D01*
X89814285Y-152954761D01*
X89719047Y-153002380D01*
X89480952Y-153002380D01*
X89385714Y-152954761D01*
X89338095Y-152907142D01*
X90528571Y-152002380D02*
X90623809Y-152002380D01*
X90719047Y-152050000D01*
X90766666Y-152097619D01*
X90814285Y-152192857D01*
X90861904Y-152383333D01*
X90861904Y-152621428D01*
X90814285Y-152811904D01*
X90766666Y-152907142D01*
X90719047Y-152954761D01*
X90623809Y-153002380D01*
X90528571Y-153002380D01*
X90433333Y-152954761D01*
X90385714Y-152907142D01*
X90338095Y-152811904D01*
X90290476Y-152621428D01*
X90290476Y-152383333D01*
X90338095Y-152192857D01*
X90385714Y-152097619D01*
X90433333Y-152050000D01*
X90528571Y-152002380D01*
X99052142Y-148947142D02*
X99004523Y-148994761D01*
X98861666Y-149042380D01*
X98766428Y-149042380D01*
X98623571Y-148994761D01*
X98528333Y-148899523D01*
X98480714Y-148804285D01*
X98433095Y-148613809D01*
X98433095Y-148470952D01*
X98480714Y-148280476D01*
X98528333Y-148185238D01*
X98623571Y-148090000D01*
X98766428Y-148042380D01*
X98861666Y-148042380D01*
X99004523Y-148090000D01*
X99052142Y-148137619D01*
X99433095Y-148137619D02*
X99480714Y-148090000D01*
X99575952Y-148042380D01*
X99814047Y-148042380D01*
X99909285Y-148090000D01*
X99956904Y-148137619D01*
X100004523Y-148232857D01*
X100004523Y-148328095D01*
X99956904Y-148470952D01*
X99385476Y-149042380D01*
X100004523Y-149042380D01*
X100623571Y-148042380D02*
X100718809Y-148042380D01*
X100814047Y-148090000D01*
X100861666Y-148137619D01*
X100909285Y-148232857D01*
X100956904Y-148423333D01*
X100956904Y-148661428D01*
X100909285Y-148851904D01*
X100861666Y-148947142D01*
X100814047Y-148994761D01*
X100718809Y-149042380D01*
X100623571Y-149042380D01*
X100528333Y-148994761D01*
X100480714Y-148947142D01*
X100433095Y-148851904D01*
X100385476Y-148661428D01*
X100385476Y-148423333D01*
X100433095Y-148232857D01*
X100480714Y-148137619D01*
X100528333Y-148090000D01*
X100623571Y-148042380D01*
X78652380Y-151538095D02*
X79461904Y-151538095D01*
X79557142Y-151490476D01*
X79604761Y-151442857D01*
X79652380Y-151347619D01*
X79652380Y-151157142D01*
X79604761Y-151061904D01*
X79557142Y-151014285D01*
X79461904Y-150966666D01*
X78652380Y-150966666D01*
X79652380Y-149966666D02*
X79652380Y-150538095D01*
X79652380Y-150252380D02*
X78652380Y-150252380D01*
X78795238Y-150347619D01*
X78890476Y-150442857D01*
X78938095Y-150538095D01*
X79652380Y-149014285D02*
X79652380Y-149585714D01*
X79652380Y-149300000D02*
X78652380Y-149300000D01*
X78795238Y-149395238D01*
X78890476Y-149490476D01*
X78938095Y-149585714D01*
X106033333Y-83288142D02*
X105985714Y-83335761D01*
X105842857Y-83383380D01*
X105747619Y-83383380D01*
X105604761Y-83335761D01*
X105509523Y-83240523D01*
X105461904Y-83145285D01*
X105414285Y-82954809D01*
X105414285Y-82811952D01*
X105461904Y-82621476D01*
X105509523Y-82526238D01*
X105604761Y-82431000D01*
X105747619Y-82383380D01*
X105842857Y-82383380D01*
X105985714Y-82431000D01*
X106033333Y-82478619D01*
X106366666Y-82383380D02*
X106985714Y-82383380D01*
X106652380Y-82764333D01*
X106795238Y-82764333D01*
X106890476Y-82811952D01*
X106938095Y-82859571D01*
X106985714Y-82954809D01*
X106985714Y-83192904D01*
X106938095Y-83288142D01*
X106890476Y-83335761D01*
X106795238Y-83383380D01*
X106509523Y-83383380D01*
X106414285Y-83335761D01*
X106366666Y-83288142D01*
X80807142Y-79507142D02*
X80759523Y-79554761D01*
X80616666Y-79602380D01*
X80521428Y-79602380D01*
X80378571Y-79554761D01*
X80283333Y-79459523D01*
X80235714Y-79364285D01*
X80188095Y-79173809D01*
X80188095Y-79030952D01*
X80235714Y-78840476D01*
X80283333Y-78745238D01*
X80378571Y-78650000D01*
X80521428Y-78602380D01*
X80616666Y-78602380D01*
X80759523Y-78650000D01*
X80807142Y-78697619D01*
X81759523Y-79602380D02*
X81188095Y-79602380D01*
X81473809Y-79602380D02*
X81473809Y-78602380D01*
X81378571Y-78745238D01*
X81283333Y-78840476D01*
X81188095Y-78888095D01*
X82140476Y-78697619D02*
X82188095Y-78650000D01*
X82283333Y-78602380D01*
X82521428Y-78602380D01*
X82616666Y-78650000D01*
X82664285Y-78697619D01*
X82711904Y-78792857D01*
X82711904Y-78888095D01*
X82664285Y-79030952D01*
X82092857Y-79602380D01*
X82711904Y-79602380D01*
X94607142Y-126341142D02*
X94559523Y-126388761D01*
X94416666Y-126436380D01*
X94321428Y-126436380D01*
X94178571Y-126388761D01*
X94083333Y-126293523D01*
X94035714Y-126198285D01*
X93988095Y-126007809D01*
X93988095Y-125864952D01*
X94035714Y-125674476D01*
X94083333Y-125579238D01*
X94178571Y-125484000D01*
X94321428Y-125436380D01*
X94416666Y-125436380D01*
X94559523Y-125484000D01*
X94607142Y-125531619D01*
X95559523Y-126436380D02*
X94988095Y-126436380D01*
X95273809Y-126436380D02*
X95273809Y-125436380D01*
X95178571Y-125579238D01*
X95083333Y-125674476D01*
X94988095Y-125722095D01*
X95892857Y-125436380D02*
X96559523Y-125436380D01*
X96130952Y-126436380D01*
X89857142Y-60457142D02*
X89809523Y-60504761D01*
X89666666Y-60552380D01*
X89571428Y-60552380D01*
X89428571Y-60504761D01*
X89333333Y-60409523D01*
X89285714Y-60314285D01*
X89238095Y-60123809D01*
X89238095Y-59980952D01*
X89285714Y-59790476D01*
X89333333Y-59695238D01*
X89428571Y-59600000D01*
X89571428Y-59552380D01*
X89666666Y-59552380D01*
X89809523Y-59600000D01*
X89857142Y-59647619D01*
X90809523Y-60552380D02*
X90238095Y-60552380D01*
X90523809Y-60552380D02*
X90523809Y-59552380D01*
X90428571Y-59695238D01*
X90333333Y-59790476D01*
X90238095Y-59838095D01*
X91666666Y-59552380D02*
X91476190Y-59552380D01*
X91380952Y-59600000D01*
X91333333Y-59647619D01*
X91238095Y-59790476D01*
X91190476Y-59980952D01*
X91190476Y-60361904D01*
X91238095Y-60457142D01*
X91285714Y-60504761D01*
X91380952Y-60552380D01*
X91571428Y-60552380D01*
X91666666Y-60504761D01*
X91714285Y-60457142D01*
X91761904Y-60361904D01*
X91761904Y-60123809D01*
X91714285Y-60028571D01*
X91666666Y-59980952D01*
X91571428Y-59933333D01*
X91380952Y-59933333D01*
X91285714Y-59980952D01*
X91238095Y-60028571D01*
X91190476Y-60123809D01*
X82557142Y-70057142D02*
X82509523Y-70104761D01*
X82366666Y-70152380D01*
X82271428Y-70152380D01*
X82128571Y-70104761D01*
X82033333Y-70009523D01*
X81985714Y-69914285D01*
X81938095Y-69723809D01*
X81938095Y-69580952D01*
X81985714Y-69390476D01*
X82033333Y-69295238D01*
X82128571Y-69200000D01*
X82271428Y-69152380D01*
X82366666Y-69152380D01*
X82509523Y-69200000D01*
X82557142Y-69247619D01*
X83509523Y-70152380D02*
X82938095Y-70152380D01*
X83223809Y-70152380D02*
X83223809Y-69152380D01*
X83128571Y-69295238D01*
X83033333Y-69390476D01*
X82938095Y-69438095D01*
X83985714Y-70152380D02*
X84176190Y-70152380D01*
X84271428Y-70104761D01*
X84319047Y-70057142D01*
X84414285Y-69914285D01*
X84461904Y-69723809D01*
X84461904Y-69342857D01*
X84414285Y-69247619D01*
X84366666Y-69200000D01*
X84271428Y-69152380D01*
X84080952Y-69152380D01*
X83985714Y-69200000D01*
X83938095Y-69247619D01*
X83890476Y-69342857D01*
X83890476Y-69580952D01*
X83938095Y-69676190D01*
X83985714Y-69723809D01*
X84080952Y-69771428D01*
X84271428Y-69771428D01*
X84366666Y-69723809D01*
X84414285Y-69676190D01*
X84461904Y-69580952D01*
X83602380Y-159442857D02*
X83126190Y-159776190D01*
X83602380Y-160014285D02*
X82602380Y-160014285D01*
X82602380Y-159633333D01*
X82650000Y-159538095D01*
X82697619Y-159490476D01*
X82792857Y-159442857D01*
X82935714Y-159442857D01*
X83030952Y-159490476D01*
X83078571Y-159538095D01*
X83126190Y-159633333D01*
X83126190Y-160014285D01*
X82602380Y-158538095D02*
X82602380Y-159014285D01*
X83078571Y-159061904D01*
X83030952Y-159014285D01*
X82983333Y-158919047D01*
X82983333Y-158680952D01*
X83030952Y-158585714D01*
X83078571Y-158538095D01*
X83173809Y-158490476D01*
X83411904Y-158490476D01*
X83507142Y-158538095D01*
X83554761Y-158585714D01*
X83602380Y-158680952D01*
X83602380Y-158919047D01*
X83554761Y-159014285D01*
X83507142Y-159061904D01*
X82602380Y-158157142D02*
X82602380Y-157538095D01*
X82983333Y-157871428D01*
X82983333Y-157728571D01*
X83030952Y-157633333D01*
X83078571Y-157585714D01*
X83173809Y-157538095D01*
X83411904Y-157538095D01*
X83507142Y-157585714D01*
X83554761Y-157633333D01*
X83602380Y-157728571D01*
X83602380Y-158014285D01*
X83554761Y-158109523D01*
X83507142Y-158157142D01*
X96557142Y-158452380D02*
X96223809Y-157976190D01*
X95985714Y-158452380D02*
X95985714Y-157452380D01*
X96366666Y-157452380D01*
X96461904Y-157500000D01*
X96509523Y-157547619D01*
X96557142Y-157642857D01*
X96557142Y-157785714D01*
X96509523Y-157880952D01*
X96461904Y-157928571D01*
X96366666Y-157976190D01*
X95985714Y-157976190D01*
X97461904Y-157452380D02*
X96985714Y-157452380D01*
X96938095Y-157928571D01*
X96985714Y-157880952D01*
X97080952Y-157833333D01*
X97319047Y-157833333D01*
X97414285Y-157880952D01*
X97461904Y-157928571D01*
X97509523Y-158023809D01*
X97509523Y-158261904D01*
X97461904Y-158357142D01*
X97414285Y-158404761D01*
X97319047Y-158452380D01*
X97080952Y-158452380D01*
X96985714Y-158404761D01*
X96938095Y-158357142D01*
X98366666Y-157785714D02*
X98366666Y-158452380D01*
X98128571Y-157404761D02*
X97890476Y-158119047D01*
X98509523Y-158119047D01*
X103857142Y-152342857D02*
X103904761Y-152390476D01*
X103952380Y-152533333D01*
X103952380Y-152628571D01*
X103904761Y-152771428D01*
X103809523Y-152866666D01*
X103714285Y-152914285D01*
X103523809Y-152961904D01*
X103380952Y-152961904D01*
X103190476Y-152914285D01*
X103095238Y-152866666D01*
X103000000Y-152771428D01*
X102952380Y-152628571D01*
X102952380Y-152533333D01*
X103000000Y-152390476D01*
X103047619Y-152342857D01*
X102952380Y-152009523D02*
X102952380Y-151390476D01*
X103333333Y-151723809D01*
X103333333Y-151580952D01*
X103380952Y-151485714D01*
X103428571Y-151438095D01*
X103523809Y-151390476D01*
X103761904Y-151390476D01*
X103857142Y-151438095D01*
X103904761Y-151485714D01*
X103952380Y-151580952D01*
X103952380Y-151866666D01*
X103904761Y-151961904D01*
X103857142Y-152009523D01*
X103380952Y-150819047D02*
X103333333Y-150914285D01*
X103285714Y-150961904D01*
X103190476Y-151009523D01*
X103142857Y-151009523D01*
X103047619Y-150961904D01*
X103000000Y-150914285D01*
X102952380Y-150819047D01*
X102952380Y-150628571D01*
X103000000Y-150533333D01*
X103047619Y-150485714D01*
X103142857Y-150438095D01*
X103190476Y-150438095D01*
X103285714Y-150485714D01*
X103333333Y-150533333D01*
X103380952Y-150628571D01*
X103380952Y-150819047D01*
X103428571Y-150914285D01*
X103476190Y-150961904D01*
X103571428Y-151009523D01*
X103761904Y-151009523D01*
X103857142Y-150961904D01*
X103904761Y-150914285D01*
X103952380Y-150819047D01*
X103952380Y-150628571D01*
X103904761Y-150533333D01*
X103857142Y-150485714D01*
X103761904Y-150438095D01*
X103571428Y-150438095D01*
X103476190Y-150485714D01*
X103428571Y-150533333D01*
X103380952Y-150628571D01*
X113038095Y-82852380D02*
X113038095Y-83661904D01*
X113085714Y-83757142D01*
X113133333Y-83804761D01*
X113228571Y-83852380D01*
X113419047Y-83852380D01*
X113514285Y-83804761D01*
X113561904Y-83757142D01*
X113609523Y-83661904D01*
X113609523Y-82852380D01*
X113990476Y-82852380D02*
X114657142Y-82852380D01*
X114228571Y-83852380D01*
X92933333Y-58357142D02*
X92885714Y-58404761D01*
X92742857Y-58452380D01*
X92647619Y-58452380D01*
X92504761Y-58404761D01*
X92409523Y-58309523D01*
X92361904Y-58214285D01*
X92314285Y-58023809D01*
X92314285Y-57880952D01*
X92361904Y-57690476D01*
X92409523Y-57595238D01*
X92504761Y-57500000D01*
X92647619Y-57452380D01*
X92742857Y-57452380D01*
X92885714Y-57500000D01*
X92933333Y-57547619D01*
X93790476Y-57785714D02*
X93790476Y-58452380D01*
X93552380Y-57404761D02*
X93314285Y-58119047D01*
X93933333Y-58119047D01*
X107942142Y-130627380D02*
X107608809Y-130151190D01*
X107370714Y-130627380D02*
X107370714Y-129627380D01*
X107751666Y-129627380D01*
X107846904Y-129675000D01*
X107894523Y-129722619D01*
X107942142Y-129817857D01*
X107942142Y-129960714D01*
X107894523Y-130055952D01*
X107846904Y-130103571D01*
X107751666Y-130151190D01*
X107370714Y-130151190D01*
X108894523Y-130627380D02*
X108323095Y-130627380D01*
X108608809Y-130627380D02*
X108608809Y-129627380D01*
X108513571Y-129770238D01*
X108418333Y-129865476D01*
X108323095Y-129913095D01*
X109370714Y-130627380D02*
X109561190Y-130627380D01*
X109656428Y-130579761D01*
X109704047Y-130532142D01*
X109799285Y-130389285D01*
X109846904Y-130198809D01*
X109846904Y-129817857D01*
X109799285Y-129722619D01*
X109751666Y-129675000D01*
X109656428Y-129627380D01*
X109465952Y-129627380D01*
X109370714Y-129675000D01*
X109323095Y-129722619D01*
X109275476Y-129817857D01*
X109275476Y-130055952D01*
X109323095Y-130151190D01*
X109370714Y-130198809D01*
X109465952Y-130246428D01*
X109656428Y-130246428D01*
X109751666Y-130198809D01*
X109799285Y-130151190D01*
X109846904Y-130055952D01*
X108458095Y-150582380D02*
X108458095Y-151391904D01*
X108505714Y-151487142D01*
X108553333Y-151534761D01*
X108648571Y-151582380D01*
X108839047Y-151582380D01*
X108934285Y-151534761D01*
X108981904Y-151487142D01*
X109029523Y-151391904D01*
X109029523Y-150582380D01*
X109934285Y-150582380D02*
X109743809Y-150582380D01*
X109648571Y-150630000D01*
X109600952Y-150677619D01*
X109505714Y-150820476D01*
X109458095Y-151010952D01*
X109458095Y-151391904D01*
X109505714Y-151487142D01*
X109553333Y-151534761D01*
X109648571Y-151582380D01*
X109839047Y-151582380D01*
X109934285Y-151534761D01*
X109981904Y-151487142D01*
X110029523Y-151391904D01*
X110029523Y-151153809D01*
X109981904Y-151058571D01*
X109934285Y-151010952D01*
X109839047Y-150963333D01*
X109648571Y-150963333D01*
X109553333Y-151010952D01*
X109505714Y-151058571D01*
X109458095Y-151153809D01*
X86838095Y-116152380D02*
X86838095Y-116961904D01*
X86885714Y-117057142D01*
X86933333Y-117104761D01*
X87028571Y-117152380D01*
X87219047Y-117152380D01*
X87314285Y-117104761D01*
X87361904Y-117057142D01*
X87409523Y-116961904D01*
X87409523Y-116152380D01*
X87790476Y-116152380D02*
X88409523Y-116152380D01*
X88076190Y-116533333D01*
X88219047Y-116533333D01*
X88314285Y-116580952D01*
X88361904Y-116628571D01*
X88409523Y-116723809D01*
X88409523Y-116961904D01*
X88361904Y-117057142D01*
X88314285Y-117104761D01*
X88219047Y-117152380D01*
X87933333Y-117152380D01*
X87838095Y-117104761D01*
X87790476Y-117057142D01*
X87233333Y-91257142D02*
X87185714Y-91304761D01*
X87042857Y-91352380D01*
X86947619Y-91352380D01*
X86804761Y-91304761D01*
X86709523Y-91209523D01*
X86661904Y-91114285D01*
X86614285Y-90923809D01*
X86614285Y-90780952D01*
X86661904Y-90590476D01*
X86709523Y-90495238D01*
X86804761Y-90400000D01*
X86947619Y-90352380D01*
X87042857Y-90352380D01*
X87185714Y-90400000D01*
X87233333Y-90447619D01*
X87804761Y-90780952D02*
X87709523Y-90733333D01*
X87661904Y-90685714D01*
X87614285Y-90590476D01*
X87614285Y-90542857D01*
X87661904Y-90447619D01*
X87709523Y-90400000D01*
X87804761Y-90352380D01*
X87995238Y-90352380D01*
X88090476Y-90400000D01*
X88138095Y-90447619D01*
X88185714Y-90542857D01*
X88185714Y-90590476D01*
X88138095Y-90685714D01*
X88090476Y-90733333D01*
X87995238Y-90780952D01*
X87804761Y-90780952D01*
X87709523Y-90828571D01*
X87661904Y-90876190D01*
X87614285Y-90971428D01*
X87614285Y-91161904D01*
X87661904Y-91257142D01*
X87709523Y-91304761D01*
X87804761Y-91352380D01*
X87995238Y-91352380D01*
X88090476Y-91304761D01*
X88138095Y-91257142D01*
X88185714Y-91161904D01*
X88185714Y-90971428D01*
X88138095Y-90876190D01*
X88090476Y-90828571D01*
X87995238Y-90780952D01*
X87057142Y-125457142D02*
X87009523Y-125504761D01*
X86866666Y-125552380D01*
X86771428Y-125552380D01*
X86628571Y-125504761D01*
X86533333Y-125409523D01*
X86485714Y-125314285D01*
X86438095Y-125123809D01*
X86438095Y-124980952D01*
X86485714Y-124790476D01*
X86533333Y-124695238D01*
X86628571Y-124600000D01*
X86771428Y-124552380D01*
X86866666Y-124552380D01*
X87009523Y-124600000D01*
X87057142Y-124647619D01*
X87438095Y-124647619D02*
X87485714Y-124600000D01*
X87580952Y-124552380D01*
X87819047Y-124552380D01*
X87914285Y-124600000D01*
X87961904Y-124647619D01*
X88009523Y-124742857D01*
X88009523Y-124838095D01*
X87961904Y-124980952D01*
X87390476Y-125552380D01*
X88009523Y-125552380D01*
X88342857Y-124552380D02*
X89009523Y-124552380D01*
X88580952Y-125552380D01*
X77257142Y-157452380D02*
X76923809Y-156976190D01*
X76685714Y-157452380D02*
X76685714Y-156452380D01*
X77066666Y-156452380D01*
X77161904Y-156500000D01*
X77209523Y-156547619D01*
X77257142Y-156642857D01*
X77257142Y-156785714D01*
X77209523Y-156880952D01*
X77161904Y-156928571D01*
X77066666Y-156976190D01*
X76685714Y-156976190D01*
X78114285Y-156785714D02*
X78114285Y-157452380D01*
X77876190Y-156404761D02*
X77638095Y-157119047D01*
X78257142Y-157119047D01*
X79161904Y-157452380D02*
X78590476Y-157452380D01*
X78876190Y-157452380D02*
X78876190Y-156452380D01*
X78780952Y-156595238D01*
X78685714Y-156690476D01*
X78590476Y-156738095D01*
X80507142Y-158302380D02*
X80173809Y-157826190D01*
X79935714Y-158302380D02*
X79935714Y-157302380D01*
X80316666Y-157302380D01*
X80411904Y-157350000D01*
X80459523Y-157397619D01*
X80507142Y-157492857D01*
X80507142Y-157635714D01*
X80459523Y-157730952D01*
X80411904Y-157778571D01*
X80316666Y-157826190D01*
X79935714Y-157826190D01*
X81364285Y-157635714D02*
X81364285Y-158302380D01*
X81126190Y-157254761D02*
X80888095Y-157969047D01*
X81507142Y-157969047D01*
X81840476Y-157397619D02*
X81888095Y-157350000D01*
X81983333Y-157302380D01*
X82221428Y-157302380D01*
X82316666Y-157350000D01*
X82364285Y-157397619D01*
X82411904Y-157492857D01*
X82411904Y-157588095D01*
X82364285Y-157730952D01*
X81792857Y-158302380D01*
X82411904Y-158302380D01*
D11*
X75608380Y-53165333D02*
X76322666Y-53165333D01*
X76465523Y-53212952D01*
X76560761Y-53308190D01*
X76608380Y-53451047D01*
X76608380Y-53546285D01*
X75703619Y-52736761D02*
X75656000Y-52689142D01*
X75608380Y-52593904D01*
X75608380Y-52355809D01*
X75656000Y-52260571D01*
X75703619Y-52212952D01*
X75798857Y-52165333D01*
X75894095Y-52165333D01*
X76036952Y-52212952D01*
X76608380Y-52784380D01*
X76608380Y-52165333D01*
D12*
X108002380Y-159392857D02*
X107526190Y-159726190D01*
X108002380Y-159964285D02*
X107002380Y-159964285D01*
X107002380Y-159583333D01*
X107050000Y-159488095D01*
X107097619Y-159440476D01*
X107192857Y-159392857D01*
X107335714Y-159392857D01*
X107430952Y-159440476D01*
X107478571Y-159488095D01*
X107526190Y-159583333D01*
X107526190Y-159964285D01*
X107097619Y-159011904D02*
X107050000Y-158964285D01*
X107002380Y-158869047D01*
X107002380Y-158630952D01*
X107050000Y-158535714D01*
X107097619Y-158488095D01*
X107192857Y-158440476D01*
X107288095Y-158440476D01*
X107430952Y-158488095D01*
X108002380Y-159059523D01*
X108002380Y-158440476D01*
X107430952Y-157869047D02*
X107383333Y-157964285D01*
X107335714Y-158011904D01*
X107240476Y-158059523D01*
X107192857Y-158059523D01*
X107097619Y-158011904D01*
X107050000Y-157964285D01*
X107002380Y-157869047D01*
X107002380Y-157678571D01*
X107050000Y-157583333D01*
X107097619Y-157535714D01*
X107192857Y-157488095D01*
X107240476Y-157488095D01*
X107335714Y-157535714D01*
X107383333Y-157583333D01*
X107430952Y-157678571D01*
X107430952Y-157869047D01*
X107478571Y-157964285D01*
X107526190Y-158011904D01*
X107621428Y-158059523D01*
X107811904Y-158059523D01*
X107907142Y-158011904D01*
X107954761Y-157964285D01*
X108002380Y-157869047D01*
X108002380Y-157678571D01*
X107954761Y-157583333D01*
X107907142Y-157535714D01*
X107811904Y-157488095D01*
X107621428Y-157488095D01*
X107526190Y-157535714D01*
X107478571Y-157583333D01*
X107430952Y-157678571D01*
X112911904Y-156252380D02*
X112911904Y-155252380D01*
X113150000Y-155252380D01*
X113292857Y-155300000D01*
X113388095Y-155395238D01*
X113435714Y-155490476D01*
X113483333Y-155680952D01*
X113483333Y-155823809D01*
X113435714Y-156014285D01*
X113388095Y-156109523D01*
X113292857Y-156204761D01*
X113150000Y-156252380D01*
X112911904Y-156252380D01*
X113959523Y-156252380D02*
X114150000Y-156252380D01*
X114245238Y-156204761D01*
X114292857Y-156157142D01*
X114388095Y-156014285D01*
X114435714Y-155823809D01*
X114435714Y-155442857D01*
X114388095Y-155347619D01*
X114340476Y-155300000D01*
X114245238Y-155252380D01*
X114054761Y-155252380D01*
X113959523Y-155300000D01*
X113911904Y-155347619D01*
X113864285Y-155442857D01*
X113864285Y-155680952D01*
X113911904Y-155776190D01*
X113959523Y-155823809D01*
X114054761Y-155871428D01*
X114245238Y-155871428D01*
X114340476Y-155823809D01*
X114388095Y-155776190D01*
X114435714Y-155680952D01*
X83812142Y-148947142D02*
X83764523Y-148994761D01*
X83621666Y-149042380D01*
X83526428Y-149042380D01*
X83383571Y-148994761D01*
X83288333Y-148899523D01*
X83240714Y-148804285D01*
X83193095Y-148613809D01*
X83193095Y-148470952D01*
X83240714Y-148280476D01*
X83288333Y-148185238D01*
X83383571Y-148090000D01*
X83526428Y-148042380D01*
X83621666Y-148042380D01*
X83764523Y-148090000D01*
X83812142Y-148137619D01*
X84193095Y-148137619D02*
X84240714Y-148090000D01*
X84335952Y-148042380D01*
X84574047Y-148042380D01*
X84669285Y-148090000D01*
X84716904Y-148137619D01*
X84764523Y-148232857D01*
X84764523Y-148328095D01*
X84716904Y-148470952D01*
X84145476Y-149042380D01*
X84764523Y-149042380D01*
X85145476Y-148137619D02*
X85193095Y-148090000D01*
X85288333Y-148042380D01*
X85526428Y-148042380D01*
X85621666Y-148090000D01*
X85669285Y-148137619D01*
X85716904Y-148232857D01*
X85716904Y-148328095D01*
X85669285Y-148470952D01*
X85097857Y-149042380D01*
X85716904Y-149042380D01*
D11*
X88861904Y-63352380D02*
X88861904Y-64161904D01*
X88909523Y-64257142D01*
X88957142Y-64304761D01*
X89052380Y-64352380D01*
X89242857Y-64352380D01*
X89338095Y-64304761D01*
X89385714Y-64257142D01*
X89433333Y-64161904D01*
X89433333Y-63352380D01*
X90433333Y-64352380D02*
X89861904Y-64352380D01*
X90147619Y-64352380D02*
X90147619Y-63352380D01*
X90052380Y-63495238D01*
X89957142Y-63590476D01*
X89861904Y-63638095D01*
X90766666Y-63352380D02*
X91385714Y-63352380D01*
X91052380Y-63733333D01*
X91195238Y-63733333D01*
X91290476Y-63780952D01*
X91338095Y-63828571D01*
X91385714Y-63923809D01*
X91385714Y-64161904D01*
X91338095Y-64257142D01*
X91290476Y-64304761D01*
X91195238Y-64352380D01*
X90909523Y-64352380D01*
X90814285Y-64304761D01*
X90766666Y-64257142D01*
X102238095Y-66652380D02*
X102238095Y-67461904D01*
X102285714Y-67557142D01*
X102333333Y-67604761D01*
X102428571Y-67652380D01*
X102619047Y-67652380D01*
X102714285Y-67604761D01*
X102761904Y-67557142D01*
X102809523Y-67461904D01*
X102809523Y-66652380D01*
X103714285Y-66985714D02*
X103714285Y-67652380D01*
X103476190Y-66604761D02*
X103238095Y-67319047D01*
X103857142Y-67319047D01*
D12*
X86638095Y-82552380D02*
X86638095Y-83361904D01*
X86685714Y-83457142D01*
X86733333Y-83504761D01*
X86828571Y-83552380D01*
X87019047Y-83552380D01*
X87114285Y-83504761D01*
X87161904Y-83457142D01*
X87209523Y-83361904D01*
X87209523Y-82552380D01*
X88209523Y-83552380D02*
X87638095Y-83552380D01*
X87923809Y-83552380D02*
X87923809Y-82552380D01*
X87828571Y-82695238D01*
X87733333Y-82790476D01*
X87638095Y-82838095D01*
D11*
X89407142Y-80707142D02*
X89359523Y-80754761D01*
X89216666Y-80802380D01*
X89121428Y-80802380D01*
X88978571Y-80754761D01*
X88883333Y-80659523D01*
X88835714Y-80564285D01*
X88788095Y-80373809D01*
X88788095Y-80230952D01*
X88835714Y-80040476D01*
X88883333Y-79945238D01*
X88978571Y-79850000D01*
X89121428Y-79802380D01*
X89216666Y-79802380D01*
X89359523Y-79850000D01*
X89407142Y-79897619D01*
X89740476Y-79802380D02*
X90359523Y-79802380D01*
X90026190Y-80183333D01*
X90169047Y-80183333D01*
X90264285Y-80230952D01*
X90311904Y-80278571D01*
X90359523Y-80373809D01*
X90359523Y-80611904D01*
X90311904Y-80707142D01*
X90264285Y-80754761D01*
X90169047Y-80802380D01*
X89883333Y-80802380D01*
X89788095Y-80754761D01*
X89740476Y-80707142D01*
X90978571Y-79802380D02*
X91073809Y-79802380D01*
X91169047Y-79850000D01*
X91216666Y-79897619D01*
X91264285Y-79992857D01*
X91311904Y-80183333D01*
X91311904Y-80421428D01*
X91264285Y-80611904D01*
X91216666Y-80707142D01*
X91169047Y-80754761D01*
X91073809Y-80802380D01*
X90978571Y-80802380D01*
X90883333Y-80754761D01*
X90835714Y-80707142D01*
X90788095Y-80611904D01*
X90740476Y-80421428D01*
X90740476Y-80183333D01*
X90788095Y-79992857D01*
X90835714Y-79897619D01*
X90883333Y-79850000D01*
X90978571Y-79802380D01*
X82457142Y-73242857D02*
X82504761Y-73290476D01*
X82552380Y-73433333D01*
X82552380Y-73528571D01*
X82504761Y-73671428D01*
X82409523Y-73766666D01*
X82314285Y-73814285D01*
X82123809Y-73861904D01*
X81980952Y-73861904D01*
X81790476Y-73814285D01*
X81695238Y-73766666D01*
X81600000Y-73671428D01*
X81552380Y-73528571D01*
X81552380Y-73433333D01*
X81600000Y-73290476D01*
X81647619Y-73242857D01*
X81552380Y-72909523D02*
X81552380Y-72290476D01*
X81933333Y-72623809D01*
X81933333Y-72480952D01*
X81980952Y-72385714D01*
X82028571Y-72338095D01*
X82123809Y-72290476D01*
X82361904Y-72290476D01*
X82457142Y-72338095D01*
X82504761Y-72385714D01*
X82552380Y-72480952D01*
X82552380Y-72766666D01*
X82504761Y-72861904D01*
X82457142Y-72909523D01*
X81647619Y-71909523D02*
X81600000Y-71861904D01*
X81552380Y-71766666D01*
X81552380Y-71528571D01*
X81600000Y-71433333D01*
X81647619Y-71385714D01*
X81742857Y-71338095D01*
X81838095Y-71338095D01*
X81980952Y-71385714D01*
X82552380Y-71957142D01*
X82552380Y-71338095D01*
X84562104Y-58221580D02*
X84562104Y-57221580D01*
X84800200Y-57221580D01*
X84943057Y-57269200D01*
X85038295Y-57364438D01*
X85085914Y-57459676D01*
X85133533Y-57650152D01*
X85133533Y-57793009D01*
X85085914Y-57983485D01*
X85038295Y-58078723D01*
X84943057Y-58173961D01*
X84800200Y-58221580D01*
X84562104Y-58221580D01*
X86038295Y-57221580D02*
X85562104Y-57221580D01*
X85514485Y-57697771D01*
X85562104Y-57650152D01*
X85657342Y-57602533D01*
X85895438Y-57602533D01*
X85990676Y-57650152D01*
X86038295Y-57697771D01*
X86085914Y-57793009D01*
X86085914Y-58031104D01*
X86038295Y-58126342D01*
X85990676Y-58173961D01*
X85895438Y-58221580D01*
X85657342Y-58221580D01*
X85562104Y-58173961D01*
X85514485Y-58126342D01*
X82057142Y-65352380D02*
X81723809Y-64876190D01*
X81485714Y-65352380D02*
X81485714Y-64352380D01*
X81866666Y-64352380D01*
X81961904Y-64400000D01*
X82009523Y-64447619D01*
X82057142Y-64542857D01*
X82057142Y-64685714D01*
X82009523Y-64780952D01*
X81961904Y-64828571D01*
X81866666Y-64876190D01*
X81485714Y-64876190D01*
X83009523Y-65352380D02*
X82438095Y-65352380D01*
X82723809Y-65352380D02*
X82723809Y-64352380D01*
X82628571Y-64495238D01*
X82533333Y-64590476D01*
X82438095Y-64638095D01*
X83961904Y-65352380D02*
X83390476Y-65352380D01*
X83676190Y-65352380D02*
X83676190Y-64352380D01*
X83580952Y-64495238D01*
X83485714Y-64590476D01*
X83390476Y-64638095D01*
X81302380Y-64092857D02*
X80826190Y-64426190D01*
X81302380Y-64664285D02*
X80302380Y-64664285D01*
X80302380Y-64283333D01*
X80350000Y-64188095D01*
X80397619Y-64140476D01*
X80492857Y-64092857D01*
X80635714Y-64092857D01*
X80730952Y-64140476D01*
X80778571Y-64188095D01*
X80826190Y-64283333D01*
X80826190Y-64664285D01*
X81302380Y-63140476D02*
X81302380Y-63711904D01*
X81302380Y-63426190D02*
X80302380Y-63426190D01*
X80445238Y-63521428D01*
X80540476Y-63616666D01*
X80588095Y-63711904D01*
X80397619Y-62759523D02*
X80350000Y-62711904D01*
X80302380Y-62616666D01*
X80302380Y-62378571D01*
X80350000Y-62283333D01*
X80397619Y-62235714D01*
X80492857Y-62188095D01*
X80588095Y-62188095D01*
X80730952Y-62235714D01*
X81302380Y-62807142D01*
X81302380Y-62188095D01*
X85352380Y-63042857D02*
X84876190Y-63376190D01*
X85352380Y-63614285D02*
X84352380Y-63614285D01*
X84352380Y-63233333D01*
X84400000Y-63138095D01*
X84447619Y-63090476D01*
X84542857Y-63042857D01*
X84685714Y-63042857D01*
X84780952Y-63090476D01*
X84828571Y-63138095D01*
X84876190Y-63233333D01*
X84876190Y-63614285D01*
X85352380Y-62090476D02*
X85352380Y-62661904D01*
X85352380Y-62376190D02*
X84352380Y-62376190D01*
X84495238Y-62471428D01*
X84590476Y-62566666D01*
X84638095Y-62661904D01*
X84685714Y-61233333D02*
X85352380Y-61233333D01*
X84304761Y-61471428D02*
X85019047Y-61709523D01*
X85019047Y-61090476D01*
X79212380Y-64142857D02*
X78736190Y-64476190D01*
X79212380Y-64714285D02*
X78212380Y-64714285D01*
X78212380Y-64333333D01*
X78260000Y-64238095D01*
X78307619Y-64190476D01*
X78402857Y-64142857D01*
X78545714Y-64142857D01*
X78640952Y-64190476D01*
X78688571Y-64238095D01*
X78736190Y-64333333D01*
X78736190Y-64714285D01*
X79212380Y-63190476D02*
X79212380Y-63761904D01*
X79212380Y-63476190D02*
X78212380Y-63476190D01*
X78355238Y-63571428D01*
X78450476Y-63666666D01*
X78498095Y-63761904D01*
X78212380Y-62285714D02*
X78212380Y-62761904D01*
X78688571Y-62809523D01*
X78640952Y-62761904D01*
X78593333Y-62666666D01*
X78593333Y-62428571D01*
X78640952Y-62333333D01*
X78688571Y-62285714D01*
X78783809Y-62238095D01*
X79021904Y-62238095D01*
X79117142Y-62285714D01*
X79164761Y-62333333D01*
X79212380Y-62428571D01*
X79212380Y-62666666D01*
X79164761Y-62761904D01*
X79117142Y-62809523D01*
X77357142Y-68007142D02*
X77309523Y-68054761D01*
X77166666Y-68102380D01*
X77071428Y-68102380D01*
X76928571Y-68054761D01*
X76833333Y-67959523D01*
X76785714Y-67864285D01*
X76738095Y-67673809D01*
X76738095Y-67530952D01*
X76785714Y-67340476D01*
X76833333Y-67245238D01*
X76928571Y-67150000D01*
X77071428Y-67102380D01*
X77166666Y-67102380D01*
X77309523Y-67150000D01*
X77357142Y-67197619D01*
X77738095Y-67197619D02*
X77785714Y-67150000D01*
X77880952Y-67102380D01*
X78119047Y-67102380D01*
X78214285Y-67150000D01*
X78261904Y-67197619D01*
X78309523Y-67292857D01*
X78309523Y-67388095D01*
X78261904Y-67530952D01*
X77690476Y-68102380D01*
X78309523Y-68102380D01*
X78880952Y-67530952D02*
X78785714Y-67483333D01*
X78738095Y-67435714D01*
X78690476Y-67340476D01*
X78690476Y-67292857D01*
X78738095Y-67197619D01*
X78785714Y-67150000D01*
X78880952Y-67102380D01*
X79071428Y-67102380D01*
X79166666Y-67150000D01*
X79214285Y-67197619D01*
X79261904Y-67292857D01*
X79261904Y-67340476D01*
X79214285Y-67435714D01*
X79166666Y-67483333D01*
X79071428Y-67530952D01*
X78880952Y-67530952D01*
X78785714Y-67578571D01*
X78738095Y-67626190D01*
X78690476Y-67721428D01*
X78690476Y-67911904D01*
X78738095Y-68007142D01*
X78785714Y-68054761D01*
X78880952Y-68102380D01*
X79071428Y-68102380D01*
X79166666Y-68054761D01*
X79214285Y-68007142D01*
X79261904Y-67911904D01*
X79261904Y-67721428D01*
X79214285Y-67626190D01*
X79166666Y-67578571D01*
X79071428Y-67530952D01*
X77963931Y-76544553D02*
X77916312Y-76592172D01*
X77773455Y-76639791D01*
X77678217Y-76639791D01*
X77535360Y-76592172D01*
X77440122Y-76496934D01*
X77392503Y-76401696D01*
X77344884Y-76211220D01*
X77344884Y-76068363D01*
X77392503Y-75877887D01*
X77440122Y-75782649D01*
X77535360Y-75687411D01*
X77678217Y-75639791D01*
X77773455Y-75639791D01*
X77916312Y-75687411D01*
X77963931Y-75735030D01*
X78344884Y-75735030D02*
X78392503Y-75687411D01*
X78487741Y-75639791D01*
X78725836Y-75639791D01*
X78821074Y-75687411D01*
X78868693Y-75735030D01*
X78916312Y-75830268D01*
X78916312Y-75925506D01*
X78868693Y-76068363D01*
X78297265Y-76639791D01*
X78916312Y-76639791D01*
X79392503Y-76639791D02*
X79582979Y-76639791D01*
X79678217Y-76592172D01*
X79725836Y-76544553D01*
X79821074Y-76401696D01*
X79868693Y-76211220D01*
X79868693Y-75830268D01*
X79821074Y-75735030D01*
X79773455Y-75687411D01*
X79678217Y-75639791D01*
X79487741Y-75639791D01*
X79392503Y-75687411D01*
X79344884Y-75735030D01*
X79297265Y-75830268D01*
X79297265Y-76068363D01*
X79344884Y-76163601D01*
X79392503Y-76211220D01*
X79487741Y-76258839D01*
X79678217Y-76258839D01*
X79773455Y-76211220D01*
X79821074Y-76163601D01*
X79868693Y-76068363D01*
X80717598Y-70376190D02*
X80717598Y-70852380D01*
X80384265Y-69852380D02*
X80717598Y-70376190D01*
X81050931Y-69852380D01*
X81908074Y-70852380D02*
X81336646Y-70852380D01*
X81622360Y-70852380D02*
X81622360Y-69852380D01*
X81527122Y-69995238D01*
X81431884Y-70090476D01*
X81336646Y-70138095D01*
X105361904Y-101552380D02*
X105361904Y-100552380D01*
X105600000Y-100552380D01*
X105742857Y-100600000D01*
X105838095Y-100695238D01*
X105885714Y-100790476D01*
X105933333Y-100980952D01*
X105933333Y-101123809D01*
X105885714Y-101314285D01*
X105838095Y-101409523D01*
X105742857Y-101504761D01*
X105600000Y-101552380D01*
X105361904Y-101552380D01*
X106504761Y-100980952D02*
X106409523Y-100933333D01*
X106361904Y-100885714D01*
X106314285Y-100790476D01*
X106314285Y-100742857D01*
X106361904Y-100647619D01*
X106409523Y-100600000D01*
X106504761Y-100552380D01*
X106695238Y-100552380D01*
X106790476Y-100600000D01*
X106838095Y-100647619D01*
X106885714Y-100742857D01*
X106885714Y-100790476D01*
X106838095Y-100885714D01*
X106790476Y-100933333D01*
X106695238Y-100980952D01*
X106504761Y-100980952D01*
X106409523Y-101028571D01*
X106361904Y-101076190D01*
X106314285Y-101171428D01*
X106314285Y-101361904D01*
X106361904Y-101457142D01*
X106409523Y-101504761D01*
X106504761Y-101552380D01*
X106695238Y-101552380D01*
X106790476Y-101504761D01*
X106838095Y-101457142D01*
X106885714Y-101361904D01*
X106885714Y-101171428D01*
X106838095Y-101076190D01*
X106790476Y-101028571D01*
X106695238Y-100980952D01*
X99752380Y-65842857D02*
X99276190Y-66176190D01*
X99752380Y-66414285D02*
X98752380Y-66414285D01*
X98752380Y-66033333D01*
X98800000Y-65938095D01*
X98847619Y-65890476D01*
X98942857Y-65842857D01*
X99085714Y-65842857D01*
X99180952Y-65890476D01*
X99228571Y-65938095D01*
X99276190Y-66033333D01*
X99276190Y-66414285D01*
X98752380Y-65509523D02*
X98752380Y-64890476D01*
X99133333Y-65223809D01*
X99133333Y-65080952D01*
X99180952Y-64985714D01*
X99228571Y-64938095D01*
X99323809Y-64890476D01*
X99561904Y-64890476D01*
X99657142Y-64938095D01*
X99704761Y-64985714D01*
X99752380Y-65080952D01*
X99752380Y-65366666D01*
X99704761Y-65461904D01*
X99657142Y-65509523D01*
X98752380Y-64271428D02*
X98752380Y-64176190D01*
X98800000Y-64080952D01*
X98847619Y-64033333D01*
X98942857Y-63985714D01*
X99133333Y-63938095D01*
X99371428Y-63938095D01*
X99561904Y-63985714D01*
X99657142Y-64033333D01*
X99704761Y-64080952D01*
X99752380Y-64176190D01*
X99752380Y-64271428D01*
X99704761Y-64366666D01*
X99657142Y-64414285D01*
X99561904Y-64461904D01*
X99371428Y-64509523D01*
X99133333Y-64509523D01*
X98942857Y-64461904D01*
X98847619Y-64414285D01*
X98800000Y-64366666D01*
X98752380Y-64271428D01*
X102357142Y-62757142D02*
X102309523Y-62804761D01*
X102166666Y-62852380D01*
X102071428Y-62852380D01*
X101928571Y-62804761D01*
X101833333Y-62709523D01*
X101785714Y-62614285D01*
X101738095Y-62423809D01*
X101738095Y-62280952D01*
X101785714Y-62090476D01*
X101833333Y-61995238D01*
X101928571Y-61900000D01*
X102071428Y-61852380D01*
X102166666Y-61852380D01*
X102309523Y-61900000D01*
X102357142Y-61947619D01*
X103214285Y-62185714D02*
X103214285Y-62852380D01*
X102976190Y-61804761D02*
X102738095Y-62519047D01*
X103357142Y-62519047D01*
X103928571Y-61852380D02*
X104023809Y-61852380D01*
X104119047Y-61900000D01*
X104166666Y-61947619D01*
X104214285Y-62042857D01*
X104261904Y-62233333D01*
X104261904Y-62471428D01*
X104214285Y-62661904D01*
X104166666Y-62757142D01*
X104119047Y-62804761D01*
X104023809Y-62852380D01*
X103928571Y-62852380D01*
X103833333Y-62804761D01*
X103785714Y-62757142D01*
X103738095Y-62661904D01*
X103690476Y-62471428D01*
X103690476Y-62233333D01*
X103738095Y-62042857D01*
X103785714Y-61947619D01*
X103833333Y-61900000D01*
X103928571Y-61852380D01*
X103252380Y-81142857D02*
X102776190Y-81476190D01*
X103252380Y-81714285D02*
X102252380Y-81714285D01*
X102252380Y-81333333D01*
X102300000Y-81238095D01*
X102347619Y-81190476D01*
X102442857Y-81142857D01*
X102585714Y-81142857D01*
X102680952Y-81190476D01*
X102728571Y-81238095D01*
X102776190Y-81333333D01*
X102776190Y-81714285D01*
X102252380Y-80809523D02*
X102252380Y-80190476D01*
X102633333Y-80523809D01*
X102633333Y-80380952D01*
X102680952Y-80285714D01*
X102728571Y-80238095D01*
X102823809Y-80190476D01*
X103061904Y-80190476D01*
X103157142Y-80238095D01*
X103204761Y-80285714D01*
X103252380Y-80380952D01*
X103252380Y-80666666D01*
X103204761Y-80761904D01*
X103157142Y-80809523D01*
X102252380Y-79285714D02*
X102252380Y-79761904D01*
X102728571Y-79809523D01*
X102680952Y-79761904D01*
X102633333Y-79666666D01*
X102633333Y-79428571D01*
X102680952Y-79333333D01*
X102728571Y-79285714D01*
X102823809Y-79238095D01*
X103061904Y-79238095D01*
X103157142Y-79285714D01*
X103204761Y-79333333D01*
X103252380Y-79428571D01*
X103252380Y-79666666D01*
X103204761Y-79761904D01*
X103157142Y-79809523D01*
X108657142Y-139452380D02*
X108323809Y-138976190D01*
X108085714Y-139452380D02*
X108085714Y-138452380D01*
X108466666Y-138452380D01*
X108561904Y-138500000D01*
X108609523Y-138547619D01*
X108657142Y-138642857D01*
X108657142Y-138785714D01*
X108609523Y-138880952D01*
X108561904Y-138928571D01*
X108466666Y-138976190D01*
X108085714Y-138976190D01*
X109561904Y-138452380D02*
X109085714Y-138452380D01*
X109038095Y-138928571D01*
X109085714Y-138880952D01*
X109180952Y-138833333D01*
X109419047Y-138833333D01*
X109514285Y-138880952D01*
X109561904Y-138928571D01*
X109609523Y-139023809D01*
X109609523Y-139261904D01*
X109561904Y-139357142D01*
X109514285Y-139404761D01*
X109419047Y-139452380D01*
X109180952Y-139452380D01*
X109085714Y-139404761D01*
X109038095Y-139357142D01*
X110514285Y-138452380D02*
X110038095Y-138452380D01*
X109990476Y-138928571D01*
X110038095Y-138880952D01*
X110133333Y-138833333D01*
X110371428Y-138833333D01*
X110466666Y-138880952D01*
X110514285Y-138928571D01*
X110561904Y-139023809D01*
X110561904Y-139261904D01*
X110514285Y-139357142D01*
X110466666Y-139404761D01*
X110371428Y-139452380D01*
X110133333Y-139452380D01*
X110038095Y-139404761D01*
X109990476Y-139357142D01*
X95257142Y-79452380D02*
X94923809Y-78976190D01*
X94685714Y-79452380D02*
X94685714Y-78452380D01*
X95066666Y-78452380D01*
X95161904Y-78500000D01*
X95209523Y-78547619D01*
X95257142Y-78642857D01*
X95257142Y-78785714D01*
X95209523Y-78880952D01*
X95161904Y-78928571D01*
X95066666Y-78976190D01*
X94685714Y-78976190D01*
X95590476Y-78452380D02*
X96209523Y-78452380D01*
X95876190Y-78833333D01*
X96019047Y-78833333D01*
X96114285Y-78880952D01*
X96161904Y-78928571D01*
X96209523Y-79023809D01*
X96209523Y-79261904D01*
X96161904Y-79357142D01*
X96114285Y-79404761D01*
X96019047Y-79452380D01*
X95733333Y-79452380D01*
X95638095Y-79404761D01*
X95590476Y-79357142D01*
X97161904Y-79452380D02*
X96590476Y-79452380D01*
X96876190Y-79452380D02*
X96876190Y-78452380D01*
X96780952Y-78595238D01*
X96685714Y-78690476D01*
X96590476Y-78738095D01*
X102285714Y-129552380D02*
X102285714Y-128552380D01*
X102523809Y-128552380D01*
X102666666Y-128600000D01*
X102761904Y-128695238D01*
X102809523Y-128790476D01*
X102857142Y-128980952D01*
X102857142Y-129123809D01*
X102809523Y-129314285D01*
X102761904Y-129409523D01*
X102666666Y-129504761D01*
X102523809Y-129552380D01*
X102285714Y-129552380D01*
X103809523Y-129552380D02*
X103238095Y-129552380D01*
X103523809Y-129552380D02*
X103523809Y-128552380D01*
X103428571Y-128695238D01*
X103333333Y-128790476D01*
X103238095Y-128838095D01*
X104714285Y-128552380D02*
X104238095Y-128552380D01*
X104190476Y-129028571D01*
X104238095Y-128980952D01*
X104333333Y-128933333D01*
X104571428Y-128933333D01*
X104666666Y-128980952D01*
X104714285Y-129028571D01*
X104761904Y-129123809D01*
X104761904Y-129361904D01*
X104714285Y-129457142D01*
X104666666Y-129504761D01*
X104571428Y-129552380D01*
X104333333Y-129552380D01*
X104238095Y-129504761D01*
X104190476Y-129457142D01*
X110157142Y-106682380D02*
X109823809Y-106206190D01*
X109585714Y-106682380D02*
X109585714Y-105682380D01*
X109966666Y-105682380D01*
X110061904Y-105730000D01*
X110109523Y-105777619D01*
X110157142Y-105872857D01*
X110157142Y-106015714D01*
X110109523Y-106110952D01*
X110061904Y-106158571D01*
X109966666Y-106206190D01*
X109585714Y-106206190D01*
X111061904Y-105682380D02*
X110585714Y-105682380D01*
X110538095Y-106158571D01*
X110585714Y-106110952D01*
X110680952Y-106063333D01*
X110919047Y-106063333D01*
X111014285Y-106110952D01*
X111061904Y-106158571D01*
X111109523Y-106253809D01*
X111109523Y-106491904D01*
X111061904Y-106587142D01*
X111014285Y-106634761D01*
X110919047Y-106682380D01*
X110680952Y-106682380D01*
X110585714Y-106634761D01*
X110538095Y-106587142D01*
X112061904Y-106682380D02*
X111490476Y-106682380D01*
X111776190Y-106682380D02*
X111776190Y-105682380D01*
X111680952Y-105825238D01*
X111585714Y-105920476D01*
X111490476Y-105968095D01*
X110457142Y-67742857D02*
X110504761Y-67790476D01*
X110552380Y-67933333D01*
X110552380Y-68028571D01*
X110504761Y-68171428D01*
X110409523Y-68266666D01*
X110314285Y-68314285D01*
X110123809Y-68361904D01*
X109980952Y-68361904D01*
X109790476Y-68314285D01*
X109695238Y-68266666D01*
X109600000Y-68171428D01*
X109552380Y-68028571D01*
X109552380Y-67933333D01*
X109600000Y-67790476D01*
X109647619Y-67742857D01*
X109885714Y-66885714D02*
X110552380Y-66885714D01*
X109504761Y-67123809D02*
X110219047Y-67361904D01*
X110219047Y-66742857D01*
X109647619Y-66409523D02*
X109600000Y-66361904D01*
X109552380Y-66266666D01*
X109552380Y-66028571D01*
X109600000Y-65933333D01*
X109647619Y-65885714D01*
X109742857Y-65838095D01*
X109838095Y-65838095D01*
X109980952Y-65885714D01*
X110552380Y-66457142D01*
X110552380Y-65838095D01*
X91538095Y-54952380D02*
X91538095Y-55761904D01*
X91585714Y-55857142D01*
X91633333Y-55904761D01*
X91728571Y-55952380D01*
X91919047Y-55952380D01*
X92014285Y-55904761D01*
X92061904Y-55857142D01*
X92109523Y-55761904D01*
X92109523Y-54952380D01*
X93061904Y-54952380D02*
X92585714Y-54952380D01*
X92538095Y-55428571D01*
X92585714Y-55380952D01*
X92680952Y-55333333D01*
X92919047Y-55333333D01*
X93014285Y-55380952D01*
X93061904Y-55428571D01*
X93109523Y-55523809D01*
X93109523Y-55761904D01*
X93061904Y-55857142D01*
X93014285Y-55904761D01*
X92919047Y-55952380D01*
X92680952Y-55952380D01*
X92585714Y-55904761D01*
X92538095Y-55857142D01*
X107882142Y-124152380D02*
X107548809Y-123676190D01*
X107310714Y-124152380D02*
X107310714Y-123152380D01*
X107691666Y-123152380D01*
X107786904Y-123200000D01*
X107834523Y-123247619D01*
X107882142Y-123342857D01*
X107882142Y-123485714D01*
X107834523Y-123580952D01*
X107786904Y-123628571D01*
X107691666Y-123676190D01*
X107310714Y-123676190D01*
X108786904Y-123152380D02*
X108310714Y-123152380D01*
X108263095Y-123628571D01*
X108310714Y-123580952D01*
X108405952Y-123533333D01*
X108644047Y-123533333D01*
X108739285Y-123580952D01*
X108786904Y-123628571D01*
X108834523Y-123723809D01*
X108834523Y-123961904D01*
X108786904Y-124057142D01*
X108739285Y-124104761D01*
X108644047Y-124152380D01*
X108405952Y-124152380D01*
X108310714Y-124104761D01*
X108263095Y-124057142D01*
X109215476Y-123247619D02*
X109263095Y-123200000D01*
X109358333Y-123152380D01*
X109596428Y-123152380D01*
X109691666Y-123200000D01*
X109739285Y-123247619D01*
X109786904Y-123342857D01*
X109786904Y-123438095D01*
X109739285Y-123580952D01*
X109167857Y-124152380D01*
X109786904Y-124152380D01*
X103685714Y-137752380D02*
X103685714Y-136752380D01*
X103923809Y-136752380D01*
X104066666Y-136800000D01*
X104161904Y-136895238D01*
X104209523Y-136990476D01*
X104257142Y-137180952D01*
X104257142Y-137323809D01*
X104209523Y-137514285D01*
X104161904Y-137609523D01*
X104066666Y-137704761D01*
X103923809Y-137752380D01*
X103685714Y-137752380D01*
X105209523Y-137752380D02*
X104638095Y-137752380D01*
X104923809Y-137752380D02*
X104923809Y-136752380D01*
X104828571Y-136895238D01*
X104733333Y-136990476D01*
X104638095Y-137038095D01*
X106066666Y-136752380D02*
X105876190Y-136752380D01*
X105780952Y-136800000D01*
X105733333Y-136847619D01*
X105638095Y-136990476D01*
X105590476Y-137180952D01*
X105590476Y-137561904D01*
X105638095Y-137657142D01*
X105685714Y-137704761D01*
X105780952Y-137752380D01*
X105971428Y-137752380D01*
X106066666Y-137704761D01*
X106114285Y-137657142D01*
X106161904Y-137561904D01*
X106161904Y-137323809D01*
X106114285Y-137228571D01*
X106066666Y-137180952D01*
X105971428Y-137133333D01*
X105780952Y-137133333D01*
X105685714Y-137180952D01*
X105638095Y-137228571D01*
X105590476Y-137323809D01*
X89907142Y-58652380D02*
X89573809Y-58176190D01*
X89335714Y-58652380D02*
X89335714Y-57652380D01*
X89716666Y-57652380D01*
X89811904Y-57700000D01*
X89859523Y-57747619D01*
X89907142Y-57842857D01*
X89907142Y-57985714D01*
X89859523Y-58080952D01*
X89811904Y-58128571D01*
X89716666Y-58176190D01*
X89335714Y-58176190D01*
X90811904Y-57652380D02*
X90335714Y-57652380D01*
X90288095Y-58128571D01*
X90335714Y-58080952D01*
X90430952Y-58033333D01*
X90669047Y-58033333D01*
X90764285Y-58080952D01*
X90811904Y-58128571D01*
X90859523Y-58223809D01*
X90859523Y-58461904D01*
X90811904Y-58557142D01*
X90764285Y-58604761D01*
X90669047Y-58652380D01*
X90430952Y-58652380D01*
X90335714Y-58604761D01*
X90288095Y-58557142D01*
X91192857Y-57652380D02*
X91859523Y-57652380D01*
X91430952Y-58652380D01*
X86835380Y-65742857D02*
X86359190Y-66076190D01*
X86835380Y-66314285D02*
X85835380Y-66314285D01*
X85835380Y-65933333D01*
X85883000Y-65838095D01*
X85930619Y-65790476D01*
X86025857Y-65742857D01*
X86168714Y-65742857D01*
X86263952Y-65790476D01*
X86311571Y-65838095D01*
X86359190Y-65933333D01*
X86359190Y-66314285D01*
X85930619Y-65361904D02*
X85883000Y-65314285D01*
X85835380Y-65219047D01*
X85835380Y-64980952D01*
X85883000Y-64885714D01*
X85930619Y-64838095D01*
X86025857Y-64790476D01*
X86121095Y-64790476D01*
X86263952Y-64838095D01*
X86835380Y-65409523D01*
X86835380Y-64790476D01*
X86835380Y-64314285D02*
X86835380Y-64123809D01*
X86787761Y-64028571D01*
X86740142Y-63980952D01*
X86597285Y-63885714D01*
X86406809Y-63838095D01*
X86025857Y-63838095D01*
X85930619Y-63885714D01*
X85883000Y-63933333D01*
X85835380Y-64028571D01*
X85835380Y-64219047D01*
X85883000Y-64314285D01*
X85930619Y-64361904D01*
X86025857Y-64409523D01*
X86263952Y-64409523D01*
X86359190Y-64361904D01*
X86406809Y-64314285D01*
X86454428Y-64219047D01*
X86454428Y-64028571D01*
X86406809Y-63933333D01*
X86359190Y-63885714D01*
X86263952Y-63838095D01*
X100857142Y-65857142D02*
X100809523Y-65904761D01*
X100666666Y-65952380D01*
X100571428Y-65952380D01*
X100428571Y-65904761D01*
X100333333Y-65809523D01*
X100285714Y-65714285D01*
X100238095Y-65523809D01*
X100238095Y-65380952D01*
X100285714Y-65190476D01*
X100333333Y-65095238D01*
X100428571Y-65000000D01*
X100571428Y-64952380D01*
X100666666Y-64952380D01*
X100809523Y-65000000D01*
X100857142Y-65047619D01*
X101190476Y-64952380D02*
X101809523Y-64952380D01*
X101476190Y-65333333D01*
X101619047Y-65333333D01*
X101714285Y-65380952D01*
X101761904Y-65428571D01*
X101809523Y-65523809D01*
X101809523Y-65761904D01*
X101761904Y-65857142D01*
X101714285Y-65904761D01*
X101619047Y-65952380D01*
X101333333Y-65952380D01*
X101238095Y-65904761D01*
X101190476Y-65857142D01*
X102142857Y-64952380D02*
X102761904Y-64952380D01*
X102428571Y-65333333D01*
X102571428Y-65333333D01*
X102666666Y-65380952D01*
X102714285Y-65428571D01*
X102761904Y-65523809D01*
X102761904Y-65761904D01*
X102714285Y-65857142D01*
X102666666Y-65904761D01*
X102571428Y-65952380D01*
X102285714Y-65952380D01*
X102190476Y-65904761D01*
X102142857Y-65857142D01*
X101352380Y-72642857D02*
X100876190Y-72976190D01*
X101352380Y-73214285D02*
X100352380Y-73214285D01*
X100352380Y-72833333D01*
X100400000Y-72738095D01*
X100447619Y-72690476D01*
X100542857Y-72642857D01*
X100685714Y-72642857D01*
X100780952Y-72690476D01*
X100828571Y-72738095D01*
X100876190Y-72833333D01*
X100876190Y-73214285D01*
X100352380Y-72309523D02*
X100352380Y-71690476D01*
X100733333Y-72023809D01*
X100733333Y-71880952D01*
X100780952Y-71785714D01*
X100828571Y-71738095D01*
X100923809Y-71690476D01*
X101161904Y-71690476D01*
X101257142Y-71738095D01*
X101304761Y-71785714D01*
X101352380Y-71880952D01*
X101352380Y-72166666D01*
X101304761Y-72261904D01*
X101257142Y-72309523D01*
X100447619Y-71309523D02*
X100400000Y-71261904D01*
X100352380Y-71166666D01*
X100352380Y-70928571D01*
X100400000Y-70833333D01*
X100447619Y-70785714D01*
X100542857Y-70738095D01*
X100638095Y-70738095D01*
X100780952Y-70785714D01*
X101352380Y-71357142D01*
X101352380Y-70738095D01*
X89957142Y-57002380D02*
X89623809Y-56526190D01*
X89385714Y-57002380D02*
X89385714Y-56002380D01*
X89766666Y-56002380D01*
X89861904Y-56050000D01*
X89909523Y-56097619D01*
X89957142Y-56192857D01*
X89957142Y-56335714D01*
X89909523Y-56430952D01*
X89861904Y-56478571D01*
X89766666Y-56526190D01*
X89385714Y-56526190D01*
X90861904Y-56002380D02*
X90385714Y-56002380D01*
X90338095Y-56478571D01*
X90385714Y-56430952D01*
X90480952Y-56383333D01*
X90719047Y-56383333D01*
X90814285Y-56430952D01*
X90861904Y-56478571D01*
X90909523Y-56573809D01*
X90909523Y-56811904D01*
X90861904Y-56907142D01*
X90814285Y-56954761D01*
X90719047Y-57002380D01*
X90480952Y-57002380D01*
X90385714Y-56954761D01*
X90338095Y-56907142D01*
X91766666Y-56002380D02*
X91576190Y-56002380D01*
X91480952Y-56050000D01*
X91433333Y-56097619D01*
X91338095Y-56240476D01*
X91290476Y-56430952D01*
X91290476Y-56811904D01*
X91338095Y-56907142D01*
X91385714Y-56954761D01*
X91480952Y-57002380D01*
X91671428Y-57002380D01*
X91766666Y-56954761D01*
X91814285Y-56907142D01*
X91861904Y-56811904D01*
X91861904Y-56573809D01*
X91814285Y-56478571D01*
X91766666Y-56430952D01*
X91671428Y-56383333D01*
X91480952Y-56383333D01*
X91385714Y-56430952D01*
X91338095Y-56478571D01*
X91290476Y-56573809D01*
X102952380Y-72642857D02*
X102476190Y-72976190D01*
X102952380Y-73214285D02*
X101952380Y-73214285D01*
X101952380Y-72833333D01*
X102000000Y-72738095D01*
X102047619Y-72690476D01*
X102142857Y-72642857D01*
X102285714Y-72642857D01*
X102380952Y-72690476D01*
X102428571Y-72738095D01*
X102476190Y-72833333D01*
X102476190Y-73214285D01*
X101952380Y-72309523D02*
X101952380Y-71690476D01*
X102333333Y-72023809D01*
X102333333Y-71880952D01*
X102380952Y-71785714D01*
X102428571Y-71738095D01*
X102523809Y-71690476D01*
X102761904Y-71690476D01*
X102857142Y-71738095D01*
X102904761Y-71785714D01*
X102952380Y-71880952D01*
X102952380Y-72166666D01*
X102904761Y-72261904D01*
X102857142Y-72309523D01*
X102285714Y-70833333D02*
X102952380Y-70833333D01*
X101904761Y-71071428D02*
X102619047Y-71309523D01*
X102619047Y-70690476D01*
X107557142Y-62557142D02*
X107509523Y-62604761D01*
X107366666Y-62652380D01*
X107271428Y-62652380D01*
X107128571Y-62604761D01*
X107033333Y-62509523D01*
X106985714Y-62414285D01*
X106938095Y-62223809D01*
X106938095Y-62080952D01*
X106985714Y-61890476D01*
X107033333Y-61795238D01*
X107128571Y-61700000D01*
X107271428Y-61652380D01*
X107366666Y-61652380D01*
X107509523Y-61700000D01*
X107557142Y-61747619D01*
X108414285Y-61985714D02*
X108414285Y-62652380D01*
X108176190Y-61604761D02*
X107938095Y-62319047D01*
X108557142Y-62319047D01*
X108842857Y-61652380D02*
X109461904Y-61652380D01*
X109128571Y-62033333D01*
X109271428Y-62033333D01*
X109366666Y-62080952D01*
X109414285Y-62128571D01*
X109461904Y-62223809D01*
X109461904Y-62461904D01*
X109414285Y-62557142D01*
X109366666Y-62604761D01*
X109271428Y-62652380D01*
X108985714Y-62652380D01*
X108890476Y-62604761D01*
X108842857Y-62557142D01*
X107457142Y-71157142D02*
X107409523Y-71204761D01*
X107266666Y-71252380D01*
X107171428Y-71252380D01*
X107028571Y-71204761D01*
X106933333Y-71109523D01*
X106885714Y-71014285D01*
X106838095Y-70823809D01*
X106838095Y-70680952D01*
X106885714Y-70490476D01*
X106933333Y-70395238D01*
X107028571Y-70300000D01*
X107171428Y-70252380D01*
X107266666Y-70252380D01*
X107409523Y-70300000D01*
X107457142Y-70347619D01*
X108314285Y-70585714D02*
X108314285Y-71252380D01*
X108076190Y-70204761D02*
X107838095Y-70919047D01*
X108457142Y-70919047D01*
X109361904Y-71252380D02*
X108790476Y-71252380D01*
X109076190Y-71252380D02*
X109076190Y-70252380D01*
X108980952Y-70395238D01*
X108885714Y-70490476D01*
X108790476Y-70538095D01*
X87976342Y-62544542D02*
X87928723Y-62592161D01*
X87785866Y-62639780D01*
X87690628Y-62639780D01*
X87547771Y-62592161D01*
X87452533Y-62496923D01*
X87404914Y-62401685D01*
X87357295Y-62211209D01*
X87357295Y-62068352D01*
X87404914Y-61877876D01*
X87452533Y-61782638D01*
X87547771Y-61687400D01*
X87690628Y-61639780D01*
X87785866Y-61639780D01*
X87928723Y-61687400D01*
X87976342Y-61735019D01*
X88309676Y-61639780D02*
X88928723Y-61639780D01*
X88595390Y-62020733D01*
X88738247Y-62020733D01*
X88833485Y-62068352D01*
X88881104Y-62115971D01*
X88928723Y-62211209D01*
X88928723Y-62449304D01*
X88881104Y-62544542D01*
X88833485Y-62592161D01*
X88738247Y-62639780D01*
X88452533Y-62639780D01*
X88357295Y-62592161D01*
X88309676Y-62544542D01*
X89833485Y-61639780D02*
X89357295Y-61639780D01*
X89309676Y-62115971D01*
X89357295Y-62068352D01*
X89452533Y-62020733D01*
X89690628Y-62020733D01*
X89785866Y-62068352D01*
X89833485Y-62115971D01*
X89881104Y-62211209D01*
X89881104Y-62449304D01*
X89833485Y-62544542D01*
X89785866Y-62592161D01*
X89690628Y-62639780D01*
X89452533Y-62639780D01*
X89357295Y-62592161D01*
X89309676Y-62544542D01*
X95557142Y-62357142D02*
X95509523Y-62404761D01*
X95366666Y-62452380D01*
X95271428Y-62452380D01*
X95128571Y-62404761D01*
X95033333Y-62309523D01*
X94985714Y-62214285D01*
X94938095Y-62023809D01*
X94938095Y-61880952D01*
X94985714Y-61690476D01*
X95033333Y-61595238D01*
X95128571Y-61500000D01*
X95271428Y-61452380D01*
X95366666Y-61452380D01*
X95509523Y-61500000D01*
X95557142Y-61547619D01*
X95890476Y-61452380D02*
X96509523Y-61452380D01*
X96176190Y-61833333D01*
X96319047Y-61833333D01*
X96414285Y-61880952D01*
X96461904Y-61928571D01*
X96509523Y-62023809D01*
X96509523Y-62261904D01*
X96461904Y-62357142D01*
X96414285Y-62404761D01*
X96319047Y-62452380D01*
X96033333Y-62452380D01*
X95938095Y-62404761D01*
X95890476Y-62357142D01*
X97366666Y-61452380D02*
X97176190Y-61452380D01*
X97080952Y-61500000D01*
X97033333Y-61547619D01*
X96938095Y-61690476D01*
X96890476Y-61880952D01*
X96890476Y-62261904D01*
X96938095Y-62357142D01*
X96985714Y-62404761D01*
X97080952Y-62452380D01*
X97271428Y-62452380D01*
X97366666Y-62404761D01*
X97414285Y-62357142D01*
X97461904Y-62261904D01*
X97461904Y-62023809D01*
X97414285Y-61928571D01*
X97366666Y-61880952D01*
X97271428Y-61833333D01*
X97080952Y-61833333D01*
X96985714Y-61880952D01*
X96938095Y-61928571D01*
X96890476Y-62023809D01*
X105952380Y-78542857D02*
X105476190Y-78876190D01*
X105952380Y-79114285D02*
X104952380Y-79114285D01*
X104952380Y-78733333D01*
X105000000Y-78638095D01*
X105047619Y-78590476D01*
X105142857Y-78542857D01*
X105285714Y-78542857D01*
X105380952Y-78590476D01*
X105428571Y-78638095D01*
X105476190Y-78733333D01*
X105476190Y-79114285D01*
X105285714Y-77685714D02*
X105952380Y-77685714D01*
X104904761Y-77923809D02*
X105619047Y-78161904D01*
X105619047Y-77542857D01*
X104952380Y-77257142D02*
X104952380Y-76638095D01*
X105333333Y-76971428D01*
X105333333Y-76828571D01*
X105380952Y-76733333D01*
X105428571Y-76685714D01*
X105523809Y-76638095D01*
X105761904Y-76638095D01*
X105857142Y-76685714D01*
X105904761Y-76733333D01*
X105952380Y-76828571D01*
X105952380Y-77114285D01*
X105904761Y-77209523D01*
X105857142Y-77257142D01*
X101552380Y-81142857D02*
X101076190Y-81476190D01*
X101552380Y-81714285D02*
X100552380Y-81714285D01*
X100552380Y-81333333D01*
X100600000Y-81238095D01*
X100647619Y-81190476D01*
X100742857Y-81142857D01*
X100885714Y-81142857D01*
X100980952Y-81190476D01*
X101028571Y-81238095D01*
X101076190Y-81333333D01*
X101076190Y-81714285D01*
X100552380Y-80809523D02*
X100552380Y-80190476D01*
X100933333Y-80523809D01*
X100933333Y-80380952D01*
X100980952Y-80285714D01*
X101028571Y-80238095D01*
X101123809Y-80190476D01*
X101361904Y-80190476D01*
X101457142Y-80238095D01*
X101504761Y-80285714D01*
X101552380Y-80380952D01*
X101552380Y-80666666D01*
X101504761Y-80761904D01*
X101457142Y-80809523D01*
X100552380Y-79857142D02*
X100552380Y-79238095D01*
X100933333Y-79571428D01*
X100933333Y-79428571D01*
X100980952Y-79333333D01*
X101028571Y-79285714D01*
X101123809Y-79238095D01*
X101361904Y-79238095D01*
X101457142Y-79285714D01*
X101504761Y-79333333D01*
X101552380Y-79428571D01*
X101552380Y-79714285D01*
X101504761Y-79809523D01*
X101457142Y-79857142D01*
X104261904Y-94452380D02*
X104261904Y-93452380D01*
X104500000Y-93452380D01*
X104642857Y-93500000D01*
X104738095Y-93595238D01*
X104785714Y-93690476D01*
X104833333Y-93880952D01*
X104833333Y-94023809D01*
X104785714Y-94214285D01*
X104738095Y-94309523D01*
X104642857Y-94404761D01*
X104500000Y-94452380D01*
X104261904Y-94452380D01*
X105690476Y-93785714D02*
X105690476Y-94452380D01*
X105452380Y-93404761D02*
X105214285Y-94119047D01*
X105833333Y-94119047D01*
X105357142Y-91252380D02*
X105023809Y-90776190D01*
X104785714Y-91252380D02*
X104785714Y-90252380D01*
X105166666Y-90252380D01*
X105261904Y-90300000D01*
X105309523Y-90347619D01*
X105357142Y-90442857D01*
X105357142Y-90585714D01*
X105309523Y-90680952D01*
X105261904Y-90728571D01*
X105166666Y-90776190D01*
X104785714Y-90776190D01*
X106214285Y-90585714D02*
X106214285Y-91252380D01*
X105976190Y-90204761D02*
X105738095Y-90919047D01*
X106357142Y-90919047D01*
X107214285Y-90252380D02*
X106738095Y-90252380D01*
X106690476Y-90728571D01*
X106738095Y-90680952D01*
X106833333Y-90633333D01*
X107071428Y-90633333D01*
X107166666Y-90680952D01*
X107214285Y-90728571D01*
X107261904Y-90823809D01*
X107261904Y-91061904D01*
X107214285Y-91157142D01*
X107166666Y-91204761D01*
X107071428Y-91252380D01*
X106833333Y-91252380D01*
X106738095Y-91204761D01*
X106690476Y-91157142D01*
X77622380Y-62152857D02*
X77146190Y-62486190D01*
X77622380Y-62724285D02*
X76622380Y-62724285D01*
X76622380Y-62343333D01*
X76670000Y-62248095D01*
X76717619Y-62200476D01*
X76812857Y-62152857D01*
X76955714Y-62152857D01*
X77050952Y-62200476D01*
X77098571Y-62248095D01*
X77146190Y-62343333D01*
X77146190Y-62724285D01*
X77622380Y-61200476D02*
X77622380Y-61771904D01*
X77622380Y-61486190D02*
X76622380Y-61486190D01*
X76765238Y-61581428D01*
X76860476Y-61676666D01*
X76908095Y-61771904D01*
X76622380Y-60867142D02*
X76622380Y-60248095D01*
X77003333Y-60581428D01*
X77003333Y-60438571D01*
X77050952Y-60343333D01*
X77098571Y-60295714D01*
X77193809Y-60248095D01*
X77431904Y-60248095D01*
X77527142Y-60295714D01*
X77574761Y-60343333D01*
X77622380Y-60438571D01*
X77622380Y-60724285D01*
X77574761Y-60819523D01*
X77527142Y-60867142D01*
X102385714Y-125952380D02*
X102385714Y-124952380D01*
X102623809Y-124952380D01*
X102766666Y-125000000D01*
X102861904Y-125095238D01*
X102909523Y-125190476D01*
X102957142Y-125380952D01*
X102957142Y-125523809D01*
X102909523Y-125714285D01*
X102861904Y-125809523D01*
X102766666Y-125904761D01*
X102623809Y-125952380D01*
X102385714Y-125952380D01*
X103909523Y-125952380D02*
X103338095Y-125952380D01*
X103623809Y-125952380D02*
X103623809Y-124952380D01*
X103528571Y-125095238D01*
X103433333Y-125190476D01*
X103338095Y-125238095D01*
X104766666Y-125285714D02*
X104766666Y-125952380D01*
X104528571Y-124904761D02*
X104290476Y-125619047D01*
X104909523Y-125619047D01*
X102657142Y-53442857D02*
X102704761Y-53490476D01*
X102752380Y-53633333D01*
X102752380Y-53728571D01*
X102704761Y-53871428D01*
X102609523Y-53966666D01*
X102514285Y-54014285D01*
X102323809Y-54061904D01*
X102180952Y-54061904D01*
X101990476Y-54014285D01*
X101895238Y-53966666D01*
X101800000Y-53871428D01*
X101752380Y-53728571D01*
X101752380Y-53633333D01*
X101800000Y-53490476D01*
X101847619Y-53442857D01*
X101752380Y-53109523D02*
X101752380Y-52490476D01*
X102133333Y-52823809D01*
X102133333Y-52680952D01*
X102180952Y-52585714D01*
X102228571Y-52538095D01*
X102323809Y-52490476D01*
X102561904Y-52490476D01*
X102657142Y-52538095D01*
X102704761Y-52585714D01*
X102752380Y-52680952D01*
X102752380Y-52966666D01*
X102704761Y-53061904D01*
X102657142Y-53109523D01*
X102085714Y-51633333D02*
X102752380Y-51633333D01*
X101704761Y-51871428D02*
X102419047Y-52109523D01*
X102419047Y-51490476D01*
X104552380Y-72642857D02*
X104076190Y-72976190D01*
X104552380Y-73214285D02*
X103552380Y-73214285D01*
X103552380Y-72833333D01*
X103600000Y-72738095D01*
X103647619Y-72690476D01*
X103742857Y-72642857D01*
X103885714Y-72642857D01*
X103980952Y-72690476D01*
X104028571Y-72738095D01*
X104076190Y-72833333D01*
X104076190Y-73214285D01*
X103552380Y-72309523D02*
X103552380Y-71690476D01*
X103933333Y-72023809D01*
X103933333Y-71880952D01*
X103980952Y-71785714D01*
X104028571Y-71738095D01*
X104123809Y-71690476D01*
X104361904Y-71690476D01*
X104457142Y-71738095D01*
X104504761Y-71785714D01*
X104552380Y-71880952D01*
X104552380Y-72166666D01*
X104504761Y-72261904D01*
X104457142Y-72309523D01*
X103552380Y-70833333D02*
X103552380Y-71023809D01*
X103600000Y-71119047D01*
X103647619Y-71166666D01*
X103790476Y-71261904D01*
X103980952Y-71309523D01*
X104361904Y-71309523D01*
X104457142Y-71261904D01*
X104504761Y-71214285D01*
X104552380Y-71119047D01*
X104552380Y-70928571D01*
X104504761Y-70833333D01*
X104457142Y-70785714D01*
X104361904Y-70738095D01*
X104123809Y-70738095D01*
X104028571Y-70785714D01*
X103980952Y-70833333D01*
X103933333Y-70928571D01*
X103933333Y-71119047D01*
X103980952Y-71214285D01*
X104028571Y-71261904D01*
X104123809Y-71309523D01*
X105511904Y-104852380D02*
X105511904Y-103852380D01*
X105750000Y-103852380D01*
X105892857Y-103900000D01*
X105988095Y-103995238D01*
X106035714Y-104090476D01*
X106083333Y-104280952D01*
X106083333Y-104423809D01*
X106035714Y-104614285D01*
X105988095Y-104709523D01*
X105892857Y-104804761D01*
X105750000Y-104852380D01*
X105511904Y-104852380D01*
X106416666Y-103852380D02*
X107083333Y-103852380D01*
X106654761Y-104852380D01*
X98507142Y-72407142D02*
X98459523Y-72454761D01*
X98316666Y-72502380D01*
X98221428Y-72502380D01*
X98078571Y-72454761D01*
X97983333Y-72359523D01*
X97935714Y-72264285D01*
X97888095Y-72073809D01*
X97888095Y-71930952D01*
X97935714Y-71740476D01*
X97983333Y-71645238D01*
X98078571Y-71550000D01*
X98221428Y-71502380D01*
X98316666Y-71502380D01*
X98459523Y-71550000D01*
X98507142Y-71597619D01*
X98840476Y-71502380D02*
X99459523Y-71502380D01*
X99126190Y-71883333D01*
X99269047Y-71883333D01*
X99364285Y-71930952D01*
X99411904Y-71978571D01*
X99459523Y-72073809D01*
X99459523Y-72311904D01*
X99411904Y-72407142D01*
X99364285Y-72454761D01*
X99269047Y-72502380D01*
X98983333Y-72502380D01*
X98888095Y-72454761D01*
X98840476Y-72407142D01*
X100411904Y-72502380D02*
X99840476Y-72502380D01*
X100126190Y-72502380D02*
X100126190Y-71502380D01*
X100030952Y-71645238D01*
X99935714Y-71740476D01*
X99840476Y-71788095D01*
X76661904Y-57852380D02*
X76661904Y-56852380D01*
X76900000Y-56852380D01*
X77042857Y-56900000D01*
X77138095Y-56995238D01*
X77185714Y-57090476D01*
X77233333Y-57280952D01*
X77233333Y-57423809D01*
X77185714Y-57614285D01*
X77138095Y-57709523D01*
X77042857Y-57804761D01*
X76900000Y-57852380D01*
X76661904Y-57852380D01*
X78185714Y-57852380D02*
X77614285Y-57852380D01*
X77900000Y-57852380D02*
X77900000Y-56852380D01*
X77804761Y-56995238D01*
X77709523Y-57090476D01*
X77614285Y-57138095D01*
X104361904Y-96552380D02*
X104361904Y-95552380D01*
X104600000Y-95552380D01*
X104742857Y-95600000D01*
X104838095Y-95695238D01*
X104885714Y-95790476D01*
X104933333Y-95980952D01*
X104933333Y-96123809D01*
X104885714Y-96314285D01*
X104838095Y-96409523D01*
X104742857Y-96504761D01*
X104600000Y-96552380D01*
X104361904Y-96552380D01*
X105790476Y-95552380D02*
X105600000Y-95552380D01*
X105504761Y-95600000D01*
X105457142Y-95647619D01*
X105361904Y-95790476D01*
X105314285Y-95980952D01*
X105314285Y-96361904D01*
X105361904Y-96457142D01*
X105409523Y-96504761D01*
X105504761Y-96552380D01*
X105695238Y-96552380D01*
X105790476Y-96504761D01*
X105838095Y-96457142D01*
X105885714Y-96361904D01*
X105885714Y-96123809D01*
X105838095Y-96028571D01*
X105790476Y-95980952D01*
X105695238Y-95933333D01*
X105504761Y-95933333D01*
X105409523Y-95980952D01*
X105361904Y-96028571D01*
X105314285Y-96123809D01*
X91007142Y-84157142D02*
X90959523Y-84204761D01*
X90816666Y-84252380D01*
X90721428Y-84252380D01*
X90578571Y-84204761D01*
X90483333Y-84109523D01*
X90435714Y-84014285D01*
X90388095Y-83823809D01*
X90388095Y-83680952D01*
X90435714Y-83490476D01*
X90483333Y-83395238D01*
X90578571Y-83300000D01*
X90721428Y-83252380D01*
X90816666Y-83252380D01*
X90959523Y-83300000D01*
X91007142Y-83347619D01*
X91340476Y-83252380D02*
X91959523Y-83252380D01*
X91626190Y-83633333D01*
X91769047Y-83633333D01*
X91864285Y-83680952D01*
X91911904Y-83728571D01*
X91959523Y-83823809D01*
X91959523Y-84061904D01*
X91911904Y-84157142D01*
X91864285Y-84204761D01*
X91769047Y-84252380D01*
X91483333Y-84252380D01*
X91388095Y-84204761D01*
X91340476Y-84157142D01*
X92292857Y-83252380D02*
X92959523Y-83252380D01*
X92530952Y-84252380D01*
X103785714Y-135652380D02*
X103785714Y-134652380D01*
X104023809Y-134652380D01*
X104166666Y-134700000D01*
X104261904Y-134795238D01*
X104309523Y-134890476D01*
X104357142Y-135080952D01*
X104357142Y-135223809D01*
X104309523Y-135414285D01*
X104261904Y-135509523D01*
X104166666Y-135604761D01*
X104023809Y-135652380D01*
X103785714Y-135652380D01*
X105309523Y-135652380D02*
X104738095Y-135652380D01*
X105023809Y-135652380D02*
X105023809Y-134652380D01*
X104928571Y-134795238D01*
X104833333Y-134890476D01*
X104738095Y-134938095D01*
X105642857Y-134652380D02*
X106309523Y-134652380D01*
X105880952Y-135652380D01*
D10*
X83949000Y-74767221D02*
X83949000Y-75092779D01*
X82929000Y-74767221D02*
X82929000Y-75092779D01*
X95565279Y-89660000D02*
X95239721Y-89660000D01*
X95565279Y-90680000D02*
X95239721Y-90680000D01*
X95412779Y-107825000D02*
X95087221Y-107825000D01*
X95412779Y-106805000D02*
X95087221Y-106805000D01*
X95412779Y-141095000D02*
X95087221Y-141095000D01*
X95412779Y-142115000D02*
X95087221Y-142115000D01*
X99222779Y-107825000D02*
X98897221Y-107825000D01*
X99222779Y-106805000D02*
X98897221Y-106805000D01*
X99222779Y-109730000D02*
X98897221Y-109730000D01*
X99222779Y-108710000D02*
X98897221Y-108710000D01*
X99222779Y-123950000D02*
X98897221Y-123950000D01*
X99222779Y-124970000D02*
X98897221Y-124970000D01*
X99222779Y-125855000D02*
X98897221Y-125855000D01*
X99222779Y-126875000D02*
X98897221Y-126875000D01*
X108747779Y-97790000D02*
X108422221Y-97790000D01*
X108747779Y-98810000D02*
X108422221Y-98810000D01*
X99222779Y-142115000D02*
X98897221Y-142115000D01*
X99222779Y-141095000D02*
X98897221Y-141095000D01*
X99222779Y-143000000D02*
X98897221Y-143000000D01*
X99222779Y-144020000D02*
X98897221Y-144020000D01*
X106043000Y-85562221D02*
X106043000Y-85887779D01*
X107063000Y-85562221D02*
X107063000Y-85887779D01*
X90930000Y-150657779D02*
X90930000Y-150332221D01*
X91950000Y-150657779D02*
X91950000Y-150332221D01*
X91950000Y-158912779D02*
X91950000Y-158587221D01*
X90930000Y-158912779D02*
X90930000Y-158587221D01*
X93855000Y-158587221D02*
X93855000Y-158912779D01*
X92835000Y-158587221D02*
X92835000Y-158912779D01*
X91950000Y-154142221D02*
X91950000Y-154467779D01*
X90930000Y-154142221D02*
X90930000Y-154467779D01*
X113924000Y-72663000D02*
X113924000Y-73923000D01*
X110164000Y-79483000D02*
X113924000Y-79483000D01*
X107914000Y-72663000D02*
X113924000Y-72663000D01*
X113924000Y-79483000D02*
X113924000Y-78223000D01*
X110470000Y-51141000D02*
X108185000Y-51141000D01*
X108185000Y-52611000D02*
X110470000Y-52611000D01*
X110470000Y-52611000D02*
X110470000Y-51141000D01*
X107285000Y-52611000D02*
X107285000Y-51141000D01*
X107285000Y-51141000D02*
X105000000Y-51141000D01*
X105000000Y-52611000D02*
X107285000Y-52611000D01*
X105637221Y-52890000D02*
X105962779Y-52890000D01*
X105637221Y-53910000D02*
X105962779Y-53910000D01*
X108822221Y-52890000D02*
X109147779Y-52890000D01*
X108822221Y-53910000D02*
X109147779Y-53910000D01*
X110600000Y-118090000D02*
X112550000Y-118090000D01*
X110600000Y-118090000D02*
X107150000Y-118090000D01*
X110600000Y-123210000D02*
X108650000Y-123210000D01*
X110600000Y-123210000D02*
X112550000Y-123210000D01*
X94960000Y-81341422D02*
X94960000Y-81858578D01*
X93540000Y-81341422D02*
X93540000Y-81858578D01*
X111922779Y-91565000D02*
X111597221Y-91565000D01*
X111922779Y-92585000D02*
X111597221Y-92585000D01*
X108580422Y-81609000D02*
X109097578Y-81609000D01*
X108580422Y-80189000D02*
X109097578Y-80189000D01*
X108580000Y-55821422D02*
X108580000Y-56338578D01*
X110000000Y-55821422D02*
X110000000Y-56338578D01*
X108025000Y-59279022D02*
X108025000Y-59796178D01*
X106605000Y-59279022D02*
X106605000Y-59796178D01*
X108020000Y-55821422D02*
X108020000Y-56338578D01*
X106600000Y-55821422D02*
X106600000Y-56338578D01*
X110006200Y-59279022D02*
X110006200Y-59796178D01*
X108586200Y-59279022D02*
X108586200Y-59796178D01*
X104062600Y-59279022D02*
X104062600Y-59796178D01*
X102642600Y-59279022D02*
X102642600Y-59796178D01*
X98313021Y-76735400D02*
X98638579Y-76735400D01*
X98313021Y-75715400D02*
X98638579Y-75715400D01*
X87120000Y-154467779D02*
X87120000Y-154142221D01*
X88140000Y-154467779D02*
X88140000Y-154142221D01*
X77214000Y-147482779D02*
X77214000Y-147157221D01*
X78234000Y-147482779D02*
X78234000Y-147157221D01*
X78234000Y-154777221D02*
X78234000Y-155102779D01*
X77214000Y-154777221D02*
X77214000Y-155102779D01*
X104900000Y-150657779D02*
X104900000Y-150332221D01*
X105920000Y-150657779D02*
X105920000Y-150332221D01*
X90045000Y-150657779D02*
X90045000Y-150332221D01*
X89025000Y-150657779D02*
X89025000Y-150332221D01*
X108747779Y-91565000D02*
X108422221Y-91565000D01*
X108747779Y-92585000D02*
X108422221Y-92585000D01*
X114462779Y-104265000D02*
X114137221Y-104265000D01*
X114462779Y-105285000D02*
X114137221Y-105285000D01*
X114462779Y-102745000D02*
X114137221Y-102745000D01*
X114462779Y-101725000D02*
X114137221Y-101725000D01*
X108747779Y-125855000D02*
X108422221Y-125855000D01*
X108747779Y-126875000D02*
X108422221Y-126875000D01*
X106510000Y-122437221D02*
X106510000Y-122762779D01*
X105490000Y-122437221D02*
X105490000Y-122762779D01*
X115710000Y-124137221D02*
X115710000Y-124462779D01*
X114690000Y-124137221D02*
X114690000Y-124462779D01*
X105490000Y-119237221D02*
X105490000Y-119562779D01*
X106510000Y-119237221D02*
X106510000Y-119562779D01*
X114690000Y-120537221D02*
X114690000Y-120862779D01*
X115710000Y-120537221D02*
X115710000Y-120862779D01*
X99222779Y-92585000D02*
X98897221Y-92585000D01*
X99222779Y-91565000D02*
X98897221Y-91565000D01*
X111922779Y-125855000D02*
X111597221Y-125855000D01*
X111922779Y-126875000D02*
X111597221Y-126875000D01*
X82077779Y-66165000D02*
X81752221Y-66165000D01*
X82077779Y-67185000D02*
X81752221Y-67185000D01*
X99222779Y-89660000D02*
X98897221Y-89660000D01*
X99222779Y-90680000D02*
X98897221Y-90680000D01*
X106810000Y-88737221D02*
X106810000Y-89062779D01*
X105790000Y-88737221D02*
X105790000Y-89062779D01*
X98425000Y-156865000D02*
X100375000Y-156865000D01*
X98425000Y-151745000D02*
X100375000Y-151745000D01*
X98425000Y-156865000D02*
X96475000Y-156865000D01*
X98425000Y-151745000D02*
X94975000Y-151745000D01*
X106043800Y-59279022D02*
X106043800Y-59796178D01*
X104623800Y-59279022D02*
X104623800Y-59796178D01*
X104630000Y-55821422D02*
X104630000Y-56338578D01*
X106050000Y-55821422D02*
X106050000Y-56338578D01*
X104900000Y-154142221D02*
X104900000Y-154467779D01*
X105920000Y-154142221D02*
X105920000Y-154467779D01*
X89025000Y-154142221D02*
X89025000Y-154467779D01*
X90045000Y-154142221D02*
X90045000Y-154467779D01*
X99857779Y-150370000D02*
X99532221Y-150370000D01*
X99857779Y-149350000D02*
X99532221Y-149350000D01*
X82550000Y-151745000D02*
X79100000Y-151745000D01*
X82550000Y-156865000D02*
X84500000Y-156865000D01*
X82550000Y-156865000D02*
X80600000Y-156865000D01*
X82550000Y-151745000D02*
X84500000Y-151745000D01*
X108326422Y-82221000D02*
X108843578Y-82221000D01*
X108326422Y-83641000D02*
X108843578Y-83641000D01*
X81275422Y-78535600D02*
X81792578Y-78535600D01*
X81275422Y-77115600D02*
X81792578Y-77115600D01*
X95412779Y-123950000D02*
X95087221Y-123950000D01*
X95412779Y-124970000D02*
X95087221Y-124970000D01*
X87422222Y-60679400D02*
X87939378Y-60679400D01*
X87422222Y-59259400D02*
X87939378Y-59259400D01*
X82681578Y-67743000D02*
X82164422Y-67743000D01*
X82681578Y-69163000D02*
X82164422Y-69163000D01*
X116265000Y-71815000D02*
X114935000Y-71815000D01*
X116265000Y-70485000D02*
X116265000Y-71815000D01*
X113665000Y-71815000D02*
X111065000Y-71815000D01*
X116265000Y-69215000D02*
X116265000Y-51375000D01*
X113665000Y-69215000D02*
X113665000Y-71815000D01*
X116265000Y-51375000D02*
X111065000Y-51375000D01*
X111065000Y-71815000D02*
X111065000Y-51375000D01*
X116265000Y-69215000D02*
X113665000Y-69215000D01*
X84660000Y-158912779D02*
X84660000Y-158587221D01*
X83640000Y-158912779D02*
X83640000Y-158587221D01*
X99570000Y-158912779D02*
X99570000Y-158587221D01*
X98550000Y-158912779D02*
X98550000Y-158587221D01*
X104015000Y-154467779D02*
X104015000Y-154142221D01*
X102995000Y-154467779D02*
X102995000Y-154142221D01*
X111125000Y-84181000D02*
X113075000Y-84181000D01*
X111125000Y-84181000D02*
X107675000Y-84181000D01*
X111125000Y-89301000D02*
X113075000Y-89301000D01*
X111125000Y-89301000D02*
X109175000Y-89301000D01*
X104060000Y-55821422D02*
X104060000Y-56338578D01*
X102640000Y-55821422D02*
X102640000Y-56338578D01*
X108747779Y-131955000D02*
X108422221Y-131955000D01*
X108747779Y-130935000D02*
X108422221Y-130935000D01*
X111465000Y-154570000D02*
X111465000Y-152120000D01*
X108245000Y-152770000D02*
X108245000Y-154570000D01*
X86380000Y-120015000D02*
X86380000Y-121965000D01*
X86380000Y-120015000D02*
X86380000Y-116565000D01*
X81260000Y-120015000D02*
X81260000Y-118065000D01*
X81260000Y-120015000D02*
X81260000Y-121965000D01*
X85252779Y-91315000D02*
X84927221Y-91315000D01*
X85252779Y-90295000D02*
X84927221Y-90295000D01*
X85100279Y-125605000D02*
X84774721Y-125605000D01*
X85100279Y-124585000D02*
X84774721Y-124585000D01*
X77214000Y-158587221D02*
X77214000Y-158912779D01*
X78234000Y-158587221D02*
X78234000Y-158912779D01*
X78865000Y-158587221D02*
X78865000Y-158912779D01*
X79885000Y-158587221D02*
X79885000Y-158912779D01*
X78486000Y-54162000D02*
X77156000Y-54162000D01*
X79756000Y-54162000D02*
X92516000Y-54162000D01*
X79756000Y-51502000D02*
X92516000Y-51502000D01*
X77156000Y-54162000D02*
X77156000Y-52832000D01*
X92516000Y-54162000D02*
X92516000Y-51502000D01*
X79756000Y-54162000D02*
X79756000Y-51502000D01*
X109095000Y-158912779D02*
X109095000Y-158587221D01*
X108075000Y-158912779D02*
X108075000Y-158587221D01*
X113165000Y-154400000D02*
X112505000Y-154400000D01*
X112505000Y-152990000D02*
X112505000Y-154400000D01*
X114825000Y-154400000D02*
X114165000Y-154400000D01*
X114825000Y-154400000D02*
X114825000Y-152370000D01*
X84617779Y-149350000D02*
X84292221Y-149350000D01*
X84617779Y-150370000D02*
X84292221Y-150370000D01*
X87280000Y-76230000D02*
X86330000Y-76230000D01*
X86330000Y-76230000D02*
X86330000Y-75280000D01*
X86330000Y-66960000D02*
X84990000Y-66960000D01*
X95600000Y-76230000D02*
X96550000Y-76230000D01*
X96550000Y-66010000D02*
X96550000Y-66960000D01*
X86330000Y-66010000D02*
X86330000Y-66960000D01*
X95600000Y-66010000D02*
X96550000Y-66010000D01*
X87280000Y-66010000D02*
X86330000Y-66010000D01*
X96550000Y-76230000D02*
X96550000Y-75280000D01*
X108160000Y-65390000D02*
X108510000Y-65390000D01*
X108160000Y-69610000D02*
X108510000Y-69610000D01*
X104290000Y-69610000D02*
X104290000Y-69260000D01*
X104640000Y-65390000D02*
X104290000Y-65390000D01*
X104640000Y-69610000D02*
X104290000Y-69610000D01*
X108510000Y-65390000D02*
X108510000Y-65740000D01*
X108510000Y-69610000D02*
X108510000Y-69260000D01*
X81260000Y-85725000D02*
X81260000Y-87675000D01*
X81260000Y-85725000D02*
X81260000Y-83775000D01*
X86380000Y-85725000D02*
X86380000Y-87675000D01*
X86380000Y-85725000D02*
X86380000Y-82275000D01*
X88775000Y-79974221D02*
X88775000Y-80299779D01*
X87755000Y-79974221D02*
X87755000Y-80299779D01*
X82675000Y-71592221D02*
X82675000Y-71917779D01*
X83695000Y-71592221D02*
X83695000Y-71917779D01*
X86250000Y-57000000D02*
X82350000Y-57000000D01*
X86250000Y-57000000D02*
X86250000Y-55000000D01*
X86250000Y-55000000D02*
X82350000Y-55000000D01*
X78494810Y-69179011D02*
X78820368Y-69179011D01*
X78494810Y-68159011D02*
X78820368Y-68159011D01*
X78596410Y-74229611D02*
X78921968Y-74229611D01*
X78596410Y-75249611D02*
X78921968Y-75249611D01*
X80383789Y-69666211D02*
X77083789Y-69666211D01*
X77083789Y-69666211D02*
X77083789Y-73666211D01*
X108950000Y-99400000D02*
X108950000Y-101950000D01*
X107250000Y-99400000D02*
X107250000Y-101950000D01*
X108950000Y-99400000D02*
X107250000Y-99400000D01*
X97690000Y-65340580D02*
X97690000Y-65059420D01*
X98710000Y-65340580D02*
X98710000Y-65059420D01*
X104290000Y-63059420D02*
X104290000Y-63340580D01*
X105310000Y-63059420D02*
X105310000Y-63340580D01*
X103222500Y-78037258D02*
X103222500Y-77562742D01*
X102177500Y-78037258D02*
X102177500Y-77562742D01*
X112437258Y-139422500D02*
X111962742Y-139422500D01*
X112437258Y-138377500D02*
X111962742Y-138377500D01*
X93440580Y-79310000D02*
X93159420Y-79310000D01*
X93440580Y-78290000D02*
X93159420Y-78290000D01*
X105050000Y-130700000D02*
X105050000Y-128150000D01*
X106750000Y-130700000D02*
X106750000Y-128150000D01*
X105050000Y-130700000D02*
X106750000Y-130700000D01*
X111037258Y-104277500D02*
X110562742Y-104277500D01*
X111037258Y-105322500D02*
X110562742Y-105322500D01*
X110310000Y-64640580D02*
X110310000Y-64359420D01*
X109290000Y-64640580D02*
X109290000Y-64359420D01*
X100415000Y-56795000D02*
X100415000Y-56535000D01*
X94965000Y-56795000D02*
X94965000Y-56535000D01*
X97690000Y-51345000D02*
X100415000Y-51345000D01*
X97690000Y-51345000D02*
X94965000Y-51345000D01*
X97690000Y-56795000D02*
X100415000Y-56795000D01*
X94965000Y-51605000D02*
X93290000Y-51605000D01*
X97690000Y-56795000D02*
X94965000Y-56795000D01*
X94965000Y-51345000D02*
X94965000Y-51605000D01*
X100415000Y-51345000D02*
X100415000Y-51605000D01*
X108287742Y-125222500D02*
X108762258Y-125222500D01*
X108287742Y-124177500D02*
X108762258Y-124177500D01*
X109500000Y-138150000D02*
X109500000Y-136450000D01*
X109500000Y-136450000D02*
X106950000Y-136450000D01*
X109500000Y-138150000D02*
X106950000Y-138150000D01*
X88287258Y-57577500D02*
X87812742Y-57577500D01*
X88287258Y-58622500D02*
X87812742Y-58622500D01*
X85822500Y-64761342D02*
X85822500Y-65235858D01*
X84777500Y-64761342D02*
X84777500Y-65235858D01*
X100531200Y-63511820D02*
X100531200Y-63792980D01*
X101551200Y-63511820D02*
X101551200Y-63792980D01*
X101322500Y-74937258D02*
X101322500Y-74462742D01*
X100277500Y-74937258D02*
X100277500Y-74462742D01*
X88287258Y-57022500D02*
X87812742Y-57022500D01*
X88287258Y-55977500D02*
X87812742Y-55977500D01*
X101877500Y-74937258D02*
X101877500Y-74462742D01*
X102922500Y-74937258D02*
X102922500Y-74462742D01*
X105890000Y-63340580D02*
X105890000Y-63059420D01*
X106910000Y-63340580D02*
X106910000Y-63059420D01*
X105265000Y-72161252D02*
X105265000Y-71638748D01*
X106735000Y-72161252D02*
X106735000Y-71638748D01*
X86290000Y-62840580D02*
X86290000Y-62559420D01*
X87310000Y-62840580D02*
X87310000Y-62559420D01*
X96190000Y-63919980D02*
X96190000Y-63638820D01*
X97210000Y-63919980D02*
X97210000Y-63638820D01*
X103777500Y-78037258D02*
X103777500Y-77562742D01*
X104822500Y-78037258D02*
X104822500Y-77562742D01*
X100477500Y-78037258D02*
X100477500Y-77562742D01*
X101522500Y-78037258D02*
X101522500Y-77562742D01*
X106000000Y-93150000D02*
X108550000Y-93150000D01*
X106000000Y-93150000D02*
X106000000Y-94850000D01*
X106000000Y-94850000D02*
X108550000Y-94850000D01*
X108362742Y-91022500D02*
X108837258Y-91022500D01*
X108362742Y-89977500D02*
X108837258Y-89977500D01*
X77763900Y-64524658D02*
X77763900Y-64050142D01*
X76718900Y-64524658D02*
X76718900Y-64050142D01*
X106750000Y-124400000D02*
X105050000Y-124400000D01*
X105050000Y-124400000D02*
X105050000Y-126950000D01*
X106750000Y-124400000D02*
X106750000Y-126950000D01*
X102590000Y-52659420D02*
X102590000Y-52940580D01*
X103610000Y-52659420D02*
X103610000Y-52940580D01*
X104522500Y-74937258D02*
X104522500Y-74462742D01*
X103477500Y-74937258D02*
X103477500Y-74462742D01*
X108950000Y-105900000D02*
X108950000Y-103350000D01*
X107250000Y-105900000D02*
X108950000Y-105900000D01*
X107250000Y-105900000D02*
X107250000Y-103350000D01*
X99390000Y-69859420D02*
X99390000Y-70140580D01*
X100410000Y-69859420D02*
X100410000Y-70140580D01*
X81350000Y-57000000D02*
X77450000Y-57000000D01*
X81350000Y-57000000D02*
X81350000Y-55000000D01*
X81350000Y-55000000D02*
X77450000Y-55000000D01*
X106100000Y-95250000D02*
X108650000Y-95250000D01*
X106100000Y-95250000D02*
X106100000Y-96950000D01*
X106100000Y-96950000D02*
X108650000Y-96950000D01*
X92935000Y-81338748D02*
X92935000Y-81861252D01*
X91465000Y-81338748D02*
X91465000Y-81861252D01*
X109500000Y-134350000D02*
X106950000Y-134350000D01*
X109500000Y-136050000D02*
X109500000Y-134350000D01*
X109500000Y-136050000D02*
X106950000Y-136050000D01*
M02*
