G04 #@! TF.GenerationSoftware,KiCad,Pcbnew,6.0.6+dfsg-1*
G04 #@! TF.CreationDate,2022-10-02T16:41:46+02:00*
G04 #@! TF.ProjectId,demiurge-panel_adsr,64656d69-7572-4676-952d-70616e656c5f,F*
G04 #@! TF.SameCoordinates,Original*
G04 #@! TF.FileFunction,Legend,Bot*
G04 #@! TF.FilePolarity,Positive*
%FSLAX46Y46*%
G04 Gerber Fmt 4.6, Leading zero omitted, Abs format (unit mm)*
G04 Created by KiCad (PCBNEW 6.0.6+dfsg-1) date 2022-10-02 16:41:46*
%MOMM*%
%LPD*%
G01*
G04 APERTURE LIST*
%ADD10C,0.400000*%
%ADD11C,0.300000*%
G04 APERTURE END LIST*
D10*
X106961904Y-64505453D02*
X105057142Y-64505453D01*
X107342857Y-65648310D02*
X106009523Y-61648310D01*
X104676190Y-65648310D01*
X103533333Y-64505453D02*
X101628571Y-64505453D01*
X103914285Y-65648310D02*
X102580952Y-61648310D01*
X101247619Y-65648310D01*
X100104761Y-64505453D02*
X98200000Y-64505453D01*
X100485714Y-65648310D02*
X99152380Y-61648310D01*
X97819047Y-65648310D01*
X96485714Y-64124501D02*
X93438095Y-64124501D01*
X91533333Y-65648310D02*
X91533333Y-61648310D01*
X90580952Y-61648310D01*
X90009523Y-61838787D01*
X89628571Y-62219739D01*
X89438095Y-62600691D01*
X89247619Y-63362596D01*
X89247619Y-63934025D01*
X89438095Y-64695929D01*
X89628571Y-65076882D01*
X90009523Y-65457834D01*
X90580952Y-65648310D01*
X91533333Y-65648310D01*
X85438095Y-65648310D02*
X87723809Y-65648310D01*
X86580952Y-65648310D02*
X86580952Y-61648310D01*
X86961904Y-62219739D01*
X87342857Y-62600691D01*
X87723809Y-62791167D01*
D11*
X103785714Y-86300000D02*
X102357142Y-86300000D01*
X104071428Y-87157142D02*
X103071428Y-84157142D01*
X102071428Y-87157142D01*
X101500000Y-85157142D02*
X100357142Y-85157142D01*
X101071428Y-84157142D02*
X101071428Y-86728571D01*
X100928571Y-87014285D01*
X100642857Y-87157142D01*
X100357142Y-87157142D01*
X99785714Y-85157142D02*
X98642857Y-85157142D01*
X99357142Y-84157142D02*
X99357142Y-86728571D01*
X99214285Y-87014285D01*
X98928571Y-87157142D01*
X98642857Y-87157142D01*
X96357142Y-87157142D02*
X96357142Y-85585714D01*
X96500000Y-85300000D01*
X96785714Y-85157142D01*
X97357142Y-85157142D01*
X97642857Y-85300000D01*
X96357142Y-87014285D02*
X96642857Y-87157142D01*
X97357142Y-87157142D01*
X97642857Y-87014285D01*
X97785714Y-86728571D01*
X97785714Y-86442857D01*
X97642857Y-86157142D01*
X97357142Y-86014285D01*
X96642857Y-86014285D01*
X96357142Y-85871428D01*
X93642857Y-87014285D02*
X93928571Y-87157142D01*
X94500000Y-87157142D01*
X94785714Y-87014285D01*
X94928571Y-86871428D01*
X95071428Y-86585714D01*
X95071428Y-85728571D01*
X94928571Y-85442857D01*
X94785714Y-85300000D01*
X94500000Y-85157142D01*
X93928571Y-85157142D01*
X93642857Y-85300000D01*
X92357142Y-87157142D02*
X92357142Y-84157142D01*
X92071428Y-86014285D02*
X91214285Y-87157142D01*
X91214285Y-85157142D02*
X92357142Y-86300000D01*
X100428571Y-145057142D02*
X99857142Y-145057142D01*
X99571428Y-145200000D01*
X99285714Y-145485714D01*
X99142857Y-146057142D01*
X99142857Y-147057142D01*
X99285714Y-147628571D01*
X99571428Y-147914285D01*
X99857142Y-148057142D01*
X100428571Y-148057142D01*
X100714285Y-147914285D01*
X101000000Y-147628571D01*
X101142857Y-147057142D01*
X101142857Y-146057142D01*
X101000000Y-145485714D01*
X100714285Y-145200000D01*
X100428571Y-145057142D01*
X96571428Y-146057142D02*
X96571428Y-148057142D01*
X97857142Y-146057142D02*
X97857142Y-147628571D01*
X97714285Y-147914285D01*
X97428571Y-148057142D01*
X97000000Y-148057142D01*
X96714285Y-147914285D01*
X96571428Y-147771428D01*
X95571428Y-146057142D02*
X94428571Y-146057142D01*
X95142857Y-145057142D02*
X95142857Y-147628571D01*
X95000000Y-147914285D01*
X94714285Y-148057142D01*
X94428571Y-148057142D01*
X91857142Y-148057142D02*
X93571428Y-148057142D01*
X92714285Y-148057142D02*
X92714285Y-145057142D01*
X93000000Y-145485714D01*
X93285714Y-145771428D01*
X93571428Y-145914285D01*
X86628571Y-145057142D02*
X86057142Y-145057142D01*
X85771428Y-145200000D01*
X85485714Y-145485714D01*
X85342857Y-146057142D01*
X85342857Y-147057142D01*
X85485714Y-147628571D01*
X85771428Y-147914285D01*
X86057142Y-148057142D01*
X86628571Y-148057142D01*
X86914285Y-147914285D01*
X87200000Y-147628571D01*
X87342857Y-147057142D01*
X87342857Y-146057142D01*
X87200000Y-145485714D01*
X86914285Y-145200000D01*
X86628571Y-145057142D01*
X82771428Y-146057142D02*
X82771428Y-148057142D01*
X84057142Y-146057142D02*
X84057142Y-147628571D01*
X83914285Y-147914285D01*
X83628571Y-148057142D01*
X83200000Y-148057142D01*
X82914285Y-147914285D01*
X82771428Y-147771428D01*
X81771428Y-146057142D02*
X80628571Y-146057142D01*
X81342857Y-145057142D02*
X81342857Y-147628571D01*
X81200000Y-147914285D01*
X80914285Y-148057142D01*
X80628571Y-148057142D01*
X79771428Y-145342857D02*
X79628571Y-145200000D01*
X79342857Y-145057142D01*
X78628571Y-145057142D01*
X78342857Y-145200000D01*
X78200000Y-145342857D01*
X78057142Y-145628571D01*
X78057142Y-145914285D01*
X78200000Y-146342857D01*
X79914285Y-148057142D01*
X78057142Y-148057142D01*
X103785714Y-138657142D02*
X104785714Y-137228571D01*
X105500000Y-138657142D02*
X105500000Y-135657142D01*
X104357142Y-135657142D01*
X104071428Y-135800000D01*
X103928571Y-135942857D01*
X103785714Y-136228571D01*
X103785714Y-136657142D01*
X103928571Y-136942857D01*
X104071428Y-137085714D01*
X104357142Y-137228571D01*
X105500000Y-137228571D01*
X101357142Y-138514285D02*
X101642857Y-138657142D01*
X102214285Y-138657142D01*
X102500000Y-138514285D01*
X102642857Y-138228571D01*
X102642857Y-137085714D01*
X102500000Y-136800000D01*
X102214285Y-136657142D01*
X101642857Y-136657142D01*
X101357142Y-136800000D01*
X101214285Y-137085714D01*
X101214285Y-137371428D01*
X102642857Y-137657142D01*
X99500000Y-138657142D02*
X99785714Y-138514285D01*
X99928571Y-138228571D01*
X99928571Y-135657142D01*
X97214285Y-138514285D02*
X97500000Y-138657142D01*
X98071428Y-138657142D01*
X98357142Y-138514285D01*
X98500000Y-138228571D01*
X98500000Y-137085714D01*
X98357142Y-136800000D01*
X98071428Y-136657142D01*
X97500000Y-136657142D01*
X97214285Y-136800000D01*
X97071428Y-137085714D01*
X97071428Y-137371428D01*
X98500000Y-137657142D01*
X94500000Y-138657142D02*
X94500000Y-137085714D01*
X94642857Y-136800000D01*
X94928571Y-136657142D01*
X95500000Y-136657142D01*
X95785714Y-136800000D01*
X94500000Y-138514285D02*
X94785714Y-138657142D01*
X95500000Y-138657142D01*
X95785714Y-138514285D01*
X95928571Y-138228571D01*
X95928571Y-137942857D01*
X95785714Y-137657142D01*
X95500000Y-137514285D01*
X94785714Y-137514285D01*
X94500000Y-137371428D01*
X93214285Y-138514285D02*
X92928571Y-138657142D01*
X92357142Y-138657142D01*
X92071428Y-138514285D01*
X91928571Y-138228571D01*
X91928571Y-138085714D01*
X92071428Y-137800000D01*
X92357142Y-137657142D01*
X92785714Y-137657142D01*
X93071428Y-137514285D01*
X93214285Y-137228571D01*
X93214285Y-137085714D01*
X93071428Y-136800000D01*
X92785714Y-136657142D01*
X92357142Y-136657142D01*
X92071428Y-136800000D01*
X89500000Y-138514285D02*
X89785714Y-138657142D01*
X90357142Y-138657142D01*
X90642857Y-138514285D01*
X90785714Y-138228571D01*
X90785714Y-137085714D01*
X90642857Y-136800000D01*
X90357142Y-136657142D01*
X89785714Y-136657142D01*
X89500000Y-136800000D01*
X89357142Y-137085714D01*
X89357142Y-137371428D01*
X90785714Y-137657142D01*
X112757142Y-145057142D02*
X111042857Y-145057142D01*
X111900000Y-148057142D02*
X111900000Y-145057142D01*
X110042857Y-148057142D02*
X110042857Y-146057142D01*
X110042857Y-146628571D02*
X109900000Y-146342857D01*
X109757142Y-146200000D01*
X109471428Y-146057142D01*
X109185714Y-146057142D01*
X108185714Y-148057142D02*
X108185714Y-146057142D01*
X108185714Y-145057142D02*
X108328571Y-145200000D01*
X108185714Y-145342857D01*
X108042857Y-145200000D01*
X108185714Y-145057142D01*
X108185714Y-145342857D01*
X105471428Y-146057142D02*
X105471428Y-148485714D01*
X105614285Y-148771428D01*
X105757142Y-148914285D01*
X106042857Y-149057142D01*
X106471428Y-149057142D01*
X106757142Y-148914285D01*
X105471428Y-147914285D02*
X105757142Y-148057142D01*
X106328571Y-148057142D01*
X106614285Y-147914285D01*
X106757142Y-147771428D01*
X106900000Y-147485714D01*
X106900000Y-146628571D01*
X106757142Y-146342857D01*
X106614285Y-146200000D01*
X106328571Y-146057142D01*
X105757142Y-146057142D01*
X105471428Y-146200000D01*
X109942857Y-68957142D02*
X109276190Y-68957142D01*
X108990476Y-70004761D02*
X109942857Y-70004761D01*
X109942857Y-68004761D01*
X108990476Y-68004761D01*
X108133333Y-68671428D02*
X108133333Y-70004761D01*
X108133333Y-68861904D02*
X108038095Y-68766666D01*
X107847619Y-68671428D01*
X107561904Y-68671428D01*
X107371428Y-68766666D01*
X107276190Y-68957142D01*
X107276190Y-70004761D01*
X106514285Y-68671428D02*
X106038095Y-70004761D01*
X105561904Y-68671428D01*
X104038095Y-69909523D02*
X104228571Y-70004761D01*
X104609523Y-70004761D01*
X104800000Y-69909523D01*
X104895238Y-69719047D01*
X104895238Y-68957142D01*
X104800000Y-68766666D01*
X104609523Y-68671428D01*
X104228571Y-68671428D01*
X104038095Y-68766666D01*
X103942857Y-68957142D01*
X103942857Y-69147619D01*
X104895238Y-69338095D01*
X102800000Y-70004761D02*
X102990476Y-69909523D01*
X103085714Y-69719047D01*
X103085714Y-68004761D01*
X101752380Y-70004761D02*
X101942857Y-69909523D01*
X102038095Y-69814285D01*
X102133333Y-69623809D01*
X102133333Y-69052380D01*
X102038095Y-68861904D01*
X101942857Y-68766666D01*
X101752380Y-68671428D01*
X101466666Y-68671428D01*
X101276190Y-68766666D01*
X101180952Y-68861904D01*
X101085714Y-69052380D01*
X101085714Y-69623809D01*
X101180952Y-69814285D01*
X101276190Y-69909523D01*
X101466666Y-70004761D01*
X101752380Y-70004761D01*
X100228571Y-68671428D02*
X100228571Y-70671428D01*
X100228571Y-68766666D02*
X100038095Y-68671428D01*
X99657142Y-68671428D01*
X99466666Y-68766666D01*
X99371428Y-68861904D01*
X99276190Y-69052380D01*
X99276190Y-69623809D01*
X99371428Y-69814285D01*
X99466666Y-69909523D01*
X99657142Y-70004761D01*
X100038095Y-70004761D01*
X100228571Y-69909523D01*
X97657142Y-69909523D02*
X97847619Y-70004761D01*
X98228571Y-70004761D01*
X98419047Y-69909523D01*
X98514285Y-69719047D01*
X98514285Y-68957142D01*
X98419047Y-68766666D01*
X98228571Y-68671428D01*
X97847619Y-68671428D01*
X97657142Y-68766666D01*
X97561904Y-68957142D01*
X97561904Y-69147619D01*
X98514285Y-69338095D01*
X94133333Y-68100000D02*
X94323809Y-68004761D01*
X94609523Y-68004761D01*
X94895238Y-68100000D01*
X95085714Y-68290476D01*
X95180952Y-68480952D01*
X95276190Y-68861904D01*
X95276190Y-69147619D01*
X95180952Y-69528571D01*
X95085714Y-69719047D01*
X94895238Y-69909523D01*
X94609523Y-70004761D01*
X94419047Y-70004761D01*
X94133333Y-69909523D01*
X94038095Y-69814285D01*
X94038095Y-69147619D01*
X94419047Y-69147619D01*
X92419047Y-69909523D02*
X92609523Y-70004761D01*
X92990476Y-70004761D01*
X93180952Y-69909523D01*
X93276190Y-69719047D01*
X93276190Y-68957142D01*
X93180952Y-68766666D01*
X92990476Y-68671428D01*
X92609523Y-68671428D01*
X92419047Y-68766666D01*
X92323809Y-68957142D01*
X92323809Y-69147619D01*
X93276190Y-69338095D01*
X91466666Y-68671428D02*
X91466666Y-70004761D01*
X91466666Y-68861904D02*
X91371428Y-68766666D01*
X91180952Y-68671428D01*
X90895238Y-68671428D01*
X90704761Y-68766666D01*
X90609523Y-68957142D01*
X90609523Y-70004761D01*
X88895238Y-69909523D02*
X89085714Y-70004761D01*
X89466666Y-70004761D01*
X89657142Y-69909523D01*
X89752380Y-69719047D01*
X89752380Y-68957142D01*
X89657142Y-68766666D01*
X89466666Y-68671428D01*
X89085714Y-68671428D01*
X88895238Y-68766666D01*
X88800000Y-68957142D01*
X88800000Y-69147619D01*
X89752380Y-69338095D01*
X87942857Y-70004761D02*
X87942857Y-68671428D01*
X87942857Y-69052380D02*
X87847619Y-68861904D01*
X87752380Y-68766666D01*
X87561904Y-68671428D01*
X87371428Y-68671428D01*
X85847619Y-70004761D02*
X85847619Y-68957142D01*
X85942857Y-68766666D01*
X86133333Y-68671428D01*
X86514285Y-68671428D01*
X86704761Y-68766666D01*
X85847619Y-69909523D02*
X86038095Y-70004761D01*
X86514285Y-70004761D01*
X86704761Y-69909523D01*
X86800000Y-69719047D01*
X86800000Y-69528571D01*
X86704761Y-69338095D01*
X86514285Y-69242857D01*
X86038095Y-69242857D01*
X85847619Y-69147619D01*
X85180952Y-68671428D02*
X84419047Y-68671428D01*
X84895238Y-68004761D02*
X84895238Y-69719047D01*
X84800000Y-69909523D01*
X84609523Y-70004761D01*
X84419047Y-70004761D01*
X83466666Y-70004761D02*
X83657142Y-69909523D01*
X83752380Y-69814285D01*
X83847619Y-69623809D01*
X83847619Y-69052380D01*
X83752380Y-68861904D01*
X83657142Y-68766666D01*
X83466666Y-68671428D01*
X83180952Y-68671428D01*
X82990476Y-68766666D01*
X82895238Y-68861904D01*
X82800000Y-69052380D01*
X82800000Y-69623809D01*
X82895238Y-69814285D01*
X82990476Y-69909523D01*
X83180952Y-70004761D01*
X83466666Y-70004761D01*
X81942857Y-70004761D02*
X81942857Y-68671428D01*
X81942857Y-69052380D02*
X81847619Y-68861904D01*
X81752380Y-68766666D01*
X81561904Y-68671428D01*
X81371428Y-68671428D01*
X105214285Y-121314285D02*
X104785714Y-121457142D01*
X104071428Y-121457142D01*
X103785714Y-121314285D01*
X103642857Y-121171428D01*
X103500000Y-120885714D01*
X103500000Y-120600000D01*
X103642857Y-120314285D01*
X103785714Y-120171428D01*
X104071428Y-120028571D01*
X104642857Y-119885714D01*
X104928571Y-119742857D01*
X105071428Y-119600000D01*
X105214285Y-119314285D01*
X105214285Y-119028571D01*
X105071428Y-118742857D01*
X104928571Y-118600000D01*
X104642857Y-118457142D01*
X103928571Y-118457142D01*
X103500000Y-118600000D01*
X100928571Y-119457142D02*
X100928571Y-121457142D01*
X102214285Y-119457142D02*
X102214285Y-121028571D01*
X102071428Y-121314285D01*
X101785714Y-121457142D01*
X101357142Y-121457142D01*
X101071428Y-121314285D01*
X100928571Y-121171428D01*
X99642857Y-121314285D02*
X99357142Y-121457142D01*
X98785714Y-121457142D01*
X98500000Y-121314285D01*
X98357142Y-121028571D01*
X98357142Y-120885714D01*
X98500000Y-120600000D01*
X98785714Y-120457142D01*
X99214285Y-120457142D01*
X99500000Y-120314285D01*
X99642857Y-120028571D01*
X99642857Y-119885714D01*
X99500000Y-119600000D01*
X99214285Y-119457142D01*
X98785714Y-119457142D01*
X98500000Y-119600000D01*
X97500000Y-119457142D02*
X96357142Y-119457142D01*
X97071428Y-118457142D02*
X97071428Y-121028571D01*
X96928571Y-121314285D01*
X96642857Y-121457142D01*
X96357142Y-121457142D01*
X94071428Y-121457142D02*
X94071428Y-119885714D01*
X94214285Y-119600000D01*
X94500000Y-119457142D01*
X95071428Y-119457142D01*
X95357142Y-119600000D01*
X94071428Y-121314285D02*
X94357142Y-121457142D01*
X95071428Y-121457142D01*
X95357142Y-121314285D01*
X95500000Y-121028571D01*
X95500000Y-120742857D01*
X95357142Y-120457142D01*
X95071428Y-120314285D01*
X94357142Y-120314285D01*
X94071428Y-120171428D01*
X92642857Y-121457142D02*
X92642857Y-119457142D01*
X92642857Y-118457142D02*
X92785714Y-118600000D01*
X92642857Y-118742857D01*
X92500000Y-118600000D01*
X92642857Y-118457142D01*
X92642857Y-118742857D01*
X91214285Y-119457142D02*
X91214285Y-121457142D01*
X91214285Y-119742857D02*
X91071428Y-119600000D01*
X90785714Y-119457142D01*
X90357142Y-119457142D01*
X90071428Y-119600000D01*
X89928571Y-119885714D01*
X89928571Y-121457142D01*
X103357142Y-104257142D02*
X103357142Y-101257142D01*
X102642857Y-101257142D01*
X102214285Y-101400000D01*
X101928571Y-101685714D01*
X101785714Y-101971428D01*
X101642857Y-102542857D01*
X101642857Y-102971428D01*
X101785714Y-103542857D01*
X101928571Y-103828571D01*
X102214285Y-104114285D01*
X102642857Y-104257142D01*
X103357142Y-104257142D01*
X99214285Y-104114285D02*
X99500000Y-104257142D01*
X100071428Y-104257142D01*
X100357142Y-104114285D01*
X100500000Y-103828571D01*
X100500000Y-102685714D01*
X100357142Y-102400000D01*
X100071428Y-102257142D01*
X99500000Y-102257142D01*
X99214285Y-102400000D01*
X99071428Y-102685714D01*
X99071428Y-102971428D01*
X100500000Y-103257142D01*
X96500000Y-104114285D02*
X96785714Y-104257142D01*
X97357142Y-104257142D01*
X97642857Y-104114285D01*
X97785714Y-103971428D01*
X97928571Y-103685714D01*
X97928571Y-102828571D01*
X97785714Y-102542857D01*
X97642857Y-102400000D01*
X97357142Y-102257142D01*
X96785714Y-102257142D01*
X96500000Y-102400000D01*
X93928571Y-104257142D02*
X93928571Y-102685714D01*
X94071428Y-102400000D01*
X94357142Y-102257142D01*
X94928571Y-102257142D01*
X95214285Y-102400000D01*
X93928571Y-104114285D02*
X94214285Y-104257142D01*
X94928571Y-104257142D01*
X95214285Y-104114285D01*
X95357142Y-103828571D01*
X95357142Y-103542857D01*
X95214285Y-103257142D01*
X94928571Y-103114285D01*
X94214285Y-103114285D01*
X93928571Y-102971428D01*
X92785714Y-102257142D02*
X92071428Y-104257142D01*
X91357142Y-102257142D02*
X92071428Y-104257142D01*
X92357142Y-104971428D01*
X92500000Y-105114285D01*
X92785714Y-105257142D01*
G36*
X107126845Y-48585458D02*
G01*
X107221729Y-48627181D01*
X107388416Y-48706805D01*
X107623251Y-48822458D01*
X107922581Y-48972269D01*
X108282755Y-49154366D01*
X108700118Y-49366876D01*
X109171018Y-49607929D01*
X109691801Y-49875651D01*
X110258815Y-50168172D01*
X110868406Y-50483619D01*
X111516922Y-50820120D01*
X112200710Y-51175804D01*
X112916115Y-51548798D01*
X113659487Y-51937232D01*
X113691224Y-51954065D01*
X113862406Y-52059726D01*
X113961001Y-52159605D01*
X113997422Y-52268703D01*
X113982079Y-52402021D01*
X113944840Y-52475739D01*
X113856900Y-52553294D01*
X113777521Y-52579445D01*
X113669828Y-52584192D01*
X113657988Y-52579780D01*
X113576687Y-52541683D01*
X113426177Y-52467345D01*
X113212462Y-52359840D01*
X112941545Y-52222239D01*
X112619432Y-52057615D01*
X112252124Y-51869043D01*
X111845627Y-51659594D01*
X111405944Y-51432342D01*
X110939078Y-51190360D01*
X110451035Y-50936720D01*
X110257774Y-50836178D01*
X109776173Y-50585894D01*
X109317546Y-50347917D01*
X108887969Y-50125382D01*
X108493518Y-49921420D01*
X108140270Y-49739164D01*
X107834301Y-49581746D01*
X107581686Y-49452300D01*
X107388502Y-49353956D01*
X107260826Y-49289849D01*
X107204733Y-49263111D01*
X107200088Y-49261520D01*
X107171856Y-49258122D01*
X107130682Y-49263740D01*
X107071591Y-49280804D01*
X106989609Y-49311745D01*
X106879765Y-49358995D01*
X106737083Y-49424985D01*
X106556591Y-49512146D01*
X106333316Y-49622909D01*
X106062284Y-49759706D01*
X105738521Y-49924966D01*
X105357054Y-50121122D01*
X104912910Y-50350605D01*
X104401116Y-50615845D01*
X103816697Y-50919275D01*
X103289166Y-51193385D01*
X102759213Y-51468608D01*
X102297776Y-51707604D01*
X101899898Y-51912463D01*
X101560623Y-52085272D01*
X101274992Y-52228118D01*
X101038050Y-52343090D01*
X100844838Y-52432276D01*
X100690400Y-52497764D01*
X100569779Y-52541640D01*
X100478017Y-52565995D01*
X100410158Y-52572914D01*
X100361245Y-52564487D01*
X100326319Y-52542801D01*
X100300425Y-52509943D01*
X100278605Y-52468003D01*
X100255902Y-52419068D01*
X100239026Y-52383908D01*
X100222605Y-52343257D01*
X100215721Y-52303891D01*
X100222914Y-52263022D01*
X100248725Y-52217862D01*
X100297692Y-52165621D01*
X100374356Y-52103510D01*
X100483257Y-52028741D01*
X100628935Y-51938525D01*
X100815929Y-51830073D01*
X101048779Y-51700596D01*
X101332027Y-51547305D01*
X101670210Y-51367412D01*
X102067869Y-51158127D01*
X102529545Y-50916663D01*
X103059776Y-50640229D01*
X103663104Y-50326037D01*
X104050648Y-50124535D01*
X104540127Y-49870943D01*
X105004200Y-49631525D01*
X105437070Y-49409221D01*
X105832939Y-49206973D01*
X106186010Y-49027721D01*
X106490485Y-48874406D01*
X106740565Y-48749971D01*
X106930453Y-48657355D01*
X107054352Y-48599499D01*
X107106462Y-48579346D01*
X107126845Y-48585458D01*
G37*
G36*
X103205591Y-48577342D02*
G01*
X103277772Y-48605335D01*
X103372543Y-48668006D01*
X103418351Y-48712529D01*
X103480951Y-48839525D01*
X103477965Y-48973664D01*
X103406956Y-49085363D01*
X103380708Y-49101867D01*
X103280705Y-49158000D01*
X103112784Y-49249328D01*
X102882774Y-49372766D01*
X102596505Y-49525226D01*
X102259808Y-49703621D01*
X101878512Y-49904865D01*
X101458447Y-50125871D01*
X101005444Y-50363552D01*
X100525331Y-50614821D01*
X100023938Y-50876592D01*
X99674516Y-51058619D01*
X99188091Y-51311385D01*
X98727134Y-51550189D01*
X98297435Y-51772066D01*
X97904785Y-51974054D01*
X97554978Y-52153188D01*
X97253803Y-52306507D01*
X97007052Y-52431045D01*
X96820518Y-52523840D01*
X96699991Y-52581929D01*
X96651262Y-52602347D01*
X96629638Y-52595226D01*
X96535980Y-52552784D01*
X96375938Y-52475231D01*
X96156384Y-52366138D01*
X95884192Y-52229078D01*
X95566236Y-52067623D01*
X95209387Y-51885344D01*
X94820519Y-51685815D01*
X94406506Y-51472605D01*
X93974221Y-51249289D01*
X93530537Y-51019437D01*
X93082327Y-50786622D01*
X92636464Y-50554415D01*
X92199822Y-50326389D01*
X91779273Y-50106116D01*
X91381691Y-49897167D01*
X91013950Y-49703114D01*
X90682921Y-49527530D01*
X90395479Y-49373987D01*
X90158497Y-49246056D01*
X89978847Y-49147310D01*
X89863404Y-49081319D01*
X89819040Y-49051658D01*
X89780156Y-48929773D01*
X89805358Y-48786712D01*
X89896078Y-48668006D01*
X89901550Y-48663749D01*
X89996191Y-48602509D01*
X90065903Y-48577242D01*
X90073057Y-48579468D01*
X90144079Y-48612058D01*
X90284773Y-48681137D01*
X90489171Y-48783653D01*
X90751301Y-48916551D01*
X91065195Y-49076781D01*
X91424881Y-49261287D01*
X91824390Y-49467019D01*
X92257751Y-49690922D01*
X92718995Y-49929944D01*
X93202152Y-50181032D01*
X93341226Y-50253401D01*
X93823485Y-50504261D01*
X94284768Y-50744074D01*
X94718774Y-50969573D01*
X95119203Y-51177489D01*
X95479754Y-51364555D01*
X95794127Y-51527502D01*
X96056020Y-51663063D01*
X96259134Y-51767969D01*
X96397166Y-51838953D01*
X96463818Y-51872747D01*
X96643671Y-51960673D01*
X99896168Y-50268957D01*
X100204008Y-50108967D01*
X100687841Y-49858033D01*
X101146279Y-49620904D01*
X101573515Y-49400549D01*
X101963745Y-49199940D01*
X102311164Y-49022046D01*
X102609967Y-48869836D01*
X102854348Y-48746281D01*
X103038502Y-48654350D01*
X103156624Y-48597014D01*
X103202909Y-48577242D01*
X103205591Y-48577342D01*
G37*
G36*
X80638329Y-54584033D02*
G01*
X80766330Y-54601269D01*
X80838138Y-54629448D01*
X80879480Y-54712081D01*
X80889192Y-54848400D01*
X80861425Y-54995870D01*
X80798964Y-55119626D01*
X80770286Y-55153432D01*
X80685613Y-55229250D01*
X80568829Y-55301676D01*
X80406794Y-55377151D01*
X80186364Y-55462117D01*
X79894397Y-55563015D01*
X79704056Y-55629241D01*
X79546929Y-55688919D01*
X79440734Y-55735027D01*
X79401724Y-55761031D01*
X79419304Y-55778129D01*
X79501001Y-55812451D01*
X79626817Y-55848367D01*
X79767161Y-55871561D01*
X79987924Y-55881959D01*
X80216201Y-55870167D01*
X80420797Y-55838181D01*
X80570516Y-55787995D01*
X80693495Y-55723559D01*
X80573127Y-55668716D01*
X80488283Y-55619310D01*
X80452759Y-55577109D01*
X80468736Y-55550665D01*
X80544181Y-55542303D01*
X80663087Y-55569364D01*
X80804848Y-55628821D01*
X80814959Y-55634047D01*
X80938919Y-55718543D01*
X80976285Y-55795807D01*
X80927796Y-55864726D01*
X80794190Y-55924189D01*
X80576207Y-55973082D01*
X80483073Y-55987355D01*
X80177797Y-56017435D01*
X79891712Y-56021633D01*
X79638121Y-56001521D01*
X79430330Y-55958672D01*
X79281642Y-55894659D01*
X79205363Y-55811053D01*
X79200450Y-55795093D01*
X79208246Y-55734468D01*
X79265818Y-55673144D01*
X79381908Y-55605763D01*
X79565256Y-55526965D01*
X79824606Y-55431389D01*
X79991716Y-55371475D01*
X80180526Y-55301188D01*
X80331543Y-55242107D01*
X80422243Y-55202846D01*
X80479396Y-55170828D01*
X80594259Y-55087044D01*
X80681124Y-54999899D01*
X80715517Y-54931997D01*
X80691450Y-54898064D01*
X80606923Y-54850527D01*
X80490419Y-54808161D01*
X80372514Y-54781618D01*
X80283779Y-54781554D01*
X80235765Y-54784415D01*
X80170671Y-54746716D01*
X80151165Y-54680238D01*
X80194567Y-54616941D01*
X80224970Y-54603966D01*
X80336869Y-54584783D01*
X80484915Y-54578338D01*
X80638329Y-54584033D01*
G37*
G36*
X110822956Y-55710775D02*
G01*
X110906677Y-55808208D01*
X110992043Y-55846897D01*
X111012862Y-55842098D01*
X111077870Y-55772656D01*
X111144036Y-55627418D01*
X111207963Y-55415089D01*
X111266252Y-55144373D01*
X111271080Y-55118020D01*
X111305001Y-54941096D01*
X111332467Y-54832733D01*
X111361195Y-54777098D01*
X111398906Y-54758360D01*
X111453318Y-54760687D01*
X111526796Y-54780008D01*
X111564275Y-54834107D01*
X111579979Y-54949138D01*
X111586157Y-55023900D01*
X111628734Y-55304602D01*
X111695714Y-55533250D01*
X111782439Y-55692734D01*
X111885791Y-55822349D01*
X111979261Y-55670399D01*
X111987210Y-55657142D01*
X112063375Y-55502552D01*
X112121060Y-55343276D01*
X112193291Y-55088276D01*
X112252300Y-54900639D01*
X112301061Y-54777469D01*
X112344642Y-54708263D01*
X112388116Y-54682516D01*
X112436552Y-54689727D01*
X112481358Y-54719813D01*
X112532597Y-54809238D01*
X112542060Y-54911945D01*
X112501277Y-54988797D01*
X112458086Y-55047156D01*
X112400081Y-55165643D01*
X112342662Y-55315624D01*
X112327619Y-55359472D01*
X112223822Y-55619624D01*
X112118676Y-55814175D01*
X112016654Y-55936076D01*
X111922229Y-55978276D01*
X111868618Y-55967690D01*
X111748268Y-55897037D01*
X111619896Y-55774921D01*
X111503908Y-55618872D01*
X111430873Y-55500331D01*
X111266318Y-55804993D01*
X111246290Y-55841252D01*
X111161891Y-55977789D01*
X111088203Y-56073544D01*
X111039284Y-56109655D01*
X110966373Y-56081258D01*
X110859891Y-56001925D01*
X110745515Y-55892896D01*
X110645529Y-55775547D01*
X110582218Y-55671251D01*
X110547230Y-55608935D01*
X110451453Y-55544866D01*
X110325974Y-55559083D01*
X110177802Y-55651921D01*
X110164057Y-55663362D01*
X109998504Y-55780847D01*
X109810068Y-55873581D01*
X109577188Y-55950389D01*
X109278302Y-56020096D01*
X109133217Y-56049013D01*
X108919332Y-56086790D01*
X108767885Y-56103475D01*
X108664213Y-56099240D01*
X108593654Y-56074255D01*
X108541544Y-56028692D01*
X108493244Y-55985342D01*
X108416321Y-55966875D01*
X108290162Y-55982992D01*
X108247841Y-55989743D01*
X108094816Y-56004673D01*
X107898934Y-56015415D01*
X107692069Y-56019998D01*
X107628295Y-56019649D01*
X107353946Y-55999580D01*
X107154432Y-55949744D01*
X107032620Y-55871184D01*
X106991379Y-55764944D01*
X106991467Y-55760351D01*
X106992094Y-55758246D01*
X107210345Y-55758246D01*
X107222710Y-55782492D01*
X107286983Y-55824583D01*
X107296933Y-55827905D01*
X107390279Y-55844692D01*
X107538359Y-55860374D01*
X107713966Y-55871933D01*
X107764226Y-55873830D01*
X107979739Y-55870815D01*
X108163134Y-55851129D01*
X108303318Y-55818200D01*
X108389197Y-55775457D01*
X108409678Y-55726328D01*
X108353667Y-55674240D01*
X108295644Y-55633731D01*
X108261379Y-55582597D01*
X108261908Y-55575248D01*
X108303725Y-55541075D01*
X108402268Y-55551776D01*
X108543266Y-55603834D01*
X108712452Y-55693733D01*
X108771236Y-55727145D01*
X109035268Y-55825697D01*
X109297492Y-55837541D01*
X109560547Y-55762454D01*
X109827072Y-55600216D01*
X109991207Y-55474655D01*
X109624422Y-55444263D01*
X109471346Y-55425536D01*
X109225309Y-55370976D01*
X109006880Y-55293789D01*
X108836050Y-55201644D01*
X108732813Y-55102210D01*
X108697970Y-55056130D01*
X108660666Y-55060147D01*
X108599657Y-55129705D01*
X108579884Y-55153314D01*
X108498176Y-55227288D01*
X108382294Y-55298852D01*
X108219579Y-55374076D01*
X107997374Y-55459035D01*
X107703017Y-55559799D01*
X107513018Y-55625405D01*
X107355723Y-55685050D01*
X107249404Y-55731517D01*
X107210345Y-55758246D01*
X106992094Y-55758246D01*
X107005384Y-55713613D01*
X107050396Y-55667490D01*
X107137024Y-55616705D01*
X107275792Y-55555982D01*
X107477223Y-55480043D01*
X107751841Y-55383612D01*
X107819576Y-55359797D01*
X108103810Y-55246148D01*
X108310839Y-55137496D01*
X108437429Y-55035798D01*
X108449330Y-55010068D01*
X108926373Y-55010068D01*
X108993841Y-55089164D01*
X109144935Y-55161790D01*
X109378104Y-55226574D01*
X109611564Y-55273581D01*
X109825421Y-55304230D01*
X109967260Y-55307533D01*
X110031642Y-55283019D01*
X110035735Y-55223733D01*
X109985290Y-55125564D01*
X109888409Y-55017513D01*
X109760203Y-54919802D01*
X109752042Y-54914928D01*
X109611492Y-54860489D01*
X109435061Y-54828331D01*
X109252440Y-54819959D01*
X109093322Y-54836880D01*
X108987398Y-54880599D01*
X108944082Y-54925878D01*
X108926373Y-55010068D01*
X108449330Y-55010068D01*
X108480345Y-54943011D01*
X108474673Y-54922253D01*
X108413119Y-54862700D01*
X108309973Y-54809367D01*
X108198008Y-54776738D01*
X108109994Y-54779300D01*
X108059835Y-54784188D01*
X107972212Y-54748324D01*
X107948329Y-54727428D01*
X107928409Y-54683948D01*
X107981140Y-54633942D01*
X107984919Y-54631297D01*
X108089432Y-54594092D01*
X108238900Y-54577522D01*
X108400668Y-54580998D01*
X108542084Y-54603926D01*
X108630493Y-54645714D01*
X108671423Y-54694381D01*
X108699310Y-54753720D01*
X108706228Y-54760915D01*
X108764337Y-54746624D01*
X108862254Y-54696769D01*
X109007312Y-54633437D01*
X109256036Y-54600890D01*
X109533640Y-54642909D01*
X109830866Y-54758899D01*
X109938860Y-54815551D01*
X110064981Y-54897046D01*
X110147364Y-54982019D01*
X110209941Y-55091466D01*
X110260629Y-55191072D01*
X110283217Y-55223733D01*
X110316044Y-55271200D01*
X110346532Y-55274656D01*
X110350693Y-55206190D01*
X110327129Y-55070555D01*
X110274439Y-54872500D01*
X110153954Y-54467414D01*
X110247753Y-54414224D01*
X110313309Y-54380055D01*
X110367367Y-54359483D01*
X110391852Y-54374403D01*
X110438491Y-54460944D01*
X110489884Y-54613467D01*
X110541206Y-54819210D01*
X110571767Y-54936278D01*
X110624609Y-55084579D01*
X110677254Y-55184199D01*
X110725293Y-55268747D01*
X110730752Y-55329368D01*
X110722788Y-55345522D01*
X110716900Y-55451482D01*
X110723635Y-55474655D01*
X110754993Y-55582550D01*
X110822956Y-55710775D01*
G37*
G36*
X113627306Y-53816501D02*
G01*
X113673549Y-53888794D01*
X113691724Y-54015523D01*
X113692161Y-54027003D01*
X113709103Y-54135001D01*
X113747770Y-54307897D01*
X113804198Y-54529957D01*
X113874424Y-54785443D01*
X113954483Y-55058621D01*
X113975009Y-55126731D01*
X114052049Y-55386089D01*
X114118604Y-55615927D01*
X114170862Y-55802695D01*
X114205011Y-55932844D01*
X114217241Y-55992821D01*
X114203878Y-56029958D01*
X114133834Y-56035851D01*
X114093327Y-56012140D01*
X114014039Y-55908748D01*
X113928050Y-55736276D01*
X113839460Y-55505893D01*
X113752369Y-55228769D01*
X113670876Y-54916071D01*
X113599082Y-54578971D01*
X113586226Y-54513770D01*
X113557369Y-54396781D01*
X113533399Y-54355553D01*
X113510643Y-54381902D01*
X113489895Y-54431539D01*
X113438308Y-54553406D01*
X113363829Y-54728584D01*
X113272817Y-54942118D01*
X113171634Y-55179052D01*
X113079295Y-55395292D01*
X112991863Y-55607171D01*
X112940435Y-55754009D01*
X112926391Y-55844718D01*
X112951115Y-55888211D01*
X113015986Y-55893402D01*
X113122388Y-55869203D01*
X113271702Y-55824526D01*
X113335576Y-55805346D01*
X113463980Y-55771169D01*
X113531826Y-55767049D01*
X113555764Y-55794887D01*
X113552443Y-55856584D01*
X113538425Y-55900051D01*
X113499168Y-55936298D01*
X113419675Y-55969049D01*
X113284607Y-56004535D01*
X113078621Y-56048983D01*
X112931988Y-56078762D01*
X112752389Y-56113605D01*
X112615241Y-56138284D01*
X112542155Y-56148779D01*
X112479729Y-56125659D01*
X112468032Y-56054538D01*
X112506663Y-55954446D01*
X112592444Y-55844612D01*
X112607747Y-55828520D01*
X112715241Y-55681655D01*
X112840638Y-55460840D01*
X112979478Y-55175158D01*
X113127299Y-54833690D01*
X113279641Y-54445517D01*
X113295275Y-54403972D01*
X113373527Y-54200830D01*
X113442701Y-54028737D01*
X113495791Y-53904759D01*
X113525788Y-53845965D01*
X113565422Y-53811343D01*
X113627306Y-53816501D01*
G37*
G36*
X106970605Y-55653431D02*
G01*
X106852439Y-55794603D01*
X106656009Y-55917891D01*
X106558066Y-55963355D01*
X106454787Y-55999148D01*
X106344370Y-56016875D01*
X106200077Y-56020407D01*
X105995173Y-56013620D01*
X105964093Y-56012124D01*
X105654776Y-55978587D01*
X105416538Y-55915203D01*
X105253664Y-55823575D01*
X105170436Y-55705304D01*
X105164470Y-55687324D01*
X105147762Y-55656662D01*
X105343306Y-55656662D01*
X105387843Y-55751409D01*
X105506712Y-55835303D01*
X105594051Y-55860763D01*
X105752411Y-55879083D01*
X105944875Y-55885348D01*
X106143152Y-55879637D01*
X106318947Y-55862033D01*
X106443966Y-55832617D01*
X106491159Y-55813472D01*
X106664713Y-55721919D01*
X106757881Y-55622545D01*
X106776539Y-55505551D01*
X106726561Y-55361135D01*
X106633981Y-55223237D01*
X106533566Y-55165980D01*
X106421764Y-55190163D01*
X106412062Y-55194879D01*
X106294560Y-55206944D01*
X106170744Y-55164011D01*
X106082694Y-55079779D01*
X106079625Y-55074537D01*
X106049015Y-55047907D01*
X105997523Y-55055495D01*
X105908758Y-55103415D01*
X105766324Y-55197782D01*
X105673690Y-55263093D01*
X105484429Y-55416924D01*
X105374901Y-55546640D01*
X105343306Y-55656662D01*
X105147762Y-55656662D01*
X105143452Y-55648753D01*
X105121721Y-55676981D01*
X105089466Y-55781207D01*
X105051580Y-55888836D01*
X104998012Y-55947855D01*
X104907822Y-55969453D01*
X104865291Y-55971065D01*
X104771962Y-55948158D01*
X104683476Y-55877943D01*
X104587893Y-55748881D01*
X104473276Y-55549432D01*
X104446943Y-55501500D01*
X104354725Y-55356376D01*
X104287502Y-55292246D01*
X104246368Y-55309745D01*
X104232414Y-55409508D01*
X104217307Y-55525709D01*
X104162603Y-55662746D01*
X104082652Y-55763686D01*
X103993058Y-55802886D01*
X103973140Y-55801363D01*
X103852133Y-55747932D01*
X103710303Y-55624973D01*
X103558859Y-55441810D01*
X103521055Y-55392206D01*
X103435360Y-55302704D01*
X103377678Y-55278342D01*
X103371441Y-55291849D01*
X103356552Y-55324091D01*
X103356040Y-55333068D01*
X103326704Y-55430615D01*
X103261820Y-55571397D01*
X103174707Y-55730795D01*
X103078685Y-55884193D01*
X102987072Y-56006974D01*
X102966882Y-56030300D01*
X102872230Y-56125698D01*
X102795872Y-56165283D01*
X102712138Y-56163689D01*
X102671144Y-56155128D01*
X102539234Y-56101428D01*
X102485246Y-56028464D01*
X102512175Y-55946279D01*
X102623017Y-55864918D01*
X102650142Y-55850481D01*
X102771903Y-55771196D01*
X102886953Y-55677866D01*
X102972614Y-55590391D01*
X103006207Y-55528672D01*
X102987555Y-55505489D01*
X102912737Y-55509222D01*
X102799834Y-55546843D01*
X102669587Y-55610947D01*
X102542736Y-55694131D01*
X102536428Y-55698918D01*
X102365697Y-55808244D01*
X102163329Y-55897663D01*
X101910676Y-55974020D01*
X101589088Y-56044161D01*
X101388810Y-56080305D01*
X101221181Y-56102477D01*
X101107167Y-56103291D01*
X101029912Y-56082647D01*
X100972561Y-56040443D01*
X100932840Y-55991575D01*
X100931598Y-55935192D01*
X100978875Y-55843374D01*
X101066293Y-55743601D01*
X101162724Y-55720585D01*
X101254483Y-55781207D01*
X101298071Y-55810476D01*
X101419862Y-55838498D01*
X101582448Y-55843581D01*
X101758932Y-55825596D01*
X101922417Y-55784415D01*
X101959306Y-55769846D01*
X102109279Y-55693221D01*
X102250865Y-55600216D01*
X102415000Y-55474655D01*
X102056033Y-55444889D01*
X101941088Y-55432631D01*
X101672838Y-55380593D01*
X101445775Y-55303504D01*
X101267505Y-55207453D01*
X101145636Y-55098528D01*
X101098898Y-55005060D01*
X101345138Y-55005060D01*
X101421680Y-55083878D01*
X101574220Y-55160346D01*
X101801897Y-55226574D01*
X101823205Y-55231237D01*
X102055522Y-55276500D01*
X102246526Y-55303545D01*
X102381811Y-55310803D01*
X102446968Y-55296710D01*
X102450933Y-55291849D01*
X102448543Y-55226169D01*
X102394106Y-55129613D01*
X102302382Y-55023206D01*
X102188132Y-54927977D01*
X102183659Y-54924930D01*
X102068668Y-54862638D01*
X101938614Y-54831636D01*
X101757791Y-54823233D01*
X101580129Y-54833408D01*
X101423499Y-54871935D01*
X101345456Y-54931782D01*
X101345138Y-55005060D01*
X101098898Y-55005060D01*
X101087776Y-54982818D01*
X101101531Y-54866412D01*
X101194510Y-54755396D01*
X101269579Y-54704420D01*
X101495736Y-54620093D01*
X101754806Y-54605875D01*
X102033138Y-54661393D01*
X102317081Y-54786269D01*
X102443008Y-54867946D01*
X102585770Y-55014631D01*
X102673147Y-55200948D01*
X102677583Y-55212739D01*
X102740848Y-55268258D01*
X102833165Y-55268121D01*
X102919441Y-55210908D01*
X102962388Y-55178401D01*
X103052695Y-55168959D01*
X103070625Y-55173278D01*
X103113500Y-55159874D01*
X103146515Y-55093333D01*
X103179801Y-54956741D01*
X103201996Y-54863852D01*
X103245153Y-54727783D01*
X103286439Y-54641230D01*
X103309175Y-54615486D01*
X103388526Y-54585828D01*
X103462591Y-54629956D01*
X103511560Y-54739246D01*
X103576955Y-54971527D01*
X103679511Y-55206516D01*
X103799690Y-55381994D01*
X103836200Y-55420256D01*
X103901316Y-55470738D01*
X103949738Y-55467032D01*
X103987864Y-55400903D01*
X104022095Y-55264114D01*
X104058827Y-55048429D01*
X104096367Y-54852061D01*
X104149784Y-54687909D01*
X104220337Y-54573213D01*
X104238889Y-54551808D01*
X104315507Y-54476112D01*
X104365998Y-54445517D01*
X104403402Y-54487011D01*
X104445409Y-54612159D01*
X104490337Y-54817126D01*
X104537176Y-55098062D01*
X104577018Y-55304958D01*
X104643067Y-55504987D01*
X104723793Y-55629107D01*
X104816474Y-55671724D01*
X104817648Y-55671722D01*
X104850561Y-55666325D01*
X104872670Y-55641409D01*
X104885504Y-55583373D01*
X104890595Y-55478613D01*
X104889473Y-55313529D01*
X104883669Y-55074517D01*
X104879217Y-54893268D01*
X104877277Y-54705234D01*
X104881614Y-54579454D01*
X104893661Y-54501222D01*
X104914851Y-54455830D01*
X104946617Y-54428569D01*
X105013171Y-54404643D01*
X105076322Y-54437157D01*
X105119547Y-54542659D01*
X105144471Y-54725580D01*
X105152721Y-54990353D01*
X105153372Y-55430862D01*
X105295048Y-55271136D01*
X105299064Y-55266632D01*
X105464356Y-55104601D01*
X105672714Y-54931839D01*
X105890877Y-54774169D01*
X106085580Y-54657414D01*
X106188613Y-54609878D01*
X106257234Y-54597877D01*
X106295960Y-54627717D01*
X106312446Y-54656664D01*
X106333812Y-54715828D01*
X106335937Y-54721244D01*
X106388230Y-54755954D01*
X106488502Y-54796107D01*
X106532925Y-54812901D01*
X106725199Y-54933967D01*
X106886432Y-55109869D01*
X106990650Y-55313827D01*
X107000417Y-55344820D01*
X107027727Y-55460975D01*
X107023142Y-55505551D01*
X107018657Y-55549149D01*
X106970605Y-55653431D01*
G37*
G36*
X99789011Y-53815015D02*
G01*
X99834157Y-53883225D01*
X99847439Y-54001885D01*
X99847371Y-54003324D01*
X99858217Y-54099505D01*
X99893073Y-54265329D01*
X99948642Y-54487589D01*
X100021628Y-54753075D01*
X100108733Y-55048578D01*
X100151857Y-55190735D01*
X100238362Y-55479355D01*
X100301530Y-55697762D01*
X100343528Y-55855364D01*
X100366526Y-55961568D01*
X100372692Y-56025781D01*
X100364193Y-56057410D01*
X100343198Y-56065862D01*
X100279174Y-56041394D01*
X100188882Y-55937212D01*
X100094661Y-55757108D01*
X99999231Y-55507478D01*
X99905311Y-55194714D01*
X99815619Y-54825212D01*
X99812353Y-54810337D01*
X99768357Y-54617533D01*
X99730638Y-54465462D01*
X99703114Y-54369116D01*
X99689703Y-54343488D01*
X99670120Y-54391218D01*
X99621241Y-54506678D01*
X99548857Y-54676236D01*
X99458662Y-54886558D01*
X99356347Y-55124310D01*
X99247552Y-55377793D01*
X99160287Y-55590324D01*
X99109008Y-55738910D01*
X99094501Y-55832264D01*
X99117555Y-55879099D01*
X99178959Y-55888130D01*
X99279501Y-55868070D01*
X99419969Y-55827633D01*
X99510245Y-55801176D01*
X99632417Y-55770117D01*
X99696048Y-55767912D01*
X99717672Y-55796191D01*
X99713822Y-55856584D01*
X99699804Y-55900051D01*
X99660547Y-55936298D01*
X99581055Y-55969049D01*
X99445986Y-56004535D01*
X99240000Y-56048983D01*
X99093367Y-56078762D01*
X98913768Y-56113605D01*
X98776620Y-56138284D01*
X98703535Y-56148779D01*
X98641336Y-56125867D01*
X98629333Y-56054900D01*
X98667604Y-55954978D01*
X98752996Y-55845439D01*
X98809783Y-55780026D01*
X98935845Y-55585812D01*
X99079734Y-55305923D01*
X99241428Y-54940407D01*
X99420901Y-54489310D01*
X99452040Y-54408179D01*
X99533291Y-54201315D01*
X99604054Y-54027844D01*
X99657614Y-53903988D01*
X99687254Y-53845965D01*
X99726615Y-53811479D01*
X99789011Y-53815015D01*
G37*
G36*
X90212745Y-55428873D02*
G01*
X90211030Y-55754561D01*
X90202728Y-55995339D01*
X90190039Y-56173550D01*
X90169873Y-56305604D01*
X90139023Y-56412376D01*
X90094283Y-56514742D01*
X90028329Y-56633256D01*
X89961657Y-56703335D01*
X89886266Y-56722759D01*
X89875511Y-56722829D01*
X89827757Y-56722316D01*
X89799357Y-56709556D01*
X89789760Y-56669798D01*
X89798414Y-56588292D01*
X89824770Y-56450288D01*
X89868276Y-56241035D01*
X89907840Y-56050223D01*
X89942190Y-55866466D01*
X89953071Y-55745567D01*
X89936496Y-55674386D01*
X89888477Y-55639785D01*
X89805026Y-55628625D01*
X89682155Y-55627767D01*
X89546153Y-55620903D01*
X89331982Y-55571630D01*
X89182822Y-55477817D01*
X89105728Y-55342950D01*
X89102058Y-55307601D01*
X89306732Y-55307601D01*
X89311217Y-55340498D01*
X89335011Y-55401277D01*
X89395425Y-55428665D01*
X89517931Y-55438443D01*
X89563120Y-55439341D01*
X89711384Y-55432731D01*
X89824483Y-55414751D01*
X89868630Y-55398866D01*
X89912737Y-55358600D01*
X89935391Y-55278558D01*
X89947058Y-55134835D01*
X89951659Y-55010461D01*
X89943573Y-54923892D01*
X89913127Y-54881277D01*
X89852236Y-54859108D01*
X89755679Y-54856733D01*
X89605792Y-54900190D01*
X89461464Y-54981416D01*
X89358194Y-55084233D01*
X89319344Y-55177662D01*
X89306732Y-55307601D01*
X89102058Y-55307601D01*
X89098175Y-55270200D01*
X89137704Y-55112082D01*
X89237579Y-54952622D01*
X89382403Y-54808829D01*
X89556783Y-54697715D01*
X89745320Y-54636289D01*
X89818674Y-54627849D01*
X89920384Y-54645592D01*
X90015291Y-54719931D01*
X90022592Y-54727368D01*
X90104641Y-54838769D01*
X90162030Y-54984082D01*
X90166859Y-55010461D01*
X90197238Y-55176415D01*
X90212745Y-55428873D01*
G37*
G36*
X97219372Y-55705217D02*
G01*
X97189217Y-55820648D01*
X97118025Y-55914577D01*
X97108483Y-55923940D01*
X97023797Y-55993547D01*
X96963343Y-56022069D01*
X96897374Y-56011073D01*
X96756140Y-55952877D01*
X96596825Y-55857865D01*
X96447068Y-55741082D01*
X96272049Y-55582963D01*
X96205113Y-55750254D01*
X96161560Y-55848850D01*
X96088057Y-55957892D01*
X96010613Y-55990349D01*
X95919933Y-55952821D01*
X95824628Y-55886067D01*
X95944814Y-55780279D01*
X95968257Y-55758998D01*
X96021384Y-55694811D01*
X95999310Y-55672510D01*
X95946306Y-55667044D01*
X95839438Y-55645260D01*
X95795819Y-55637836D01*
X95746273Y-55664059D01*
X95714950Y-55757967D01*
X95709532Y-55778959D01*
X95634367Y-55895671D01*
X95500856Y-55957403D01*
X95318020Y-55963643D01*
X95094880Y-55913881D01*
X94840457Y-55807603D01*
X94797130Y-55785792D01*
X94680976Y-55730650D01*
X94612349Y-55711815D01*
X94567266Y-55726644D01*
X94521745Y-55772496D01*
X94508675Y-55786671D01*
X94325553Y-55915811D01*
X94072784Y-55994176D01*
X93752410Y-56021107D01*
X93411793Y-56004085D01*
X93143897Y-55949526D01*
X92953609Y-55856987D01*
X92840069Y-55726046D01*
X92822403Y-55646400D01*
X92977586Y-55646400D01*
X93001901Y-55705920D01*
X93069707Y-55785368D01*
X93116914Y-55819233D01*
X93205039Y-55850979D01*
X93339349Y-55869820D01*
X93540483Y-55879901D01*
X93769699Y-55876496D01*
X94027566Y-55840982D01*
X94224548Y-55773843D01*
X94355440Y-55679246D01*
X94415033Y-55561361D01*
X94398121Y-55424354D01*
X94299496Y-55272393D01*
X94298721Y-55271525D01*
X94213627Y-55186738D01*
X94151258Y-55161445D01*
X94083398Y-55184122D01*
X94081726Y-55185005D01*
X93955583Y-55207329D01*
X93825313Y-55167143D01*
X93731362Y-55076782D01*
X93731302Y-55076674D01*
X93701635Y-55042079D01*
X93656111Y-55041594D01*
X93576325Y-55080914D01*
X93443874Y-55165733D01*
X93431384Y-55174084D01*
X93254322Y-55306301D01*
X93110124Y-55438931D01*
X93013107Y-55557217D01*
X92977586Y-55646400D01*
X92822403Y-55646400D01*
X92802414Y-55556282D01*
X92806740Y-55485220D01*
X92835086Y-55397126D01*
X92902575Y-55303473D01*
X93023725Y-55179549D01*
X93030489Y-55173073D01*
X93184288Y-55039218D01*
X93372302Y-54893187D01*
X93555398Y-54765461D01*
X93705612Y-54669452D01*
X93801899Y-54614913D01*
X93860475Y-54597736D01*
X93899277Y-54612699D01*
X93936242Y-54654580D01*
X93973328Y-54691356D01*
X94083546Y-54769403D01*
X94219750Y-54843033D01*
X94269854Y-54867857D01*
X94441741Y-54992567D01*
X94565101Y-55165543D01*
X94654240Y-55405298D01*
X94696548Y-55525784D01*
X94725037Y-55561361D01*
X94764292Y-55610384D01*
X94882586Y-55675544D01*
X95002106Y-55723057D01*
X95197053Y-55777356D01*
X95353000Y-55790165D01*
X95452377Y-55758912D01*
X95465966Y-55745692D01*
X95511786Y-55636196D01*
X95513478Y-55476088D01*
X95472843Y-55285387D01*
X95391680Y-55084112D01*
X95265774Y-54834502D01*
X95369446Y-54766574D01*
X95447673Y-54726430D01*
X95532477Y-54729623D01*
X95596359Y-54807776D01*
X95648038Y-54967167D01*
X95723868Y-55187589D01*
X95840646Y-55351076D01*
X95999047Y-55446105D01*
X96006203Y-55448583D01*
X96096246Y-55476626D01*
X96136734Y-55483325D01*
X96136859Y-55482996D01*
X96140483Y-55433827D01*
X96146627Y-55311577D01*
X96149578Y-55245043D01*
X96399498Y-55245043D01*
X96401058Y-55348387D01*
X96426858Y-55428775D01*
X96490005Y-55513945D01*
X96603607Y-55631637D01*
X96652058Y-55678394D01*
X96808953Y-55800986D01*
X96933006Y-55847877D01*
X97021150Y-55817701D01*
X97028718Y-55806795D01*
X97046904Y-55718953D01*
X97047708Y-55579258D01*
X97032084Y-55414570D01*
X97000992Y-55251751D01*
X96971947Y-55158306D01*
X96896742Y-55040400D01*
X96778715Y-54984901D01*
X96599792Y-54979547D01*
X96415345Y-54992931D01*
X96401846Y-55204654D01*
X96399498Y-55245043D01*
X96149578Y-55245043D01*
X96154686Y-55129870D01*
X96164055Y-54902332D01*
X96170444Y-54737541D01*
X96275412Y-54737541D01*
X96282556Y-54791922D01*
X96297799Y-54764896D01*
X96320842Y-54653535D01*
X96336754Y-54546681D01*
X96354673Y-54382522D01*
X96367969Y-54211285D01*
X96375791Y-54051813D01*
X96377288Y-53922949D01*
X96371610Y-53843535D01*
X96357907Y-53832414D01*
X96345198Y-53870011D01*
X96324660Y-53985424D01*
X96305151Y-54151758D01*
X96289595Y-54346983D01*
X96286610Y-54396273D01*
X96276663Y-54604682D01*
X96275412Y-54737541D01*
X96170444Y-54737541D01*
X96174126Y-54642586D01*
X96183337Y-54417810D01*
X96197783Y-54150419D01*
X96215004Y-53942738D01*
X96236875Y-53778185D01*
X96265274Y-53640179D01*
X96302078Y-53512137D01*
X96326847Y-53438240D01*
X96384267Y-53294836D01*
X96429301Y-53232119D01*
X96462816Y-53251395D01*
X96485681Y-53353970D01*
X96498763Y-53541150D01*
X96502931Y-53814239D01*
X96502930Y-53818936D01*
X96501601Y-53922949D01*
X96499951Y-54052020D01*
X96492052Y-54270414D01*
X96480418Y-54449821D01*
X96466237Y-54565948D01*
X96429543Y-54752069D01*
X96671812Y-54752069D01*
X96801844Y-54760093D01*
X96964534Y-54808528D01*
X97082537Y-54908090D01*
X97161302Y-55067134D01*
X97206276Y-55294012D01*
X97221929Y-55579258D01*
X97222907Y-55597077D01*
X97219372Y-55705217D01*
G37*
G36*
X95585039Y-53804315D02*
G01*
X95634050Y-53870682D01*
X95631057Y-53985393D01*
X95596405Y-54062688D01*
X95526970Y-54086760D01*
X95468138Y-54043932D01*
X95437331Y-53955927D01*
X95445066Y-53862987D01*
X95495701Y-53804453D01*
X95497188Y-53803890D01*
X95585039Y-53804315D01*
G37*
G36*
X98427541Y-54504270D02*
G01*
X98483303Y-54542964D01*
X98540604Y-54659714D01*
X98565194Y-54849953D01*
X98557971Y-55117911D01*
X98541856Y-55301874D01*
X98512071Y-55505662D01*
X98468561Y-55656797D01*
X98404776Y-55775848D01*
X98314164Y-55883384D01*
X98252994Y-55940788D01*
X98141420Y-56005068D01*
X98003611Y-56022069D01*
X97821472Y-55995441D01*
X97613556Y-55894120D01*
X97440006Y-55729377D01*
X97313791Y-55514256D01*
X97247873Y-55261800D01*
X97240971Y-55147409D01*
X97254058Y-54963930D01*
X97291909Y-54801422D01*
X97348584Y-54681999D01*
X97418145Y-54627774D01*
X97435657Y-54624924D01*
X97522913Y-54640516D01*
X97548332Y-54716931D01*
X97511178Y-54852392D01*
X97465163Y-55019429D01*
X97446932Y-55224491D01*
X97460347Y-55422184D01*
X97505689Y-55575468D01*
X97558642Y-55662535D01*
X97699070Y-55800241D01*
X97858542Y-55860788D01*
X98022054Y-55844114D01*
X98174604Y-55750153D01*
X98301186Y-55578844D01*
X98323918Y-55528924D01*
X98363535Y-55359938D01*
X98362008Y-55146480D01*
X98319773Y-54871896D01*
X98290840Y-54680809D01*
X98297003Y-54552601D01*
X98342129Y-54495262D01*
X98427541Y-54504270D01*
G37*
G36*
X86299161Y-48581977D02*
G01*
X86383869Y-48620196D01*
X86535911Y-48693786D01*
X86748395Y-48799183D01*
X87014431Y-48932824D01*
X87327128Y-49091144D01*
X87679597Y-49270580D01*
X88064947Y-49467568D01*
X88476286Y-49678544D01*
X88906725Y-49899944D01*
X89349373Y-50128204D01*
X89797339Y-50359760D01*
X90243734Y-50591048D01*
X90681666Y-50818505D01*
X91104246Y-51038567D01*
X91504581Y-51247669D01*
X91875783Y-51442248D01*
X92210961Y-51618740D01*
X92503224Y-51773581D01*
X92745681Y-51903207D01*
X92931443Y-52004054D01*
X93053618Y-52072559D01*
X93105316Y-52105157D01*
X93142594Y-52157798D01*
X93167974Y-52284515D01*
X93141858Y-52419601D01*
X93067620Y-52525445D01*
X92981938Y-52580077D01*
X92899188Y-52606207D01*
X92879098Y-52599058D01*
X92786892Y-52556463D01*
X92626384Y-52478093D01*
X92403422Y-52366923D01*
X92123851Y-52225928D01*
X91793517Y-52058081D01*
X91418267Y-51866357D01*
X91003947Y-51653730D01*
X90556404Y-51423174D01*
X90081483Y-51177664D01*
X89585032Y-50920173D01*
X89284328Y-50764084D01*
X88800532Y-50513511D01*
X88341994Y-50276698D01*
X87914537Y-50056616D01*
X87523983Y-49856237D01*
X87176154Y-49678533D01*
X86876871Y-49526475D01*
X86631958Y-49403035D01*
X86447237Y-49311184D01*
X86328529Y-49253895D01*
X86281657Y-49234138D01*
X86281061Y-49234192D01*
X86229910Y-49255948D01*
X86107590Y-49314939D01*
X85920253Y-49408030D01*
X85674055Y-49532083D01*
X85375150Y-49683962D01*
X85029691Y-49860532D01*
X84643834Y-50058654D01*
X84223731Y-50275194D01*
X83775537Y-50507013D01*
X83305406Y-50750977D01*
X82855242Y-50984947D01*
X82390462Y-51226495D01*
X81947670Y-51456598D01*
X81533834Y-51671636D01*
X81155917Y-51867990D01*
X80820886Y-52042042D01*
X80535707Y-52190172D01*
X80307344Y-52308763D01*
X80142765Y-52394194D01*
X80048933Y-52442847D01*
X79934663Y-52501195D01*
X79805467Y-52561048D01*
X79717352Y-52587574D01*
X79648627Y-52586288D01*
X79577600Y-52562705D01*
X79476344Y-52494563D01*
X79410504Y-52364534D01*
X79418266Y-52195916D01*
X79453325Y-52132605D01*
X79558877Y-52043141D01*
X79740514Y-51937232D01*
X79748226Y-51933197D01*
X80439914Y-51571764D01*
X81113410Y-51220570D01*
X81764476Y-50881791D01*
X82388870Y-50557604D01*
X82982353Y-50250187D01*
X83540687Y-49961715D01*
X84059630Y-49694367D01*
X84534943Y-49450319D01*
X84962387Y-49231748D01*
X85337722Y-49040830D01*
X85656708Y-48879743D01*
X85915105Y-48750664D01*
X86108674Y-48655769D01*
X86233174Y-48597236D01*
X86284367Y-48577242D01*
X86299161Y-48581977D01*
G37*
G36*
X91429289Y-53805358D02*
G01*
X91466202Y-53831980D01*
X91504233Y-53879738D01*
X91512601Y-53992980D01*
X91516654Y-54068890D01*
X91546588Y-54220184D01*
X91600499Y-54438141D01*
X91676355Y-54714547D01*
X91772120Y-55041185D01*
X91813976Y-55181569D01*
X91889827Y-55443433D01*
X91952939Y-55671343D01*
X92000023Y-55852870D01*
X92027790Y-55975584D01*
X92032952Y-56027056D01*
X91983324Y-56049696D01*
X91911344Y-56004528D01*
X91830252Y-55901051D01*
X91751969Y-55750976D01*
X91730067Y-55695761D01*
X91676436Y-55538358D01*
X91615663Y-55338755D01*
X91553358Y-55117898D01*
X91495132Y-54896733D01*
X91446596Y-54696206D01*
X91413360Y-54537261D01*
X91401035Y-54440845D01*
X91393467Y-54394397D01*
X91357241Y-54357931D01*
X91345920Y-54359473D01*
X91313448Y-54403132D01*
X91301466Y-54443409D01*
X91259545Y-54553582D01*
X91192901Y-54718341D01*
X91107172Y-54923785D01*
X91007999Y-55156016D01*
X90922739Y-55356673D01*
X90838352Y-55562747D01*
X90773940Y-55728666D01*
X90734648Y-55841114D01*
X90725622Y-55886772D01*
X90725677Y-55886826D01*
X90776773Y-55888063D01*
X90888003Y-55869327D01*
X91035378Y-55834654D01*
X91054705Y-55829628D01*
X91231583Y-55790645D01*
X91339264Y-55785652D01*
X91388968Y-55816196D01*
X91391916Y-55883825D01*
X91390785Y-55888355D01*
X91356620Y-55926179D01*
X91270716Y-55963183D01*
X91121355Y-56003309D01*
X90896819Y-56050504D01*
X90729065Y-56082134D01*
X90551057Y-56112796D01*
X90418074Y-56132364D01*
X90350503Y-56137588D01*
X90302380Y-56120736D01*
X90272765Y-56056739D01*
X90302177Y-55965383D01*
X90387796Y-55867120D01*
X90450878Y-55799363D01*
X90559986Y-55637506D01*
X90685979Y-55408924D01*
X90823783Y-55123695D01*
X90968324Y-54791901D01*
X91114525Y-54423621D01*
X91195661Y-54210683D01*
X91269219Y-54023690D01*
X91323274Y-53899901D01*
X91363913Y-53829077D01*
X91397222Y-53800976D01*
X91429289Y-53805358D01*
G37*
G36*
X87894600Y-55906663D02*
G01*
X87828554Y-55981829D01*
X87707531Y-56017635D01*
X87539490Y-56010510D01*
X87332392Y-55956881D01*
X87094196Y-55853175D01*
X86767816Y-55684281D01*
X86586567Y-55827708D01*
X86513430Y-55879309D01*
X86325333Y-55970344D01*
X86136218Y-56014084D01*
X85976222Y-56001928D01*
X85921240Y-55994649D01*
X85862308Y-56020288D01*
X85833564Y-56044889D01*
X85749140Y-56065862D01*
X85710848Y-56063384D01*
X85683932Y-56046197D01*
X85668112Y-55999728D01*
X85661024Y-55909404D01*
X85660300Y-55760654D01*
X85663576Y-55538905D01*
X85659219Y-55320885D01*
X85628203Y-55122522D01*
X85562748Y-54966182D01*
X85456090Y-54828707D01*
X85452798Y-54825270D01*
X85340761Y-54731074D01*
X85260328Y-54716332D01*
X85207922Y-54780346D01*
X85191753Y-54806974D01*
X85150555Y-54828310D01*
X85071040Y-54837180D01*
X84936909Y-54835061D01*
X84731862Y-54823426D01*
X84578989Y-54815152D01*
X84368605Y-54813201D01*
X84203614Y-54828119D01*
X84058072Y-54861369D01*
X83946866Y-54896325D01*
X83873294Y-54932384D01*
X83851813Y-54977248D01*
X83864519Y-55048202D01*
X83886588Y-55107424D01*
X83933284Y-55154515D01*
X84023191Y-55189154D01*
X84178090Y-55223519D01*
X84280345Y-55247347D01*
X84545132Y-55350556D01*
X84752427Y-55498001D01*
X84889443Y-55681451D01*
X84918616Y-55745709D01*
X84925992Y-55776164D01*
X84943616Y-55848935D01*
X84920747Y-55932443D01*
X84856396Y-55991419D01*
X84725753Y-56021209D01*
X84552914Y-56009576D01*
X84355095Y-55959636D01*
X84149516Y-55874508D01*
X83953394Y-55757307D01*
X83829262Y-55668918D01*
X83628975Y-55821800D01*
X83628260Y-55822346D01*
X83406878Y-55956665D01*
X83195034Y-56010081D01*
X82978912Y-55986087D01*
X82922309Y-55972067D01*
X82828154Y-55966844D01*
X82770410Y-56004249D01*
X82729592Y-56037039D01*
X82631167Y-56065862D01*
X82617295Y-56065582D01*
X82577505Y-56054105D01*
X82558234Y-56011933D01*
X82555403Y-55920232D01*
X82564931Y-55760169D01*
X82576370Y-55543944D01*
X82696613Y-55543944D01*
X82715063Y-55699150D01*
X82753203Y-55860423D01*
X82874281Y-55677462D01*
X82909651Y-55620275D01*
X82981086Y-55479935D01*
X83021429Y-55364147D01*
X83024921Y-55346373D01*
X83031115Y-55269224D01*
X82993708Y-55239000D01*
X82890735Y-55233793D01*
X82785192Y-55241906D01*
X82733273Y-55283887D01*
X82705446Y-55385835D01*
X82704542Y-55390841D01*
X82696613Y-55543944D01*
X82576370Y-55543944D01*
X82576501Y-55541459D01*
X82571726Y-55386991D01*
X82546234Y-55293053D01*
X82496335Y-55246401D01*
X82418343Y-55233793D01*
X82415605Y-55233800D01*
X82320426Y-55251781D01*
X82291825Y-55310431D01*
X82261754Y-55499304D01*
X82173690Y-55709132D01*
X82045605Y-55883154D01*
X81994982Y-55932379D01*
X81907925Y-55997490D01*
X81816513Y-56019288D01*
X81679724Y-56012246D01*
X81653714Y-56009324D01*
X81415225Y-55937011D01*
X81218566Y-55789477D01*
X81070345Y-55571502D01*
X81034912Y-55483849D01*
X80992655Y-55298546D01*
X80981264Y-55104720D01*
X80998272Y-54921195D01*
X81041211Y-54766798D01*
X81107612Y-54660354D01*
X81195007Y-54620690D01*
X81220215Y-54622814D01*
X81276209Y-54667565D01*
X81275765Y-54772962D01*
X81219138Y-54942383D01*
X81167398Y-55113326D01*
X81167052Y-55338267D01*
X81247288Y-55575159D01*
X81303161Y-55670928D01*
X81439622Y-55805977D01*
X81595819Y-55864220D01*
X81756731Y-55845609D01*
X81907341Y-55750097D01*
X82032627Y-55577637D01*
X82082358Y-55468678D01*
X82103969Y-55365941D01*
X82084162Y-55271369D01*
X82063789Y-55180026D01*
X82076997Y-55116038D01*
X82086102Y-55088341D01*
X82079923Y-54993325D01*
X82049578Y-54863419D01*
X82031437Y-54797858D01*
X82007206Y-54627330D01*
X82036244Y-54524037D01*
X82118307Y-54489310D01*
X82132352Y-54489981D01*
X82221005Y-54540380D01*
X82274284Y-54670664D01*
X82292069Y-54880569D01*
X82292893Y-54958074D01*
X82302908Y-55052855D01*
X82332222Y-55093435D01*
X82390604Y-55101743D01*
X82464473Y-55095237D01*
X82534563Y-55061660D01*
X82585620Y-54985842D01*
X82626764Y-54852801D01*
X82667118Y-54647553D01*
X82673494Y-54612217D01*
X82738903Y-54320793D01*
X82825969Y-54017973D01*
X82924398Y-53736588D01*
X83023899Y-53509470D01*
X83062401Y-53441676D01*
X83102945Y-53413546D01*
X83151891Y-53447261D01*
X83172406Y-53473798D01*
X83183766Y-53523782D01*
X83171973Y-53604022D01*
X83133976Y-53731571D01*
X83066726Y-53923481D01*
X83041542Y-53995064D01*
X82964120Y-54233803D01*
X82893218Y-54476799D01*
X82841582Y-54681161D01*
X82840837Y-54684535D01*
X82803102Y-54874941D01*
X82795786Y-54996567D01*
X82825448Y-55064711D01*
X82898651Y-55094671D01*
X83021954Y-55101743D01*
X83026511Y-55101795D01*
X83126976Y-55118903D01*
X83178974Y-55157155D01*
X83180690Y-55163018D01*
X83180670Y-55265897D01*
X83179982Y-55269224D01*
X83150333Y-55412501D01*
X83098084Y-55571131D01*
X83032331Y-55710088D01*
X83015058Y-55740553D01*
X82972277Y-55831203D01*
X82964608Y-55877136D01*
X82985313Y-55885885D01*
X83074050Y-55880753D01*
X83199201Y-55849572D01*
X83331751Y-55800550D01*
X83442686Y-55741894D01*
X83525805Y-55666169D01*
X83591691Y-55543424D01*
X83597931Y-55442424D01*
X83881060Y-55442424D01*
X83886272Y-55497119D01*
X83936650Y-55556525D01*
X84043709Y-55631169D01*
X84218966Y-55731577D01*
X84233572Y-55739497D01*
X84427733Y-55828222D01*
X84591562Y-55873185D01*
X84711325Y-55872126D01*
X84773289Y-55822785D01*
X84776485Y-55776164D01*
X84725037Y-55683604D01*
X84615752Y-55586388D01*
X84465652Y-55495885D01*
X84291761Y-55423466D01*
X84111102Y-55380501D01*
X83993681Y-55369535D01*
X83920658Y-55382519D01*
X83885889Y-55427132D01*
X83881060Y-55442424D01*
X83597931Y-55442424D01*
X83599289Y-55420451D01*
X83542409Y-55323235D01*
X83510203Y-55289406D01*
X83475330Y-55179979D01*
X83506612Y-55054374D01*
X83594586Y-54928041D01*
X83729790Y-54816428D01*
X83902758Y-54734982D01*
X83934915Y-54725479D01*
X84094707Y-54690762D01*
X84296219Y-54659645D01*
X84503621Y-54637917D01*
X84566321Y-54632588D01*
X84766986Y-54608964D01*
X84945289Y-54579110D01*
X85068664Y-54548197D01*
X85220582Y-54519237D01*
X85389973Y-54556793D01*
X85547133Y-54676681D01*
X85696983Y-54881511D01*
X85839310Y-55120436D01*
X85839310Y-54958149D01*
X85840002Y-54929424D01*
X85865042Y-54823389D01*
X85922090Y-54795194D01*
X86005724Y-54848414D01*
X86022881Y-54873069D01*
X86052099Y-54988027D01*
X86058503Y-55158319D01*
X86043271Y-55363041D01*
X86007579Y-55581287D01*
X85952603Y-55792155D01*
X85948052Y-55807076D01*
X85945292Y-55873239D01*
X86000583Y-55889728D01*
X86129567Y-55861942D01*
X86283538Y-55793421D01*
X86425149Y-55703806D01*
X86517741Y-55612734D01*
X86540723Y-55576200D01*
X86565232Y-55511140D01*
X86549827Y-55441012D01*
X86540882Y-55424244D01*
X86833255Y-55424244D01*
X86833971Y-55472137D01*
X86903085Y-55557821D01*
X87055187Y-55660445D01*
X87291542Y-55780992D01*
X87425618Y-55839128D01*
X87569426Y-55882472D01*
X87659744Y-55876858D01*
X87707203Y-55823369D01*
X87712533Y-55783205D01*
X87668890Y-55688740D01*
X87564371Y-55590212D01*
X87415458Y-55498717D01*
X87238634Y-55425349D01*
X87050382Y-55381206D01*
X86952241Y-55371460D01*
X86870644Y-55381773D01*
X86833255Y-55424244D01*
X86540882Y-55424244D01*
X86491253Y-55331215D01*
X86446902Y-55252315D01*
X86416631Y-55173795D01*
X86427310Y-55107373D01*
X86477253Y-55014956D01*
X86527564Y-54942936D01*
X86676040Y-54817649D01*
X86888543Y-54727234D01*
X87175042Y-54666717D01*
X87299528Y-54650820D01*
X87521444Y-54631547D01*
X87730547Y-54623462D01*
X87908322Y-54626572D01*
X88036258Y-54640883D01*
X88095841Y-54666401D01*
X88101539Y-54705496D01*
X88066575Y-54781416D01*
X88062286Y-54786371D01*
X88017521Y-54817685D01*
X87942844Y-54832881D01*
X87819255Y-54833712D01*
X87627755Y-54821935D01*
X87458839Y-54814464D01*
X87233227Y-54820908D01*
X87039189Y-54844891D01*
X86895213Y-54883824D01*
X86819788Y-54935117D01*
X86809667Y-54982541D01*
X86820103Y-55077969D01*
X86849954Y-55140806D01*
X86920404Y-55182640D01*
X87054139Y-55210479D01*
X87259449Y-55254610D01*
X87538164Y-55375239D01*
X87755259Y-55556461D01*
X87829927Y-55652545D01*
X87891790Y-55783205D01*
X87897711Y-55795711D01*
X87894600Y-55906663D01*
G37*
G36*
X89031067Y-55383288D02*
G01*
X89035535Y-55693621D01*
X89035254Y-55808042D01*
X89031803Y-56018810D01*
X89022177Y-56171855D01*
X89003581Y-56287995D01*
X88973224Y-56388052D01*
X88928311Y-56492845D01*
X88889886Y-56569916D01*
X88810659Y-56685488D01*
X88738969Y-56722759D01*
X88691971Y-56719379D01*
X88634577Y-56700669D01*
X88631580Y-56682635D01*
X88638632Y-56594281D01*
X88659547Y-56451282D01*
X88691644Y-56273686D01*
X88708266Y-56186136D01*
X88740580Y-55999218D01*
X88763237Y-55844344D01*
X88772125Y-55748362D01*
X88772240Y-55733521D01*
X88766136Y-55673317D01*
X88733775Y-55641877D01*
X88654716Y-55629861D01*
X88508515Y-55627931D01*
X88401889Y-55623879D01*
X88198058Y-55588582D01*
X88048456Y-55521684D01*
X87968583Y-55428900D01*
X87946780Y-55305870D01*
X88124151Y-55305870D01*
X88128850Y-55340396D01*
X88152697Y-55401383D01*
X88213080Y-55428730D01*
X88335517Y-55438443D01*
X88380706Y-55439341D01*
X88528970Y-55432731D01*
X88642069Y-55414751D01*
X88686216Y-55398866D01*
X88730323Y-55358600D01*
X88752977Y-55278558D01*
X88764645Y-55134835D01*
X88769218Y-55011685D01*
X88761290Y-54924478D01*
X88731158Y-54881528D01*
X88670827Y-54859361D01*
X88655046Y-54856020D01*
X88512868Y-54867955D01*
X88366019Y-54937425D01*
X88237170Y-55045912D01*
X88148990Y-55174899D01*
X88124151Y-55305870D01*
X87946780Y-55305870D01*
X87942795Y-55283381D01*
X87976531Y-55112456D01*
X88065007Y-54950906D01*
X88193885Y-54810802D01*
X88348830Y-54704219D01*
X88515505Y-54643228D01*
X88679572Y-54639901D01*
X88826695Y-54706312D01*
X88875087Y-54750291D01*
X88940374Y-54843655D01*
X88986275Y-54971487D01*
X88992987Y-55011685D01*
X89015576Y-55146971D01*
X89031067Y-55383288D01*
G37*
M02*
