G04 #@! TF.GenerationSoftware,KiCad,Pcbnew,6.0.6+dfsg-1*
G04 #@! TF.CreationDate,2022-08-11T10:33:23+02:00*
G04 #@! TF.ProjectId,demiurge,64656d69-7572-4676-952e-6b696361645f,F*
G04 #@! TF.SameCoordinates,Original*
G04 #@! TF.FileFunction,Paste,Top*
G04 #@! TF.FilePolarity,Positive*
%FSLAX46Y46*%
G04 Gerber Fmt 4.6, Leading zero omitted, Abs format (unit mm)*
G04 Created by KiCad (PCBNEW 6.0.6+dfsg-1) date 2022-08-11 10:33:23*
%MOMM*%
%LPD*%
G01*
G04 APERTURE LIST*
G04 Aperture macros list*
%AMRoundRect*
0 Rectangle with rounded corners*
0 $1 Rounding radius*
0 $2 $3 $4 $5 $6 $7 $8 $9 X,Y pos of 4 corners*
0 Add a 4 corners polygon primitive as box body*
4,1,4,$2,$3,$4,$5,$6,$7,$8,$9,$2,$3,0*
0 Add four circle primitives for the rounded corners*
1,1,$1+$1,$2,$3*
1,1,$1+$1,$4,$5*
1,1,$1+$1,$6,$7*
1,1,$1+$1,$8,$9*
0 Add four rect primitives between the rounded corners*
20,1,$1+$1,$2,$3,$4,$5,0*
20,1,$1+$1,$4,$5,$6,$7,0*
20,1,$1+$1,$6,$7,$8,$9,0*
20,1,$1+$1,$8,$9,$2,$3,0*%
%AMFreePoly0*
4,1,51,0.261329,0.186792,0.276492,0.186792,0.288760,0.177879,0.303181,0.173193,0.312094,0.160926,0.324361,0.152013,0.329047,0.137592,0.337960,0.125324,0.337960,0.110161,0.342646,0.095739,0.342646,0.002645,0.340259,-0.004702,0.341467,-0.012332,0.331288,-0.032309,0.324361,-0.053629,0.318113,-0.058169,0.314605,-0.065053,0.216219,-0.163437,0.209336,-0.166944,0.204796,-0.173193,
0.183473,-0.180121,0.163498,-0.190299,0.155869,-0.189091,0.148522,-0.191478,-0.148522,-0.191478,-0.155869,-0.189091,-0.163498,-0.190299,-0.183473,-0.180121,-0.204796,-0.173193,-0.209336,-0.166944,-0.216219,-0.163437,-0.314604,-0.065053,-0.318111,-0.058170,-0.324361,-0.053629,-0.331289,-0.032307,-0.341467,-0.012332,-0.340259,-0.004702,-0.342646,0.002645,-0.342646,0.095739,-0.337960,0.110161,
-0.337960,0.125324,-0.329047,0.137592,-0.324361,0.152013,-0.312094,0.160926,-0.303181,0.173193,-0.288760,0.177879,-0.276492,0.186792,-0.261329,0.186792,-0.246907,0.191478,0.246907,0.191478,0.261329,0.186792,0.261329,0.186792,$1*%
%AMFreePoly1*
4,1,48,0.110161,0.186792,0.125324,0.186792,0.137592,0.177879,0.152013,0.173193,0.160926,0.160926,0.173193,0.152013,0.177879,0.137592,0.186792,0.125324,0.186792,0.110161,0.191478,0.095739,0.191478,0.038978,0.189091,0.031631,0.190299,0.024002,0.180121,0.004027,0.173193,-0.017296,0.166944,-0.021836,0.163437,-0.028719,0.028720,-0.163437,0.021836,-0.166945,0.017296,-0.173193,
-0.004024,-0.180120,-0.024001,-0.190299,-0.031631,-0.189091,-0.038978,-0.191478,-0.095739,-0.191478,-0.110161,-0.186792,-0.125324,-0.186792,-0.137592,-0.177879,-0.152013,-0.173193,-0.160926,-0.160926,-0.173193,-0.152013,-0.177879,-0.137592,-0.186792,-0.125324,-0.186792,-0.110161,-0.191478,-0.095739,-0.191478,0.095739,-0.186792,0.110161,-0.186792,0.125324,-0.177879,0.137592,-0.173193,0.152013,
-0.160926,0.160926,-0.152013,0.173193,-0.137592,0.177879,-0.125324,0.186792,-0.110161,0.186792,-0.095739,0.191478,0.095739,0.191478,0.110161,0.186792,0.110161,0.186792,$1*%
%AMFreePoly2*
4,1,51,0.155869,0.189091,0.163498,0.190299,0.183473,0.180121,0.204796,0.173193,0.209336,0.166944,0.216219,0.163437,0.314605,0.065053,0.318113,0.058169,0.324361,0.053629,0.331288,0.032309,0.341467,0.012332,0.340259,0.004702,0.342646,-0.002645,0.342646,-0.095739,0.337960,-0.110161,0.337960,-0.125324,0.329047,-0.137592,0.324361,-0.152013,0.312094,-0.160926,0.303181,-0.173193,
0.288760,-0.177879,0.276492,-0.186792,0.261329,-0.186792,0.246907,-0.191478,-0.246907,-0.191478,-0.261329,-0.186792,-0.276492,-0.186792,-0.288760,-0.177879,-0.303181,-0.173193,-0.312094,-0.160926,-0.324361,-0.152013,-0.329047,-0.137592,-0.337960,-0.125324,-0.337960,-0.110161,-0.342646,-0.095739,-0.342646,-0.002645,-0.340259,0.004702,-0.341467,0.012332,-0.331289,0.032307,-0.324361,0.053629,
-0.318111,0.058170,-0.314604,0.065053,-0.216219,0.163437,-0.209336,0.166944,-0.204796,0.173193,-0.183473,0.180121,-0.163498,0.190299,-0.155869,0.189091,-0.148522,0.191478,0.148522,0.191478,0.155869,0.189091,0.155869,0.189091,$1*%
%AMFreePoly3*
4,1,57,0.195015,0.341746,0.197191,0.342329,0.200525,0.340774,0.218481,0.337608,0.232451,0.325886,0.248978,0.318179,0.318179,0.248978,0.321152,0.244733,0.323103,0.243606,0.324361,0.240149,0.334819,0.225214,0.336409,0.207049,0.342646,0.189911,0.342646,-0.189911,0.341746,-0.195015,0.342329,-0.197191,0.340774,-0.200525,0.337608,-0.218481,0.325886,-0.232451,0.318179,-0.248978,
0.248978,-0.318179,0.244733,-0.321152,0.243606,-0.323103,0.240149,-0.324361,0.225214,-0.334819,0.207049,-0.336409,0.189911,-0.342646,-0.189911,-0.342646,-0.195015,-0.341746,-0.197191,-0.342329,-0.200525,-0.340774,-0.218481,-0.337608,-0.232451,-0.325886,-0.248978,-0.318179,-0.318179,-0.248978,-0.321152,-0.244733,-0.323103,-0.243606,-0.324361,-0.240149,-0.334819,-0.225214,-0.336409,-0.207049,
-0.342646,-0.189911,-0.342646,0.189911,-0.341746,0.195015,-0.342329,0.197191,-0.340774,0.200525,-0.337608,0.218481,-0.325886,0.232451,-0.318179,0.248978,-0.248978,0.318179,-0.244733,0.321152,-0.243606,0.323103,-0.240149,0.324361,-0.225214,0.334819,-0.207049,0.336409,-0.189911,0.342646,0.189911,0.342646,0.195015,0.341746,0.195015,0.341746,$1*%
%AMFreePoly4*
4,1,51,0.110161,0.337960,0.125324,0.337960,0.137592,0.329047,0.152013,0.324361,0.160926,0.312094,0.173193,0.303181,0.177879,0.288760,0.186792,0.276492,0.186792,0.261329,0.191478,0.246907,0.191478,-0.246907,0.186792,-0.261329,0.186792,-0.276492,0.177879,-0.288760,0.173193,-0.303181,0.160926,-0.312094,0.152013,-0.324361,0.137592,-0.329047,0.125324,-0.337960,0.110161,-0.337960,
0.095739,-0.342646,0.002645,-0.342646,-0.004702,-0.340259,-0.012332,-0.341467,-0.032309,-0.331288,-0.053629,-0.324361,-0.058169,-0.318113,-0.065053,-0.314605,-0.163437,-0.216219,-0.166944,-0.209336,-0.173193,-0.204796,-0.180121,-0.183473,-0.190299,-0.163498,-0.189091,-0.155869,-0.191478,-0.148522,-0.191478,0.148522,-0.189091,0.155869,-0.190299,0.163498,-0.180121,0.183473,-0.173193,0.204796,
-0.166944,0.209336,-0.163437,0.216219,-0.065053,0.314605,-0.058169,0.318113,-0.053629,0.324361,-0.032309,0.331288,-0.012332,0.341467,-0.004702,0.340259,0.002645,0.342646,0.095739,0.342646,0.110161,0.337960,0.110161,0.337960,$1*%
%AMFreePoly5*
4,1,51,0.004702,0.340259,0.012332,0.341467,0.032307,0.331289,0.053629,0.324361,0.058170,0.318111,0.065053,0.314604,0.163437,0.216219,0.166944,0.209336,0.173193,0.204796,0.180121,0.183473,0.190299,0.163498,0.189091,0.155869,0.191478,0.148522,0.191478,-0.148522,0.189091,-0.155869,0.190299,-0.163498,0.180121,-0.183473,0.173193,-0.204796,0.166944,-0.209336,0.163437,-0.216219,
0.065053,-0.314604,0.058170,-0.318111,0.053629,-0.324361,0.032307,-0.331289,0.012332,-0.341467,0.004702,-0.340259,-0.002645,-0.342646,-0.095739,-0.342646,-0.110161,-0.337960,-0.125324,-0.337960,-0.137592,-0.329047,-0.152013,-0.324361,-0.160926,-0.312094,-0.173193,-0.303181,-0.177879,-0.288760,-0.186792,-0.276492,-0.186792,-0.261329,-0.191478,-0.246907,-0.191478,0.246907,-0.186792,0.261329,
-0.186792,0.276492,-0.177879,0.288760,-0.173193,0.303181,-0.160926,0.312094,-0.152013,0.324361,-0.137592,0.329047,-0.125324,0.337960,-0.110161,0.337960,-0.095739,0.342646,-0.002645,0.342646,0.004702,0.340259,0.004702,0.340259,$1*%
%AMFreePoly6*
4,1,48,-0.031631,0.189091,-0.024001,0.190299,-0.004024,0.180120,0.017296,0.173193,0.021836,0.166945,0.028720,0.163437,0.163437,0.028719,0.166944,0.021836,0.173193,0.017296,0.180121,-0.004027,0.190299,-0.024002,0.189091,-0.031631,0.191478,-0.038978,0.191478,-0.095739,0.186792,-0.110161,0.186792,-0.125324,0.177879,-0.137592,0.173193,-0.152013,0.160926,-0.160926,0.152013,-0.173193,
0.137592,-0.177879,0.125324,-0.186792,0.110161,-0.186792,0.095739,-0.191478,-0.095739,-0.191478,-0.110161,-0.186792,-0.125324,-0.186792,-0.137592,-0.177879,-0.152013,-0.173193,-0.160926,-0.160926,-0.173193,-0.152013,-0.177879,-0.137592,-0.186792,-0.125324,-0.186792,-0.110161,-0.191478,-0.095739,-0.191478,0.095739,-0.186792,0.110161,-0.186792,0.125324,-0.177879,0.137592,-0.173193,0.152013,
-0.160926,0.160926,-0.152013,0.173193,-0.137592,0.177879,-0.125324,0.186792,-0.110161,0.186792,-0.095739,0.191478,-0.038978,0.191478,-0.031631,0.189091,-0.031631,0.189091,$1*%
%AMFreePoly7*
4,1,48,0.110161,0.186792,0.125324,0.186792,0.137592,0.177879,0.152013,0.173193,0.160926,0.160926,0.173193,0.152013,0.177879,0.137592,0.186792,0.125324,0.186792,0.110161,0.191478,0.095739,0.191478,-0.095739,0.186792,-0.110161,0.186792,-0.125324,0.177879,-0.137592,0.173193,-0.152013,0.160926,-0.160926,0.152013,-0.173193,0.137592,-0.177879,0.125324,-0.186792,0.110161,-0.186792,
0.095739,-0.191478,-0.095739,-0.191478,-0.110161,-0.186792,-0.125324,-0.186792,-0.137592,-0.177879,-0.152013,-0.173193,-0.160926,-0.160926,-0.173193,-0.152013,-0.177879,-0.137592,-0.186792,-0.125324,-0.186792,-0.110161,-0.191478,-0.095739,-0.191478,-0.038978,-0.189091,-0.031631,-0.190299,-0.024001,-0.180120,-0.004024,-0.173193,0.017296,-0.166945,0.021836,-0.163437,0.028720,-0.028719,0.163437,
-0.021836,0.166944,-0.017296,0.173193,0.004027,0.180121,0.024002,0.190299,0.031631,0.189091,0.038978,0.191478,0.095739,0.191478,0.110161,0.186792,0.110161,0.186792,$1*%
%AMFreePoly8*
4,1,48,0.110161,0.186792,0.125324,0.186792,0.137592,0.177879,0.152013,0.173193,0.160926,0.160926,0.173193,0.152013,0.177879,0.137592,0.186792,0.125324,0.186792,0.110161,0.191478,0.095739,0.191478,-0.095739,0.186792,-0.110161,0.186792,-0.125324,0.177879,-0.137592,0.173193,-0.152013,0.160926,-0.160926,0.152013,-0.173193,0.137592,-0.177879,0.125324,-0.186792,0.110161,-0.186792,
0.095739,-0.191478,0.038978,-0.191478,0.031631,-0.189091,0.024002,-0.190299,0.004027,-0.180121,-0.017296,-0.173193,-0.021836,-0.166944,-0.028719,-0.163437,-0.163437,-0.028720,-0.166945,-0.021836,-0.173193,-0.017296,-0.180120,0.004024,-0.190299,0.024001,-0.189091,0.031631,-0.191478,0.038978,-0.191478,0.095739,-0.186792,0.110161,-0.186792,0.125324,-0.177879,0.137592,-0.173193,0.152013,
-0.160926,0.160926,-0.152013,0.173193,-0.137592,0.177879,-0.125324,0.186792,-0.110161,0.186792,-0.095739,0.191478,0.095739,0.191478,0.110161,0.186792,0.110161,0.186792,$1*%
%AMFreePoly9*
4,1,14,0.314644,0.085355,0.385355,0.014644,0.400000,-0.020711,0.400000,-0.050000,0.385355,-0.085355,0.350000,-0.100000,-0.350000,-0.100000,-0.385355,-0.085355,-0.400000,-0.050000,-0.400000,0.050000,-0.385355,0.085355,-0.350000,0.100000,0.279289,0.100000,0.314644,0.085355,0.314644,0.085355,$1*%
%AMFreePoly10*
4,1,14,0.385355,0.085355,0.400000,0.050000,0.400000,0.020711,0.385355,-0.014645,0.314644,-0.085355,0.279289,-0.100000,-0.350000,-0.100000,-0.385355,-0.085355,-0.400000,-0.050000,-0.400000,0.050000,-0.385355,0.085355,-0.350000,0.100000,0.350000,0.100000,0.385355,0.085355,0.385355,0.085355,$1*%
%AMFreePoly11*
4,1,14,0.085355,0.385355,0.100000,0.350000,0.100000,-0.350000,0.085355,-0.385355,0.050000,-0.400000,-0.050000,-0.400000,-0.085355,-0.385355,-0.100000,-0.350000,-0.100000,0.279289,-0.085355,0.314644,-0.014645,0.385355,0.020711,0.400000,0.050000,0.400000,0.085355,0.385355,0.085355,0.385355,$1*%
%AMFreePoly12*
4,1,14,0.014644,0.385355,0.085355,0.314644,0.100000,0.279289,0.100000,-0.350000,0.085355,-0.385355,0.050000,-0.400000,-0.050000,-0.400000,-0.085355,-0.385355,-0.100000,-0.350000,-0.100000,0.350000,-0.085355,0.385355,-0.050000,0.400000,-0.020711,0.400000,0.014644,0.385355,0.014644,0.385355,$1*%
%AMFreePoly13*
4,1,14,0.385355,0.085355,0.400000,0.050000,0.400000,-0.050000,0.385355,-0.085355,0.350000,-0.100000,-0.279289,-0.100000,-0.314645,-0.085355,-0.385355,-0.014644,-0.400000,0.020711,-0.400000,0.050000,-0.385355,0.085355,-0.350000,0.100000,0.350000,0.100000,0.385355,0.085355,0.385355,0.085355,$1*%
%AMFreePoly14*
4,1,14,0.385355,0.085355,0.400000,0.050000,0.400000,-0.050000,0.385355,-0.085355,0.350000,-0.100000,-0.350000,-0.100000,-0.385355,-0.085355,-0.400000,-0.050000,-0.400000,-0.020711,-0.385355,0.014644,-0.314645,0.085355,-0.279289,0.100000,0.350000,0.100000,0.385355,0.085355,0.385355,0.085355,$1*%
%AMFreePoly15*
4,1,14,0.085355,0.385355,0.100000,0.350000,0.100000,-0.279289,0.085355,-0.314645,0.014644,-0.385355,-0.020711,-0.400000,-0.050000,-0.400000,-0.085355,-0.385355,-0.100000,-0.350000,-0.100000,0.350000,-0.085355,0.385355,-0.050000,0.400000,0.050000,0.400000,0.085355,0.385355,0.085355,0.385355,$1*%
%AMFreePoly16*
4,1,14,0.085355,0.385355,0.100000,0.350000,0.100000,-0.350000,0.085355,-0.385355,0.050000,-0.400000,0.020711,-0.400000,-0.014645,-0.385355,-0.085355,-0.314644,-0.100000,-0.279289,-0.100000,0.350000,-0.085355,0.385355,-0.050000,0.400000,0.050000,0.400000,0.085355,0.385355,0.085355,0.385355,$1*%
G04 Aperture macros list end*
%ADD10RoundRect,0.218750X-0.256250X0.218750X-0.256250X-0.218750X0.256250X-0.218750X0.256250X0.218750X0*%
%ADD11RoundRect,0.218750X0.218750X0.256250X-0.218750X0.256250X-0.218750X-0.256250X0.218750X-0.256250X0*%
%ADD12RoundRect,0.218750X0.256250X-0.218750X0.256250X0.218750X-0.256250X0.218750X-0.256250X-0.218750X0*%
%ADD13R,2.000000X1.500000*%
%ADD14R,2.000000X3.800000*%
%ADD15RoundRect,0.218750X-0.218750X-0.256250X0.218750X-0.256250X0.218750X0.256250X-0.218750X0.256250X0*%
%ADD16RoundRect,0.150000X-0.825000X-0.150000X0.825000X-0.150000X0.825000X0.150000X-0.825000X0.150000X0*%
%ADD17RoundRect,0.243750X-0.456250X0.243750X-0.456250X-0.243750X0.456250X-0.243750X0.456250X0.243750X0*%
%ADD18RoundRect,0.243750X-0.243750X-0.456250X0.243750X-0.456250X0.243750X0.456250X-0.243750X0.456250X0*%
%ADD19RoundRect,0.243750X0.243750X0.456250X-0.243750X0.456250X-0.243750X-0.456250X0.243750X-0.456250X0*%
%ADD20R,0.650000X1.060000*%
%ADD21RoundRect,0.150000X-0.150000X0.825000X-0.150000X-0.825000X0.150000X-0.825000X0.150000X0.825000X0*%
%ADD22R,0.450000X0.700000*%
%ADD23RoundRect,0.075000X-0.700000X-0.075000X0.700000X-0.075000X0.700000X0.075000X-0.700000X0.075000X0*%
%ADD24RoundRect,0.075000X-0.075000X-0.700000X0.075000X-0.700000X0.075000X0.700000X-0.075000X0.700000X0*%
%ADD25FreePoly0,0.000000*%
%ADD26FreePoly1,0.000000*%
%ADD27FreePoly2,0.000000*%
%ADD28FreePoly3,0.000000*%
%ADD29FreePoly4,0.000000*%
%ADD30FreePoly5,0.000000*%
%ADD31FreePoly6,0.000000*%
%ADD32FreePoly7,0.000000*%
%ADD33FreePoly8,0.000000*%
%ADD34FreePoly9,0.000000*%
%ADD35RoundRect,0.050000X-0.350000X-0.050000X0.350000X-0.050000X0.350000X0.050000X-0.350000X0.050000X0*%
%ADD36FreePoly10,0.000000*%
%ADD37FreePoly11,0.000000*%
%ADD38RoundRect,0.050000X-0.050000X-0.350000X0.050000X-0.350000X0.050000X0.350000X-0.050000X0.350000X0*%
%ADD39FreePoly12,0.000000*%
%ADD40FreePoly13,0.000000*%
%ADD41FreePoly14,0.000000*%
%ADD42FreePoly15,0.000000*%
%ADD43FreePoly16,0.000000*%
%ADD44R,0.900000X1.200000*%
%ADD45RoundRect,0.147500X-0.172500X0.147500X-0.172500X-0.147500X0.172500X-0.147500X0.172500X0.147500X0*%
%ADD46R,1.200000X1.400000*%
%ADD47R,0.450000X0.600000*%
%ADD48RoundRect,0.225000X0.250000X-0.225000X0.250000X0.225000X-0.250000X0.225000X-0.250000X-0.225000X0*%
%ADD49RoundRect,0.225000X-0.250000X0.225000X-0.250000X-0.225000X0.250000X-0.225000X0.250000X0.225000X0*%
%ADD50RoundRect,0.200000X0.275000X-0.200000X0.275000X0.200000X-0.275000X0.200000X-0.275000X-0.200000X0*%
%ADD51RoundRect,0.200000X0.200000X0.275000X-0.200000X0.275000X-0.200000X-0.275000X0.200000X-0.275000X0*%
%ADD52RoundRect,0.225000X0.225000X0.250000X-0.225000X0.250000X-0.225000X-0.250000X0.225000X-0.250000X0*%
%ADD53RoundRect,0.150000X-0.650000X-0.150000X0.650000X-0.150000X0.650000X0.150000X-0.650000X0.150000X0*%
%ADD54RoundRect,0.200000X-0.200000X-0.275000X0.200000X-0.275000X0.200000X0.275000X-0.200000X0.275000X0*%
%ADD55R,0.600000X0.450000*%
%ADD56RoundRect,0.200000X-0.275000X0.200000X-0.275000X-0.200000X0.275000X-0.200000X0.275000X0.200000X0*%
%ADD57RoundRect,0.250000X0.475000X-0.250000X0.475000X0.250000X-0.475000X0.250000X-0.475000X-0.250000X0*%
%ADD58RoundRect,0.250000X-0.475000X0.250000X-0.475000X-0.250000X0.475000X-0.250000X0.475000X0.250000X0*%
G04 APERTURE END LIST*
D10*
X83439000Y-74142500D03*
X83439000Y-75717500D03*
D11*
X96190000Y-90170000D03*
X94615000Y-90170000D03*
X96037500Y-107315000D03*
X94462500Y-107315000D03*
X96037500Y-141605000D03*
X94462500Y-141605000D03*
X99847500Y-107315000D03*
X98272500Y-107315000D03*
X99847500Y-109220000D03*
X98272500Y-109220000D03*
X99847500Y-124460000D03*
X98272500Y-124460000D03*
X99847500Y-126365000D03*
X98272500Y-126365000D03*
X109372500Y-98300000D03*
X107797500Y-98300000D03*
X99847500Y-141605000D03*
X98272500Y-141605000D03*
X99847500Y-143510000D03*
X98272500Y-143510000D03*
D10*
X106553000Y-84937500D03*
X106553000Y-86512500D03*
D12*
X91440000Y-151282500D03*
X91440000Y-149707500D03*
X91440000Y-159537500D03*
X91440000Y-157962500D03*
D10*
X93345000Y-157962500D03*
X93345000Y-159537500D03*
X91440000Y-153517500D03*
X91440000Y-155092500D03*
D13*
X108864000Y-73773000D03*
D14*
X115164000Y-76073000D03*
D13*
X108864000Y-76073000D03*
X108864000Y-78373000D03*
D11*
X109772500Y-51876000D03*
X108197500Y-51876000D03*
X106587500Y-51876000D03*
X105012500Y-51876000D03*
D15*
X105012500Y-53400000D03*
X106587500Y-53400000D03*
X108197500Y-53400000D03*
X109772500Y-53400000D03*
D16*
X108125000Y-118745000D03*
X108125000Y-120015000D03*
X108125000Y-121285000D03*
X108125000Y-122555000D03*
X113075000Y-122555000D03*
X113075000Y-121285000D03*
X113075000Y-120015000D03*
X113075000Y-118745000D03*
D17*
X94234000Y-80662500D03*
X94234000Y-82537500D03*
D11*
X112547500Y-92075000D03*
X110972500Y-92075000D03*
D18*
X107901500Y-80899000D03*
X109776500Y-80899000D03*
D17*
X109290000Y-55142500D03*
X109290000Y-57017500D03*
X107315000Y-58600100D03*
X107315000Y-60475100D03*
X107310000Y-55142500D03*
X107310000Y-57017500D03*
X109296200Y-58600100D03*
X109296200Y-60475100D03*
X103352600Y-58600100D03*
X103352600Y-60475100D03*
D15*
X97688300Y-76225400D03*
X99263300Y-76225400D03*
D12*
X87630000Y-155092500D03*
X87630000Y-153517500D03*
X77724000Y-148107500D03*
X77724000Y-146532500D03*
D10*
X77724000Y-154152500D03*
X77724000Y-155727500D03*
D12*
X105410000Y-151282500D03*
X105410000Y-149707500D03*
X89535000Y-151282500D03*
X89535000Y-149707500D03*
D11*
X109372500Y-92075000D03*
X107797500Y-92075000D03*
X115087500Y-104775000D03*
X113512500Y-104775000D03*
X115087500Y-102235000D03*
X113512500Y-102235000D03*
X109372500Y-126365000D03*
X107797500Y-126365000D03*
D10*
X106000000Y-121812500D03*
X106000000Y-123387500D03*
X115200000Y-123512500D03*
X115200000Y-125087500D03*
X106000000Y-118612500D03*
X106000000Y-120187500D03*
X115200000Y-119912500D03*
X115200000Y-121487500D03*
D11*
X99847500Y-92075000D03*
X98272500Y-92075000D03*
X112547500Y-126365000D03*
X110972500Y-126365000D03*
X82702500Y-66675000D03*
X81127500Y-66675000D03*
X99847500Y-90170000D03*
X98272500Y-90170000D03*
D10*
X106300000Y-88112500D03*
X106300000Y-89687500D03*
D16*
X95950000Y-152400000D03*
X95950000Y-153670000D03*
X95950000Y-154940000D03*
X95950000Y-156210000D03*
X100900000Y-156210000D03*
X100900000Y-154940000D03*
X100900000Y-153670000D03*
X100900000Y-152400000D03*
D17*
X105333800Y-58600100D03*
X105333800Y-60475100D03*
X105340000Y-55142500D03*
X105340000Y-57017500D03*
D10*
X105410000Y-153517500D03*
X105410000Y-155092500D03*
X89535000Y-153517500D03*
X89535000Y-155092500D03*
D11*
X100482500Y-149860000D03*
X98907500Y-149860000D03*
D16*
X80075000Y-152400000D03*
X80075000Y-153670000D03*
X80075000Y-154940000D03*
X80075000Y-156210000D03*
X85025000Y-156210000D03*
X85025000Y-154940000D03*
X85025000Y-153670000D03*
X85025000Y-152400000D03*
D18*
X107647500Y-82931000D03*
X109522500Y-82931000D03*
X80596500Y-77825600D03*
X82471500Y-77825600D03*
D11*
X96037500Y-124460000D03*
X94462500Y-124460000D03*
D18*
X86743300Y-59969400D03*
X88618300Y-59969400D03*
D19*
X83360500Y-68453000D03*
X81485500Y-68453000D03*
D12*
X84150000Y-159537500D03*
X84150000Y-157962500D03*
X99060000Y-159537500D03*
X99060000Y-157962500D03*
X103505000Y-155092500D03*
X103505000Y-153517500D03*
D16*
X108650000Y-84836000D03*
X108650000Y-86106000D03*
X108650000Y-87376000D03*
X108650000Y-88646000D03*
X113600000Y-88646000D03*
X113600000Y-87376000D03*
X113600000Y-86106000D03*
X113600000Y-84836000D03*
D17*
X103350000Y-55142500D03*
X103350000Y-57017500D03*
D11*
X109372500Y-131445000D03*
X107797500Y-131445000D03*
D20*
X110805000Y-152570000D03*
X109855000Y-152570000D03*
X108905000Y-152570000D03*
X108905000Y-154770000D03*
X109855000Y-154770000D03*
X110805000Y-154770000D03*
D21*
X85725000Y-117540000D03*
X84455000Y-117540000D03*
X83185000Y-117540000D03*
X81915000Y-117540000D03*
X81915000Y-122490000D03*
X83185000Y-122490000D03*
X84455000Y-122490000D03*
X85725000Y-122490000D03*
D11*
X85877500Y-90805000D03*
X84302500Y-90805000D03*
X85725000Y-125095000D03*
X84150000Y-125095000D03*
D10*
X77724000Y-157962500D03*
X77724000Y-159537500D03*
X79375000Y-157962500D03*
X79375000Y-159537500D03*
D12*
X108585000Y-159537500D03*
X108585000Y-157962500D03*
D22*
X114315000Y-152670000D03*
X113015000Y-152670000D03*
X113665000Y-154670000D03*
D11*
X85242500Y-149860000D03*
X83667500Y-149860000D03*
D23*
X85765000Y-67370000D03*
X85765000Y-67870000D03*
X85765000Y-68370000D03*
X85765000Y-68870000D03*
X85765000Y-69370000D03*
X85765000Y-69870000D03*
X85765000Y-70370000D03*
X85765000Y-70870000D03*
X85765000Y-71370000D03*
X85765000Y-71870000D03*
X85765000Y-72370000D03*
X85765000Y-72870000D03*
X85765000Y-73370000D03*
X85765000Y-73870000D03*
X85765000Y-74370000D03*
X85765000Y-74870000D03*
D24*
X87690000Y-76795000D03*
X88190000Y-76795000D03*
X88690000Y-76795000D03*
X89190000Y-76795000D03*
X89690000Y-76795000D03*
X90190000Y-76795000D03*
X90690000Y-76795000D03*
X91190000Y-76795000D03*
X91690000Y-76795000D03*
X92190000Y-76795000D03*
X92690000Y-76795000D03*
X93190000Y-76795000D03*
X93690000Y-76795000D03*
X94190000Y-76795000D03*
X94690000Y-76795000D03*
X95190000Y-76795000D03*
D23*
X97115000Y-74870000D03*
X97115000Y-74370000D03*
X97115000Y-73870000D03*
X97115000Y-73370000D03*
X97115000Y-72870000D03*
X97115000Y-72370000D03*
X97115000Y-71870000D03*
X97115000Y-71370000D03*
X97115000Y-70870000D03*
X97115000Y-70370000D03*
X97115000Y-69870000D03*
X97115000Y-69370000D03*
X97115000Y-68870000D03*
X97115000Y-68370000D03*
X97115000Y-67870000D03*
X97115000Y-67370000D03*
D24*
X95190000Y-65445000D03*
X94690000Y-65445000D03*
X94190000Y-65445000D03*
X93690000Y-65445000D03*
X93190000Y-65445000D03*
X92690000Y-65445000D03*
X92190000Y-65445000D03*
X91690000Y-65445000D03*
X91190000Y-65445000D03*
X90690000Y-65445000D03*
X90190000Y-65445000D03*
X89690000Y-65445000D03*
X89190000Y-65445000D03*
X88690000Y-65445000D03*
X88190000Y-65445000D03*
X87690000Y-65445000D03*
D25*
X106825000Y-66412500D03*
D26*
X105312500Y-66412500D03*
D27*
X106825000Y-68587500D03*
D28*
X106825000Y-67075000D03*
D29*
X107487500Y-67925000D03*
D28*
X105975000Y-67075000D03*
D30*
X105312500Y-67925000D03*
D25*
X105975000Y-66412500D03*
D28*
X106825000Y-67925000D03*
D30*
X105312500Y-67075000D03*
D31*
X105312500Y-68587500D03*
D27*
X105975000Y-68587500D03*
D32*
X107487500Y-68587500D03*
D29*
X107487500Y-67075000D03*
D33*
X107487500Y-66412500D03*
D28*
X105975000Y-67925000D03*
D34*
X104450000Y-66100000D03*
D35*
X104450000Y-66500000D03*
X104450000Y-66900000D03*
X104450000Y-67300000D03*
X104450000Y-67700000D03*
X104450000Y-68100000D03*
X104450000Y-68500000D03*
D36*
X104450000Y-68900000D03*
D37*
X105000000Y-69450000D03*
D38*
X105400000Y-69450000D03*
X105800000Y-69450000D03*
X106200000Y-69450000D03*
X106600000Y-69450000D03*
X107000000Y-69450000D03*
X107400000Y-69450000D03*
D39*
X107800000Y-69450000D03*
D40*
X108350000Y-68900000D03*
D35*
X108350000Y-68500000D03*
X108350000Y-68100000D03*
X108350000Y-67700000D03*
X108350000Y-67300000D03*
X108350000Y-66900000D03*
X108350000Y-66500000D03*
D41*
X108350000Y-66100000D03*
D42*
X107800000Y-65550000D03*
D38*
X107400000Y-65550000D03*
X107000000Y-65550000D03*
X106600000Y-65550000D03*
X106200000Y-65550000D03*
X105800000Y-65550000D03*
X105400000Y-65550000D03*
D43*
X105000000Y-65550000D03*
D21*
X85725000Y-83250000D03*
X84455000Y-83250000D03*
X83185000Y-83250000D03*
X81915000Y-83250000D03*
X81915000Y-88200000D03*
X83185000Y-88200000D03*
X84455000Y-88200000D03*
X85725000Y-88200000D03*
D10*
X88265000Y-79349500D03*
X88265000Y-80924500D03*
X83185000Y-70967500D03*
X83185000Y-72542500D03*
D44*
X85650000Y-56000000D03*
X82350000Y-56000000D03*
D45*
X82750000Y-63015000D03*
X82750000Y-63985000D03*
X81700000Y-63015000D03*
X81700000Y-63985000D03*
X83820000Y-63015000D03*
X83820000Y-63985000D03*
X79800000Y-63015000D03*
X79800000Y-63985000D03*
D15*
X77870089Y-68669011D03*
X79445089Y-68669011D03*
X77971689Y-74739611D03*
X79546689Y-74739611D03*
D46*
X77883789Y-70566211D03*
X77883789Y-72766211D03*
X79583789Y-72766211D03*
X79583789Y-70566211D03*
D47*
X108100000Y-99850000D03*
X108100000Y-101950000D03*
D48*
X98200000Y-65975000D03*
X98200000Y-64425000D03*
D49*
X104800000Y-62425000D03*
X104800000Y-63975000D03*
D50*
X102700000Y-78625000D03*
X102700000Y-76975000D03*
D51*
X113025000Y-138900000D03*
X111375000Y-138900000D03*
D52*
X94075000Y-78800000D03*
X92525000Y-78800000D03*
D47*
X105900000Y-130250000D03*
X105900000Y-128150000D03*
D51*
X111625000Y-104800000D03*
X109975000Y-104800000D03*
D48*
X109800000Y-65275000D03*
X109800000Y-63725000D03*
D53*
X94090000Y-52165000D03*
X94090000Y-53435000D03*
X94090000Y-54705000D03*
X94090000Y-55975000D03*
X101290000Y-55975000D03*
X101290000Y-54705000D03*
X101290000Y-53435000D03*
X101290000Y-52165000D03*
D54*
X107700000Y-124700000D03*
X109350000Y-124700000D03*
D55*
X109050000Y-137300000D03*
X106950000Y-137300000D03*
D56*
X85300000Y-64173600D03*
X85300000Y-65823600D03*
D49*
X101041200Y-62877400D03*
X101041200Y-64427400D03*
D50*
X100800000Y-75525000D03*
X100800000Y-73875000D03*
X102400000Y-75525000D03*
X102400000Y-73875000D03*
D48*
X106400000Y-63975000D03*
X106400000Y-62425000D03*
D57*
X106000000Y-72850000D03*
X106000000Y-70950000D03*
D48*
X86800000Y-63475000D03*
X86800000Y-61925000D03*
X96700000Y-64554400D03*
X96700000Y-63004400D03*
D50*
X104300000Y-78625000D03*
X104300000Y-76975000D03*
X101000000Y-78625000D03*
X101000000Y-76975000D03*
D55*
X106450000Y-94000000D03*
X108550000Y-94000000D03*
D54*
X107775000Y-90500000D03*
X109425000Y-90500000D03*
D50*
X77241400Y-65112400D03*
X77241400Y-63462400D03*
D47*
X105900000Y-124850000D03*
X105900000Y-126950000D03*
D49*
X103100000Y-52025000D03*
X103100000Y-53575000D03*
D50*
X104000000Y-75525000D03*
X104000000Y-73875000D03*
D47*
X108100000Y-105450000D03*
X108100000Y-103350000D03*
D49*
X99900000Y-69225000D03*
X99900000Y-70775000D03*
D44*
X80750000Y-56000000D03*
X77450000Y-56000000D03*
D55*
X106550000Y-96100000D03*
X108650000Y-96100000D03*
D58*
X92200000Y-80650000D03*
X92200000Y-82550000D03*
D55*
X109050000Y-135200000D03*
X106950000Y-135200000D03*
M02*
