G04 #@! TF.GenerationSoftware,KiCad,Pcbnew,6.0.6+dfsg-1*
G04 #@! TF.CreationDate,2022-08-11T10:33:23+02:00*
G04 #@! TF.ProjectId,demiurge,64656d69-7572-4676-952e-6b696361645f,F*
G04 #@! TF.SameCoordinates,Original*
G04 #@! TF.FileFunction,Soldermask,Top*
G04 #@! TF.FilePolarity,Negative*
%FSLAX46Y46*%
G04 Gerber Fmt 4.6, Leading zero omitted, Abs format (unit mm)*
G04 Created by KiCad (PCBNEW 6.0.6+dfsg-1) date 2022-08-11 10:33:23*
%MOMM*%
%LPD*%
G01*
G04 APERTURE LIST*
G04 Aperture macros list*
%AMRoundRect*
0 Rectangle with rounded corners*
0 $1 Rounding radius*
0 $2 $3 $4 $5 $6 $7 $8 $9 X,Y pos of 4 corners*
0 Add a 4 corners polygon primitive as box body*
4,1,4,$2,$3,$4,$5,$6,$7,$8,$9,$2,$3,0*
0 Add four circle primitives for the rounded corners*
1,1,$1+$1,$2,$3*
1,1,$1+$1,$4,$5*
1,1,$1+$1,$6,$7*
1,1,$1+$1,$8,$9*
0 Add four rect primitives between the rounded corners*
20,1,$1+$1,$2,$3,$4,$5,0*
20,1,$1+$1,$4,$5,$6,$7,0*
20,1,$1+$1,$6,$7,$8,$9,0*
20,1,$1+$1,$8,$9,$2,$3,0*%
%AMFreePoly0*
4,1,27,0.298730,0.146933,0.334085,0.132288,0.350565,0.121276,0.421276,0.050565,0.432288,0.034085,0.446933,-0.001270,0.450800,-0.020711,0.450800,-0.050000,0.446933,-0.069441,0.432288,-0.104796,0.404796,-0.132288,0.369441,-0.146933,0.350000,-0.150800,-0.350000,-0.150800,-0.369441,-0.146933,-0.404796,-0.132288,-0.432288,-0.104796,-0.446933,-0.069441,-0.450800,-0.050000,-0.450800,0.050000,
-0.446933,0.069441,-0.432288,0.104796,-0.404796,0.132288,-0.369441,0.146933,-0.350000,0.150800,0.279289,0.150800,0.298730,0.146933,0.298730,0.146933,$1*%
%AMFreePoly1*
4,1,27,0.369441,0.146933,0.404796,0.132288,0.432288,0.104796,0.446933,0.069441,0.450800,0.050000,0.450800,0.020711,0.446933,0.001271,0.432288,-0.034085,0.421276,-0.050566,0.350565,-0.121276,0.334085,-0.132288,0.298730,-0.146933,0.279289,-0.150800,-0.350000,-0.150800,-0.369441,-0.146933,-0.404796,-0.132288,-0.432288,-0.104796,-0.446933,-0.069441,-0.450800,-0.050000,-0.450800,0.050000,
-0.446933,0.069441,-0.432288,0.104796,-0.404796,0.132288,-0.369441,0.146933,-0.350000,0.150800,0.350000,0.150800,0.369441,0.146933,0.369441,0.146933,$1*%
%AMFreePoly2*
4,1,27,0.069441,0.446933,0.104796,0.432288,0.132288,0.404796,0.146933,0.369441,0.150800,0.350000,0.150800,-0.350000,0.146933,-0.369441,0.132288,-0.404796,0.104796,-0.432288,0.069441,-0.446933,0.050000,-0.450800,-0.050000,-0.450800,-0.069441,-0.446933,-0.104796,-0.432288,-0.132288,-0.404796,-0.146933,-0.369441,-0.150800,-0.350000,-0.150800,0.279289,-0.146933,0.298730,-0.132288,0.334085,
-0.121276,0.350565,-0.050566,0.421276,-0.034085,0.432288,0.001271,0.446933,0.020711,0.450800,0.050000,0.450800,0.069441,0.446933,0.069441,0.446933,$1*%
%AMFreePoly3*
4,1,27,-0.001270,0.446933,0.034085,0.432288,0.050565,0.421276,0.121276,0.350565,0.132288,0.334085,0.146933,0.298730,0.150800,0.279289,0.150800,-0.350000,0.146933,-0.369441,0.132288,-0.404796,0.104796,-0.432288,0.069441,-0.446933,0.050000,-0.450800,-0.050000,-0.450800,-0.069441,-0.446933,-0.104796,-0.432288,-0.132288,-0.404796,-0.146933,-0.369441,-0.150800,-0.350000,-0.150800,0.350000,
-0.146933,0.369441,-0.132288,0.404796,-0.104796,0.432288,-0.069441,0.446933,-0.050000,0.450800,-0.020711,0.450800,-0.001270,0.446933,-0.001270,0.446933,$1*%
%AMFreePoly4*
4,1,27,0.369441,0.146933,0.404796,0.132288,0.432288,0.104796,0.446933,0.069441,0.450800,0.050000,0.450800,-0.050000,0.446933,-0.069441,0.432288,-0.104796,0.404796,-0.132288,0.369441,-0.146933,0.350000,-0.150800,-0.279289,-0.150800,-0.298729,-0.146933,-0.334085,-0.132288,-0.350566,-0.121276,-0.421276,-0.050565,-0.432288,-0.034085,-0.446933,0.001270,-0.450800,0.020711,-0.450800,0.050000,
-0.446933,0.069441,-0.432288,0.104796,-0.404796,0.132288,-0.369441,0.146933,-0.350000,0.150800,0.350000,0.150800,0.369441,0.146933,0.369441,0.146933,$1*%
%AMFreePoly5*
4,1,27,0.369441,0.146933,0.404796,0.132288,0.432288,0.104796,0.446933,0.069441,0.450800,0.050000,0.450800,-0.050000,0.446933,-0.069441,0.432288,-0.104796,0.404796,-0.132288,0.369441,-0.146933,0.350000,-0.150800,-0.350000,-0.150800,-0.369441,-0.146933,-0.404796,-0.132288,-0.432288,-0.104796,-0.446933,-0.069441,-0.450800,-0.050000,-0.450800,-0.020711,-0.446933,-0.001270,-0.432288,0.034085,
-0.421276,0.050565,-0.350566,0.121276,-0.334085,0.132288,-0.298729,0.146933,-0.279289,0.150800,0.350000,0.150800,0.369441,0.146933,0.369441,0.146933,$1*%
%AMFreePoly6*
4,1,27,0.069441,0.446933,0.104796,0.432288,0.132288,0.404796,0.146933,0.369441,0.150800,0.350000,0.150800,-0.279289,0.146933,-0.298729,0.132288,-0.334085,0.121276,-0.350566,0.050565,-0.421276,0.034085,-0.432288,-0.001270,-0.446933,-0.020711,-0.450800,-0.050000,-0.450800,-0.069441,-0.446933,-0.104796,-0.432288,-0.132288,-0.404796,-0.146933,-0.369441,-0.150800,-0.350000,-0.150800,0.350000,
-0.146933,0.369441,-0.132288,0.404796,-0.104796,0.432288,-0.069441,0.446933,-0.050000,0.450800,0.050000,0.450800,0.069441,0.446933,0.069441,0.446933,$1*%
%AMFreePoly7*
4,1,27,0.069441,0.446933,0.104796,0.432288,0.132288,0.404796,0.146933,0.369441,0.150800,0.350000,0.150800,-0.350000,0.146933,-0.369441,0.132288,-0.404796,0.104796,-0.432288,0.069441,-0.446933,0.050000,-0.450800,0.020711,-0.450800,0.001271,-0.446933,-0.034085,-0.432288,-0.050566,-0.421276,-0.121276,-0.350565,-0.132288,-0.334085,-0.146933,-0.298730,-0.150800,-0.279289,-0.150800,0.350000,
-0.146933,0.369441,-0.132288,0.404796,-0.104796,0.432288,-0.069441,0.446933,-0.050000,0.450800,0.050000,0.450800,0.069441,0.446933,0.069441,0.446933,$1*%
G04 Aperture macros list end*
%ADD10RoundRect,0.269550X-0.256250X0.218750X-0.256250X-0.218750X0.256250X-0.218750X0.256250X0.218750X0*%
%ADD11RoundRect,0.269550X0.218750X0.256250X-0.218750X0.256250X-0.218750X-0.256250X0.218750X-0.256250X0*%
%ADD12RoundRect,0.269550X0.256250X-0.218750X0.256250X0.218750X-0.256250X0.218750X-0.256250X-0.218750X0*%
%ADD13RoundRect,0.050800X-1.000000X-0.750000X1.000000X-0.750000X1.000000X0.750000X-1.000000X0.750000X0*%
%ADD14RoundRect,0.050800X-1.000000X-1.900000X1.000000X-1.900000X1.000000X1.900000X-1.000000X1.900000X0*%
%ADD15RoundRect,0.269550X-0.218750X-0.256250X0.218750X-0.256250X0.218750X0.256250X-0.218750X0.256250X0*%
%ADD16RoundRect,0.200800X-0.825000X-0.150000X0.825000X-0.150000X0.825000X0.150000X-0.825000X0.150000X0*%
%ADD17RoundRect,0.294550X-0.456250X0.243750X-0.456250X-0.243750X0.456250X-0.243750X0.456250X0.243750X0*%
%ADD18RoundRect,0.294550X-0.243750X-0.456250X0.243750X-0.456250X0.243750X0.456250X-0.243750X0.456250X0*%
%ADD19RoundRect,0.294550X0.243750X0.456250X-0.243750X0.456250X-0.243750X-0.456250X0.243750X-0.456250X0*%
%ADD20RoundRect,0.050800X0.850000X0.850000X-0.850000X0.850000X-0.850000X-0.850000X0.850000X-0.850000X0*%
%ADD21O,1.801600X1.801600*%
%ADD22RoundRect,0.050800X-0.325000X0.530000X-0.325000X-0.530000X0.325000X-0.530000X0.325000X0.530000X0*%
%ADD23RoundRect,0.200800X-0.150000X0.825000X-0.150000X-0.825000X0.150000X-0.825000X0.150000X0.825000X0*%
%ADD24RoundRect,0.050800X0.850000X-0.850000X0.850000X0.850000X-0.850000X0.850000X-0.850000X-0.850000X0*%
%ADD25RoundRect,0.050800X0.225000X0.350000X-0.225000X0.350000X-0.225000X-0.350000X0.225000X-0.350000X0*%
%ADD26RoundRect,0.125800X-0.700000X-0.075000X0.700000X-0.075000X0.700000X0.075000X-0.700000X0.075000X0*%
%ADD27RoundRect,0.125800X-0.075000X-0.700000X0.075000X-0.700000X0.075000X0.700000X-0.075000X0.700000X0*%
%ADD28FreePoly0,0.000000*%
%ADD29RoundRect,0.100800X-0.350000X-0.050000X0.350000X-0.050000X0.350000X0.050000X-0.350000X0.050000X0*%
%ADD30FreePoly1,0.000000*%
%ADD31FreePoly2,0.000000*%
%ADD32RoundRect,0.100800X-0.050000X-0.350000X0.050000X-0.350000X0.050000X0.350000X-0.050000X0.350000X0*%
%ADD33FreePoly3,0.000000*%
%ADD34FreePoly4,0.000000*%
%ADD35FreePoly5,0.000000*%
%ADD36FreePoly6,0.000000*%
%ADD37FreePoly7,0.000000*%
%ADD38RoundRect,0.050800X-1.325000X-1.325000X1.325000X-1.325000X1.325000X1.325000X-1.325000X1.325000X0*%
%ADD39RoundRect,0.050800X0.450000X0.600000X-0.450000X0.600000X-0.450000X-0.600000X0.450000X-0.600000X0*%
%ADD40RoundRect,0.198300X-0.172500X0.147500X-0.172500X-0.147500X0.172500X-0.147500X0.172500X0.147500X0*%
%ADD41RoundRect,0.050800X-0.600000X0.700000X-0.600000X-0.700000X0.600000X-0.700000X0.600000X0.700000X0*%
%ADD42RoundRect,0.050800X-0.225000X0.300000X-0.225000X-0.300000X0.225000X-0.300000X0.225000X0.300000X0*%
%ADD43RoundRect,0.275800X0.250000X-0.225000X0.250000X0.225000X-0.250000X0.225000X-0.250000X-0.225000X0*%
%ADD44RoundRect,0.275800X-0.250000X0.225000X-0.250000X-0.225000X0.250000X-0.225000X0.250000X0.225000X0*%
%ADD45RoundRect,0.250800X0.275000X-0.200000X0.275000X0.200000X-0.275000X0.200000X-0.275000X-0.200000X0*%
%ADD46RoundRect,0.250800X0.200000X0.275000X-0.200000X0.275000X-0.200000X-0.275000X0.200000X-0.275000X0*%
%ADD47RoundRect,0.275800X0.225000X0.250000X-0.225000X0.250000X-0.225000X-0.250000X0.225000X-0.250000X0*%
%ADD48RoundRect,0.050800X0.225000X-0.300000X0.225000X0.300000X-0.225000X0.300000X-0.225000X-0.300000X0*%
%ADD49RoundRect,0.200800X-0.650000X-0.150000X0.650000X-0.150000X0.650000X0.150000X-0.650000X0.150000X0*%
%ADD50RoundRect,0.250800X-0.200000X-0.275000X0.200000X-0.275000X0.200000X0.275000X-0.200000X0.275000X0*%
%ADD51RoundRect,0.050800X0.300000X0.225000X-0.300000X0.225000X-0.300000X-0.225000X0.300000X-0.225000X0*%
%ADD52RoundRect,0.250800X-0.275000X0.200000X-0.275000X-0.200000X0.275000X-0.200000X0.275000X0.200000X0*%
%ADD53RoundRect,0.300800X0.475000X-0.250000X0.475000X0.250000X-0.475000X0.250000X-0.475000X-0.250000X0*%
%ADD54RoundRect,0.050800X-0.300000X-0.225000X0.300000X-0.225000X0.300000X0.225000X-0.300000X0.225000X0*%
%ADD55RoundRect,0.300800X-0.475000X0.250000X-0.475000X-0.250000X0.475000X-0.250000X0.475000X0.250000X0*%
%ADD56C,2.101600*%
%ADD57RoundRect,0.050800X-0.900000X-0.500000X0.900000X-0.500000X0.900000X0.500000X-0.900000X0.500000X0*%
%ADD58RoundRect,0.050800X-1.000000X-0.500000X1.000000X-0.500000X1.000000X0.500000X-1.000000X0.500000X0*%
%ADD59O,2.821600X3.701600*%
%ADD60RoundRect,0.050800X-0.900000X-0.900000X0.900000X-0.900000X0.900000X0.900000X-0.900000X0.900000X0*%
%ADD61C,1.901600*%
%ADD62RoundRect,0.050800X0.900000X-0.535000X0.900000X0.535000X-0.900000X0.535000X-0.900000X-0.535000X0*%
%ADD63O,1.901600X1.171600*%
%ADD64RoundRect,0.213300X-0.162500X-0.237500X0.162500X-0.237500X0.162500X0.237500X-0.162500X0.237500X0*%
%ADD65RoundRect,0.250800X-0.800000X-0.200000X0.800000X-0.200000X0.800000X0.200000X-0.800000X0.200000X0*%
G04 APERTURE END LIST*
D10*
X83439000Y-74142500D03*
X83439000Y-75717500D03*
D11*
X96190000Y-90170000D03*
X94615000Y-90170000D03*
X96037500Y-107315000D03*
X94462500Y-107315000D03*
X96037500Y-141605000D03*
X94462500Y-141605000D03*
X99847500Y-107315000D03*
X98272500Y-107315000D03*
X99847500Y-109220000D03*
X98272500Y-109220000D03*
X99847500Y-124460000D03*
X98272500Y-124460000D03*
X99847500Y-126365000D03*
X98272500Y-126365000D03*
X109372500Y-98300000D03*
X107797500Y-98300000D03*
X99847500Y-141605000D03*
X98272500Y-141605000D03*
X99847500Y-143510000D03*
X98272500Y-143510000D03*
D10*
X106553000Y-84937500D03*
X106553000Y-86512500D03*
D12*
X91440000Y-151282500D03*
X91440000Y-149707500D03*
X91440000Y-159537500D03*
X91440000Y-157962500D03*
D10*
X93345000Y-157962500D03*
X93345000Y-159537500D03*
X91440000Y-153517500D03*
X91440000Y-155092500D03*
D13*
X108864000Y-73773000D03*
D14*
X115164000Y-76073000D03*
D13*
X108864000Y-76073000D03*
X108864000Y-78373000D03*
D11*
X109772500Y-51876000D03*
X108197500Y-51876000D03*
X106587500Y-51876000D03*
X105012500Y-51876000D03*
D15*
X105012500Y-53400000D03*
X106587500Y-53400000D03*
X108197500Y-53400000D03*
X109772500Y-53400000D03*
D16*
X108125000Y-118745000D03*
X108125000Y-120015000D03*
X108125000Y-121285000D03*
X108125000Y-122555000D03*
X113075000Y-122555000D03*
X113075000Y-121285000D03*
X113075000Y-120015000D03*
X113075000Y-118745000D03*
D17*
X94234000Y-80662500D03*
X94234000Y-82537500D03*
D11*
X112547500Y-92075000D03*
X110972500Y-92075000D03*
D18*
X107901500Y-80899000D03*
X109776500Y-80899000D03*
D17*
X109290000Y-55142500D03*
X109290000Y-57017500D03*
X107315000Y-58600100D03*
X107315000Y-60475100D03*
X107310000Y-55142500D03*
X107310000Y-57017500D03*
X109296200Y-58600100D03*
X109296200Y-60475100D03*
X103352600Y-58600100D03*
X103352600Y-60475100D03*
D15*
X97688300Y-76225400D03*
X99263300Y-76225400D03*
D12*
X87630000Y-155092500D03*
X87630000Y-153517500D03*
X77724000Y-148107500D03*
X77724000Y-146532500D03*
D10*
X77724000Y-154152500D03*
X77724000Y-155727500D03*
D12*
X105410000Y-151282500D03*
X105410000Y-149707500D03*
X89535000Y-151282500D03*
X89535000Y-149707500D03*
D11*
X109372500Y-92075000D03*
X107797500Y-92075000D03*
X115087500Y-104775000D03*
X113512500Y-104775000D03*
X115087500Y-102235000D03*
X113512500Y-102235000D03*
X109372500Y-126365000D03*
X107797500Y-126365000D03*
D10*
X106000000Y-121812500D03*
X106000000Y-123387500D03*
X115200000Y-123512500D03*
X115200000Y-125087500D03*
X106000000Y-118612500D03*
X106000000Y-120187500D03*
X115200000Y-119912500D03*
X115200000Y-121487500D03*
D11*
X99847500Y-92075000D03*
X98272500Y-92075000D03*
X112547500Y-126365000D03*
X110972500Y-126365000D03*
X82702500Y-66675000D03*
X81127500Y-66675000D03*
X99847500Y-90170000D03*
X98272500Y-90170000D03*
D10*
X106300000Y-88112500D03*
X106300000Y-89687500D03*
D16*
X95950000Y-152400000D03*
X95950000Y-153670000D03*
X95950000Y-154940000D03*
X95950000Y-156210000D03*
X100900000Y-156210000D03*
X100900000Y-154940000D03*
X100900000Y-153670000D03*
X100900000Y-152400000D03*
D17*
X105333800Y-58600100D03*
X105333800Y-60475100D03*
X105340000Y-55142500D03*
X105340000Y-57017500D03*
D10*
X105410000Y-153517500D03*
X105410000Y-155092500D03*
X89535000Y-153517500D03*
X89535000Y-155092500D03*
D11*
X100482500Y-149860000D03*
X98907500Y-149860000D03*
D16*
X80075000Y-152400000D03*
X80075000Y-153670000D03*
X80075000Y-154940000D03*
X80075000Y-156210000D03*
X85025000Y-156210000D03*
X85025000Y-154940000D03*
X85025000Y-153670000D03*
X85025000Y-152400000D03*
D18*
X107647500Y-82931000D03*
X109522500Y-82931000D03*
X80596500Y-77825600D03*
X82471500Y-77825600D03*
D11*
X96037500Y-124460000D03*
X94462500Y-124460000D03*
D18*
X86743300Y-59969400D03*
X88618300Y-59969400D03*
D19*
X83360500Y-68453000D03*
X81485500Y-68453000D03*
D20*
X114935000Y-70485000D03*
D21*
X112395000Y-70485000D03*
X114935000Y-67945000D03*
X112395000Y-67945000D03*
X114935000Y-65405000D03*
X112395000Y-65405000D03*
X114935000Y-62865000D03*
X112395000Y-62865000D03*
X114935000Y-60325000D03*
X112395000Y-60325000D03*
X114935000Y-57785000D03*
X112395000Y-57785000D03*
X114935000Y-55245000D03*
X112395000Y-55245000D03*
X114935000Y-52705000D03*
X112395000Y-52705000D03*
D12*
X84150000Y-159537500D03*
X84150000Y-157962500D03*
X99060000Y-159537500D03*
X99060000Y-157962500D03*
X103505000Y-155092500D03*
X103505000Y-153517500D03*
D16*
X108650000Y-84836000D03*
X108650000Y-86106000D03*
X108650000Y-87376000D03*
X108650000Y-88646000D03*
X113600000Y-88646000D03*
X113600000Y-87376000D03*
X113600000Y-86106000D03*
X113600000Y-84836000D03*
D17*
X103350000Y-55142500D03*
X103350000Y-57017500D03*
D11*
X109372500Y-131445000D03*
X107797500Y-131445000D03*
D22*
X110805000Y-152570000D03*
X109855000Y-152570000D03*
X108905000Y-152570000D03*
X108905000Y-154770000D03*
X109855000Y-154770000D03*
X110805000Y-154770000D03*
D23*
X85725000Y-117540000D03*
X84455000Y-117540000D03*
X83185000Y-117540000D03*
X81915000Y-117540000D03*
X81915000Y-122490000D03*
X83185000Y-122490000D03*
X84455000Y-122490000D03*
X85725000Y-122490000D03*
D11*
X85877500Y-90805000D03*
X84302500Y-90805000D03*
X85725000Y-125095000D03*
X84150000Y-125095000D03*
D10*
X77724000Y-157962500D03*
X77724000Y-159537500D03*
X79375000Y-157962500D03*
X79375000Y-159537500D03*
D24*
X78486000Y-52832000D03*
D21*
X81026000Y-52832000D03*
X83566000Y-52832000D03*
X86106000Y-52832000D03*
X88646000Y-52832000D03*
X91186000Y-52832000D03*
D12*
X108585000Y-159537500D03*
X108585000Y-157962500D03*
D25*
X114315000Y-152670000D03*
X113015000Y-152670000D03*
X113665000Y-154670000D03*
D11*
X85242500Y-149860000D03*
X83667500Y-149860000D03*
D26*
X85765000Y-67370000D03*
X85765000Y-67870000D03*
X85765000Y-68370000D03*
X85765000Y-68870000D03*
X85765000Y-69370000D03*
X85765000Y-69870000D03*
X85765000Y-70370000D03*
X85765000Y-70870000D03*
X85765000Y-71370000D03*
X85765000Y-71870000D03*
X85765000Y-72370000D03*
X85765000Y-72870000D03*
X85765000Y-73370000D03*
X85765000Y-73870000D03*
X85765000Y-74370000D03*
X85765000Y-74870000D03*
D27*
X87690000Y-76795000D03*
X88190000Y-76795000D03*
X88690000Y-76795000D03*
X89190000Y-76795000D03*
X89690000Y-76795000D03*
X90190000Y-76795000D03*
X90690000Y-76795000D03*
X91190000Y-76795000D03*
X91690000Y-76795000D03*
X92190000Y-76795000D03*
X92690000Y-76795000D03*
X93190000Y-76795000D03*
X93690000Y-76795000D03*
X94190000Y-76795000D03*
X94690000Y-76795000D03*
X95190000Y-76795000D03*
D26*
X97115000Y-74870000D03*
X97115000Y-74370000D03*
X97115000Y-73870000D03*
X97115000Y-73370000D03*
X97115000Y-72870000D03*
X97115000Y-72370000D03*
X97115000Y-71870000D03*
X97115000Y-71370000D03*
X97115000Y-70870000D03*
X97115000Y-70370000D03*
X97115000Y-69870000D03*
X97115000Y-69370000D03*
X97115000Y-68870000D03*
X97115000Y-68370000D03*
X97115000Y-67870000D03*
X97115000Y-67370000D03*
D27*
X95190000Y-65445000D03*
X94690000Y-65445000D03*
X94190000Y-65445000D03*
X93690000Y-65445000D03*
X93190000Y-65445000D03*
X92690000Y-65445000D03*
X92190000Y-65445000D03*
X91690000Y-65445000D03*
X91190000Y-65445000D03*
X90690000Y-65445000D03*
X90190000Y-65445000D03*
X89690000Y-65445000D03*
X89190000Y-65445000D03*
X88690000Y-65445000D03*
X88190000Y-65445000D03*
X87690000Y-65445000D03*
D28*
X104450000Y-66100000D03*
D29*
X104450000Y-66500000D03*
X104450000Y-66900000D03*
X104450000Y-67300000D03*
X104450000Y-67700000D03*
X104450000Y-68100000D03*
X104450000Y-68500000D03*
D30*
X104450000Y-68900000D03*
D31*
X105000000Y-69450000D03*
D32*
X105400000Y-69450000D03*
X105800000Y-69450000D03*
X106200000Y-69450000D03*
X106600000Y-69450000D03*
X107000000Y-69450000D03*
X107400000Y-69450000D03*
D33*
X107800000Y-69450000D03*
D34*
X108350000Y-68900000D03*
D29*
X108350000Y-68500000D03*
X108350000Y-68100000D03*
X108350000Y-67700000D03*
X108350000Y-67300000D03*
X108350000Y-66900000D03*
X108350000Y-66500000D03*
D35*
X108350000Y-66100000D03*
D36*
X107800000Y-65550000D03*
D32*
X107400000Y-65550000D03*
X107000000Y-65550000D03*
X106600000Y-65550000D03*
X106200000Y-65550000D03*
X105800000Y-65550000D03*
X105400000Y-65550000D03*
D37*
X105000000Y-65550000D03*
D38*
X106400000Y-67500000D03*
D23*
X85725000Y-83250000D03*
X84455000Y-83250000D03*
X83185000Y-83250000D03*
X81915000Y-83250000D03*
X81915000Y-88200000D03*
X83185000Y-88200000D03*
X84455000Y-88200000D03*
X85725000Y-88200000D03*
D10*
X88265000Y-79349500D03*
X88265000Y-80924500D03*
X83185000Y-70967500D03*
X83185000Y-72542500D03*
D39*
X85650000Y-56000000D03*
X82350000Y-56000000D03*
D40*
X82750000Y-63015000D03*
X82750000Y-63985000D03*
X81700000Y-63015000D03*
X81700000Y-63985000D03*
X83820000Y-63015000D03*
X83820000Y-63985000D03*
X79800000Y-63015000D03*
X79800000Y-63985000D03*
D15*
X77870089Y-68669011D03*
X79445089Y-68669011D03*
X77971689Y-74739611D03*
X79546689Y-74739611D03*
D41*
X77883789Y-70566211D03*
X77883789Y-72766211D03*
X79583789Y-72766211D03*
X79583789Y-70566211D03*
D42*
X108100000Y-99850000D03*
X108100000Y-101950000D03*
D43*
X98200000Y-65975000D03*
X98200000Y-64425000D03*
D44*
X104800000Y-62425000D03*
X104800000Y-63975000D03*
D45*
X102700000Y-78625000D03*
X102700000Y-76975000D03*
D46*
X113025000Y-138900000D03*
X111375000Y-138900000D03*
D47*
X94075000Y-78800000D03*
X92525000Y-78800000D03*
D48*
X105900000Y-130250000D03*
X105900000Y-128150000D03*
D46*
X111625000Y-104800000D03*
X109975000Y-104800000D03*
D43*
X109800000Y-65275000D03*
X109800000Y-63725000D03*
D49*
X94090000Y-52165000D03*
X94090000Y-53435000D03*
X94090000Y-54705000D03*
X94090000Y-55975000D03*
X101290000Y-55975000D03*
X101290000Y-54705000D03*
X101290000Y-53435000D03*
X101290000Y-52165000D03*
D50*
X107700000Y-124700000D03*
X109350000Y-124700000D03*
D51*
X109050000Y-137300000D03*
X106950000Y-137300000D03*
D52*
X85300000Y-64173600D03*
X85300000Y-65823600D03*
D44*
X101041200Y-62877400D03*
X101041200Y-64427400D03*
D45*
X100800000Y-75525000D03*
X100800000Y-73875000D03*
X102400000Y-75525000D03*
X102400000Y-73875000D03*
D43*
X106400000Y-63975000D03*
X106400000Y-62425000D03*
D53*
X106000000Y-72850000D03*
X106000000Y-70950000D03*
D43*
X86800000Y-63475000D03*
X86800000Y-61925000D03*
X96700000Y-64554400D03*
X96700000Y-63004400D03*
D45*
X104300000Y-78625000D03*
X104300000Y-76975000D03*
X101000000Y-78625000D03*
X101000000Y-76975000D03*
D54*
X106450000Y-94000000D03*
X108550000Y-94000000D03*
D50*
X107775000Y-90500000D03*
X109425000Y-90500000D03*
D45*
X77241400Y-65112400D03*
X77241400Y-63462400D03*
D42*
X105900000Y-124850000D03*
X105900000Y-126950000D03*
D44*
X103100000Y-52025000D03*
X103100000Y-53575000D03*
D45*
X104000000Y-75525000D03*
X104000000Y-73875000D03*
D48*
X108100000Y-105450000D03*
X108100000Y-103350000D03*
D44*
X99900000Y-69225000D03*
X99900000Y-70775000D03*
D39*
X80750000Y-56000000D03*
X77450000Y-56000000D03*
D54*
X106550000Y-96100000D03*
X108650000Y-96100000D03*
D55*
X92200000Y-80650000D03*
X92200000Y-82550000D03*
D51*
X109050000Y-135200000D03*
X106950000Y-135200000D03*
D56*
X95250000Y-104775000D03*
X95250000Y-111275000D03*
X99750000Y-104775000D03*
X99750000Y-111275000D03*
X95250000Y-121920000D03*
X95250000Y-128420000D03*
X99750000Y-121920000D03*
X99750000Y-128420000D03*
D57*
X111760000Y-148590000D03*
D58*
X111760000Y-159225000D03*
X111760000Y-150925000D03*
D57*
X111760000Y-80010000D03*
D58*
X111760000Y-90645000D03*
X111760000Y-82345000D03*
D56*
X95250000Y-139065000D03*
X95250000Y-145565000D03*
X99750000Y-145565000D03*
X99750000Y-139065000D03*
D57*
X96520000Y-148590000D03*
D58*
X96520000Y-159225000D03*
X96520000Y-150925000D03*
D59*
X88646000Y-85845000D03*
X79046000Y-85845000D03*
D60*
X86346000Y-93345000D03*
D61*
X83846000Y-93345000D03*
X81346000Y-93345000D03*
D59*
X88660000Y-137280000D03*
X79060000Y-137280000D03*
D60*
X86360000Y-144780000D03*
D61*
X83860000Y-144780000D03*
X81360000Y-144780000D03*
D57*
X111760000Y-131445000D03*
D58*
X111760000Y-142080000D03*
X111760000Y-133780000D03*
D57*
X111760000Y-114300000D03*
D58*
X111760000Y-124935000D03*
X111760000Y-116635000D03*
D57*
X111760000Y-97155000D03*
D58*
X111760000Y-107790000D03*
X111760000Y-99490000D03*
D59*
X79060000Y-102990000D03*
X88660000Y-102990000D03*
D60*
X86360000Y-110490000D03*
D61*
X83860000Y-110490000D03*
X81360000Y-110490000D03*
D59*
X79060000Y-120135000D03*
X88660000Y-120135000D03*
D60*
X86360000Y-127635000D03*
D61*
X83860000Y-127635000D03*
X81360000Y-127635000D03*
D56*
X95250000Y-87630000D03*
X95250000Y-94130000D03*
X99750000Y-87630000D03*
X99750000Y-94130000D03*
D57*
X81280000Y-148590000D03*
D58*
X81280000Y-159225000D03*
X81280000Y-150925000D03*
D62*
X97536000Y-84582000D03*
D63*
X97536000Y-83312000D03*
X97536000Y-82042000D03*
X97536000Y-80772000D03*
D62*
X97536000Y-101854000D03*
D63*
X97536000Y-100584000D03*
X97536000Y-99314000D03*
X97536000Y-98044000D03*
D62*
X97536000Y-136144000D03*
D63*
X97536000Y-134874000D03*
X97536000Y-133604000D03*
X97536000Y-132334000D03*
D62*
X97536000Y-118872000D03*
D63*
X97536000Y-117602000D03*
X97536000Y-116332000D03*
X97536000Y-115062000D03*
D64*
X78030000Y-60390000D03*
X78980000Y-60390000D03*
X79930000Y-60390000D03*
X80830000Y-60390000D03*
X81730000Y-60390000D03*
X83580000Y-60390000D03*
X84530000Y-60390000D03*
X84530000Y-58990000D03*
X83580000Y-58990000D03*
X82630000Y-58990000D03*
X81730000Y-58990000D03*
X80830000Y-58990000D03*
X78980000Y-58990000D03*
X78030000Y-58990000D03*
D65*
X83280000Y-57760000D03*
X83280000Y-61630000D03*
X79280000Y-57760000D03*
X79280000Y-61620000D03*
M02*
