G04 #@! TF.GenerationSoftware,KiCad,Pcbnew,6.0.5+dfsg-1*
G04 #@! TF.CreationDate,2022-06-05T16:54:12+02:00*
G04 #@! TF.ProjectId,demiurge,64656d69-7572-4676-952e-6b696361645f,E*
G04 #@! TF.SameCoordinates,Original*
G04 #@! TF.FileFunction,Paste,Top*
G04 #@! TF.FilePolarity,Positive*
%FSLAX46Y46*%
G04 Gerber Fmt 4.6, Leading zero omitted, Abs format (unit mm)*
G04 Created by KiCad (PCBNEW 6.0.5+dfsg-1) date 2022-06-05 16:54:12*
%MOMM*%
%LPD*%
G01*
G04 APERTURE LIST*
G04 Aperture macros list*
%AMRoundRect*
0 Rectangle with rounded corners*
0 $1 Rounding radius*
0 $2 $3 $4 $5 $6 $7 $8 $9 X,Y pos of 4 corners*
0 Add a 4 corners polygon primitive as box body*
4,1,4,$2,$3,$4,$5,$6,$7,$8,$9,$2,$3,0*
0 Add four circle primitives for the rounded corners*
1,1,$1+$1,$2,$3*
1,1,$1+$1,$4,$5*
1,1,$1+$1,$6,$7*
1,1,$1+$1,$8,$9*
0 Add four rect primitives between the rounded corners*
20,1,$1+$1,$2,$3,$4,$5,0*
20,1,$1+$1,$4,$5,$6,$7,0*
20,1,$1+$1,$6,$7,$8,$9,0*
20,1,$1+$1,$8,$9,$2,$3,0*%
G04 Aperture macros list end*
%ADD10RoundRect,0.218750X-0.256250X0.218750X-0.256250X-0.218750X0.256250X-0.218750X0.256250X0.218750X0*%
%ADD11RoundRect,0.218750X0.218750X0.256250X-0.218750X0.256250X-0.218750X-0.256250X0.218750X-0.256250X0*%
%ADD12RoundRect,0.218750X0.256250X-0.218750X0.256250X0.218750X-0.256250X0.218750X-0.256250X-0.218750X0*%
%ADD13R,2.000000X1.500000*%
%ADD14R,2.000000X3.800000*%
%ADD15RoundRect,0.218750X-0.218750X-0.256250X0.218750X-0.256250X0.218750X0.256250X-0.218750X0.256250X0*%
%ADD16RoundRect,0.150000X-0.825000X-0.150000X0.825000X-0.150000X0.825000X0.150000X-0.825000X0.150000X0*%
%ADD17RoundRect,0.243750X-0.456250X0.243750X-0.456250X-0.243750X0.456250X-0.243750X0.456250X0.243750X0*%
%ADD18RoundRect,0.243750X-0.243750X-0.456250X0.243750X-0.456250X0.243750X0.456250X-0.243750X0.456250X0*%
%ADD19RoundRect,0.243750X0.243750X0.456250X-0.243750X0.456250X-0.243750X-0.456250X0.243750X-0.456250X0*%
%ADD20R,0.650000X1.060000*%
%ADD21RoundRect,0.150000X-0.150000X0.825000X-0.150000X-0.825000X0.150000X-0.825000X0.150000X0.825000X0*%
%ADD22R,0.450000X0.700000*%
%ADD23R,3.000000X1.000000*%
%ADD24RoundRect,0.075000X-0.700000X-0.075000X0.700000X-0.075000X0.700000X0.075000X-0.700000X0.075000X0*%
%ADD25RoundRect,0.075000X-0.075000X-0.700000X0.075000X-0.700000X0.075000X0.700000X-0.075000X0.700000X0*%
%ADD26RoundRect,0.165000X-0.165000X-0.165000X0.165000X-0.165000X0.165000X0.165000X-0.165000X0.165000X0*%
%ADD27RoundRect,0.062500X-0.325000X-0.062500X0.325000X-0.062500X0.325000X0.062500X-0.325000X0.062500X0*%
%ADD28RoundRect,0.062500X-0.062500X-0.325000X0.062500X-0.325000X0.062500X0.325000X-0.062500X0.325000X0*%
%ADD29R,0.900000X1.200000*%
%ADD30RoundRect,0.147500X-0.172500X0.147500X-0.172500X-0.147500X0.172500X-0.147500X0.172500X0.147500X0*%
%ADD31R,1.200000X1.400000*%
%ADD32RoundRect,0.150000X-0.650000X-0.150000X0.650000X-0.150000X0.650000X0.150000X-0.650000X0.150000X0*%
%ADD33RoundRect,0.200000X-0.275000X0.200000X-0.275000X-0.200000X0.275000X-0.200000X0.275000X0.200000X0*%
%ADD34RoundRect,0.225000X-0.250000X0.225000X-0.250000X-0.225000X0.250000X-0.225000X0.250000X0.225000X0*%
%ADD35RoundRect,0.225000X0.250000X-0.225000X0.250000X0.225000X-0.250000X0.225000X-0.250000X-0.225000X0*%
%ADD36RoundRect,0.200000X0.275000X-0.200000X0.275000X0.200000X-0.275000X0.200000X-0.275000X-0.200000X0*%
G04 APERTURE END LIST*
D10*
X83439000Y-75717500D03*
X83439000Y-74142500D03*
D11*
X96190000Y-90170000D03*
X94615000Y-90170000D03*
X96037500Y-107315000D03*
X94462500Y-107315000D03*
X96037500Y-141605000D03*
X94462500Y-141605000D03*
X99847500Y-107315000D03*
X98272500Y-107315000D03*
X99847500Y-109220000D03*
X98272500Y-109220000D03*
X99847500Y-124460000D03*
X98272500Y-124460000D03*
X99847500Y-126365000D03*
X98272500Y-126365000D03*
X109372500Y-97155000D03*
X107797500Y-97155000D03*
X99847500Y-141605000D03*
X98272500Y-141605000D03*
X99847500Y-143510000D03*
X98272500Y-143510000D03*
D10*
X106553000Y-86512500D03*
X106553000Y-84937500D03*
D12*
X91440000Y-151282500D03*
X91440000Y-149707500D03*
X91440000Y-159537500D03*
X91440000Y-157962500D03*
D10*
X93345000Y-157962500D03*
X93345000Y-159537500D03*
X91440000Y-153517500D03*
X91440000Y-155092500D03*
D13*
X108864000Y-73773000D03*
D14*
X115164000Y-76073000D03*
D13*
X108864000Y-76073000D03*
X108864000Y-78373000D03*
D11*
X108102500Y-52070000D03*
X106527500Y-52070000D03*
D15*
X103352500Y-52070000D03*
X104927500Y-52070000D03*
X103352500Y-53594000D03*
X104927500Y-53594000D03*
X106527500Y-53594000D03*
X108102500Y-53594000D03*
D16*
X108650000Y-118745000D03*
X108650000Y-120015000D03*
X108650000Y-121285000D03*
X108650000Y-122555000D03*
X113600000Y-122555000D03*
X113600000Y-121285000D03*
X113600000Y-120015000D03*
X113600000Y-118745000D03*
D17*
X94234000Y-79580500D03*
X94234000Y-81455500D03*
D11*
X112547500Y-92075000D03*
X110972500Y-92075000D03*
D18*
X109776500Y-80899000D03*
X107901500Y-80899000D03*
D17*
X109290000Y-57017500D03*
X109290000Y-55142500D03*
X107315000Y-58600100D03*
X107315000Y-60475100D03*
X107310000Y-57017500D03*
X107310000Y-55142500D03*
X109296200Y-58600100D03*
X109296200Y-60475100D03*
X103352600Y-58600100D03*
X103352600Y-60475100D03*
D15*
X97688300Y-76225400D03*
X99263300Y-76225400D03*
D12*
X87630000Y-155092500D03*
X87630000Y-153517500D03*
X77724000Y-148107500D03*
X77724000Y-146532500D03*
D10*
X77724000Y-154152500D03*
X77724000Y-155727500D03*
D12*
X105410000Y-151282500D03*
X105410000Y-149707500D03*
X89535000Y-151282500D03*
X89535000Y-149707500D03*
D11*
X109372500Y-92075000D03*
X107797500Y-92075000D03*
D15*
X113512500Y-104775000D03*
X115087500Y-104775000D03*
D11*
X115087500Y-102235000D03*
X113512500Y-102235000D03*
X109372500Y-126365000D03*
X107797500Y-126365000D03*
D15*
X107797500Y-124460000D03*
X109372500Y-124460000D03*
X113512500Y-139065000D03*
X115087500Y-139065000D03*
D11*
X109372500Y-116840000D03*
X107797500Y-116840000D03*
X115087500Y-136525000D03*
X113512500Y-136525000D03*
X99847500Y-92075000D03*
X98272500Y-92075000D03*
X112547500Y-126365000D03*
X110972500Y-126365000D03*
X81127500Y-66675000D03*
X82702500Y-66675000D03*
X99847500Y-90170000D03*
X98272500Y-90170000D03*
D15*
X107797500Y-90424000D03*
X109372500Y-90424000D03*
D16*
X95950000Y-152400000D03*
X95950000Y-153670000D03*
X95950000Y-154940000D03*
X95950000Y-156210000D03*
X100900000Y-156210000D03*
X100900000Y-154940000D03*
X100900000Y-153670000D03*
X100900000Y-152400000D03*
D17*
X105333800Y-58600100D03*
X105333800Y-60475100D03*
X105340000Y-55142500D03*
X105340000Y-57017500D03*
D10*
X101473000Y-157962500D03*
X101473000Y-159537500D03*
X105410000Y-153517500D03*
X105410000Y-155092500D03*
X89535000Y-153517500D03*
X89535000Y-155092500D03*
D11*
X100482500Y-149860000D03*
X98907500Y-149860000D03*
D16*
X80075000Y-152400000D03*
X80075000Y-153670000D03*
X80075000Y-154940000D03*
X80075000Y-156210000D03*
X85025000Y-156210000D03*
X85025000Y-154940000D03*
X85025000Y-153670000D03*
X85025000Y-152400000D03*
D18*
X109522500Y-82931000D03*
X107647500Y-82931000D03*
X82471500Y-77825600D03*
X80596500Y-77825600D03*
D11*
X96037500Y-124460000D03*
X94462500Y-124460000D03*
D18*
X86743300Y-59969400D03*
X88618300Y-59969400D03*
D19*
X81485500Y-68453000D03*
X83360500Y-68453000D03*
D12*
X84150000Y-159537500D03*
X84150000Y-157962500D03*
X99060000Y-159537500D03*
X99060000Y-157962500D03*
X103505000Y-155092500D03*
X103505000Y-153517500D03*
D10*
X85725000Y-157962500D03*
X85725000Y-159537500D03*
D16*
X108650000Y-84836000D03*
X108650000Y-86106000D03*
X108650000Y-87376000D03*
X108650000Y-88646000D03*
X113600000Y-88646000D03*
X113600000Y-87376000D03*
X113600000Y-86106000D03*
X113600000Y-84836000D03*
D17*
X103350000Y-55142500D03*
X103350000Y-57017500D03*
D11*
X109372500Y-131445000D03*
X107797500Y-131445000D03*
D20*
X110805000Y-152570000D03*
X109855000Y-152570000D03*
X108905000Y-152570000D03*
X108905000Y-154770000D03*
X109855000Y-154770000D03*
X110805000Y-154770000D03*
D21*
X85725000Y-117540000D03*
X84455000Y-117540000D03*
X83185000Y-117540000D03*
X81915000Y-117540000D03*
X81915000Y-122490000D03*
X83185000Y-122490000D03*
X84455000Y-122490000D03*
X85725000Y-122490000D03*
D11*
X85877500Y-90805000D03*
X84302500Y-90805000D03*
X85725000Y-125095000D03*
X84150000Y-125095000D03*
D10*
X77724000Y-157962500D03*
X77724000Y-159537500D03*
X79375000Y-157962500D03*
X79375000Y-159537500D03*
D12*
X108585000Y-159537500D03*
X108585000Y-157962500D03*
D22*
X114315000Y-152670000D03*
X113015000Y-152670000D03*
X113665000Y-154670000D03*
D11*
X85242500Y-149860000D03*
X83667500Y-149860000D03*
D23*
X113665000Y-109855000D03*
X108625000Y-109855000D03*
X113665000Y-112395000D03*
X108625000Y-112395000D03*
D24*
X85765000Y-67370000D03*
X85765000Y-67870000D03*
X85765000Y-68370000D03*
X85765000Y-68870000D03*
X85765000Y-69370000D03*
X85765000Y-69870000D03*
X85765000Y-70370000D03*
X85765000Y-70870000D03*
X85765000Y-71370000D03*
X85765000Y-71870000D03*
X85765000Y-72370000D03*
X85765000Y-72870000D03*
X85765000Y-73370000D03*
X85765000Y-73870000D03*
X85765000Y-74370000D03*
X85765000Y-74870000D03*
D25*
X87690000Y-76795000D03*
X88190000Y-76795000D03*
X88690000Y-76795000D03*
X89190000Y-76795000D03*
X89690000Y-76795000D03*
X90190000Y-76795000D03*
X90690000Y-76795000D03*
X91190000Y-76795000D03*
X91690000Y-76795000D03*
X92190000Y-76795000D03*
X92690000Y-76795000D03*
X93190000Y-76795000D03*
X93690000Y-76795000D03*
X94190000Y-76795000D03*
X94690000Y-76795000D03*
X95190000Y-76795000D03*
D24*
X97115000Y-74870000D03*
X97115000Y-74370000D03*
X97115000Y-73870000D03*
X97115000Y-73370000D03*
X97115000Y-72870000D03*
X97115000Y-72370000D03*
X97115000Y-71870000D03*
X97115000Y-71370000D03*
X97115000Y-70870000D03*
X97115000Y-70370000D03*
X97115000Y-69870000D03*
X97115000Y-69370000D03*
X97115000Y-68870000D03*
X97115000Y-68370000D03*
X97115000Y-67870000D03*
X97115000Y-67370000D03*
D25*
X95190000Y-65445000D03*
X94690000Y-65445000D03*
X94190000Y-65445000D03*
X93690000Y-65445000D03*
X93190000Y-65445000D03*
X92690000Y-65445000D03*
X92190000Y-65445000D03*
X91690000Y-65445000D03*
X91190000Y-65445000D03*
X90690000Y-65445000D03*
X90190000Y-65445000D03*
X89690000Y-65445000D03*
X89190000Y-65445000D03*
X88690000Y-65445000D03*
X88190000Y-65445000D03*
X87690000Y-65445000D03*
D26*
X105537000Y-64744600D03*
X105537000Y-63924600D03*
X106357000Y-64744600D03*
X106357000Y-65564600D03*
X105537000Y-65564600D03*
X104717000Y-63924600D03*
X106357000Y-63924600D03*
X104717000Y-65564600D03*
X104717000Y-64744600D03*
D27*
X103549500Y-63494600D03*
X103549500Y-63994600D03*
X103549500Y-64494600D03*
X103549500Y-64994600D03*
X103549500Y-65494600D03*
X103549500Y-65994600D03*
D28*
X104287000Y-66732100D03*
X104787000Y-66732100D03*
X105287000Y-66732100D03*
X105787000Y-66732100D03*
X106287000Y-66732100D03*
X106787000Y-66732100D03*
D27*
X107524500Y-65994600D03*
X107524500Y-65494600D03*
X107524500Y-64994600D03*
X107524500Y-64494600D03*
X107524500Y-63994600D03*
X107524500Y-63494600D03*
D28*
X106787000Y-62757100D03*
X106287000Y-62757100D03*
X105787000Y-62757100D03*
X105287000Y-62757100D03*
X104787000Y-62757100D03*
X104287000Y-62757100D03*
D21*
X85725000Y-83250000D03*
X84455000Y-83250000D03*
X83185000Y-83250000D03*
X81915000Y-83250000D03*
X81915000Y-88200000D03*
X83185000Y-88200000D03*
X84455000Y-88200000D03*
X85725000Y-88200000D03*
D10*
X88265000Y-79349500D03*
X88265000Y-80924500D03*
X83185000Y-70967500D03*
X83185000Y-72542500D03*
D29*
X86409800Y-55930800D03*
X83109800Y-55930800D03*
D30*
X82750000Y-63015000D03*
X82750000Y-63985000D03*
X81700000Y-63015000D03*
X81700000Y-63985000D03*
X83820000Y-63015000D03*
X83820000Y-63985000D03*
X78740000Y-63015000D03*
X78740000Y-63985000D03*
D15*
X77870089Y-68669011D03*
X79445089Y-68669011D03*
X77971689Y-74739611D03*
X79546689Y-74739611D03*
D31*
X77883789Y-70566211D03*
X77883789Y-72766211D03*
X79583789Y-72766211D03*
X79583789Y-70566211D03*
D32*
X90888000Y-52197000D03*
X90888000Y-53467000D03*
X90888000Y-54737000D03*
X90888000Y-56007000D03*
X98088000Y-56007000D03*
X98088000Y-54737000D03*
X98088000Y-53467000D03*
X98088000Y-52197000D03*
D33*
X85217000Y-64173600D03*
X85217000Y-65823600D03*
D34*
X101041200Y-62877400D03*
X101041200Y-64427400D03*
D35*
X87680800Y-63487600D03*
X87680800Y-61937600D03*
X97155000Y-64554400D03*
X97155000Y-63004400D03*
D36*
X77241400Y-65112400D03*
X77241400Y-63462400D03*
D34*
X100177600Y-51942400D03*
X100177600Y-53492400D03*
D35*
X99350000Y-71425000D03*
X99350000Y-69875000D03*
M02*
