M48
; DRILL file {KiCad 6.0.5+dfsg-1} date Sun 05 Jun 2022 04:54:08 PM CEST
; FORMAT={-:-/ absolute / metric / decimal}
; #@! TF.CreationDate,2022-06-05T16:54:08+02:00
; #@! TF.GenerationSoftware,Kicad,Pcbnew,6.0.5+dfsg-1
; #@! TF.FileFunction,Plated,1,2,PTH
FMAT,2
METRIC
; #@! TA.AperFunction,Plated,PTH,ViaDrill
T1C0.200
; #@! TA.AperFunction,Plated,PTH,ViaDrill
T2C0.400
; #@! TA.AperFunction,Plated,PTH,ComponentDrill
T3C0.400
; #@! TA.AperFunction,Plated,PTH,ComponentDrill
T4C0.500
; #@! TA.AperFunction,Plated,PTH,ViaDrill
T5C0.600
; #@! TA.AperFunction,Plated,PTH,ComponentDrill
T6C0.600
; #@! TA.AperFunction,Plated,PTH,ViaDrill
T7C0.800
; #@! TA.AperFunction,Plated,PTH,ComponentDrill
T8C0.800
; #@! TA.AperFunction,Plated,PTH,ComponentDrill
T9C1.000
; #@! TA.AperFunction,Plated,PTH,ComponentDrill
T10C1.100
%
G90
G05
T1
X77.089Y-66.2
X77.47Y-79.375
X77.47Y-80.645
X81.85Y-64.95
X82.15Y-71.0
X82.55Y-64.738
X84.455Y-66.599
X87.224Y-69.393
X87.412Y-54.582
X87.997Y-75.503
X88.214Y-69.469
X88.3Y-81.9
X89.1Y-89.6
X89.361Y-79.507
X89.732Y-78.409
X89.824Y-89.524
X90.094Y-69.012
X90.4Y-78.5
X90.4Y-106.7
X90.858Y-79.39
X90.974Y-68.944
X91.1Y-106.5
X91.77Y-69.342
X92.075Y-73.025
X92.075Y-74.295
X93.091Y-63.475
X93.285Y-73.72
X93.783Y-64.078
X93.851Y-66.677
X93.939Y-75.077
X94.234Y-63.5
X94.361Y-70.643
X94.5Y-59.7
X94.666Y-54.381
X94.824Y-52.953
X95.25Y-69.85
X95.504Y-59.766
X95.833Y-54.28
X96.317Y-52.857
X96.622Y-53.848
X97.9Y-59.5
X98.247Y-56.82
X98.667Y-60.592
X98.876Y-59.537
X99.113Y-54.515
X99.916Y-61.194
X100.101Y-54.356
X100.374Y-59.341
X100.73Y-65.25
X100.863Y-61.798
X101.168Y-59.487
X101.168Y-60.477
X101.473Y-61.396
X101.803Y-63.652
X102.01Y-62.299
X104.745Y-82.55
X104.965Y-81.544
X105.0Y-109.4
X105.243Y-108.112
X105.537Y-64.745
X105.703Y-62.027
X105.752Y-84.963
X106.883Y-81.864
X107.366Y-85.42
X107.38Y-62.93
X109.601Y-62.611
T2
X77.7Y-157.0
X78.105Y-140.97
X78.308Y-65.405
X78.74Y-100.076
X78.9Y-77.8
X78.9Y-81.7
X80.45Y-68.4
X80.797Y-79.705
X81.28Y-112.395
X81.28Y-129.54
X81.458Y-73.228
X81.534Y-155.702
X81.792Y-85.344
X82.194Y-55.931
X82.702Y-67.539
X82.8Y-156.5
X82.9Y-138.3
X82.931Y-153.289
X83.5Y-77.8
X83.693Y-151.13
X83.82Y-147.32
X84.455Y-112.395
X85.09Y-138.43
X85.09Y-147.32
X85.09Y-151.13
X86.0Y-77.0
X86.665Y-79.705
X86.741Y-156.464
X87.63Y-129.54
X88.0Y-72.9
X88.2Y-91.4
X88.2Y-93.6
X89.4Y-126.6
X89.4Y-128.6
X89.6Y-142.4
X89.6Y-144.4
X90.3Y-160.0
X90.4Y-108.2
X90.4Y-110.6
X91.1Y-113.5
X91.1Y-130.1
X91.1Y-137.2
X91.1Y-142.4
X91.1Y-144.4
X92.1Y-63.0
X92.6Y-87.6
X92.7Y-81.4
X93.4Y-142.4
X93.4Y-144.4
X93.6Y-137.2
X94.158Y-68.961
X94.8Y-113.4
X95.2Y-108.2
X95.2Y-125.4
X95.326Y-78.994
X96.241Y-63.271
X96.992Y-143.453
X97.1Y-109.2
X97.155Y-126.365
X97.3Y-93.0
X97.917Y-153.543
X98.298Y-150.876
X98.374Y-77.368
X98.9Y-69.2
X98.9Y-72.25
X99.06Y-97.155
X99.06Y-147.955
X99.06Y-156.21
X100.0Y-85.8
X100.215Y-55.294
X100.33Y-147.955
X101.168Y-54.356
X101.2Y-99.6
X101.2Y-101.6
X101.2Y-108.2
X101.8Y-116.6
X101.8Y-118.4
X102.108Y-149.987
X102.2Y-142.6
X102.2Y-144.6
X102.362Y-152.273
X102.4Y-133.6
X102.4Y-135.8
X104.135Y-100.33
X104.14Y-109.22
X104.14Y-117.475
X104.14Y-126.365
X104.14Y-134.62
X104.14Y-143.51
X104.15Y-56.04
X104.2Y-94.5
X106.081Y-75.842
X106.081Y-77.259
X106.68Y-159.385
X106.773Y-83.872
X107.4Y-94.6
X107.95Y-127.635
X110.414Y-88.722
X110.9Y-122.5
X111.125Y-74.041
X111.125Y-75.946
X111.125Y-77.851
X111.125Y-93.345
X111.125Y-127.635
X111.125Y-153.67
X111.76Y-84.455
X111.8Y-145.6
X112.0Y-119.38
X112.395Y-74.041
X112.395Y-75.946
X112.395Y-77.851
X112.395Y-93.345
X112.395Y-127.635
X113.572Y-151.13
X113.665Y-74.041
X113.665Y-75.946
X113.665Y-77.851
X114.71Y-111.08
T3
X78.03Y-58.99
X78.03Y-60.39
X78.98Y-58.99
X78.98Y-60.39
X79.93Y-60.39
X80.83Y-58.99
X80.83Y-60.39
X81.73Y-58.99
X81.73Y-60.39
X82.63Y-58.99
X83.58Y-58.99
X83.58Y-60.39
X84.53Y-58.99
X84.53Y-60.39
T5
X90.932Y-147.574
T7
X91.3Y-89.9
T8
X97.536Y-80.772
X97.536Y-82.042
X97.536Y-83.312
X97.536Y-84.582
X97.536Y-98.044
X97.536Y-99.314
X97.536Y-100.584
X97.536Y-101.854
X97.536Y-115.062
X97.536Y-116.332
X97.536Y-117.602
X97.536Y-118.872
X97.536Y-132.334
X97.536Y-133.604
X97.536Y-134.874
X97.536Y-136.144
T9
X78.486Y-52.832
X81.026Y-52.832
X81.346Y-93.345
X81.36Y-110.49
X81.36Y-127.635
X81.36Y-144.78
X83.566Y-52.832
X83.846Y-93.345
X83.86Y-110.49
X83.86Y-127.635
X83.86Y-144.78
X86.106Y-52.832
X86.346Y-93.345
X86.36Y-110.49
X86.36Y-127.635
X86.36Y-144.78
X112.395Y-52.705
X112.395Y-55.245
X112.395Y-57.785
X112.395Y-60.325
X112.395Y-62.865
X112.395Y-65.405
X112.395Y-67.945
X112.395Y-70.485
X114.935Y-52.705
X114.935Y-55.245
X114.935Y-57.785
X114.935Y-60.325
X114.935Y-62.865
X114.935Y-65.405
X114.935Y-67.945
X114.935Y-70.485
T10
X95.25Y-87.63
X95.25Y-94.13
X95.25Y-104.775
X95.25Y-111.275
X95.25Y-121.92
X95.25Y-128.42
X95.25Y-139.065
X95.25Y-145.565
X99.75Y-87.63
X99.75Y-94.13
X99.75Y-104.775
X99.75Y-111.275
X99.75Y-121.92
X99.75Y-128.42
X99.75Y-139.065
X99.75Y-145.565
T4
G00X78.83Y-57.76
M15
G01X79.73Y-57.76
M16
G05
G00X78.83Y-61.62
M15
G01X79.73Y-61.62
M16
G05
G00X80.78Y-159.225
M15
G01X81.78Y-159.225
M16
G05
G00X82.83Y-57.76
M15
G01X83.73Y-57.76
M16
G05
G00X82.83Y-61.63
M15
G01X83.73Y-61.63
M16
G05
G00X96.02Y-159.225
M15
G01X97.02Y-159.225
M16
G05
G00X111.26Y-90.645
M15
G01X112.26Y-90.645
M16
G05
G00X111.26Y-107.79
M15
G01X112.26Y-107.79
M16
G05
G00X111.26Y-124.935
M15
G01X112.26Y-124.935
M16
G05
G00X111.26Y-142.08
M15
G01X112.26Y-142.08
M16
G05
G00X111.26Y-159.225
M15
G01X112.26Y-159.225
M16
G05
T6
G00X80.93Y-148.59
M15
G01X81.63Y-148.59
M16
G05
G00X80.83Y-150.925
M15
G01X81.73Y-150.925
M16
G05
G00X96.17Y-148.59
M15
G01X96.87Y-148.59
M16
G05
G00X96.07Y-150.925
M15
G01X96.97Y-150.925
M16
G05
G00X111.41Y-80.01
M15
G01X112.11Y-80.01
M16
G05
G00X111.31Y-82.345
M15
G01X112.21Y-82.345
M16
G05
G00X111.41Y-97.155
M15
G01X112.11Y-97.155
M16
G05
G00X111.31Y-99.49
M15
G01X112.21Y-99.49
M16
G05
G00X111.41Y-114.3
M15
G01X112.11Y-114.3
M16
G05
G00X111.31Y-116.635
M15
G01X112.21Y-116.635
M16
G05
G00X111.41Y-131.445
M15
G01X112.11Y-131.445
M16
G05
G00X111.31Y-133.78
M15
G01X112.21Y-133.78
M16
G05
G00X111.41Y-148.59
M15
G01X112.11Y-148.59
M16
G05
G00X111.31Y-150.925
M15
G01X112.21Y-150.925
M16
G05
T10
G00X79.046Y-85.345
M15
G01X79.046Y-86.345
M16
G05
G00X79.06Y-102.49
M15
G01X79.06Y-103.49
M16
G05
G00X79.06Y-119.635
M15
G01X79.06Y-120.635
M16
G05
G00X79.06Y-136.78
M15
G01X79.06Y-137.78
M16
G05
G00X88.646Y-85.345
M15
G01X88.646Y-86.345
M16
G05
G00X88.66Y-102.49
M15
G01X88.66Y-103.49
M16
G05
G00X88.66Y-119.635
M15
G01X88.66Y-120.635
M16
G05
G00X88.66Y-136.78
M15
G01X88.66Y-137.78
M16
G05
T0
M30
