G04 #@! TF.GenerationSoftware,KiCad,Pcbnew,6.0.6+dfsg-1*
G04 #@! TF.CreationDate,2022-08-11T12:18:57+02:00*
G04 #@! TF.ProjectId,demiurge-panel_template,64656d69-7572-4676-952d-70616e656c5f,F*
G04 #@! TF.SameCoordinates,Original*
G04 #@! TF.FileFunction,Legend,Bot*
G04 #@! TF.FilePolarity,Positive*
%FSLAX46Y46*%
G04 Gerber Fmt 4.6, Leading zero omitted, Abs format (unit mm)*
G04 Created by KiCad (PCBNEW 6.0.6+dfsg-1) date 2022-08-11 12:18:57*
%MOMM*%
%LPD*%
G01*
G04 APERTURE LIST*
%ADD10C,0.300000*%
%ADD11C,0.150000*%
G04 APERTURE END LIST*
D10*
X103990476Y-66123072D02*
X103990476Y-64123072D01*
X103514285Y-64123072D01*
X103228571Y-64218311D01*
X103038095Y-64408787D01*
X102942857Y-64599263D01*
X102847619Y-64980215D01*
X102847619Y-65265930D01*
X102942857Y-65646882D01*
X103038095Y-65837358D01*
X103228571Y-66027834D01*
X103514285Y-66123072D01*
X103990476Y-66123072D01*
X101228571Y-66027834D02*
X101419047Y-66123072D01*
X101800000Y-66123072D01*
X101990476Y-66027834D01*
X102085714Y-65837358D01*
X102085714Y-65075453D01*
X101990476Y-64884977D01*
X101800000Y-64789739D01*
X101419047Y-64789739D01*
X101228571Y-64884977D01*
X101133333Y-65075453D01*
X101133333Y-65265930D01*
X102085714Y-65456406D01*
X100276190Y-66123072D02*
X100276190Y-64789739D01*
X100276190Y-64980215D02*
X100180952Y-64884977D01*
X99990476Y-64789739D01*
X99704761Y-64789739D01*
X99514285Y-64884977D01*
X99419047Y-65075453D01*
X99419047Y-66123072D01*
X99419047Y-65075453D02*
X99323809Y-64884977D01*
X99133333Y-64789739D01*
X98847619Y-64789739D01*
X98657142Y-64884977D01*
X98561904Y-65075453D01*
X98561904Y-66123072D01*
X97609523Y-66123072D02*
X97609523Y-64789739D01*
X97609523Y-64123072D02*
X97704761Y-64218311D01*
X97609523Y-64313549D01*
X97514285Y-64218311D01*
X97609523Y-64123072D01*
X97609523Y-64313549D01*
X95800000Y-64789739D02*
X95800000Y-66123072D01*
X96657142Y-64789739D02*
X96657142Y-65837358D01*
X96561904Y-66027834D01*
X96371428Y-66123072D01*
X96085714Y-66123072D01*
X95895238Y-66027834D01*
X95800000Y-65932596D01*
X94847619Y-66123072D02*
X94847619Y-64789739D01*
X94847619Y-65170691D02*
X94752380Y-64980215D01*
X94657142Y-64884977D01*
X94466666Y-64789739D01*
X94276190Y-64789739D01*
X92752380Y-64789739D02*
X92752380Y-66408787D01*
X92847619Y-66599263D01*
X92942857Y-66694501D01*
X93133333Y-66789739D01*
X93419047Y-66789739D01*
X93609523Y-66694501D01*
X92752380Y-66027834D02*
X92942857Y-66123072D01*
X93323809Y-66123072D01*
X93514285Y-66027834D01*
X93609523Y-65932596D01*
X93704761Y-65742120D01*
X93704761Y-65170691D01*
X93609523Y-64980215D01*
X93514285Y-64884977D01*
X93323809Y-64789739D01*
X92942857Y-64789739D01*
X92752380Y-64884977D01*
X91038095Y-66027834D02*
X91228571Y-66123072D01*
X91609523Y-66123072D01*
X91800000Y-66027834D01*
X91895238Y-65837358D01*
X91895238Y-65075453D01*
X91800000Y-64884977D01*
X91609523Y-64789739D01*
X91228571Y-64789739D01*
X91038095Y-64884977D01*
X90942857Y-65075453D01*
X90942857Y-65265930D01*
X91895238Y-65456406D01*
X87514285Y-66123072D02*
X88657142Y-66123072D01*
X88085714Y-66123072D02*
X88085714Y-64123072D01*
X88276190Y-64408787D01*
X88466666Y-64599263D01*
X88657142Y-64694501D01*
X103466666Y-69343072D02*
X103466666Y-67343072D01*
X102990476Y-67343072D01*
X102704761Y-67438311D01*
X102514285Y-67628787D01*
X102419047Y-67819263D01*
X102323809Y-68200215D01*
X102323809Y-68485930D01*
X102419047Y-68866882D01*
X102514285Y-69057358D01*
X102704761Y-69247834D01*
X102990476Y-69343072D01*
X103466666Y-69343072D01*
X100704761Y-69247834D02*
X100895238Y-69343072D01*
X101276190Y-69343072D01*
X101466666Y-69247834D01*
X101561904Y-69057358D01*
X101561904Y-68295453D01*
X101466666Y-68104977D01*
X101276190Y-68009739D01*
X100895238Y-68009739D01*
X100704761Y-68104977D01*
X100609523Y-68295453D01*
X100609523Y-68485930D01*
X101561904Y-68676406D01*
X99942857Y-68009739D02*
X99466666Y-69343072D01*
X98990476Y-68009739D01*
X96704761Y-69343072D02*
X96704761Y-67343072D01*
X95561904Y-69343072D02*
X96419047Y-68200215D01*
X95561904Y-67343072D02*
X96704761Y-68485930D01*
X94704761Y-69343072D02*
X94704761Y-68009739D01*
X94704761Y-67343072D02*
X94800000Y-67438311D01*
X94704761Y-67533549D01*
X94609523Y-67438311D01*
X94704761Y-67343072D01*
X94704761Y-67533549D01*
X94038095Y-68009739D02*
X93276190Y-68009739D01*
X93752380Y-67343072D02*
X93752380Y-69057358D01*
X93657142Y-69247834D01*
X93466666Y-69343072D01*
X93276190Y-69343072D01*
X91085714Y-69343072D02*
X91085714Y-67343072D01*
X90609523Y-67343072D01*
X90323809Y-67438311D01*
X90133333Y-67628787D01*
X90038095Y-67819263D01*
X89942857Y-68200215D01*
X89942857Y-68485930D01*
X90038095Y-68866882D01*
X90133333Y-69057358D01*
X90323809Y-69247834D01*
X90609523Y-69343072D01*
X91085714Y-69343072D01*
X88038095Y-69343072D02*
X89180952Y-69343072D01*
X88609523Y-69343072D02*
X88609523Y-67343072D01*
X88800000Y-67628787D01*
X88990476Y-67819263D01*
X89180952Y-67914501D01*
X112642857Y-50685000D02*
X111214285Y-50685000D01*
X112928571Y-51542142D02*
X111928571Y-48542142D01*
X110928571Y-51542142D01*
X110214285Y-49542142D02*
X109642857Y-51542142D01*
X109071428Y-50113571D01*
X108500000Y-51542142D01*
X107928571Y-49542142D01*
X105642857Y-51399285D02*
X105928571Y-51542142D01*
X106500000Y-51542142D01*
X106785714Y-51399285D01*
X106928571Y-51113571D01*
X106928571Y-49970714D01*
X106785714Y-49685000D01*
X106500000Y-49542142D01*
X105928571Y-49542142D01*
X105642857Y-49685000D01*
X105500000Y-49970714D01*
X105500000Y-50256428D01*
X106928571Y-50542142D01*
X104357142Y-51399285D02*
X104071428Y-51542142D01*
X103500000Y-51542142D01*
X103214285Y-51399285D01*
X103071428Y-51113571D01*
X103071428Y-50970714D01*
X103214285Y-50685000D01*
X103500000Y-50542142D01*
X103928571Y-50542142D01*
X104214285Y-50399285D01*
X104357142Y-50113571D01*
X104357142Y-49970714D01*
X104214285Y-49685000D01*
X103928571Y-49542142D01*
X103500000Y-49542142D01*
X103214285Y-49685000D01*
X101357142Y-51542142D02*
X101642857Y-51399285D01*
X101785714Y-51256428D01*
X101928571Y-50970714D01*
X101928571Y-50113571D01*
X101785714Y-49827857D01*
X101642857Y-49685000D01*
X101357142Y-49542142D01*
X100928571Y-49542142D01*
X100642857Y-49685000D01*
X100500000Y-49827857D01*
X100357142Y-50113571D01*
X100357142Y-50970714D01*
X100500000Y-51256428D01*
X100642857Y-51399285D01*
X100928571Y-51542142D01*
X101357142Y-51542142D01*
X99071428Y-51542142D02*
X99071428Y-49542142D01*
X99071428Y-49827857D02*
X98928571Y-49685000D01*
X98642857Y-49542142D01*
X98214285Y-49542142D01*
X97928571Y-49685000D01*
X97785714Y-49970714D01*
X97785714Y-51542142D01*
X97785714Y-49970714D02*
X97642857Y-49685000D01*
X97357142Y-49542142D01*
X96928571Y-49542142D01*
X96642857Y-49685000D01*
X96500000Y-49970714D01*
X96500000Y-51542142D01*
X93928571Y-51399285D02*
X94214285Y-51542142D01*
X94785714Y-51542142D01*
X95071428Y-51399285D01*
X95214285Y-51113571D01*
X95214285Y-49970714D01*
X95071428Y-49685000D01*
X94785714Y-49542142D01*
X94214285Y-49542142D01*
X93928571Y-49685000D01*
X93785714Y-49970714D01*
X93785714Y-50256428D01*
X95214285Y-50542142D01*
X90357142Y-50685000D02*
X88928571Y-50685000D01*
X90642857Y-51542142D02*
X89642857Y-48542142D01*
X88642857Y-51542142D01*
X86357142Y-49542142D02*
X86357142Y-51542142D01*
X87642857Y-49542142D02*
X87642857Y-51113571D01*
X87500000Y-51399285D01*
X87214285Y-51542142D01*
X86785714Y-51542142D01*
X86500000Y-51399285D01*
X86357142Y-51256428D01*
X83642857Y-51542142D02*
X83642857Y-48542142D01*
X83642857Y-51399285D02*
X83928571Y-51542142D01*
X84500000Y-51542142D01*
X84785714Y-51399285D01*
X84928571Y-51256428D01*
X85071428Y-50970714D01*
X85071428Y-50113571D01*
X84928571Y-49827857D01*
X84785714Y-49685000D01*
X84500000Y-49542142D01*
X83928571Y-49542142D01*
X83642857Y-49685000D01*
X82214285Y-51542142D02*
X82214285Y-49542142D01*
X82214285Y-48542142D02*
X82357142Y-48685000D01*
X82214285Y-48827857D01*
X82071428Y-48685000D01*
X82214285Y-48542142D01*
X82214285Y-48827857D01*
X80357142Y-51542142D02*
X80642857Y-51399285D01*
X80785714Y-51256428D01*
X80928571Y-50970714D01*
X80928571Y-50113571D01*
X80785714Y-49827857D01*
X80642857Y-49685000D01*
X80357142Y-49542142D01*
X79928571Y-49542142D01*
X79642857Y-49685000D01*
X79500000Y-49827857D01*
X79357142Y-50113571D01*
X79357142Y-50970714D01*
X79500000Y-51256428D01*
X79642857Y-51399285D01*
X79928571Y-51542142D01*
X80357142Y-51542142D01*
X106500000Y-55515000D02*
X105071428Y-55515000D01*
X106785714Y-56372142D02*
X105785714Y-53372142D01*
X104785714Y-56372142D01*
X103785714Y-54372142D02*
X103785714Y-57372142D01*
X103785714Y-54515000D02*
X103500000Y-54372142D01*
X102928571Y-54372142D01*
X102642857Y-54515000D01*
X102500000Y-54657857D01*
X102357142Y-54943571D01*
X102357142Y-55800714D01*
X102500000Y-56086428D01*
X102642857Y-56229285D01*
X102928571Y-56372142D01*
X103500000Y-56372142D01*
X103785714Y-56229285D01*
X101071428Y-54372142D02*
X101071428Y-57372142D01*
X101071428Y-54515000D02*
X100785714Y-54372142D01*
X100214285Y-54372142D01*
X99928571Y-54515000D01*
X99785714Y-54657857D01*
X99642857Y-54943571D01*
X99642857Y-55800714D01*
X99785714Y-56086428D01*
X99928571Y-56229285D01*
X100214285Y-56372142D01*
X100785714Y-56372142D01*
X101071428Y-56229285D01*
X97071428Y-56372142D02*
X97071428Y-54800714D01*
X97214285Y-54515000D01*
X97500000Y-54372142D01*
X98071428Y-54372142D01*
X98357142Y-54515000D01*
X97071428Y-56229285D02*
X97357142Y-56372142D01*
X98071428Y-56372142D01*
X98357142Y-56229285D01*
X98500000Y-55943571D01*
X98500000Y-55657857D01*
X98357142Y-55372142D01*
X98071428Y-55229285D01*
X97357142Y-55229285D01*
X97071428Y-55086428D01*
X95642857Y-56372142D02*
X95642857Y-54372142D01*
X95642857Y-54943571D02*
X95500000Y-54657857D01*
X95357142Y-54515000D01*
X95071428Y-54372142D01*
X94785714Y-54372142D01*
X92500000Y-56372142D02*
X92500000Y-54800714D01*
X92642857Y-54515000D01*
X92928571Y-54372142D01*
X93500000Y-54372142D01*
X93785714Y-54515000D01*
X92500000Y-56229285D02*
X92785714Y-56372142D01*
X93500000Y-56372142D01*
X93785714Y-56229285D01*
X93928571Y-55943571D01*
X93928571Y-55657857D01*
X93785714Y-55372142D01*
X93500000Y-55229285D01*
X92785714Y-55229285D01*
X92500000Y-55086428D01*
X91500000Y-54372142D02*
X90357142Y-54372142D01*
X91071428Y-53372142D02*
X91071428Y-55943571D01*
X90928571Y-56229285D01*
X90642857Y-56372142D01*
X90357142Y-56372142D01*
X88071428Y-54372142D02*
X88071428Y-56372142D01*
X89357142Y-54372142D02*
X89357142Y-55943571D01*
X89214285Y-56229285D01*
X88928571Y-56372142D01*
X88500000Y-56372142D01*
X88214285Y-56229285D01*
X88071428Y-56086428D01*
X86785714Y-56229285D02*
X86500000Y-56372142D01*
X85928571Y-56372142D01*
X85642857Y-56229285D01*
X85500000Y-55943571D01*
X85500000Y-55800714D01*
X85642857Y-55515000D01*
X85928571Y-55372142D01*
X86357142Y-55372142D01*
X86642857Y-55229285D01*
X86785714Y-54943571D01*
X86785714Y-54800714D01*
X86642857Y-54515000D01*
X86357142Y-54372142D01*
X85928571Y-54372142D01*
X85642857Y-54515000D01*
D11*
X98869333Y-84384380D02*
X99202666Y-83908190D01*
X99440761Y-84384380D02*
X99440761Y-83384380D01*
X99059809Y-83384380D01*
X98964571Y-83432000D01*
X98916952Y-83479619D01*
X98869333Y-83574857D01*
X98869333Y-83717714D01*
X98916952Y-83812952D01*
X98964571Y-83860571D01*
X99059809Y-83908190D01*
X99440761Y-83908190D01*
X98440761Y-83860571D02*
X98107428Y-83860571D01*
X97964571Y-84384380D02*
X98440761Y-84384380D01*
X98440761Y-83384380D01*
X97964571Y-83384380D01*
X97202666Y-83860571D02*
X97536000Y-83860571D01*
X97536000Y-84384380D02*
X97536000Y-83384380D01*
X97059809Y-83384380D01*
X96536000Y-83384380D02*
X96536000Y-83622476D01*
X96774095Y-83527238D02*
X96536000Y-83622476D01*
X96297904Y-83527238D01*
X96678857Y-83812952D02*
X96536000Y-83622476D01*
X96393142Y-83812952D01*
X95774095Y-83384380D02*
X95774095Y-83622476D01*
X96012190Y-83527238D02*
X95774095Y-83622476D01*
X95536000Y-83527238D01*
X95916952Y-83812952D02*
X95774095Y-83622476D01*
X95631238Y-83812952D01*
X98869333Y-101529380D02*
X99202666Y-101053190D01*
X99440761Y-101529380D02*
X99440761Y-100529380D01*
X99059809Y-100529380D01*
X98964571Y-100577000D01*
X98916952Y-100624619D01*
X98869333Y-100719857D01*
X98869333Y-100862714D01*
X98916952Y-100957952D01*
X98964571Y-101005571D01*
X99059809Y-101053190D01*
X99440761Y-101053190D01*
X98440761Y-101005571D02*
X98107428Y-101005571D01*
X97964571Y-101529380D02*
X98440761Y-101529380D01*
X98440761Y-100529380D01*
X97964571Y-100529380D01*
X97202666Y-101005571D02*
X97536000Y-101005571D01*
X97536000Y-101529380D02*
X97536000Y-100529380D01*
X97059809Y-100529380D01*
X96536000Y-100529380D02*
X96536000Y-100767476D01*
X96774095Y-100672238D02*
X96536000Y-100767476D01*
X96297904Y-100672238D01*
X96678857Y-100957952D02*
X96536000Y-100767476D01*
X96393142Y-100957952D01*
X95774095Y-100529380D02*
X95774095Y-100767476D01*
X96012190Y-100672238D02*
X95774095Y-100767476D01*
X95536000Y-100672238D01*
X95916952Y-100957952D02*
X95774095Y-100767476D01*
X95631238Y-100957952D01*
X98869333Y-118674380D02*
X99202666Y-118198190D01*
X99440761Y-118674380D02*
X99440761Y-117674380D01*
X99059809Y-117674380D01*
X98964571Y-117722000D01*
X98916952Y-117769619D01*
X98869333Y-117864857D01*
X98869333Y-118007714D01*
X98916952Y-118102952D01*
X98964571Y-118150571D01*
X99059809Y-118198190D01*
X99440761Y-118198190D01*
X98440761Y-118150571D02*
X98107428Y-118150571D01*
X97964571Y-118674380D02*
X98440761Y-118674380D01*
X98440761Y-117674380D01*
X97964571Y-117674380D01*
X97202666Y-118150571D02*
X97536000Y-118150571D01*
X97536000Y-118674380D02*
X97536000Y-117674380D01*
X97059809Y-117674380D01*
X96536000Y-117674380D02*
X96536000Y-117912476D01*
X96774095Y-117817238D02*
X96536000Y-117912476D01*
X96297904Y-117817238D01*
X96678857Y-118102952D02*
X96536000Y-117912476D01*
X96393142Y-118102952D01*
X95774095Y-117674380D02*
X95774095Y-117912476D01*
X96012190Y-117817238D02*
X95774095Y-117912476D01*
X95536000Y-117817238D01*
X95916952Y-118102952D02*
X95774095Y-117912476D01*
X95631238Y-118102952D01*
X98833333Y-135767380D02*
X99166666Y-135291190D01*
X99404761Y-135767380D02*
X99404761Y-134767380D01*
X99023809Y-134767380D01*
X98928571Y-134815000D01*
X98880952Y-134862619D01*
X98833333Y-134957857D01*
X98833333Y-135100714D01*
X98880952Y-135195952D01*
X98928571Y-135243571D01*
X99023809Y-135291190D01*
X99404761Y-135291190D01*
X98404761Y-135243571D02*
X98071428Y-135243571D01*
X97928571Y-135767380D02*
X98404761Y-135767380D01*
X98404761Y-134767380D01*
X97928571Y-134767380D01*
X97166666Y-135243571D02*
X97500000Y-135243571D01*
X97500000Y-135767380D02*
X97500000Y-134767380D01*
X97023809Y-134767380D01*
X96500000Y-134767380D02*
X96500000Y-135005476D01*
X96738095Y-134910238D02*
X96500000Y-135005476D01*
X96261904Y-134910238D01*
X96642857Y-135195952D02*
X96500000Y-135005476D01*
X96357142Y-135195952D01*
X95738095Y-134767380D02*
X95738095Y-135005476D01*
X95976190Y-134910238D02*
X95738095Y-135005476D01*
X95500000Y-134910238D01*
X95880952Y-135195952D02*
X95738095Y-135005476D01*
X95595238Y-135195952D01*
D10*
X99738095Y-130904761D02*
X100690476Y-130904761D01*
X100690476Y-128904761D01*
X99071428Y-129857142D02*
X98404761Y-129857142D01*
X98119047Y-130904761D02*
X99071428Y-130904761D01*
X99071428Y-128904761D01*
X98119047Y-128904761D01*
X97261904Y-130904761D02*
X97261904Y-128904761D01*
X96785714Y-128904761D01*
X96500000Y-129000000D01*
X96309523Y-129190476D01*
X96214285Y-129380952D01*
X96119047Y-129761904D01*
X96119047Y-130047619D01*
X96214285Y-130428571D01*
X96309523Y-130619047D01*
X96500000Y-130809523D01*
X96785714Y-130904761D01*
X97261904Y-130904761D01*
X94404761Y-129571428D02*
X94404761Y-130904761D01*
X94880952Y-128809523D02*
X95357142Y-130238095D01*
X94119047Y-130238095D01*
X99738095Y-113904761D02*
X100690476Y-113904761D01*
X100690476Y-111904761D01*
X99071428Y-112857142D02*
X98404761Y-112857142D01*
X98119047Y-113904761D02*
X99071428Y-113904761D01*
X99071428Y-111904761D01*
X98119047Y-111904761D01*
X97261904Y-113904761D02*
X97261904Y-111904761D01*
X96785714Y-111904761D01*
X96500000Y-112000000D01*
X96309523Y-112190476D01*
X96214285Y-112380952D01*
X96119047Y-112761904D01*
X96119047Y-113047619D01*
X96214285Y-113428571D01*
X96309523Y-113619047D01*
X96500000Y-113809523D01*
X96785714Y-113904761D01*
X97261904Y-113904761D01*
X95452380Y-111904761D02*
X94214285Y-111904761D01*
X94880952Y-112666666D01*
X94595238Y-112666666D01*
X94404761Y-112761904D01*
X94309523Y-112857142D01*
X94214285Y-113047619D01*
X94214285Y-113523809D01*
X94309523Y-113714285D01*
X94404761Y-113809523D01*
X94595238Y-113904761D01*
X95166666Y-113904761D01*
X95357142Y-113809523D01*
X95452380Y-113714285D01*
X99738095Y-96904761D02*
X100690476Y-96904761D01*
X100690476Y-94904761D01*
X99071428Y-95857142D02*
X98404761Y-95857142D01*
X98119047Y-96904761D02*
X99071428Y-96904761D01*
X99071428Y-94904761D01*
X98119047Y-94904761D01*
X97261904Y-96904761D02*
X97261904Y-94904761D01*
X96785714Y-94904761D01*
X96500000Y-95000000D01*
X96309523Y-95190476D01*
X96214285Y-95380952D01*
X96119047Y-95761904D01*
X96119047Y-96047619D01*
X96214285Y-96428571D01*
X96309523Y-96619047D01*
X96500000Y-96809523D01*
X96785714Y-96904761D01*
X97261904Y-96904761D01*
X95357142Y-95095238D02*
X95261904Y-95000000D01*
X95071428Y-94904761D01*
X94595238Y-94904761D01*
X94404761Y-95000000D01*
X94309523Y-95095238D01*
X94214285Y-95285714D01*
X94214285Y-95476190D01*
X94309523Y-95761904D01*
X95452380Y-96904761D01*
X94214285Y-96904761D01*
X99738095Y-79404761D02*
X100690476Y-79404761D01*
X100690476Y-77404761D01*
X99071428Y-78357142D02*
X98404761Y-78357142D01*
X98119047Y-79404761D02*
X99071428Y-79404761D01*
X99071428Y-77404761D01*
X98119047Y-77404761D01*
X97261904Y-79404761D02*
X97261904Y-77404761D01*
X96785714Y-77404761D01*
X96500000Y-77500000D01*
X96309523Y-77690476D01*
X96214285Y-77880952D01*
X96119047Y-78261904D01*
X96119047Y-78547619D01*
X96214285Y-78928571D01*
X96309523Y-79119047D01*
X96500000Y-79309523D01*
X96785714Y-79404761D01*
X97261904Y-79404761D01*
X94214285Y-79404761D02*
X95357142Y-79404761D01*
X94785714Y-79404761D02*
X94785714Y-77404761D01*
X94976190Y-77690476D01*
X95166666Y-77880952D01*
X95357142Y-77976190D01*
X85631114Y-80082142D02*
X86631114Y-78653571D01*
X87345400Y-80082142D02*
X87345400Y-77082142D01*
X86202542Y-77082142D01*
X85916828Y-77225000D01*
X85773971Y-77367857D01*
X85631114Y-77653571D01*
X85631114Y-78082142D01*
X85773971Y-78367857D01*
X85916828Y-78510714D01*
X86202542Y-78653571D01*
X87345400Y-78653571D01*
X84773971Y-77082142D02*
X83773971Y-80082142D01*
X82773971Y-77082142D01*
X80202542Y-80082142D02*
X81916828Y-80082142D01*
X81059685Y-80082142D02*
X81059685Y-77082142D01*
X81345400Y-77510714D01*
X81631114Y-77796428D01*
X81916828Y-77939285D01*
X85681914Y-97227142D02*
X86681914Y-95798571D01*
X87396200Y-97227142D02*
X87396200Y-94227142D01*
X86253342Y-94227142D01*
X85967628Y-94370000D01*
X85824771Y-94512857D01*
X85681914Y-94798571D01*
X85681914Y-95227142D01*
X85824771Y-95512857D01*
X85967628Y-95655714D01*
X86253342Y-95798571D01*
X87396200Y-95798571D01*
X84824771Y-94227142D02*
X83824771Y-97227142D01*
X82824771Y-94227142D01*
X81967628Y-94512857D02*
X81824771Y-94370000D01*
X81539057Y-94227142D01*
X80824771Y-94227142D01*
X80539057Y-94370000D01*
X80396200Y-94512857D01*
X80253342Y-94798571D01*
X80253342Y-95084285D01*
X80396200Y-95512857D01*
X82110485Y-97227142D01*
X80253342Y-97227142D01*
X85681914Y-114372142D02*
X86681914Y-112943571D01*
X87396200Y-114372142D02*
X87396200Y-111372142D01*
X86253342Y-111372142D01*
X85967628Y-111515000D01*
X85824771Y-111657857D01*
X85681914Y-111943571D01*
X85681914Y-112372142D01*
X85824771Y-112657857D01*
X85967628Y-112800714D01*
X86253342Y-112943571D01*
X87396200Y-112943571D01*
X84824771Y-111372142D02*
X83824771Y-114372142D01*
X82824771Y-111372142D01*
X82110485Y-111372142D02*
X80253342Y-111372142D01*
X81253342Y-112515000D01*
X80824771Y-112515000D01*
X80539057Y-112657857D01*
X80396200Y-112800714D01*
X80253342Y-113086428D01*
X80253342Y-113800714D01*
X80396200Y-114086428D01*
X80539057Y-114229285D01*
X80824771Y-114372142D01*
X81681914Y-114372142D01*
X81967628Y-114229285D01*
X82110485Y-114086428D01*
X85656514Y-131517142D02*
X86656514Y-130088571D01*
X87370800Y-131517142D02*
X87370800Y-128517142D01*
X86227942Y-128517142D01*
X85942228Y-128660000D01*
X85799371Y-128802857D01*
X85656514Y-129088571D01*
X85656514Y-129517142D01*
X85799371Y-129802857D01*
X85942228Y-129945714D01*
X86227942Y-130088571D01*
X87370800Y-130088571D01*
X84799371Y-128517142D02*
X83799371Y-131517142D01*
X82799371Y-128517142D01*
X80513657Y-129517142D02*
X80513657Y-131517142D01*
X81227942Y-128374285D02*
X81942228Y-130517142D01*
X80085085Y-130517142D01*
X86528571Y-159510465D02*
X85957142Y-159510465D01*
X85671428Y-159653323D01*
X85385714Y-159939037D01*
X85242857Y-160510465D01*
X85242857Y-161510465D01*
X85385714Y-162081894D01*
X85671428Y-162367608D01*
X85957142Y-162510465D01*
X86528571Y-162510465D01*
X86814285Y-162367608D01*
X87100000Y-162081894D01*
X87242857Y-161510465D01*
X87242857Y-160510465D01*
X87100000Y-159939037D01*
X86814285Y-159653323D01*
X86528571Y-159510465D01*
X83957142Y-159510465D02*
X83957142Y-161939037D01*
X83814285Y-162224751D01*
X83671428Y-162367608D01*
X83385714Y-162510465D01*
X82814285Y-162510465D01*
X82528571Y-162367608D01*
X82385714Y-162224751D01*
X82242857Y-161939037D01*
X82242857Y-159510465D01*
X81242857Y-159510465D02*
X79528571Y-159510465D01*
X80385714Y-162510465D02*
X80385714Y-159510465D01*
X78671428Y-159796180D02*
X78528571Y-159653323D01*
X78242857Y-159510465D01*
X77528571Y-159510465D01*
X77242857Y-159653323D01*
X77100000Y-159796180D01*
X76957142Y-160081894D01*
X76957142Y-160367608D01*
X77100000Y-160796180D01*
X78814285Y-162510465D01*
X76957142Y-162510465D01*
X100928571Y-159626655D02*
X100357142Y-159626655D01*
X100071428Y-159769513D01*
X99785714Y-160055227D01*
X99642857Y-160626655D01*
X99642857Y-161626655D01*
X99785714Y-162198084D01*
X100071428Y-162483798D01*
X100357142Y-162626655D01*
X100928571Y-162626655D01*
X101214285Y-162483798D01*
X101500000Y-162198084D01*
X101642857Y-161626655D01*
X101642857Y-160626655D01*
X101500000Y-160055227D01*
X101214285Y-159769513D01*
X100928571Y-159626655D01*
X98357142Y-159626655D02*
X98357142Y-162055227D01*
X98214285Y-162340941D01*
X98071428Y-162483798D01*
X97785714Y-162626655D01*
X97214285Y-162626655D01*
X96928571Y-162483798D01*
X96785714Y-162340941D01*
X96642857Y-162055227D01*
X96642857Y-159626655D01*
X95642857Y-159626655D02*
X93928571Y-159626655D01*
X94785714Y-162626655D02*
X94785714Y-159626655D01*
X91357142Y-162626655D02*
X93071428Y-162626655D01*
X92214285Y-162626655D02*
X92214285Y-159626655D01*
X92500000Y-160055227D01*
X92785714Y-160340941D01*
X93071428Y-160483798D01*
X114747619Y-160174274D02*
X113604761Y-160174274D01*
X114176190Y-162174274D02*
X114176190Y-160174274D01*
X111795238Y-162174274D02*
X112461904Y-161221893D01*
X112938095Y-162174274D02*
X112938095Y-160174274D01*
X112176190Y-160174274D01*
X111985714Y-160269513D01*
X111890476Y-160364751D01*
X111795238Y-160555227D01*
X111795238Y-160840941D01*
X111890476Y-161031417D01*
X111985714Y-161126655D01*
X112176190Y-161221893D01*
X112938095Y-161221893D01*
X110938095Y-162174274D02*
X110938095Y-160174274D01*
X108938095Y-160269513D02*
X109128571Y-160174274D01*
X109414285Y-160174274D01*
X109700000Y-160269513D01*
X109890476Y-160459989D01*
X109985714Y-160650465D01*
X110080952Y-161031417D01*
X110080952Y-161317132D01*
X109985714Y-161698084D01*
X109890476Y-161888560D01*
X109700000Y-162079036D01*
X109414285Y-162174274D01*
X109223809Y-162174274D01*
X108938095Y-162079036D01*
X108842857Y-161983798D01*
X108842857Y-161317132D01*
X109223809Y-161317132D01*
X114760000Y-131517142D02*
X114760000Y-128517142D01*
X113331428Y-131517142D02*
X113331428Y-128517142D01*
X111617142Y-131517142D01*
X111617142Y-128517142D01*
X108902857Y-129517142D02*
X108902857Y-131517142D01*
X109617142Y-128374285D02*
X110331428Y-130517142D01*
X108474285Y-130517142D01*
X114760000Y-114372142D02*
X114760000Y-111372142D01*
X113331428Y-114372142D02*
X113331428Y-111372142D01*
X111617142Y-114372142D01*
X111617142Y-111372142D01*
X110474285Y-111372142D02*
X108617142Y-111372142D01*
X109617142Y-112515000D01*
X109188571Y-112515000D01*
X108902857Y-112657857D01*
X108760000Y-112800714D01*
X108617142Y-113086428D01*
X108617142Y-113800714D01*
X108760000Y-114086428D01*
X108902857Y-114229285D01*
X109188571Y-114372142D01*
X110045714Y-114372142D01*
X110331428Y-114229285D01*
X110474285Y-114086428D01*
X114760000Y-97227142D02*
X114760000Y-94227142D01*
X113331428Y-97227142D02*
X113331428Y-94227142D01*
X111617142Y-97227142D01*
X111617142Y-94227142D01*
X110331428Y-94512857D02*
X110188571Y-94370000D01*
X109902857Y-94227142D01*
X109188571Y-94227142D01*
X108902857Y-94370000D01*
X108760000Y-94512857D01*
X108617142Y-94798571D01*
X108617142Y-95084285D01*
X108760000Y-95512857D01*
X110474285Y-97227142D01*
X108617142Y-97227142D01*
X114760000Y-80082142D02*
X114760000Y-77082142D01*
X113331428Y-80082142D02*
X113331428Y-77082142D01*
X111617142Y-80082142D01*
X111617142Y-77082142D01*
X108617142Y-80082142D02*
X110331428Y-80082142D01*
X109474285Y-80082142D02*
X109474285Y-77082142D01*
X109760000Y-77510714D01*
X110045714Y-77796428D01*
X110331428Y-77939285D01*
M02*
