G04 #@! TF.GenerationSoftware,KiCad,Pcbnew,6.0.4+dfsg-1+b1*
G04 #@! TF.CreationDate,2022-05-20T09:30:12+02:00*
G04 #@! TF.ProjectId,demiurge,64656d69-7572-4676-952e-6b696361645f,A*
G04 #@! TF.SameCoordinates,Original*
G04 #@! TF.FileFunction,Legend,Bot*
G04 #@! TF.FilePolarity,Positive*
%FSLAX46Y46*%
G04 Gerber Fmt 4.6, Leading zero omitted, Abs format (unit mm)*
G04 Created by KiCad (PCBNEW 6.0.4+dfsg-1+b1) date 2022-05-20 09:30:12*
%MOMM*%
%LPD*%
G01*
G04 APERTURE LIST*
%ADD10C,0.150000*%
%ADD11C,0.120000*%
G04 APERTURE END LIST*
D10*
X109393333Y-70961071D02*
X109393333Y-70484880D01*
X109107619Y-71056309D02*
X110107619Y-70722976D01*
X109107619Y-70389642D01*
X109774285Y-70151547D02*
X109107619Y-69961071D01*
X109583809Y-69770595D01*
X109107619Y-69580119D01*
X109774285Y-69389642D01*
X109155238Y-68627738D02*
X109107619Y-68722976D01*
X109107619Y-68913452D01*
X109155238Y-69008690D01*
X109250476Y-69056309D01*
X109631428Y-69056309D01*
X109726666Y-69008690D01*
X109774285Y-68913452D01*
X109774285Y-68722976D01*
X109726666Y-68627738D01*
X109631428Y-68580119D01*
X109536190Y-68580119D01*
X109440952Y-69056309D01*
X109155238Y-68199166D02*
X109107619Y-68103928D01*
X109107619Y-67913452D01*
X109155238Y-67818214D01*
X109250476Y-67770595D01*
X109298095Y-67770595D01*
X109393333Y-67818214D01*
X109440952Y-67913452D01*
X109440952Y-68056309D01*
X109488571Y-68151547D01*
X109583809Y-68199166D01*
X109631428Y-68199166D01*
X109726666Y-68151547D01*
X109774285Y-68056309D01*
X109774285Y-67913452D01*
X109726666Y-67818214D01*
X109107619Y-67199166D02*
X109155238Y-67294404D01*
X109202857Y-67342023D01*
X109298095Y-67389642D01*
X109583809Y-67389642D01*
X109679047Y-67342023D01*
X109726666Y-67294404D01*
X109774285Y-67199166D01*
X109774285Y-67056309D01*
X109726666Y-66961071D01*
X109679047Y-66913452D01*
X109583809Y-66865833D01*
X109298095Y-66865833D01*
X109202857Y-66913452D01*
X109155238Y-66961071D01*
X109107619Y-67056309D01*
X109107619Y-67199166D01*
X109107619Y-66437261D02*
X109774285Y-66437261D01*
X109679047Y-66437261D02*
X109726666Y-66389642D01*
X109774285Y-66294404D01*
X109774285Y-66151547D01*
X109726666Y-66056309D01*
X109631428Y-66008690D01*
X109107619Y-66008690D01*
X109631428Y-66008690D02*
X109726666Y-65961071D01*
X109774285Y-65865833D01*
X109774285Y-65722976D01*
X109726666Y-65627738D01*
X109631428Y-65580119D01*
X109107619Y-65580119D01*
X109155238Y-64722976D02*
X109107619Y-64818214D01*
X109107619Y-65008690D01*
X109155238Y-65103928D01*
X109250476Y-65151547D01*
X109631428Y-65151547D01*
X109726666Y-65103928D01*
X109774285Y-65008690D01*
X109774285Y-64818214D01*
X109726666Y-64722976D01*
X109631428Y-64675357D01*
X109536190Y-64675357D01*
X109440952Y-65151547D01*
X109393333Y-63532500D02*
X109393333Y-63056309D01*
X109107619Y-63627738D02*
X110107619Y-63294404D01*
X109107619Y-62961071D01*
X109774285Y-62199166D02*
X109107619Y-62199166D01*
X109774285Y-62627738D02*
X109250476Y-62627738D01*
X109155238Y-62580119D01*
X109107619Y-62484880D01*
X109107619Y-62342023D01*
X109155238Y-62246785D01*
X109202857Y-62199166D01*
X109107619Y-61294404D02*
X110107619Y-61294404D01*
X109155238Y-61294404D02*
X109107619Y-61389642D01*
X109107619Y-61580119D01*
X109155238Y-61675357D01*
X109202857Y-61722976D01*
X109298095Y-61770595D01*
X109583809Y-61770595D01*
X109679047Y-61722976D01*
X109726666Y-61675357D01*
X109774285Y-61580119D01*
X109774285Y-61389642D01*
X109726666Y-61294404D01*
X109107619Y-60818214D02*
X109774285Y-60818214D01*
X110107619Y-60818214D02*
X110060000Y-60865833D01*
X110012380Y-60818214D01*
X110060000Y-60770595D01*
X110107619Y-60818214D01*
X110012380Y-60818214D01*
X109107619Y-60199166D02*
X109155238Y-60294404D01*
X109202857Y-60342023D01*
X109298095Y-60389642D01*
X109583809Y-60389642D01*
X109679047Y-60342023D01*
X109726666Y-60294404D01*
X109774285Y-60199166D01*
X109774285Y-60056309D01*
X109726666Y-59961071D01*
X109679047Y-59913452D01*
X109583809Y-59865833D01*
X109298095Y-59865833D01*
X109202857Y-59913452D01*
X109155238Y-59961071D01*
X109107619Y-60056309D01*
X109107619Y-60199166D01*
X109393333Y-58722976D02*
X109393333Y-58246785D01*
X109107619Y-58818214D02*
X110107619Y-58484880D01*
X109107619Y-58151547D01*
X109774285Y-57818214D02*
X108774285Y-57818214D01*
X109726666Y-57818214D02*
X109774285Y-57722976D01*
X109774285Y-57532500D01*
X109726666Y-57437261D01*
X109679047Y-57389642D01*
X109583809Y-57342023D01*
X109298095Y-57342023D01*
X109202857Y-57389642D01*
X109155238Y-57437261D01*
X109107619Y-57532500D01*
X109107619Y-57722976D01*
X109155238Y-57818214D01*
X109774285Y-56913452D02*
X108774285Y-56913452D01*
X109726666Y-56913452D02*
X109774285Y-56818214D01*
X109774285Y-56627738D01*
X109726666Y-56532500D01*
X109679047Y-56484880D01*
X109583809Y-56437261D01*
X109298095Y-56437261D01*
X109202857Y-56484880D01*
X109155238Y-56532500D01*
X109107619Y-56627738D01*
X109107619Y-56818214D01*
X109155238Y-56913452D01*
X109107619Y-55580119D02*
X109631428Y-55580119D01*
X109726666Y-55627738D01*
X109774285Y-55722976D01*
X109774285Y-55913452D01*
X109726666Y-56008690D01*
X109155238Y-55580119D02*
X109107619Y-55675357D01*
X109107619Y-55913452D01*
X109155238Y-56008690D01*
X109250476Y-56056309D01*
X109345714Y-56056309D01*
X109440952Y-56008690D01*
X109488571Y-55913452D01*
X109488571Y-55675357D01*
X109536190Y-55580119D01*
X109107619Y-55103928D02*
X109774285Y-55103928D01*
X109583809Y-55103928D02*
X109679047Y-55056309D01*
X109726666Y-55008690D01*
X109774285Y-54913452D01*
X109774285Y-54818214D01*
X109107619Y-54056309D02*
X109631428Y-54056309D01*
X109726666Y-54103928D01*
X109774285Y-54199166D01*
X109774285Y-54389642D01*
X109726666Y-54484880D01*
X109155238Y-54056309D02*
X109107619Y-54151547D01*
X109107619Y-54389642D01*
X109155238Y-54484880D01*
X109250476Y-54532500D01*
X109345714Y-54532500D01*
X109440952Y-54484880D01*
X109488571Y-54389642D01*
X109488571Y-54151547D01*
X109536190Y-54056309D01*
X109774285Y-53722976D02*
X109774285Y-53342023D01*
X110107619Y-53580119D02*
X109250476Y-53580119D01*
X109155238Y-53532500D01*
X109107619Y-53437261D01*
X109107619Y-53342023D01*
X109774285Y-52580119D02*
X109107619Y-52580119D01*
X109774285Y-53008690D02*
X109250476Y-53008690D01*
X109155238Y-52961071D01*
X109107619Y-52865833D01*
X109107619Y-52722976D01*
X109155238Y-52627738D01*
X109202857Y-52580119D01*
X109155238Y-52151547D02*
X109107619Y-52056309D01*
X109107619Y-51865833D01*
X109155238Y-51770595D01*
X109250476Y-51722976D01*
X109298095Y-51722976D01*
X109393333Y-51770595D01*
X109440952Y-51865833D01*
X109440952Y-52008690D01*
X109488571Y-52103928D01*
X109583809Y-52151547D01*
X109631428Y-52151547D01*
X109726666Y-52103928D01*
X109774285Y-52008690D01*
X109774285Y-51865833D01*
X109726666Y-51770595D01*
X107497619Y-58246785D02*
X108497619Y-58246785D01*
X108497619Y-58008690D01*
X108450000Y-57865833D01*
X108354761Y-57770595D01*
X108259523Y-57722976D01*
X108069047Y-57675357D01*
X107926190Y-57675357D01*
X107735714Y-57722976D01*
X107640476Y-57770595D01*
X107545238Y-57865833D01*
X107497619Y-58008690D01*
X107497619Y-58246785D01*
X107545238Y-56865833D02*
X107497619Y-56961071D01*
X107497619Y-57151547D01*
X107545238Y-57246785D01*
X107640476Y-57294404D01*
X108021428Y-57294404D01*
X108116666Y-57246785D01*
X108164285Y-57151547D01*
X108164285Y-56961071D01*
X108116666Y-56865833D01*
X108021428Y-56818214D01*
X107926190Y-56818214D01*
X107830952Y-57294404D01*
X107497619Y-56389642D02*
X108164285Y-56389642D01*
X108069047Y-56389642D02*
X108116666Y-56342023D01*
X108164285Y-56246785D01*
X108164285Y-56103928D01*
X108116666Y-56008690D01*
X108021428Y-55961071D01*
X107497619Y-55961071D01*
X108021428Y-55961071D02*
X108116666Y-55913452D01*
X108164285Y-55818214D01*
X108164285Y-55675357D01*
X108116666Y-55580119D01*
X108021428Y-55532500D01*
X107497619Y-55532500D01*
X107497619Y-55056309D02*
X108164285Y-55056309D01*
X108497619Y-55056309D02*
X108450000Y-55103928D01*
X108402380Y-55056309D01*
X108450000Y-55008690D01*
X108497619Y-55056309D01*
X108402380Y-55056309D01*
X108164285Y-54151547D02*
X107497619Y-54151547D01*
X108164285Y-54580119D02*
X107640476Y-54580119D01*
X107545238Y-54532500D01*
X107497619Y-54437261D01*
X107497619Y-54294404D01*
X107545238Y-54199166D01*
X107592857Y-54151547D01*
X107497619Y-53675357D02*
X108164285Y-53675357D01*
X107973809Y-53675357D02*
X108069047Y-53627738D01*
X108116666Y-53580119D01*
X108164285Y-53484880D01*
X108164285Y-53389642D01*
X108164285Y-52627738D02*
X107354761Y-52627738D01*
X107259523Y-52675357D01*
X107211904Y-52722976D01*
X107164285Y-52818214D01*
X107164285Y-52961071D01*
X107211904Y-53056309D01*
X107545238Y-52627738D02*
X107497619Y-52722976D01*
X107497619Y-52913452D01*
X107545238Y-53008690D01*
X107592857Y-53056309D01*
X107688095Y-53103928D01*
X107973809Y-53103928D01*
X108069047Y-53056309D01*
X108116666Y-53008690D01*
X108164285Y-52913452D01*
X108164285Y-52722976D01*
X108116666Y-52627738D01*
X107545238Y-51770595D02*
X107497619Y-51865833D01*
X107497619Y-52056309D01*
X107545238Y-52151547D01*
X107640476Y-52199166D01*
X108021428Y-52199166D01*
X108116666Y-52151547D01*
X108164285Y-52056309D01*
X108164285Y-51865833D01*
X108116666Y-51770595D01*
X108021428Y-51722976D01*
X107926190Y-51722976D01*
X107830952Y-52199166D01*
X105887619Y-61770595D02*
X106411428Y-61770595D01*
X106506666Y-61818214D01*
X106554285Y-61913452D01*
X106554285Y-62103928D01*
X106506666Y-62199166D01*
X105935238Y-61770595D02*
X105887619Y-61865833D01*
X105887619Y-62103928D01*
X105935238Y-62199166D01*
X106030476Y-62246785D01*
X106125714Y-62246785D01*
X106220952Y-62199166D01*
X106268571Y-62103928D01*
X106268571Y-61865833D01*
X106316190Y-61770595D01*
X105887619Y-60865833D02*
X106411428Y-60865833D01*
X106506666Y-60913452D01*
X106554285Y-61008690D01*
X106554285Y-61199166D01*
X106506666Y-61294404D01*
X105935238Y-60865833D02*
X105887619Y-60961071D01*
X105887619Y-61199166D01*
X105935238Y-61294404D01*
X106030476Y-61342023D01*
X106125714Y-61342023D01*
X106220952Y-61294404D01*
X106268571Y-61199166D01*
X106268571Y-60961071D01*
X106316190Y-60865833D01*
X105887619Y-59961071D02*
X106411428Y-59961071D01*
X106506666Y-60008690D01*
X106554285Y-60103928D01*
X106554285Y-60294404D01*
X106506666Y-60389642D01*
X105935238Y-59961071D02*
X105887619Y-60056309D01*
X105887619Y-60294404D01*
X105935238Y-60389642D01*
X106030476Y-60437261D01*
X106125714Y-60437261D01*
X106220952Y-60389642D01*
X106268571Y-60294404D01*
X106268571Y-60056309D01*
X106316190Y-59961071D01*
X106268571Y-59484880D02*
X106268571Y-58722976D01*
X105887619Y-58246785D02*
X106887619Y-58246785D01*
X106268571Y-58151547D02*
X105887619Y-57865833D01*
X106554285Y-57865833D02*
X106173333Y-58246785D01*
X105887619Y-56913452D02*
X105887619Y-57484880D01*
X105887619Y-57199166D02*
X106887619Y-57199166D01*
X106744761Y-57294404D01*
X106649523Y-57389642D01*
X106601904Y-57484880D01*
X105887619Y-55722976D02*
X106554285Y-55722976D01*
X106363809Y-55722976D02*
X106459047Y-55675357D01*
X106506666Y-55627738D01*
X106554285Y-55532500D01*
X106554285Y-55437261D01*
X105935238Y-54722976D02*
X105887619Y-54818214D01*
X105887619Y-55008690D01*
X105935238Y-55103928D01*
X106030476Y-55151547D01*
X106411428Y-55151547D01*
X106506666Y-55103928D01*
X106554285Y-55008690D01*
X106554285Y-54818214D01*
X106506666Y-54722976D01*
X106411428Y-54675357D01*
X106316190Y-54675357D01*
X106220952Y-55151547D01*
X106554285Y-54342023D02*
X105887619Y-54103928D01*
X106554285Y-53865833D01*
X105982857Y-53484880D02*
X105935238Y-53437261D01*
X105887619Y-53484880D01*
X105935238Y-53532500D01*
X105982857Y-53484880D01*
X105887619Y-53484880D01*
X106554285Y-51818214D02*
X105887619Y-51818214D01*
X106935238Y-52056309D02*
X106220952Y-52294404D01*
X106220952Y-51675357D01*
X77947619Y-82319047D02*
X77233333Y-82319047D01*
X77090476Y-82366666D01*
X76995238Y-82461904D01*
X76947619Y-82604761D01*
X76947619Y-82700000D01*
X76947619Y-81366666D02*
X76947619Y-81842857D01*
X77947619Y-81842857D01*
X77042857Y-80461904D02*
X76995238Y-80509523D01*
X76947619Y-80652380D01*
X76947619Y-80747619D01*
X76995238Y-80890476D01*
X77090476Y-80985714D01*
X77185714Y-81033333D01*
X77376190Y-81080952D01*
X77519047Y-81080952D01*
X77709523Y-81033333D01*
X77804761Y-80985714D01*
X77900000Y-80890476D01*
X77947619Y-80747619D01*
X77947619Y-80652380D01*
X77900000Y-80509523D01*
X77852380Y-80461904D01*
X77947619Y-79747619D02*
X77233333Y-79747619D01*
X77090476Y-79795238D01*
X76995238Y-79890476D01*
X76947619Y-80033333D01*
X76947619Y-80128571D01*
X76947619Y-78795238D02*
X76947619Y-79271428D01*
X77947619Y-79271428D01*
X77042857Y-77890476D02*
X76995238Y-77938095D01*
X76947619Y-78080952D01*
X76947619Y-78176190D01*
X76995238Y-78319047D01*
X77090476Y-78414285D01*
X77185714Y-78461904D01*
X77376190Y-78509523D01*
X77519047Y-78509523D01*
X77709523Y-78461904D01*
X77804761Y-78414285D01*
X77900000Y-78319047D01*
X77947619Y-78176190D01*
X77947619Y-78080952D01*
X77900000Y-77938095D01*
X77852380Y-77890476D01*
X77947619Y-77176190D02*
X77233333Y-77176190D01*
X77090476Y-77223809D01*
X76995238Y-77319047D01*
X76947619Y-77461904D01*
X76947619Y-77557142D01*
X76947619Y-76223809D02*
X76947619Y-76700000D01*
X77947619Y-76700000D01*
X77042857Y-75319047D02*
X76995238Y-75366666D01*
X76947619Y-75509523D01*
X76947619Y-75604761D01*
X76995238Y-75747619D01*
X77090476Y-75842857D01*
X77185714Y-75890476D01*
X77376190Y-75938095D01*
X77519047Y-75938095D01*
X77709523Y-75890476D01*
X77804761Y-75842857D01*
X77900000Y-75747619D01*
X77947619Y-75604761D01*
X77947619Y-75509523D01*
X77900000Y-75366666D01*
X77852380Y-75319047D01*
X77947619Y-74604761D02*
X77233333Y-74604761D01*
X77090476Y-74652380D01*
X76995238Y-74747619D01*
X76947619Y-74890476D01*
X76947619Y-74985714D01*
X76947619Y-73652380D02*
X76947619Y-74128571D01*
X77947619Y-74128571D01*
X77042857Y-72747619D02*
X76995238Y-72795238D01*
X76947619Y-72938095D01*
X76947619Y-73033333D01*
X76995238Y-73176190D01*
X77090476Y-73271428D01*
X77185714Y-73319047D01*
X77376190Y-73366666D01*
X77519047Y-73366666D01*
X77709523Y-73319047D01*
X77804761Y-73271428D01*
X77900000Y-73176190D01*
X77947619Y-73033333D01*
X77947619Y-72938095D01*
X77900000Y-72795238D01*
X77852380Y-72747619D01*
X104203333Y-108354761D02*
X104060476Y-108402380D01*
X103822380Y-108402380D01*
X103727142Y-108354761D01*
X103679523Y-108307142D01*
X103631904Y-108211904D01*
X103631904Y-108116666D01*
X103679523Y-108021428D01*
X103727142Y-107973809D01*
X103822380Y-107926190D01*
X104012857Y-107878571D01*
X104108095Y-107830952D01*
X104155714Y-107783333D01*
X104203333Y-107688095D01*
X104203333Y-107592857D01*
X104155714Y-107497619D01*
X104108095Y-107450000D01*
X104012857Y-107402380D01*
X103774761Y-107402380D01*
X103631904Y-107450000D01*
X103298571Y-107402380D02*
X103060476Y-108402380D01*
X102870000Y-107688095D01*
X102679523Y-108402380D01*
X102441428Y-107402380D01*
X102108095Y-107497619D02*
X102060476Y-107450000D01*
X101965238Y-107402380D01*
X101727142Y-107402380D01*
X101631904Y-107450000D01*
X101584285Y-107497619D01*
X101536666Y-107592857D01*
X101536666Y-107688095D01*
X101584285Y-107830952D01*
X102155714Y-108402380D01*
X101536666Y-108402380D01*
X104203333Y-125499761D02*
X104060476Y-125547380D01*
X103822380Y-125547380D01*
X103727142Y-125499761D01*
X103679523Y-125452142D01*
X103631904Y-125356904D01*
X103631904Y-125261666D01*
X103679523Y-125166428D01*
X103727142Y-125118809D01*
X103822380Y-125071190D01*
X104012857Y-125023571D01*
X104108095Y-124975952D01*
X104155714Y-124928333D01*
X104203333Y-124833095D01*
X104203333Y-124737857D01*
X104155714Y-124642619D01*
X104108095Y-124595000D01*
X104012857Y-124547380D01*
X103774761Y-124547380D01*
X103631904Y-124595000D01*
X103298571Y-124547380D02*
X103060476Y-125547380D01*
X102870000Y-124833095D01*
X102679523Y-125547380D01*
X102441428Y-124547380D01*
X102155714Y-124547380D02*
X101536666Y-124547380D01*
X101870000Y-124928333D01*
X101727142Y-124928333D01*
X101631904Y-124975952D01*
X101584285Y-125023571D01*
X101536666Y-125118809D01*
X101536666Y-125356904D01*
X101584285Y-125452142D01*
X101631904Y-125499761D01*
X101727142Y-125547380D01*
X102012857Y-125547380D01*
X102108095Y-125499761D01*
X102155714Y-125452142D01*
X115268333Y-148042380D02*
X115268333Y-148756666D01*
X115315952Y-148899523D01*
X115411190Y-148994761D01*
X115554047Y-149042380D01*
X115649285Y-149042380D01*
X114887380Y-148042380D02*
X114220714Y-148042380D01*
X114649285Y-149042380D01*
X115268333Y-79462380D02*
X115268333Y-80176666D01*
X115315952Y-80319523D01*
X115411190Y-80414761D01*
X115554047Y-80462380D01*
X115649285Y-80462380D01*
X114887380Y-79462380D02*
X114268333Y-79462380D01*
X114601666Y-79843333D01*
X114458809Y-79843333D01*
X114363571Y-79890952D01*
X114315952Y-79938571D01*
X114268333Y-80033809D01*
X114268333Y-80271904D01*
X114315952Y-80367142D01*
X114363571Y-80414761D01*
X114458809Y-80462380D01*
X114744523Y-80462380D01*
X114839761Y-80414761D01*
X114887380Y-80367142D01*
X103068333Y-58507380D02*
X103068333Y-59221666D01*
X103115952Y-59364523D01*
X103211190Y-59459761D01*
X103354047Y-59507380D01*
X103449285Y-59507380D01*
X102592142Y-59507380D02*
X102592142Y-58507380D01*
X102211190Y-58507380D01*
X102115952Y-58555000D01*
X102068333Y-58602619D01*
X102020714Y-58697857D01*
X102020714Y-58840714D01*
X102068333Y-58935952D01*
X102115952Y-58983571D01*
X102211190Y-59031190D01*
X102592142Y-59031190D01*
X101068333Y-59507380D02*
X101639761Y-59507380D01*
X101354047Y-59507380D02*
X101354047Y-58507380D01*
X101449285Y-58650238D01*
X101544523Y-58745476D01*
X101639761Y-58793095D01*
X104203333Y-142644761D02*
X104060476Y-142692380D01*
X103822380Y-142692380D01*
X103727142Y-142644761D01*
X103679523Y-142597142D01*
X103631904Y-142501904D01*
X103631904Y-142406666D01*
X103679523Y-142311428D01*
X103727142Y-142263809D01*
X103822380Y-142216190D01*
X104012857Y-142168571D01*
X104108095Y-142120952D01*
X104155714Y-142073333D01*
X104203333Y-141978095D01*
X104203333Y-141882857D01*
X104155714Y-141787619D01*
X104108095Y-141740000D01*
X104012857Y-141692380D01*
X103774761Y-141692380D01*
X103631904Y-141740000D01*
X103298571Y-141692380D02*
X103060476Y-142692380D01*
X102870000Y-141978095D01*
X102679523Y-142692380D01*
X102441428Y-141692380D01*
X101631904Y-142025714D02*
X101631904Y-142692380D01*
X101870000Y-141644761D02*
X102108095Y-142359047D01*
X101489047Y-142359047D01*
X100028333Y-148042380D02*
X100028333Y-148756666D01*
X100075952Y-148899523D01*
X100171190Y-148994761D01*
X100314047Y-149042380D01*
X100409285Y-149042380D01*
X99504523Y-149042380D02*
X99314047Y-149042380D01*
X99218809Y-148994761D01*
X99171190Y-148947142D01*
X99075952Y-148804285D01*
X99028333Y-148613809D01*
X99028333Y-148232857D01*
X99075952Y-148137619D01*
X99123571Y-148090000D01*
X99218809Y-148042380D01*
X99409285Y-148042380D01*
X99504523Y-148090000D01*
X99552142Y-148137619D01*
X99599761Y-148232857D01*
X99599761Y-148470952D01*
X99552142Y-148566190D01*
X99504523Y-148613809D01*
X99409285Y-148661428D01*
X99218809Y-148661428D01*
X99123571Y-148613809D01*
X99075952Y-148566190D01*
X99028333Y-148470952D01*
X89495238Y-80462380D02*
X89828571Y-79986190D01*
X90066666Y-80462380D02*
X90066666Y-79462380D01*
X89685714Y-79462380D01*
X89590476Y-79510000D01*
X89542857Y-79557619D01*
X89495238Y-79652857D01*
X89495238Y-79795714D01*
X89542857Y-79890952D01*
X89590476Y-79938571D01*
X89685714Y-79986190D01*
X90066666Y-79986190D01*
X89209523Y-79462380D02*
X88876190Y-80462380D01*
X88542857Y-79462380D01*
X87685714Y-80462380D02*
X88257142Y-80462380D01*
X87971428Y-80462380D02*
X87971428Y-79462380D01*
X88066666Y-79605238D01*
X88161904Y-79700476D01*
X88257142Y-79748095D01*
X89495238Y-131897380D02*
X89828571Y-131421190D01*
X90066666Y-131897380D02*
X90066666Y-130897380D01*
X89685714Y-130897380D01*
X89590476Y-130945000D01*
X89542857Y-130992619D01*
X89495238Y-131087857D01*
X89495238Y-131230714D01*
X89542857Y-131325952D01*
X89590476Y-131373571D01*
X89685714Y-131421190D01*
X90066666Y-131421190D01*
X89209523Y-130897380D02*
X88876190Y-131897380D01*
X88542857Y-130897380D01*
X87780952Y-131230714D02*
X87780952Y-131897380D01*
X88019047Y-130849761D02*
X88257142Y-131564047D01*
X87638095Y-131564047D01*
X115268333Y-130897380D02*
X115268333Y-131611666D01*
X115315952Y-131754523D01*
X115411190Y-131849761D01*
X115554047Y-131897380D01*
X115649285Y-131897380D01*
X114363571Y-130897380D02*
X114554047Y-130897380D01*
X114649285Y-130945000D01*
X114696904Y-130992619D01*
X114792142Y-131135476D01*
X114839761Y-131325952D01*
X114839761Y-131706904D01*
X114792142Y-131802142D01*
X114744523Y-131849761D01*
X114649285Y-131897380D01*
X114458809Y-131897380D01*
X114363571Y-131849761D01*
X114315952Y-131802142D01*
X114268333Y-131706904D01*
X114268333Y-131468809D01*
X114315952Y-131373571D01*
X114363571Y-131325952D01*
X114458809Y-131278333D01*
X114649285Y-131278333D01*
X114744523Y-131325952D01*
X114792142Y-131373571D01*
X114839761Y-131468809D01*
X115268333Y-113752380D02*
X115268333Y-114466666D01*
X115315952Y-114609523D01*
X115411190Y-114704761D01*
X115554047Y-114752380D01*
X115649285Y-114752380D01*
X114315952Y-113752380D02*
X114792142Y-113752380D01*
X114839761Y-114228571D01*
X114792142Y-114180952D01*
X114696904Y-114133333D01*
X114458809Y-114133333D01*
X114363571Y-114180952D01*
X114315952Y-114228571D01*
X114268333Y-114323809D01*
X114268333Y-114561904D01*
X114315952Y-114657142D01*
X114363571Y-114704761D01*
X114458809Y-114752380D01*
X114696904Y-114752380D01*
X114792142Y-114704761D01*
X114839761Y-114657142D01*
X115268333Y-96607380D02*
X115268333Y-97321666D01*
X115315952Y-97464523D01*
X115411190Y-97559761D01*
X115554047Y-97607380D01*
X115649285Y-97607380D01*
X114363571Y-96940714D02*
X114363571Y-97607380D01*
X114601666Y-96559761D02*
X114839761Y-97274047D01*
X114220714Y-97274047D01*
X88225238Y-97607380D02*
X88558571Y-97131190D01*
X88796666Y-97607380D02*
X88796666Y-96607380D01*
X88415714Y-96607380D01*
X88320476Y-96655000D01*
X88272857Y-96702619D01*
X88225238Y-96797857D01*
X88225238Y-96940714D01*
X88272857Y-97035952D01*
X88320476Y-97083571D01*
X88415714Y-97131190D01*
X88796666Y-97131190D01*
X87939523Y-96607380D02*
X87606190Y-97607380D01*
X87272857Y-96607380D01*
X86987142Y-96702619D02*
X86939523Y-96655000D01*
X86844285Y-96607380D01*
X86606190Y-96607380D01*
X86510952Y-96655000D01*
X86463333Y-96702619D01*
X86415714Y-96797857D01*
X86415714Y-96893095D01*
X86463333Y-97035952D01*
X87034761Y-97607380D01*
X86415714Y-97607380D01*
X102079095Y-83764380D02*
X102079095Y-82764380D01*
X101841000Y-82764380D01*
X101698142Y-82812000D01*
X101602904Y-82907238D01*
X101555285Y-83002476D01*
X101507666Y-83192952D01*
X101507666Y-83335809D01*
X101555285Y-83526285D01*
X101602904Y-83621523D01*
X101698142Y-83716761D01*
X101841000Y-83764380D01*
X102079095Y-83764380D01*
X100936238Y-83192952D02*
X101031476Y-83145333D01*
X101079095Y-83097714D01*
X101126714Y-83002476D01*
X101126714Y-82954857D01*
X101079095Y-82859619D01*
X101031476Y-82812000D01*
X100936238Y-82764380D01*
X100745761Y-82764380D01*
X100650523Y-82812000D01*
X100602904Y-82859619D01*
X100555285Y-82954857D01*
X100555285Y-83002476D01*
X100602904Y-83097714D01*
X100650523Y-83145333D01*
X100745761Y-83192952D01*
X100936238Y-83192952D01*
X101031476Y-83240571D01*
X101079095Y-83288190D01*
X101126714Y-83383428D01*
X101126714Y-83573904D01*
X101079095Y-83669142D01*
X101031476Y-83716761D01*
X100936238Y-83764380D01*
X100745761Y-83764380D01*
X100650523Y-83716761D01*
X100602904Y-83669142D01*
X100555285Y-83573904D01*
X100555285Y-83383428D01*
X100602904Y-83288190D01*
X100650523Y-83240571D01*
X100745761Y-83192952D01*
X89495238Y-114752380D02*
X89828571Y-114276190D01*
X90066666Y-114752380D02*
X90066666Y-113752380D01*
X89685714Y-113752380D01*
X89590476Y-113800000D01*
X89542857Y-113847619D01*
X89495238Y-113942857D01*
X89495238Y-114085714D01*
X89542857Y-114180952D01*
X89590476Y-114228571D01*
X89685714Y-114276190D01*
X90066666Y-114276190D01*
X89209523Y-113752380D02*
X88876190Y-114752380D01*
X88542857Y-113752380D01*
X88304761Y-113752380D02*
X87685714Y-113752380D01*
X88019047Y-114133333D01*
X87876190Y-114133333D01*
X87780952Y-114180952D01*
X87733333Y-114228571D01*
X87685714Y-114323809D01*
X87685714Y-114561904D01*
X87733333Y-114657142D01*
X87780952Y-114704761D01*
X87876190Y-114752380D01*
X88161904Y-114752380D01*
X88257142Y-114704761D01*
X88304761Y-114657142D01*
X104203333Y-91209761D02*
X104060476Y-91257380D01*
X103822380Y-91257380D01*
X103727142Y-91209761D01*
X103679523Y-91162142D01*
X103631904Y-91066904D01*
X103631904Y-90971666D01*
X103679523Y-90876428D01*
X103727142Y-90828809D01*
X103822380Y-90781190D01*
X104012857Y-90733571D01*
X104108095Y-90685952D01*
X104155714Y-90638333D01*
X104203333Y-90543095D01*
X104203333Y-90447857D01*
X104155714Y-90352619D01*
X104108095Y-90305000D01*
X104012857Y-90257380D01*
X103774761Y-90257380D01*
X103631904Y-90305000D01*
X103298571Y-90257380D02*
X103060476Y-91257380D01*
X102870000Y-90543095D01*
X102679523Y-91257380D01*
X102441428Y-90257380D01*
X101536666Y-91257380D02*
X102108095Y-91257380D01*
X101822380Y-91257380D02*
X101822380Y-90257380D01*
X101917619Y-90400238D01*
X102012857Y-90495476D01*
X102108095Y-90543095D01*
X85423333Y-148042380D02*
X85423333Y-148756666D01*
X85470952Y-148899523D01*
X85566190Y-148994761D01*
X85709047Y-149042380D01*
X85804285Y-149042380D01*
X84804285Y-148470952D02*
X84899523Y-148423333D01*
X84947142Y-148375714D01*
X84994761Y-148280476D01*
X84994761Y-148232857D01*
X84947142Y-148137619D01*
X84899523Y-148090000D01*
X84804285Y-148042380D01*
X84613809Y-148042380D01*
X84518571Y-148090000D01*
X84470952Y-148137619D01*
X84423333Y-148232857D01*
X84423333Y-148280476D01*
X84470952Y-148375714D01*
X84518571Y-148423333D01*
X84613809Y-148470952D01*
X84804285Y-148470952D01*
X84899523Y-148518571D01*
X84947142Y-148566190D01*
X84994761Y-148661428D01*
X84994761Y-148851904D01*
X84947142Y-148947142D01*
X84899523Y-148994761D01*
X84804285Y-149042380D01*
X84613809Y-149042380D01*
X84518571Y-148994761D01*
X84470952Y-148947142D01*
X84423333Y-148851904D01*
X84423333Y-148661428D01*
X84470952Y-148566190D01*
X84518571Y-148518571D01*
X84613809Y-148470952D01*
X76922380Y-63127095D02*
X76922380Y-63698523D01*
X77922380Y-63412809D02*
X76922380Y-63412809D01*
X77922380Y-64031857D02*
X76922380Y-64031857D01*
X76922380Y-64412809D01*
X76970000Y-64508047D01*
X77017619Y-64555666D01*
X77112857Y-64603285D01*
X77255714Y-64603285D01*
X77350952Y-64555666D01*
X77398571Y-64508047D01*
X77446190Y-64412809D01*
X77446190Y-64031857D01*
X77922380Y-65555666D02*
X77922380Y-64984238D01*
X77922380Y-65269952D02*
X76922380Y-65269952D01*
X77065238Y-65174714D01*
X77160476Y-65079476D01*
X77208095Y-64984238D01*
X93717904Y-51649380D02*
X93146476Y-51649380D01*
X93432190Y-52649380D02*
X93432190Y-51649380D01*
X92813142Y-52649380D02*
X92813142Y-51649380D01*
X92432190Y-51649380D01*
X92336952Y-51697000D01*
X92289333Y-51744619D01*
X92241714Y-51839857D01*
X92241714Y-51982714D01*
X92289333Y-52077952D01*
X92336952Y-52125571D01*
X92432190Y-52173190D01*
X92813142Y-52173190D01*
X91384571Y-51649380D02*
X91575047Y-51649380D01*
X91670285Y-51697000D01*
X91717904Y-51744619D01*
X91813142Y-51887476D01*
X91860761Y-52077952D01*
X91860761Y-52458904D01*
X91813142Y-52554142D01*
X91765523Y-52601761D01*
X91670285Y-52649380D01*
X91479809Y-52649380D01*
X91384571Y-52601761D01*
X91336952Y-52554142D01*
X91289333Y-52458904D01*
X91289333Y-52220809D01*
X91336952Y-52125571D01*
X91384571Y-52077952D01*
X91479809Y-52030333D01*
X91670285Y-52030333D01*
X91765523Y-52077952D01*
X91813142Y-52125571D01*
X91860761Y-52220809D01*
X87463380Y-52840095D02*
X87463380Y-53411523D01*
X88463380Y-53125809D02*
X87463380Y-53125809D01*
X88463380Y-53744857D02*
X87463380Y-53744857D01*
X87463380Y-54125809D01*
X87511000Y-54221047D01*
X87558619Y-54268666D01*
X87653857Y-54316285D01*
X87796714Y-54316285D01*
X87891952Y-54268666D01*
X87939571Y-54221047D01*
X87987190Y-54125809D01*
X87987190Y-53744857D01*
X87891952Y-54887714D02*
X87844333Y-54792476D01*
X87796714Y-54744857D01*
X87701476Y-54697238D01*
X87653857Y-54697238D01*
X87558619Y-54744857D01*
X87511000Y-54792476D01*
X87463380Y-54887714D01*
X87463380Y-55078190D01*
X87511000Y-55173428D01*
X87558619Y-55221047D01*
X87653857Y-55268666D01*
X87701476Y-55268666D01*
X87796714Y-55221047D01*
X87844333Y-55173428D01*
X87891952Y-55078190D01*
X87891952Y-54887714D01*
X87939571Y-54792476D01*
X87987190Y-54744857D01*
X88082428Y-54697238D01*
X88272904Y-54697238D01*
X88368142Y-54744857D01*
X88415761Y-54792476D01*
X88463380Y-54887714D01*
X88463380Y-55078190D01*
X88415761Y-55173428D01*
X88368142Y-55221047D01*
X88272904Y-55268666D01*
X88082428Y-55268666D01*
X87987190Y-55221047D01*
X87939571Y-55173428D01*
X87891952Y-55078190D01*
X76922380Y-64778095D02*
X76922380Y-65349523D01*
X77922380Y-65063809D02*
X76922380Y-65063809D01*
X77922380Y-65682857D02*
X76922380Y-65682857D01*
X76922380Y-66063809D01*
X76970000Y-66159047D01*
X77017619Y-66206666D01*
X77112857Y-66254285D01*
X77255714Y-66254285D01*
X77350952Y-66206666D01*
X77398571Y-66159047D01*
X77446190Y-66063809D01*
X77446190Y-65682857D01*
X77017619Y-66635238D02*
X76970000Y-66682857D01*
X76922380Y-66778095D01*
X76922380Y-67016190D01*
X76970000Y-67111428D01*
X77017619Y-67159047D01*
X77112857Y-67206666D01*
X77208095Y-67206666D01*
X77350952Y-67159047D01*
X77922380Y-66587619D01*
X77922380Y-67206666D01*
X79112904Y-60031380D02*
X78541476Y-60031380D01*
X78827190Y-61031380D02*
X78827190Y-60031380D01*
X78208142Y-61031380D02*
X78208142Y-60031380D01*
X77827190Y-60031380D01*
X77731952Y-60079000D01*
X77684333Y-60126619D01*
X77636714Y-60221857D01*
X77636714Y-60364714D01*
X77684333Y-60459952D01*
X77731952Y-60507571D01*
X77827190Y-60555190D01*
X78208142Y-60555190D01*
X76779571Y-60364714D02*
X76779571Y-61031380D01*
X77017666Y-59983761D02*
X77255761Y-60698047D01*
X76636714Y-60698047D01*
X95241904Y-51649380D02*
X94670476Y-51649380D01*
X94956190Y-52649380D02*
X94956190Y-51649380D01*
X94337142Y-52649380D02*
X94337142Y-51649380D01*
X93956190Y-51649380D01*
X93860952Y-51697000D01*
X93813333Y-51744619D01*
X93765714Y-51839857D01*
X93765714Y-51982714D01*
X93813333Y-52077952D01*
X93860952Y-52125571D01*
X93956190Y-52173190D01*
X94337142Y-52173190D01*
X92860952Y-51649380D02*
X93337142Y-51649380D01*
X93384761Y-52125571D01*
X93337142Y-52077952D01*
X93241904Y-52030333D01*
X93003809Y-52030333D01*
X92908571Y-52077952D01*
X92860952Y-52125571D01*
X92813333Y-52220809D01*
X92813333Y-52458904D01*
X92860952Y-52554142D01*
X92908571Y-52601761D01*
X93003809Y-52649380D01*
X93241904Y-52649380D01*
X93337142Y-52601761D01*
X93384761Y-52554142D01*
X81017904Y-60158380D02*
X80446476Y-60158380D01*
X80732190Y-61158380D02*
X80732190Y-60158380D01*
X80113142Y-61158380D02*
X80113142Y-60158380D01*
X79732190Y-60158380D01*
X79636952Y-60206000D01*
X79589333Y-60253619D01*
X79541714Y-60348857D01*
X79541714Y-60491714D01*
X79589333Y-60586952D01*
X79636952Y-60634571D01*
X79732190Y-60682190D01*
X80113142Y-60682190D01*
X79208380Y-60158380D02*
X78589333Y-60158380D01*
X78922666Y-60539333D01*
X78779809Y-60539333D01*
X78684571Y-60586952D01*
X78636952Y-60634571D01*
X78589333Y-60729809D01*
X78589333Y-60967904D01*
X78636952Y-61063142D01*
X78684571Y-61110761D01*
X78779809Y-61158380D01*
X79065523Y-61158380D01*
X79160761Y-61110761D01*
X79208380Y-61063142D01*
X98269095Y-103742380D02*
X98269095Y-102742380D01*
X98031000Y-102742380D01*
X97888142Y-102790000D01*
X97792904Y-102885238D01*
X97745285Y-102980476D01*
X97697666Y-103170952D01*
X97697666Y-103313809D01*
X97745285Y-103504285D01*
X97792904Y-103599523D01*
X97888142Y-103694761D01*
X98031000Y-103742380D01*
X98269095Y-103742380D01*
X97221476Y-103742380D02*
X97031000Y-103742380D01*
X96935761Y-103694761D01*
X96888142Y-103647142D01*
X96792904Y-103504285D01*
X96745285Y-103313809D01*
X96745285Y-102932857D01*
X96792904Y-102837619D01*
X96840523Y-102790000D01*
X96935761Y-102742380D01*
X97126238Y-102742380D01*
X97221476Y-102790000D01*
X97269095Y-102837619D01*
X97316714Y-102932857D01*
X97316714Y-103170952D01*
X97269095Y-103266190D01*
X97221476Y-103313809D01*
X97126238Y-103361428D01*
X96935761Y-103361428D01*
X96840523Y-103313809D01*
X96792904Y-103266190D01*
X96745285Y-103170952D01*
X98750285Y-138032380D02*
X98750285Y-137032380D01*
X98512190Y-137032380D01*
X98369333Y-137080000D01*
X98274095Y-137175238D01*
X98226476Y-137270476D01*
X98178857Y-137460952D01*
X98178857Y-137603809D01*
X98226476Y-137794285D01*
X98274095Y-137889523D01*
X98369333Y-137984761D01*
X98512190Y-138032380D01*
X98750285Y-138032380D01*
X97226476Y-138032380D02*
X97797904Y-138032380D01*
X97512190Y-138032380D02*
X97512190Y-137032380D01*
X97607428Y-137175238D01*
X97702666Y-137270476D01*
X97797904Y-137318095D01*
X96274095Y-138032380D02*
X96845523Y-138032380D01*
X96559809Y-138032380D02*
X96559809Y-137032380D01*
X96655047Y-137175238D01*
X96750285Y-137270476D01*
X96845523Y-137318095D01*
X98745285Y-120887380D02*
X98745285Y-119887380D01*
X98507190Y-119887380D01*
X98364333Y-119935000D01*
X98269095Y-120030238D01*
X98221476Y-120125476D01*
X98173857Y-120315952D01*
X98173857Y-120458809D01*
X98221476Y-120649285D01*
X98269095Y-120744523D01*
X98364333Y-120839761D01*
X98507190Y-120887380D01*
X98745285Y-120887380D01*
X97221476Y-120887380D02*
X97792904Y-120887380D01*
X97507190Y-120887380D02*
X97507190Y-119887380D01*
X97602428Y-120030238D01*
X97697666Y-120125476D01*
X97792904Y-120173095D01*
X96602428Y-119887380D02*
X96507190Y-119887380D01*
X96411952Y-119935000D01*
X96364333Y-119982619D01*
X96316714Y-120077857D01*
X96269095Y-120268333D01*
X96269095Y-120506428D01*
X96316714Y-120696904D01*
X96364333Y-120792142D01*
X96411952Y-120839761D01*
X96507190Y-120887380D01*
X96602428Y-120887380D01*
X96697666Y-120839761D01*
X96745285Y-120792142D01*
X96792904Y-120696904D01*
X96840523Y-120506428D01*
X96840523Y-120268333D01*
X96792904Y-120077857D01*
X96745285Y-119982619D01*
X96697666Y-119935000D01*
X96602428Y-119887380D01*
X97099285Y-69357380D02*
X97099285Y-68357380D01*
X96861190Y-68357380D01*
X96718333Y-68405000D01*
X96623095Y-68500238D01*
X96575476Y-68595476D01*
X96527857Y-68785952D01*
X96527857Y-68928809D01*
X96575476Y-69119285D01*
X96623095Y-69214523D01*
X96718333Y-69309761D01*
X96861190Y-69357380D01*
X97099285Y-69357380D01*
X95575476Y-69357380D02*
X96146904Y-69357380D01*
X95861190Y-69357380D02*
X95861190Y-68357380D01*
X95956428Y-68500238D01*
X96051666Y-68595476D01*
X96146904Y-68643095D01*
X95194523Y-68452619D02*
X95146904Y-68405000D01*
X95051666Y-68357380D01*
X94813571Y-68357380D01*
X94718333Y-68405000D01*
X94670714Y-68452619D01*
X94623095Y-68547857D01*
X94623095Y-68643095D01*
X94670714Y-68785952D01*
X95242142Y-69357380D01*
X94623095Y-69357380D01*
X91449285Y-67457380D02*
X92020714Y-67457380D01*
X91735000Y-67457380D02*
X91735000Y-66457380D01*
X91830238Y-66600238D01*
X91925476Y-66695476D01*
X92020714Y-66743095D01*
X88352380Y-52840095D02*
X88352380Y-53411523D01*
X89352380Y-53125809D02*
X88352380Y-53125809D01*
X89352380Y-53744857D02*
X88352380Y-53744857D01*
X88352380Y-54125809D01*
X88400000Y-54221047D01*
X88447619Y-54268666D01*
X88542857Y-54316285D01*
X88685714Y-54316285D01*
X88780952Y-54268666D01*
X88828571Y-54221047D01*
X88876190Y-54125809D01*
X88876190Y-53744857D01*
X88352380Y-54649619D02*
X88352380Y-55316285D01*
X89352380Y-54887714D01*
D11*
X100750000Y-105775000D02*
X100750000Y-110275000D01*
X98250000Y-111525000D02*
X96750000Y-111525000D01*
X94250000Y-110275000D02*
X94250000Y-105775000D01*
X96750000Y-104525000D02*
X98250000Y-104525000D01*
X94250000Y-127420000D02*
X94250000Y-122920000D01*
X98250000Y-128670000D02*
X96750000Y-128670000D01*
X100750000Y-122920000D02*
X100750000Y-127420000D01*
X96750000Y-121670000D02*
X98250000Y-121670000D01*
D10*
X116260000Y-160305000D02*
X116260000Y-149805000D01*
X107260000Y-149805000D02*
X107260000Y-160305000D01*
X116260000Y-149805000D02*
X107260000Y-149805000D01*
X107260000Y-160305000D02*
X116260000Y-160305000D01*
X112268000Y-154305000D02*
G75*
G03*
X112268000Y-154305000I-508000J0D01*
G01*
X116260000Y-91725000D02*
X116260000Y-81225000D01*
X107260000Y-91725000D02*
X116260000Y-91725000D01*
X107260000Y-81225000D02*
X107260000Y-91725000D01*
X116260000Y-81225000D02*
X107260000Y-81225000D01*
X112268000Y-85725000D02*
G75*
G03*
X112268000Y-85725000I-508000J0D01*
G01*
D11*
X96375000Y-60055000D02*
X100475000Y-60055000D01*
X97125000Y-57855000D02*
X96825000Y-57555000D01*
X96375000Y-58055000D02*
X96375000Y-60055000D01*
X100475000Y-58055000D02*
X96375000Y-58055000D01*
X100475000Y-60055000D02*
X100475000Y-58055000D01*
X96825000Y-57555000D02*
X97425000Y-57555000D01*
X97125000Y-57855000D02*
X97425000Y-57555000D01*
X98250000Y-145815000D02*
X96750000Y-145815000D01*
X96750000Y-138815000D02*
X98250000Y-138815000D01*
X94250000Y-144565000D02*
X94250000Y-140065000D01*
X100750000Y-140065000D02*
X100750000Y-144565000D01*
D10*
X101020000Y-160305000D02*
X101020000Y-149805000D01*
X101020000Y-149805000D02*
X92020000Y-149805000D01*
X92020000Y-160305000D02*
X101020000Y-160305000D01*
X92020000Y-149805000D02*
X92020000Y-160305000D01*
X97028000Y-154305000D02*
G75*
G03*
X97028000Y-154305000I-508000J0D01*
G01*
D11*
X78976000Y-92465000D02*
X78976000Y-87745000D01*
X84636000Y-92465000D02*
X85166000Y-92465000D01*
X78976000Y-83935000D02*
X78976000Y-80875000D01*
X88716000Y-83935000D02*
X88716000Y-80875000D01*
X78976000Y-80875000D02*
X88716000Y-80875000D01*
X87536000Y-92465000D02*
X88716000Y-92465000D01*
X88726000Y-92465000D02*
X88726000Y-87745000D01*
X82186000Y-92465000D02*
X83016000Y-92465000D01*
X78976000Y-92465000D02*
X80466000Y-92465000D01*
X78990000Y-135370000D02*
X78990000Y-132310000D01*
X84650000Y-143900000D02*
X85180000Y-143900000D01*
X82200000Y-143900000D02*
X83030000Y-143900000D01*
X78990000Y-143900000D02*
X80480000Y-143900000D01*
X88740000Y-143900000D02*
X88740000Y-139180000D01*
X88730000Y-135370000D02*
X88730000Y-132310000D01*
X87550000Y-143900000D02*
X88730000Y-143900000D01*
X78990000Y-143900000D02*
X78990000Y-139180000D01*
X78990000Y-132310000D02*
X88730000Y-132310000D01*
D10*
X116260000Y-132660000D02*
X107260000Y-132660000D01*
X107260000Y-143160000D02*
X116260000Y-143160000D01*
X107260000Y-132660000D02*
X107260000Y-143160000D01*
X116260000Y-143160000D02*
X116260000Y-132660000D01*
X112268000Y-137160000D02*
G75*
G03*
X112268000Y-137160000I-508000J0D01*
G01*
X107260000Y-126015000D02*
X116260000Y-126015000D01*
X116260000Y-126015000D02*
X116260000Y-115515000D01*
X116260000Y-115515000D02*
X107260000Y-115515000D01*
X107260000Y-115515000D02*
X107260000Y-126015000D01*
X112268000Y-120015000D02*
G75*
G03*
X112268000Y-120015000I-508000J0D01*
G01*
X116260000Y-108870000D02*
X116260000Y-98370000D01*
X107260000Y-108870000D02*
X116260000Y-108870000D01*
X107260000Y-98370000D02*
X107260000Y-108870000D01*
X116260000Y-98370000D02*
X107260000Y-98370000D01*
X112268000Y-102870000D02*
G75*
G03*
X112268000Y-102870000I-508000J0D01*
G01*
D11*
X78990000Y-98020000D02*
X88730000Y-98020000D01*
X88740000Y-109610000D02*
X88740000Y-104890000D01*
X87550000Y-109610000D02*
X88730000Y-109610000D01*
X78990000Y-101080000D02*
X78990000Y-98020000D01*
X88730000Y-101080000D02*
X88730000Y-98020000D01*
X84650000Y-109610000D02*
X85180000Y-109610000D01*
X82200000Y-109610000D02*
X83030000Y-109610000D01*
X78990000Y-109610000D02*
X78990000Y-104890000D01*
X78990000Y-109610000D02*
X80480000Y-109610000D01*
X95971000Y-84548000D02*
X95971000Y-84392000D01*
X95971000Y-82232000D02*
X95971000Y-82076000D01*
X95971000Y-84547516D02*
G75*
G03*
X99203335Y-84390608I1560000J1235516D01*
G01*
X99203335Y-82233392D02*
G75*
G03*
X95971000Y-82076484I-1672335J-1078608D01*
G01*
X96490039Y-84392000D02*
G75*
G03*
X98572130Y-84391837I1040961J1080000D01*
G01*
X98572130Y-82232163D02*
G75*
G03*
X96490039Y-82232000I-1041130J-1079837D01*
G01*
X78990000Y-115165000D02*
X88730000Y-115165000D01*
X78990000Y-126755000D02*
X80480000Y-126755000D01*
X78990000Y-118225000D02*
X78990000Y-115165000D01*
X88730000Y-118225000D02*
X88730000Y-115165000D01*
X88740000Y-126755000D02*
X88740000Y-122035000D01*
X84650000Y-126755000D02*
X85180000Y-126755000D01*
X87550000Y-126755000D02*
X88730000Y-126755000D01*
X82200000Y-126755000D02*
X83030000Y-126755000D01*
X78990000Y-126755000D02*
X78990000Y-122035000D01*
X98250000Y-94380000D02*
X96750000Y-94380000D01*
X100750000Y-88630000D02*
X100750000Y-93130000D01*
X94250000Y-93130000D02*
X94250000Y-88630000D01*
X96750000Y-87380000D02*
X98250000Y-87380000D01*
D10*
X85780000Y-160305000D02*
X85780000Y-149805000D01*
X76780000Y-160305000D02*
X85780000Y-160305000D01*
X76780000Y-149805000D02*
X76780000Y-160305000D01*
X85780000Y-149805000D02*
X76780000Y-149805000D01*
X81788000Y-154305000D02*
G75*
G03*
X81788000Y-154305000I-508000J0D01*
G01*
D11*
X76770000Y-61530000D02*
X76770000Y-62930000D01*
X78170000Y-61530000D02*
X76770000Y-61530000D01*
X76770000Y-62930000D02*
X78170000Y-62930000D01*
X78170000Y-62930000D02*
X78170000Y-61530000D01*
X91124000Y-52643000D02*
X91124000Y-51243000D01*
X89724000Y-52643000D02*
X91124000Y-52643000D01*
X89724000Y-51243000D02*
X89724000Y-52643000D01*
X91124000Y-51243000D02*
X89724000Y-51243000D01*
X86676000Y-52643000D02*
X88076000Y-52643000D01*
X86676000Y-51243000D02*
X86676000Y-52643000D01*
X88076000Y-51243000D02*
X86676000Y-51243000D01*
X88076000Y-52643000D02*
X88076000Y-51243000D01*
X76770000Y-64581000D02*
X78170000Y-64581000D01*
X78170000Y-64581000D02*
X78170000Y-63181000D01*
X76770000Y-63181000D02*
X76770000Y-64581000D01*
X78170000Y-63181000D02*
X76770000Y-63181000D01*
X76770000Y-58228000D02*
X76770000Y-59628000D01*
X76770000Y-59628000D02*
X78170000Y-59628000D01*
X78170000Y-58228000D02*
X76770000Y-58228000D01*
X78170000Y-59628000D02*
X78170000Y-58228000D01*
X92648000Y-52643000D02*
X92648000Y-51243000D01*
X91248000Y-51243000D02*
X91248000Y-52643000D01*
X91248000Y-52643000D02*
X92648000Y-52643000D01*
X92648000Y-51243000D02*
X91248000Y-51243000D01*
X76770000Y-59879000D02*
X76770000Y-61279000D01*
X78170000Y-59879000D02*
X76770000Y-59879000D01*
X76770000Y-61279000D02*
X78170000Y-61279000D01*
X78170000Y-61279000D02*
X78170000Y-59879000D01*
X95971000Y-101566000D02*
X95971000Y-101410000D01*
X95971000Y-99250000D02*
X95971000Y-99094000D01*
X98572130Y-99250163D02*
G75*
G03*
X96490039Y-99250000I-1041130J-1079837D01*
G01*
X95971000Y-101565516D02*
G75*
G03*
X99203335Y-101408608I1560000J1235516D01*
G01*
X99203335Y-99251392D02*
G75*
G03*
X95971000Y-99094484I-1672335J-1078608D01*
G01*
X96490039Y-101410000D02*
G75*
G03*
X98572130Y-101409837I1040961J1080000D01*
G01*
X95976000Y-133540000D02*
X95976000Y-133384000D01*
X95976000Y-135856000D02*
X95976000Y-135700000D01*
X98577130Y-133540163D02*
G75*
G03*
X96495039Y-133540000I-1041130J-1079837D01*
G01*
X99208335Y-133541392D02*
G75*
G03*
X95976000Y-133384484I-1672335J-1078608D01*
G01*
X95976000Y-135855516D02*
G75*
G03*
X99208335Y-135698608I1560000J1235516D01*
G01*
X96495039Y-135700000D02*
G75*
G03*
X98577130Y-135699837I1040961J1080000D01*
G01*
X95971000Y-118711000D02*
X95971000Y-118555000D01*
X95971000Y-116395000D02*
X95971000Y-116239000D01*
X99203335Y-116396392D02*
G75*
G03*
X95971000Y-116239484I-1672335J-1078608D01*
G01*
X98572130Y-116395163D02*
G75*
G03*
X96490039Y-116395000I-1041130J-1079837D01*
G01*
X95971000Y-118710516D02*
G75*
G03*
X99203335Y-118553608I1560000J1235516D01*
G01*
X96490039Y-118555000D02*
G75*
G03*
X98572130Y-118554837I1040961J1080000D01*
G01*
X92235000Y-68155000D02*
X99535000Y-68155000D01*
X99535000Y-62655000D02*
X99535000Y-63805000D01*
X92235000Y-62655000D02*
X99535000Y-62655000D01*
X88200000Y-51243000D02*
X88200000Y-52643000D01*
X89600000Y-51243000D02*
X88200000Y-51243000D01*
X88200000Y-52643000D02*
X89600000Y-52643000D01*
X89600000Y-52643000D02*
X89600000Y-51243000D01*
M02*
