M48
; DRILL file {KiCad 6.0.4+dfsg-1+b1} date Fri 20 May 2022 09:30:10 AM CEST
; FORMAT={-:-/ absolute / metric / decimal}
; #@! TF.CreationDate,2022-05-20T09:30:10+02:00
; #@! TF.GenerationSoftware,Kicad,Pcbnew,6.0.4+dfsg-1+b1
; #@! TF.FileFunction,Plated,1,2,PTH
FMAT,2
METRIC
; #@! TA.AperFunction,Plated,PTH,ViaDrill
T1C0.200
; #@! TA.AperFunction,Plated,PTH,ViaDrill
T2C0.400
; #@! TA.AperFunction,Plated,PTH,ComponentDrill
T3C0.500
; #@! TA.AperFunction,Plated,PTH,ComponentDrill
T4C0.600
; #@! TA.AperFunction,Plated,PTH,ComponentDrill
T5C0.900
; #@! TA.AperFunction,Plated,PTH,ComponentDrill
T6C1.000
; #@! TA.AperFunction,Plated,PTH,ComponentDrill
T7C1.100
%
G90
G05
T1
X77.089Y-83.693
X77.82Y-90.532
X78.416Y-91.129
X79.375Y-81.407
X79.502Y-91.567
X81.153Y-89.154
X81.915Y-87.757
X83.312Y-94.996
X83.566Y-71.247
X85.09Y-105.537
X85.598Y-90.805
X85.979Y-140.208
X86.182Y-78.486
X86.36Y-61.769
X86.904Y-62.266
X87.072Y-105.537
X87.122Y-95.123
X87.376Y-65.278
X87.376Y-140.208
X87.834Y-68.326
X88.519Y-68.58
X88.9Y-76.962
X89.154Y-68.072
X90.07Y-68.386
X90.805Y-66.802
X90.993Y-88.948
X91.186Y-89.789
X91.313Y-62.694
X91.44Y-91.694
X92.583Y-60.325
X92.787Y-88.323
X93.091Y-79.756
X93.218Y-69.795
X93.345Y-67.945
X93.345Y-90.043
X93.472Y-72.009
X93.726Y-89.027
X93.995Y-69.835
X94.234Y-82.169
X94.488Y-72.009
X94.996Y-69.85
X94.996Y-78.867
X95.377Y-71.957
X95.758Y-61.341
X96.139Y-69.795
X96.139Y-71.957
X99.568Y-63.5
X103.632Y-109.381
X104.775Y-97.409
X106.299Y-91.186
X106.553Y-126.238
X107.823Y-97.409
X108.077Y-152.654
X108.508Y-94.426
X109.855Y-104.267
X109.952Y-138.303
X110.871Y-110.109
X111.76Y-139.7
X111.887Y-105.41
X113.284Y-94.361
T2
X77.724Y-68.199
X77.851Y-158.369
X78.867Y-65.024
X79.248Y-157.251
X80.454Y-82.614
X80.772Y-141.478
X80.899Y-65.405
X81.407Y-80.01
X82.042Y-96.774
X82.162Y-84.658
X82.296Y-134.366
X83.312Y-155.321
X83.947Y-153.797
X84.074Y-82.677
X84.074Y-84.582
X84.201Y-73.787
X84.582Y-76.581
X84.963Y-53.467
X84.963Y-80.01
X85.064Y-156.083
X85.852Y-101.854
X85.852Y-136.017
X86.36Y-82.804
X87.122Y-53.34
X87.63Y-79.883
X87.757Y-82.677
X87.757Y-141.605
X88.824Y-56.357
X89.408Y-150.241
X89.662Y-129.286
X89.662Y-131.318
X90.678Y-67.691
X91.059Y-74.93
X91.067Y-110.403
X91.186Y-156.464
X91.313Y-95.313
X91.317Y-97.793
X91.44Y-82.677
X91.44Y-84.455
X91.44Y-140.589
X91.567Y-79.756
X91.567Y-127.635
X92.456Y-129.286
X92.456Y-131.064
X92.837Y-158.369
X92.964Y-76.581
X92.964Y-78.232
X93.345Y-109.728
X93.98Y-126.365
X94.064Y-73.66
X94.107Y-143.51
X95.497Y-91.053
X95.631Y-140.843
X95.758Y-157.443
X96.774Y-73.533
X96.774Y-64.516
X96.774Y-76.581
X96.774Y-79.883
X97.409Y-56.007
X97.536Y-140.716
X98.298Y-155.956
X99.314Y-154.432
X99.568Y-69.215
X100.203Y-61.976
X100.379Y-156.395
X100.711Y-56.896
X101.473Y-136.525
X101.6Y-131.064
X101.727Y-61.087
X101.727Y-149.606
X102.489Y-108.331
X102.489Y-137.541
X102.538Y-141.688
X105.41Y-108.839
X106.172Y-107.823
X106.426Y-142.367
X108.068Y-99.447
X108.458Y-145.415
X109.512Y-97.117
X110.49Y-95.758
X110.49Y-130.175
X110.998Y-145.415
X116.078Y-155.067
T4
X77.47Y-58.928
X77.47Y-60.579
X77.47Y-62.23
X77.47Y-63.881
X87.376Y-51.943
X88.9Y-51.943
X90.424Y-51.943
X91.948Y-51.943
T5
X96.261Y-83.312
X96.261Y-100.33
X96.261Y-117.475
X96.266Y-134.62
X98.801Y-83.312
X98.801Y-100.33
X98.801Y-117.475
X98.806Y-134.62
T6
X78.105Y-52.705
X78.105Y-55.245
X80.645Y-52.705
X80.645Y-55.245
X81.346Y-93.345
X81.36Y-110.49
X81.36Y-127.635
X81.36Y-144.78
X83.185Y-52.705
X83.185Y-55.245
X83.846Y-93.345
X83.86Y-110.49
X83.86Y-127.635
X83.86Y-144.78
X86.346Y-93.345
X86.36Y-110.49
X86.36Y-127.635
X86.36Y-144.78
X112.395Y-52.705
X112.395Y-55.245
X112.395Y-57.785
X112.395Y-60.325
X112.395Y-62.865
X112.395Y-65.405
X112.395Y-67.945
X112.395Y-70.485
X114.935Y-52.705
X114.935Y-55.245
X114.935Y-57.785
X114.935Y-60.325
X114.935Y-62.865
X114.935Y-65.405
X114.935Y-67.945
X114.935Y-70.485
T7
X95.25Y-87.63
X95.25Y-94.13
X95.25Y-104.775
X95.25Y-111.275
X95.25Y-121.92
X95.25Y-128.42
X95.25Y-139.065
X95.25Y-145.565
X99.75Y-87.63
X99.75Y-94.13
X99.75Y-104.775
X99.75Y-111.275
X99.75Y-121.92
X99.75Y-128.42
X99.75Y-139.065
X99.75Y-145.565
T3
G00X80.78Y-159.225
M15
G01X81.78Y-159.225
M16
G05
G00X96.02Y-159.225
M15
G01X97.02Y-159.225
M16
G05
G00X111.26Y-90.645
M15
G01X112.26Y-90.645
M16
G05
G00X111.26Y-107.79
M15
G01X112.26Y-107.79
M16
G05
G00X111.26Y-124.935
M15
G01X112.26Y-124.935
M16
G05
G00X111.26Y-142.08
M15
G01X112.26Y-142.08
M16
G05
G00X111.26Y-159.225
M15
G01X112.26Y-159.225
M16
G05
T4
G00X80.93Y-148.59
M15
G01X81.63Y-148.59
M16
G05
G00X80.83Y-150.925
M15
G01X81.73Y-150.925
M16
G05
G00X96.17Y-148.59
M15
G01X96.87Y-148.59
M16
G05
G00X96.07Y-150.925
M15
G01X96.97Y-150.925
M16
G05
G00X111.41Y-80.01
M15
G01X112.11Y-80.01
M16
G05
G00X111.31Y-82.345
M15
G01X112.21Y-82.345
M16
G05
G00X111.41Y-97.155
M15
G01X112.11Y-97.155
M16
G05
G00X111.31Y-99.49
M15
G01X112.21Y-99.49
M16
G05
G00X111.41Y-114.3
M15
G01X112.11Y-114.3
M16
G05
G00X111.31Y-116.635
M15
G01X112.21Y-116.635
M16
G05
G00X111.41Y-131.445
M15
G01X112.11Y-131.445
M16
G05
G00X111.31Y-133.78
M15
G01X112.21Y-133.78
M16
G05
G00X111.41Y-148.59
M15
G01X112.11Y-148.59
M16
G05
G00X111.31Y-150.925
M15
G01X112.21Y-150.925
M16
G05
T7
G00X79.046Y-85.345
M15
G01X79.046Y-86.345
M16
G05
G00X79.06Y-102.49
M15
G01X79.06Y-103.49
M16
G05
G00X79.06Y-119.635
M15
G01X79.06Y-120.635
M16
G05
G00X79.06Y-136.78
M15
G01X79.06Y-137.78
M16
G05
G00X88.646Y-85.345
M15
G01X88.646Y-86.345
M16
G05
G00X88.66Y-102.49
M15
G01X88.66Y-103.49
M16
G05
G00X88.66Y-119.635
M15
G01X88.66Y-120.635
M16
G05
G00X88.66Y-136.78
M15
G01X88.66Y-137.78
M16
G05
T0
M30
